M48
; DRILL file {KiCad 9.0.5} date 2026-04-05T14:33:00-0500
; FORMAT={-:-/ absolute / metric / decimal}
; #@! TF.CreationDate,2026-04-05T14:33:00-05:00
; #@! TF.GenerationSoftware,Kicad,Pcbnew,9.0.5
; #@! TF.FileFunction,Plated,1,4,PTH
FMAT,2
METRIC
; #@! TA.AperFunction,Plated,PTH,ViaDrill
T1C0.300
; #@! TA.AperFunction,Plated,PTH,ComponentDrill
T2C0.500
; #@! TA.AperFunction,Plated,PTH,ComponentDrill
T3C0.600
; #@! TA.AperFunction,Plated,PTH,ComponentDrill
T4C1.200
; #@! TA.AperFunction,Plated,PTH,ComponentDrill
T5C4.300
%
G90
G05
T1
X125.787Y-95.0
X125.8Y-90.5
X127.35Y-103.0
X128.8Y-105.6
X130.45Y-98.65
X131.2Y-100.8
X132.324Y-105.408
X133.0Y-94.9
X133.0Y-96.4
X133.8Y-100.5
X133.8Y-110.1
X133.834Y-104.608
X134.497Y-98.905
X134.6Y-109.4
X135.9Y-94.7
X136.882Y-113.408
X137.0Y-96.3
X137.706Y-111.648
X138.9Y-94.6
X139.8Y-111.1
X144.6Y-93.8
X144.6Y-100.6
X144.736Y-113.169
X147.55Y-76.35
X147.679Y-112.381
X147.7Y-111.4
X147.8Y-97.4
X149.8Y-98.3
X150.1Y-76.35
X151.35Y-76.35
X151.375Y-99.017
X152.332Y-100.506
X152.65Y-76.4
X152.8Y-119.1
X152.815Y-121.903
X152.927Y-90.826
X153.959Y-116.093
X154.002Y-114.887
X154.93Y-107.58
X155.249Y-121.903
X155.255Y-119.092
X155.8Y-108.4
X156.055Y-119.092
X156.06Y-121.915
X157.053Y-114.899
X157.078Y-116.092
X158.497Y-121.921
X158.5Y-119.1
X160.1Y-80.3
X160.2Y-78.5
X163.392Y-104.953
X163.405Y-104.239
X163.405Y-105.68
X163.49Y-114.577
X163.5Y-109.45
X163.502Y-115.401
X163.502Y-116.224
X163.968Y-112.972
X163.986Y-111.882
X167.1Y-108.5
X167.1Y-109.5
X167.498Y-105.075
X167.5Y-91.65
X167.5Y-105.8
X170.1Y-91.2
X170.1Y-92.1
X170.9Y-91.2
X170.9Y-92.1
T2
X139.15Y-80.7
X139.15Y-121.3
X140.4Y-80.7
X140.4Y-121.3
X141.65Y-80.7
X141.65Y-121.3
X142.9Y-80.7
X142.9Y-121.3
T3
X123.05Y-81.0
X123.05Y-121.0
X123.995Y-78.72
X123.995Y-83.28
X123.995Y-118.72
X123.995Y-123.28
X126.275Y-77.775
X126.275Y-84.225
X126.275Y-117.775
X126.275Y-124.225
X128.555Y-78.72
X128.555Y-83.28
X128.555Y-118.72
X128.555Y-123.28
X129.5Y-81.0
X129.5Y-121.0
X168.05Y-81.0
X168.05Y-121.0
X168.995Y-78.72
X168.995Y-83.28
X168.995Y-118.72
X168.995Y-123.28
X171.275Y-77.775
X171.275Y-84.225
X171.275Y-117.775
X171.275Y-124.225
X173.555Y-78.72
X173.555Y-83.28
X173.555Y-118.72
X173.555Y-123.28
X174.5Y-81.0
X174.5Y-121.0
T4
X171.442Y-103.75
X171.442Y-107.25
T5
X126.275Y-81.0
X126.275Y-121.0
X171.275Y-81.0
X171.275Y-121.0
M30
