%TF.GenerationSoftware,KiCad,Pcbnew,9.0.5*%
%TF.CreationDate,2026-04-05T14:36:21-05:00*%
%TF.ProjectId,STM32F4_Starter_Board,53544d33-3246-4345-9f53-746172746572,rev?*%
%TF.SameCoordinates,Original*%
%TF.FileFunction,Copper,L2,Inr*%
%TF.FilePolarity,Positive*%
%FSLAX46Y46*%
G04 Gerber Fmt 4.6, Leading zero omitted, Abs format (unit mm)*
G04 Created by KiCad (PCBNEW 9.0.5) date 2026-04-05 14:36:21*
%MOMM*%
%LPD*%
G01*
G04 APERTURE LIST*
G04 Aperture macros list*
%AMRoundRect*
0 Rectangle with rounded corners*
0 $1 Rounding radius*
0 $2 $3 $4 $5 $6 $7 $8 $9 X,Y pos of 4 corners*
0 Add a 4 corners polygon primitive as box body*
4,1,4,$2,$3,$4,$5,$6,$7,$8,$9,$2,$3,0*
0 Add four circle primitives for the rounded corners*
1,1,$1+$1,$2,$3*
1,1,$1+$1,$4,$5*
1,1,$1+$1,$6,$7*
1,1,$1+$1,$8,$9*
0 Add four rect primitives between the rounded corners*
20,1,$1+$1,$2,$3,$4,$5,0*
20,1,$1+$1,$4,$5,$6,$7,0*
20,1,$1+$1,$6,$7,$8,$9,0*
20,1,$1+$1,$8,$9,$2,$3,0*%
G04 Aperture macros list end*
%TA.AperFunction,ComponentPad*%
%ADD10C,0.900000*%
%TD*%
%TA.AperFunction,ComponentPad*%
%ADD11C,8.600000*%
%TD*%
%TA.AperFunction,ComponentPad*%
%ADD12RoundRect,0.200000X-0.200000X-0.450000X0.200000X-0.450000X0.200000X0.450000X-0.200000X0.450000X0*%
%TD*%
%TA.AperFunction,ComponentPad*%
%ADD13O,0.800000X1.300000*%
%TD*%
%TA.AperFunction,ComponentPad*%
%ADD14RoundRect,0.250001X0.949999X-0.949999X0.949999X0.949999X-0.949999X0.949999X-0.949999X-0.949999X0*%
%TD*%
%TA.AperFunction,ComponentPad*%
%ADD15C,2.400000*%
%TD*%
%TA.AperFunction,ComponentPad*%
%ADD16RoundRect,0.200000X0.200000X0.450000X-0.200000X0.450000X-0.200000X-0.450000X0.200000X-0.450000X0*%
%TD*%
%TA.AperFunction,ViaPad*%
%ADD17C,0.600000*%
%TD*%
G04 APERTURE END LIST*
D10*
%TO.N,GND*%
%TO.C,H4*%
X123050000Y-81000000D03*
X123994581Y-78719581D03*
X123994581Y-83280419D03*
X126275000Y-77775000D03*
D11*
X126275000Y-81000000D03*
D10*
X126275000Y-84225000D03*
X128555419Y-78719581D03*
X128555419Y-83280419D03*
X129500000Y-81000000D03*
%TD*%
%TO.N,GND*%
%TO.C,H3*%
X168050000Y-81000000D03*
X168994581Y-78719581D03*
X168994581Y-83280419D03*
X171275000Y-77775000D03*
D11*
X171275000Y-81000000D03*
D10*
X171275000Y-84225000D03*
X173555419Y-78719581D03*
X173555419Y-83280419D03*
X174500000Y-81000000D03*
%TD*%
D12*
%TO.N,+3.3V*%
%TO.C,J4*%
X139150000Y-121300000D03*
D13*
%TO.N,Net-(J4-Pin_2)*%
X140400000Y-121300000D03*
%TO.N,Net-(J4-Pin_3)*%
X141650000Y-121300000D03*
%TO.N,GND*%
X142900000Y-121300000D03*
%TD*%
D14*
%TO.N,+12V*%
%TO.C,J1*%
X171442500Y-107250000D03*
D15*
%TO.N,GND*%
X171442500Y-103750000D03*
%TD*%
D10*
%TO.N,GND*%
%TO.C,H2*%
X168050000Y-121000000D03*
X168994581Y-118719581D03*
X168994581Y-123280419D03*
X171275000Y-117775000D03*
D11*
X171275000Y-121000000D03*
D10*
X171275000Y-124225000D03*
X173555419Y-118719581D03*
X173555419Y-123280419D03*
X174500000Y-121000000D03*
%TD*%
D16*
%TO.N,+3.3V*%
%TO.C,J3*%
X142900000Y-80700000D03*
D13*
%TO.N,Net-(J3-Pin_2)*%
X141650000Y-80700000D03*
%TO.N,Net-(J3-Pin_3)*%
X140400000Y-80700000D03*
%TO.N,GND*%
X139150000Y-80700000D03*
%TD*%
D10*
%TO.N,GND*%
%TO.C,H1*%
X123050000Y-121000000D03*
X123994581Y-118719581D03*
X123994581Y-123280419D03*
X126275000Y-117775000D03*
D11*
X126275000Y-121000000D03*
D10*
X126275000Y-124225000D03*
X128555419Y-118719581D03*
X128555419Y-123280419D03*
X129500000Y-121000000D03*
%TD*%
D17*
%TO.N,+3.3V*%
X152650000Y-76400000D03*
%TO.N,GND*%
X147550000Y-76350000D03*
X150100000Y-76350000D03*
X151350000Y-76350000D03*
X132324407Y-105407524D03*
X136882018Y-113407886D03*
X133000000Y-94900000D03*
X127350000Y-103000000D03*
X160100000Y-80300000D03*
X163392482Y-104953400D03*
X163404592Y-105680003D03*
X163967903Y-112972292D03*
X147679073Y-112381476D03*
X131200000Y-100800000D03*
X163489905Y-114577252D03*
X130450000Y-98650000D03*
X167500000Y-105800000D03*
X163404592Y-104238907D03*
X125787153Y-95000368D03*
X155800000Y-108400000D03*
X135900000Y-94700000D03*
X152814861Y-121903119D03*
X128800000Y-105600000D03*
X152331544Y-100506413D03*
X170900000Y-92100000D03*
X163986068Y-111882387D03*
X133834127Y-104608260D03*
X163502015Y-116224220D03*
X170100000Y-92100000D03*
X154929722Y-107579635D03*
X144736330Y-113168630D03*
X163500000Y-109450000D03*
X158496880Y-121921468D03*
X137705502Y-111647891D03*
X134496880Y-98904525D03*
X167500000Y-91650000D03*
X156060356Y-121915229D03*
X167497791Y-105074501D03*
X163502015Y-115400736D03*
X170100000Y-91200000D03*
X151374849Y-99016876D03*
X152927339Y-90825505D03*
X155248982Y-121903119D03*
X170900000Y-91200000D03*
%TO.N,+3.3V*%
X154001874Y-114886892D03*
X147700000Y-111400000D03*
X125800000Y-90500000D03*
X134600000Y-109400000D03*
X133000000Y-96400000D03*
X167100000Y-109500000D03*
X139800000Y-111100000D03*
X149800000Y-98300000D03*
X160200000Y-78500000D03*
X157052626Y-114898594D03*
X157078471Y-116092355D03*
X155254679Y-119092355D03*
X153958816Y-116092515D03*
X138900000Y-94600000D03*
X156055415Y-119091745D03*
X133800000Y-100500000D03*
X144600000Y-93800000D03*
X167100000Y-108500000D03*
X133800000Y-110100000D03*
X152800000Y-119100000D03*
X158500000Y-119100000D03*
X137000000Y-96300000D03*
%TO.N,NRST*%
X147800000Y-97400000D03*
X144600000Y-100600000D03*
%TD*%
%TA.AperFunction,Conductor*%
%TO.N,GND*%
G36*
X151830484Y-76020185D02*
G01*
X151876239Y-76072989D01*
X151886183Y-76142147D01*
X151881159Y-76160411D01*
X151882031Y-76160676D01*
X151880261Y-76166510D01*
X151849500Y-76321153D01*
X151849500Y-76478846D01*
X151880261Y-76633489D01*
X151880264Y-76633501D01*
X151940602Y-76779172D01*
X151940609Y-76779185D01*
X152028210Y-76910288D01*
X152028213Y-76910292D01*
X152139707Y-77021786D01*
X152139711Y-77021789D01*
X152270814Y-77109390D01*
X152270827Y-77109397D01*
X152416498Y-77169735D01*
X152416503Y-77169737D01*
X152571153Y-77200499D01*
X152571156Y-77200500D01*
X152571158Y-77200500D01*
X152728844Y-77200500D01*
X152728845Y-77200499D01*
X152883497Y-77169737D01*
X153029179Y-77109394D01*
X153160289Y-77021789D01*
X153271789Y-76910289D01*
X153359394Y-76779179D01*
X153419737Y-76633497D01*
X153450500Y-76478842D01*
X153450500Y-76321158D01*
X153450500Y-76321155D01*
X153450499Y-76321153D01*
X153419738Y-76166510D01*
X153419737Y-76166503D01*
X153419732Y-76166492D01*
X153417969Y-76160676D01*
X153420720Y-76159841D01*
X153414497Y-76102641D01*
X153445691Y-76040122D01*
X153505734Y-76004392D01*
X153536555Y-76000500D01*
X171209108Y-76000500D01*
X171272439Y-76000500D01*
X171277562Y-76000605D01*
X171682746Y-76017364D01*
X171692919Y-76018207D01*
X172092817Y-76068054D01*
X172102901Y-76069737D01*
X172497294Y-76152432D01*
X172507208Y-76154942D01*
X172893436Y-76269928D01*
X172903104Y-76273247D01*
X173278502Y-76419728D01*
X173287887Y-76423845D01*
X173649880Y-76600813D01*
X173658894Y-76605690D01*
X174005070Y-76811966D01*
X174013638Y-76817564D01*
X174341593Y-77051719D01*
X174349668Y-77058005D01*
X174614446Y-77282260D01*
X174657155Y-77318433D01*
X174664695Y-77325374D01*
X174949625Y-77610304D01*
X174956566Y-77617844D01*
X175177084Y-77878210D01*
X175216989Y-77925325D01*
X175223284Y-77933412D01*
X175457431Y-78261355D01*
X175463037Y-78269935D01*
X175669309Y-78616105D01*
X175674186Y-78625119D01*
X175851154Y-78987112D01*
X175855271Y-78996497D01*
X176001747Y-79371883D01*
X176005075Y-79381576D01*
X176120053Y-79767778D01*
X176122569Y-79777714D01*
X176205260Y-80172089D01*
X176206947Y-80182197D01*
X176256790Y-80582059D01*
X176257636Y-80592273D01*
X176274394Y-80997437D01*
X176274500Y-81002561D01*
X176274500Y-120997438D01*
X176274394Y-121002562D01*
X176257636Y-121407726D01*
X176256790Y-121417940D01*
X176206947Y-121817802D01*
X176205260Y-121827910D01*
X176122569Y-122222285D01*
X176120053Y-122232221D01*
X176005075Y-122618423D01*
X176001747Y-122628116D01*
X175855271Y-123003502D01*
X175851154Y-123012887D01*
X175674186Y-123374880D01*
X175669309Y-123383894D01*
X175463037Y-123730064D01*
X175457431Y-123738644D01*
X175223284Y-124066587D01*
X175216989Y-124074674D01*
X174956566Y-124382155D01*
X174949625Y-124389695D01*
X174664695Y-124674625D01*
X174657155Y-124681566D01*
X174349674Y-124941989D01*
X174341587Y-124948284D01*
X174013644Y-125182431D01*
X174005064Y-125188037D01*
X173658894Y-125394309D01*
X173649880Y-125399186D01*
X173287887Y-125576154D01*
X173278502Y-125580271D01*
X172903116Y-125726747D01*
X172893423Y-125730075D01*
X172507221Y-125845053D01*
X172497285Y-125847569D01*
X172102910Y-125930260D01*
X172092802Y-125931947D01*
X171692940Y-125981790D01*
X171682726Y-125982636D01*
X171277563Y-125999394D01*
X171272439Y-125999500D01*
X126277561Y-125999500D01*
X126272437Y-125999394D01*
X125867273Y-125982636D01*
X125857059Y-125981790D01*
X125457197Y-125931947D01*
X125447089Y-125930260D01*
X125052714Y-125847569D01*
X125042778Y-125845053D01*
X124656576Y-125730075D01*
X124646883Y-125726747D01*
X124271497Y-125580271D01*
X124262112Y-125576154D01*
X123900119Y-125399186D01*
X123891105Y-125394309D01*
X123544935Y-125188037D01*
X123536355Y-125182431D01*
X123208412Y-124948284D01*
X123200325Y-124941989D01*
X122892844Y-124681566D01*
X122885304Y-124674625D01*
X122600374Y-124389695D01*
X122593433Y-124382155D01*
X122333010Y-124074674D01*
X122326715Y-124066587D01*
X122092568Y-123738644D01*
X122086962Y-123730064D01*
X121880690Y-123383894D01*
X121875813Y-123374880D01*
X121698845Y-123012887D01*
X121694728Y-123003502D01*
X121549001Y-122630035D01*
X121548247Y-122628104D01*
X121544928Y-122618436D01*
X121429942Y-122232208D01*
X121427430Y-122222285D01*
X121406829Y-122124035D01*
X121344737Y-121827901D01*
X121343054Y-121817817D01*
X121293207Y-121417919D01*
X121292364Y-121407746D01*
X121280268Y-121115272D01*
X131697500Y-121115272D01*
X131697500Y-121284727D01*
X131724007Y-121452082D01*
X131776366Y-121613230D01*
X131776367Y-121613233D01*
X131821237Y-121701294D01*
X131853294Y-121764209D01*
X131952892Y-121901293D01*
X132072707Y-122021108D01*
X132209791Y-122120706D01*
X132216325Y-122124035D01*
X132360766Y-122197632D01*
X132360769Y-122197633D01*
X132436642Y-122222285D01*
X132521919Y-122249993D01*
X132599429Y-122262269D01*
X132689273Y-122276500D01*
X132689278Y-122276500D01*
X132858727Y-122276500D01*
X132939858Y-122263649D01*
X133026081Y-122249993D01*
X133187233Y-122197632D01*
X133338209Y-122120706D01*
X133475293Y-122021108D01*
X133595108Y-121901293D01*
X133694706Y-121764209D01*
X133771632Y-121613233D01*
X133823993Y-121452081D01*
X133840204Y-121349728D01*
X133850500Y-121284727D01*
X133850500Y-121115272D01*
X133823993Y-120947918D01*
X133785319Y-120828892D01*
X133785318Y-120828890D01*
X133773783Y-120793386D01*
X138249500Y-120793386D01*
X138249500Y-121806613D01*
X138255913Y-121877192D01*
X138255913Y-121877194D01*
X138255914Y-121877196D01*
X138293443Y-121997632D01*
X138306522Y-122039606D01*
X138394530Y-122185188D01*
X138514811Y-122305469D01*
X138514813Y-122305470D01*
X138514815Y-122305472D01*
X138660394Y-122393478D01*
X138822804Y-122444086D01*
X138893384Y-122450500D01*
X138893387Y-122450500D01*
X139406613Y-122450500D01*
X139406616Y-122450500D01*
X139477196Y-122444086D01*
X139639606Y-122393478D01*
X139783125Y-122306717D01*
X139850676Y-122288882D01*
X139916162Y-122309733D01*
X139973450Y-122348011D01*
X139973457Y-122348015D01*
X140082707Y-122393267D01*
X140137334Y-122415894D01*
X140137336Y-122415894D01*
X140137341Y-122415896D01*
X140311304Y-122450499D01*
X140311307Y-122450500D01*
X140311309Y-122450500D01*
X140488693Y-122450500D01*
X140488694Y-122450499D01*
X140546682Y-122438964D01*
X140662658Y-122415896D01*
X140662661Y-122415894D01*
X140662666Y-122415894D01*
X140826547Y-122348013D01*
X140956109Y-122261442D01*
X141022786Y-122240564D01*
X141090166Y-122259048D01*
X141093891Y-122261442D01*
X141223446Y-122348008D01*
X141223453Y-122348013D01*
X141223455Y-122348014D01*
X141223459Y-122348016D01*
X141333214Y-122393477D01*
X141387334Y-122415894D01*
X141387336Y-122415894D01*
X141387341Y-122415896D01*
X141561304Y-122450499D01*
X141561307Y-122450500D01*
X141561309Y-122450500D01*
X141738693Y-122450500D01*
X141738694Y-122450499D01*
X141796682Y-122438964D01*
X141912658Y-122415896D01*
X141912661Y-122415894D01*
X141912666Y-122415894D01*
X142076547Y-122348013D01*
X142076552Y-122348009D01*
X142076555Y-122348008D01*
X142183573Y-122276500D01*
X142206558Y-122261141D01*
X142273234Y-122240263D01*
X142340615Y-122258747D01*
X142344340Y-122261141D01*
X142473683Y-122347566D01*
X142473693Y-122347571D01*
X142637476Y-122415412D01*
X142637483Y-122415415D01*
X142650000Y-122417904D01*
X142650000Y-122417903D01*
X143150000Y-122417903D01*
X143162516Y-122415415D01*
X143162523Y-122415412D01*
X143326306Y-122347571D01*
X143326316Y-122347566D01*
X143473716Y-122249076D01*
X143473720Y-122249073D01*
X143599073Y-122123720D01*
X143599076Y-122123716D01*
X143697566Y-121976316D01*
X143697571Y-121976307D01*
X143765413Y-121812520D01*
X143765415Y-121812512D01*
X143799999Y-121638646D01*
X143800000Y-121638643D01*
X143800000Y-121550000D01*
X143150000Y-121550000D01*
X143150000Y-122417903D01*
X142650000Y-122417903D01*
X142650000Y-121349728D01*
X142688060Y-121441614D01*
X142758386Y-121511940D01*
X142850272Y-121550000D01*
X142949728Y-121550000D01*
X143041614Y-121511940D01*
X143111940Y-121441614D01*
X143150000Y-121349728D01*
X143150000Y-121250272D01*
X143111940Y-121158386D01*
X143041614Y-121088060D01*
X142949728Y-121050000D01*
X143150000Y-121050000D01*
X143800000Y-121050000D01*
X143800000Y-120961357D01*
X143794677Y-120934599D01*
X143794676Y-120934597D01*
X143790832Y-120915272D01*
X163973500Y-120915272D01*
X163973500Y-121084727D01*
X164000007Y-121252082D01*
X164052366Y-121413230D01*
X164052367Y-121413233D01*
X164122054Y-121550000D01*
X164129294Y-121564209D01*
X164228892Y-121701293D01*
X164348707Y-121821108D01*
X164485791Y-121920706D01*
X164559840Y-121958435D01*
X164636766Y-121997632D01*
X164636769Y-121997633D01*
X164709013Y-122021106D01*
X164797919Y-122049993D01*
X164875429Y-122062269D01*
X164965273Y-122076500D01*
X164965278Y-122076500D01*
X165134727Y-122076500D01*
X165215858Y-122063649D01*
X165302081Y-122049993D01*
X165463233Y-121997632D01*
X165614209Y-121920706D01*
X165751293Y-121821108D01*
X165871108Y-121701293D01*
X165970706Y-121564209D01*
X166047632Y-121413233D01*
X166099993Y-121252081D01*
X166121621Y-121115530D01*
X166126500Y-121084727D01*
X166126500Y-120915272D01*
X166107194Y-120793384D01*
X166099993Y-120747919D01*
X166063561Y-120635791D01*
X166047633Y-120586769D01*
X166047632Y-120586766D01*
X166002762Y-120498705D01*
X165970706Y-120435791D01*
X165871108Y-120298707D01*
X165751293Y-120178892D01*
X165614209Y-120079294D01*
X165463233Y-120002367D01*
X165463230Y-120002366D01*
X165302082Y-119950007D01*
X165134727Y-119923500D01*
X165134722Y-119923500D01*
X164965278Y-119923500D01*
X164965273Y-119923500D01*
X164797917Y-119950007D01*
X164636769Y-120002366D01*
X164636766Y-120002367D01*
X164485790Y-120079294D01*
X164348705Y-120178893D01*
X164228893Y-120298705D01*
X164129294Y-120435790D01*
X164052367Y-120586766D01*
X164052366Y-120586769D01*
X164000007Y-120747917D01*
X163973500Y-120915272D01*
X143790832Y-120915272D01*
X143765413Y-120787478D01*
X143697571Y-120623692D01*
X143697566Y-120623683D01*
X143599076Y-120476283D01*
X143599073Y-120476279D01*
X143473720Y-120350926D01*
X143473716Y-120350923D01*
X143326316Y-120252433D01*
X143326307Y-120252428D01*
X143162519Y-120184585D01*
X143150000Y-120182094D01*
X143150000Y-121050000D01*
X142949728Y-121050000D01*
X142850272Y-121050000D01*
X142758386Y-121088060D01*
X142688060Y-121158386D01*
X142650000Y-121250272D01*
X142650000Y-120182095D01*
X142649999Y-120182094D01*
X142637480Y-120184585D01*
X142473692Y-120252428D01*
X142473683Y-120252433D01*
X142344340Y-120338858D01*
X142277662Y-120359736D01*
X142210282Y-120341251D01*
X142206558Y-120338858D01*
X142076552Y-120251990D01*
X142076540Y-120251983D01*
X141912667Y-120184106D01*
X141912658Y-120184103D01*
X141738694Y-120149500D01*
X141738691Y-120149500D01*
X141561309Y-120149500D01*
X141561306Y-120149500D01*
X141387341Y-120184103D01*
X141387332Y-120184106D01*
X141223459Y-120251983D01*
X141223446Y-120251990D01*
X141093891Y-120338557D01*
X141027213Y-120359435D01*
X140959833Y-120340950D01*
X140956109Y-120338557D01*
X140826553Y-120251990D01*
X140826540Y-120251983D01*
X140662667Y-120184106D01*
X140662658Y-120184103D01*
X140488694Y-120149500D01*
X140488691Y-120149500D01*
X140311309Y-120149500D01*
X140311306Y-120149500D01*
X140137341Y-120184103D01*
X140137332Y-120184106D01*
X139973460Y-120251983D01*
X139973449Y-120251989D01*
X139916162Y-120290267D01*
X139849484Y-120311144D01*
X139783122Y-120293281D01*
X139639606Y-120206522D01*
X139561212Y-120182094D01*
X139477196Y-120155914D01*
X139477194Y-120155913D01*
X139477192Y-120155913D01*
X139427778Y-120151423D01*
X139406616Y-120149500D01*
X138893384Y-120149500D01*
X138874145Y-120151248D01*
X138822807Y-120155913D01*
X138660393Y-120206522D01*
X138514811Y-120294530D01*
X138394530Y-120414811D01*
X138306522Y-120560393D01*
X138255913Y-120722807D01*
X138250782Y-120779275D01*
X138250102Y-120786766D01*
X138249500Y-120793386D01*
X133773783Y-120793386D01*
X133771634Y-120786772D01*
X133771632Y-120786766D01*
X133694705Y-120635790D01*
X133595108Y-120498707D01*
X133475293Y-120378892D01*
X133338209Y-120279294D01*
X133187233Y-120202367D01*
X133187230Y-120202366D01*
X133026082Y-120150007D01*
X132858727Y-120123500D01*
X132858722Y-120123500D01*
X132689278Y-120123500D01*
X132689273Y-120123500D01*
X132521917Y-120150007D01*
X132360769Y-120202366D01*
X132360766Y-120202367D01*
X132209790Y-120279294D01*
X132072705Y-120378893D01*
X131952893Y-120498705D01*
X131853294Y-120635790D01*
X131776367Y-120786766D01*
X131776366Y-120786769D01*
X131724007Y-120947917D01*
X131697500Y-121115272D01*
X121280268Y-121115272D01*
X121275606Y-121002562D01*
X121275500Y-120997438D01*
X121275500Y-119021153D01*
X151999500Y-119021153D01*
X151999500Y-119178846D01*
X152030261Y-119333489D01*
X152030264Y-119333501D01*
X152090602Y-119479172D01*
X152090609Y-119479185D01*
X152178210Y-119610288D01*
X152178213Y-119610292D01*
X152289707Y-119721786D01*
X152289711Y-119721789D01*
X152420814Y-119809390D01*
X152420827Y-119809397D01*
X152566498Y-119869735D01*
X152566503Y-119869737D01*
X152721153Y-119900499D01*
X152721156Y-119900500D01*
X152721158Y-119900500D01*
X152878844Y-119900500D01*
X152878845Y-119900499D01*
X153033497Y-119869737D01*
X153179179Y-119809394D01*
X153310289Y-119721789D01*
X153421789Y-119610289D01*
X153509394Y-119479179D01*
X153569737Y-119333497D01*
X153600500Y-119178842D01*
X153600500Y-119021158D01*
X153598978Y-119013508D01*
X154454179Y-119013508D01*
X154454179Y-119171201D01*
X154484940Y-119325844D01*
X154484943Y-119325856D01*
X154545281Y-119471527D01*
X154545288Y-119471540D01*
X154632889Y-119602643D01*
X154632892Y-119602647D01*
X154744386Y-119714141D01*
X154744390Y-119714144D01*
X154875493Y-119801745D01*
X154875506Y-119801752D01*
X155019704Y-119861480D01*
X155021182Y-119862092D01*
X155172765Y-119892244D01*
X155175832Y-119892854D01*
X155175835Y-119892855D01*
X155175837Y-119892855D01*
X155333523Y-119892855D01*
X155333524Y-119892854D01*
X155488176Y-119862092D01*
X155608333Y-119812321D01*
X155677798Y-119804853D01*
X155703232Y-119812321D01*
X155821918Y-119861482D01*
X155976568Y-119892244D01*
X155976571Y-119892245D01*
X155976573Y-119892245D01*
X156134259Y-119892245D01*
X156134260Y-119892244D01*
X156288912Y-119861482D01*
X156433114Y-119801752D01*
X156434587Y-119801142D01*
X156434587Y-119801141D01*
X156434594Y-119801139D01*
X156565704Y-119713534D01*
X156677204Y-119602034D01*
X156764809Y-119470924D01*
X156825152Y-119325242D01*
X156855915Y-119170587D01*
X156855915Y-119021153D01*
X157699500Y-119021153D01*
X157699500Y-119178846D01*
X157730261Y-119333489D01*
X157730264Y-119333501D01*
X157790602Y-119479172D01*
X157790609Y-119479185D01*
X157878210Y-119610288D01*
X157878213Y-119610292D01*
X157989707Y-119721786D01*
X157989711Y-119721789D01*
X158120814Y-119809390D01*
X158120827Y-119809397D01*
X158266498Y-119869735D01*
X158266503Y-119869737D01*
X158421153Y-119900499D01*
X158421156Y-119900500D01*
X158421158Y-119900500D01*
X158578844Y-119900500D01*
X158578845Y-119900499D01*
X158733497Y-119869737D01*
X158879179Y-119809394D01*
X159010289Y-119721789D01*
X159121789Y-119610289D01*
X159209394Y-119479179D01*
X159269737Y-119333497D01*
X159300500Y-119178842D01*
X159300500Y-119021158D01*
X159300500Y-119021155D01*
X159300499Y-119021153D01*
X159269738Y-118866510D01*
X159269737Y-118866503D01*
X159266316Y-118858243D01*
X159209397Y-118720827D01*
X159209390Y-118720814D01*
X159121789Y-118589711D01*
X159121786Y-118589707D01*
X159010292Y-118478213D01*
X159010288Y-118478210D01*
X158879185Y-118390609D01*
X158879172Y-118390602D01*
X158733501Y-118330264D01*
X158733489Y-118330261D01*
X158578845Y-118299500D01*
X158578842Y-118299500D01*
X158421158Y-118299500D01*
X158421155Y-118299500D01*
X158266510Y-118330261D01*
X158266498Y-118330264D01*
X158120827Y-118390602D01*
X158120814Y-118390609D01*
X157989711Y-118478210D01*
X157989707Y-118478213D01*
X157878213Y-118589707D01*
X157878210Y-118589711D01*
X157790609Y-118720814D01*
X157790602Y-118720827D01*
X157730264Y-118866498D01*
X157730261Y-118866510D01*
X157699500Y-119021153D01*
X156855915Y-119021153D01*
X156855915Y-119012903D01*
X156855915Y-119012900D01*
X156855914Y-119012898D01*
X156826793Y-118866498D01*
X156825152Y-118858248D01*
X156768231Y-118720827D01*
X156764812Y-118712572D01*
X156764805Y-118712559D01*
X156677204Y-118581456D01*
X156677201Y-118581452D01*
X156565707Y-118469958D01*
X156565703Y-118469955D01*
X156434600Y-118382354D01*
X156434587Y-118382347D01*
X156288916Y-118322009D01*
X156288904Y-118322006D01*
X156134260Y-118291245D01*
X156134257Y-118291245D01*
X155976573Y-118291245D01*
X155976570Y-118291245D01*
X155821925Y-118322006D01*
X155821913Y-118322009D01*
X155701763Y-118371777D01*
X155632294Y-118379246D01*
X155606859Y-118371777D01*
X155488180Y-118322619D01*
X155488168Y-118322616D01*
X155333524Y-118291855D01*
X155333521Y-118291855D01*
X155175837Y-118291855D01*
X155175834Y-118291855D01*
X155021189Y-118322616D01*
X155021177Y-118322619D01*
X154875506Y-118382957D01*
X154875493Y-118382964D01*
X154744390Y-118470565D01*
X154744386Y-118470568D01*
X154632892Y-118582062D01*
X154632889Y-118582066D01*
X154545288Y-118713169D01*
X154545281Y-118713182D01*
X154484943Y-118858853D01*
X154484940Y-118858865D01*
X154454179Y-119013508D01*
X153598978Y-119013508D01*
X153569737Y-118866503D01*
X153566316Y-118858243D01*
X153509397Y-118720827D01*
X153509390Y-118720814D01*
X153421789Y-118589711D01*
X153421786Y-118589707D01*
X153310292Y-118478213D01*
X153310288Y-118478210D01*
X153179185Y-118390609D01*
X153179172Y-118390602D01*
X153033501Y-118330264D01*
X153033489Y-118330261D01*
X152878845Y-118299500D01*
X152878842Y-118299500D01*
X152721158Y-118299500D01*
X152721155Y-118299500D01*
X152566510Y-118330261D01*
X152566498Y-118330264D01*
X152420827Y-118390602D01*
X152420814Y-118390609D01*
X152289711Y-118478210D01*
X152289707Y-118478213D01*
X152178213Y-118589707D01*
X152178210Y-118589711D01*
X152090609Y-118720814D01*
X152090602Y-118720827D01*
X152030264Y-118866498D01*
X152030261Y-118866510D01*
X151999500Y-119021153D01*
X121275500Y-119021153D01*
X121275500Y-116013668D01*
X153158316Y-116013668D01*
X153158316Y-116171361D01*
X153189077Y-116326004D01*
X153189080Y-116326016D01*
X153249418Y-116471687D01*
X153249425Y-116471700D01*
X153337026Y-116602803D01*
X153337029Y-116602807D01*
X153448523Y-116714301D01*
X153448527Y-116714304D01*
X153579630Y-116801905D01*
X153579643Y-116801912D01*
X153724928Y-116862090D01*
X153725319Y-116862252D01*
X153879165Y-116892854D01*
X153879969Y-116893014D01*
X153879972Y-116893015D01*
X153879974Y-116893015D01*
X154037660Y-116893015D01*
X154037661Y-116893014D01*
X154192313Y-116862252D01*
X154337995Y-116801909D01*
X154469105Y-116714304D01*
X154580605Y-116602804D01*
X154668210Y-116471694D01*
X154728553Y-116326012D01*
X154759316Y-116171357D01*
X154759316Y-116013673D01*
X154759316Y-116013670D01*
X154759315Y-116013668D01*
X154728554Y-115859025D01*
X154728553Y-115859018D01*
X154728485Y-115858853D01*
X154668213Y-115713342D01*
X154668211Y-115713338D01*
X154668210Y-115713336D01*
X154580605Y-115582226D01*
X154580604Y-115582225D01*
X154580270Y-115581725D01*
X154559392Y-115515048D01*
X154577876Y-115447668D01*
X154595688Y-115425155D01*
X154623663Y-115397181D01*
X154711268Y-115266071D01*
X154771611Y-115120389D01*
X154802374Y-114965734D01*
X154802374Y-114819747D01*
X156252126Y-114819747D01*
X156252126Y-114977440D01*
X156282887Y-115132083D01*
X156282890Y-115132095D01*
X156343228Y-115277766D01*
X156343235Y-115277779D01*
X156430836Y-115408882D01*
X156430839Y-115408886D01*
X156443738Y-115421785D01*
X156477223Y-115483108D01*
X156472239Y-115552800D01*
X156459159Y-115578356D01*
X156369083Y-115713164D01*
X156369073Y-115713182D01*
X156308735Y-115858853D01*
X156308732Y-115858865D01*
X156277971Y-116013508D01*
X156277971Y-116171201D01*
X156308732Y-116325844D01*
X156308735Y-116325856D01*
X156369073Y-116471527D01*
X156369080Y-116471540D01*
X156456681Y-116602643D01*
X156456684Y-116602647D01*
X156568178Y-116714141D01*
X156568182Y-116714144D01*
X156699285Y-116801745D01*
X156699298Y-116801752D01*
X156844969Y-116862090D01*
X156844974Y-116862092D01*
X156999624Y-116892854D01*
X156999627Y-116892855D01*
X156999629Y-116892855D01*
X157157315Y-116892855D01*
X157157316Y-116892854D01*
X157311968Y-116862092D01*
X157424637Y-116815422D01*
X157457643Y-116801752D01*
X157457643Y-116801751D01*
X157457650Y-116801749D01*
X157588760Y-116714144D01*
X157700260Y-116602644D01*
X157787865Y-116471534D01*
X157848208Y-116325852D01*
X157878971Y-116171197D01*
X157878971Y-116013513D01*
X157878971Y-116013510D01*
X157878970Y-116013508D01*
X157848241Y-115859025D01*
X157848208Y-115858858D01*
X157787934Y-115713342D01*
X157787868Y-115713182D01*
X157787861Y-115713169D01*
X157700260Y-115582066D01*
X157700257Y-115582062D01*
X157687358Y-115569163D01*
X157653873Y-115507840D01*
X157658857Y-115438148D01*
X157671937Y-115412591D01*
X157674415Y-115408883D01*
X157762020Y-115277773D01*
X157822363Y-115132091D01*
X157853126Y-114977436D01*
X157853126Y-114819752D01*
X157853126Y-114819749D01*
X157853125Y-114819747D01*
X157822364Y-114665104D01*
X157822363Y-114665097D01*
X157817514Y-114653390D01*
X157762023Y-114519421D01*
X157762016Y-114519408D01*
X157674415Y-114388305D01*
X157674412Y-114388301D01*
X157562918Y-114276807D01*
X157562914Y-114276804D01*
X157431811Y-114189203D01*
X157431798Y-114189196D01*
X157286127Y-114128858D01*
X157286115Y-114128855D01*
X157131471Y-114098094D01*
X157131468Y-114098094D01*
X156973784Y-114098094D01*
X156973781Y-114098094D01*
X156819136Y-114128855D01*
X156819124Y-114128858D01*
X156673453Y-114189196D01*
X156673440Y-114189203D01*
X156542337Y-114276804D01*
X156542333Y-114276807D01*
X156430839Y-114388301D01*
X156430836Y-114388305D01*
X156343235Y-114519408D01*
X156343228Y-114519421D01*
X156282890Y-114665092D01*
X156282887Y-114665104D01*
X156252126Y-114819747D01*
X154802374Y-114819747D01*
X154802374Y-114808050D01*
X154802374Y-114808047D01*
X154802373Y-114808045D01*
X154773940Y-114665104D01*
X154771611Y-114653395D01*
X154716118Y-114519421D01*
X154711271Y-114507719D01*
X154711264Y-114507706D01*
X154623663Y-114376603D01*
X154623660Y-114376599D01*
X154512166Y-114265105D01*
X154512162Y-114265102D01*
X154381059Y-114177501D01*
X154381046Y-114177494D01*
X154235375Y-114117156D01*
X154235363Y-114117153D01*
X154080719Y-114086392D01*
X154080716Y-114086392D01*
X153923032Y-114086392D01*
X153923029Y-114086392D01*
X153768384Y-114117153D01*
X153768372Y-114117156D01*
X153622701Y-114177494D01*
X153622688Y-114177501D01*
X153491585Y-114265102D01*
X153491581Y-114265105D01*
X153380087Y-114376599D01*
X153380084Y-114376603D01*
X153292483Y-114507706D01*
X153292476Y-114507719D01*
X153232138Y-114653390D01*
X153232135Y-114653402D01*
X153201374Y-114808045D01*
X153201374Y-114965738D01*
X153232135Y-115120381D01*
X153232138Y-115120393D01*
X153292476Y-115266064D01*
X153292483Y-115266077D01*
X153380419Y-115397681D01*
X153401297Y-115464358D01*
X153382813Y-115531738D01*
X153365000Y-115554252D01*
X153337026Y-115582226D01*
X153249425Y-115713329D01*
X153249418Y-115713342D01*
X153189080Y-115859013D01*
X153189077Y-115859025D01*
X153158316Y-116013668D01*
X121275500Y-116013668D01*
X121275500Y-111021153D01*
X138999500Y-111021153D01*
X138999500Y-111178846D01*
X139030261Y-111333489D01*
X139030264Y-111333501D01*
X139090602Y-111479172D01*
X139090609Y-111479185D01*
X139178210Y-111610288D01*
X139178213Y-111610292D01*
X139289707Y-111721786D01*
X139289711Y-111721789D01*
X139420814Y-111809390D01*
X139420827Y-111809397D01*
X139566498Y-111869735D01*
X139566503Y-111869737D01*
X139721153Y-111900499D01*
X139721156Y-111900500D01*
X139721158Y-111900500D01*
X139878844Y-111900500D01*
X139878845Y-111900499D01*
X140033497Y-111869737D01*
X140179179Y-111809394D01*
X140310289Y-111721789D01*
X140421789Y-111610289D01*
X140509394Y-111479179D01*
X140569737Y-111333497D01*
X140572192Y-111321153D01*
X146899500Y-111321153D01*
X146899500Y-111478846D01*
X146930261Y-111633489D01*
X146930264Y-111633501D01*
X146990602Y-111779172D01*
X146990609Y-111779185D01*
X147078210Y-111910288D01*
X147078213Y-111910292D01*
X147189707Y-112021786D01*
X147189711Y-112021789D01*
X147320814Y-112109390D01*
X147320827Y-112109397D01*
X147466498Y-112169735D01*
X147466503Y-112169737D01*
X147621153Y-112200499D01*
X147621156Y-112200500D01*
X147621158Y-112200500D01*
X147778844Y-112200500D01*
X147778845Y-112200499D01*
X147933497Y-112169737D01*
X148079179Y-112109394D01*
X148210289Y-112021789D01*
X148321789Y-111910289D01*
X148409394Y-111779179D01*
X148469737Y-111633497D01*
X148500500Y-111478842D01*
X148500500Y-111321158D01*
X148500500Y-111321155D01*
X148500499Y-111321153D01*
X148472192Y-111178846D01*
X148469737Y-111166503D01*
X148409534Y-111021158D01*
X148409397Y-111020827D01*
X148409390Y-111020814D01*
X148321789Y-110889711D01*
X148321786Y-110889707D01*
X148210292Y-110778213D01*
X148210288Y-110778210D01*
X148079185Y-110690609D01*
X148079172Y-110690602D01*
X147933501Y-110630264D01*
X147933489Y-110630261D01*
X147778845Y-110599500D01*
X147778842Y-110599500D01*
X147621158Y-110599500D01*
X147621155Y-110599500D01*
X147466510Y-110630261D01*
X147466498Y-110630264D01*
X147320827Y-110690602D01*
X147320814Y-110690609D01*
X147189711Y-110778210D01*
X147189707Y-110778213D01*
X147078213Y-110889707D01*
X147078210Y-110889711D01*
X146990609Y-111020814D01*
X146990602Y-111020827D01*
X146930264Y-111166498D01*
X146930261Y-111166510D01*
X146899500Y-111321153D01*
X140572192Y-111321153D01*
X140578216Y-111290874D01*
X140578216Y-111290873D01*
X140600499Y-111178846D01*
X140600500Y-111178844D01*
X140600500Y-111021155D01*
X140600499Y-111021153D01*
X140574353Y-110889711D01*
X140569737Y-110866503D01*
X140546080Y-110809390D01*
X140509397Y-110720827D01*
X140509390Y-110720814D01*
X140421789Y-110589711D01*
X140421786Y-110589707D01*
X140310292Y-110478213D01*
X140310288Y-110478210D01*
X140179185Y-110390609D01*
X140179172Y-110390602D01*
X140033501Y-110330264D01*
X140033489Y-110330261D01*
X139878845Y-110299500D01*
X139878842Y-110299500D01*
X139721158Y-110299500D01*
X139721155Y-110299500D01*
X139566510Y-110330261D01*
X139566498Y-110330264D01*
X139420827Y-110390602D01*
X139420814Y-110390609D01*
X139289711Y-110478210D01*
X139289707Y-110478213D01*
X139178213Y-110589707D01*
X139178210Y-110589711D01*
X139090609Y-110720814D01*
X139090602Y-110720827D01*
X139030264Y-110866498D01*
X139030261Y-110866510D01*
X138999500Y-111021153D01*
X121275500Y-111021153D01*
X121275500Y-110021153D01*
X132999500Y-110021153D01*
X132999500Y-110178846D01*
X133030261Y-110333489D01*
X133030264Y-110333501D01*
X133090602Y-110479172D01*
X133090609Y-110479185D01*
X133178210Y-110610288D01*
X133178213Y-110610292D01*
X133289707Y-110721786D01*
X133289711Y-110721789D01*
X133420814Y-110809390D01*
X133420827Y-110809397D01*
X133558683Y-110866498D01*
X133566503Y-110869737D01*
X133721153Y-110900499D01*
X133721156Y-110900500D01*
X133721158Y-110900500D01*
X133878844Y-110900500D01*
X133878845Y-110900499D01*
X133889179Y-110898443D01*
X133914287Y-110893450D01*
X133914292Y-110893449D01*
X133999800Y-110876439D01*
X134033497Y-110869737D01*
X134179179Y-110809394D01*
X134310289Y-110721789D01*
X134421789Y-110610289D01*
X134509394Y-110479179D01*
X134569737Y-110333497D01*
X134576622Y-110298879D01*
X134609007Y-110236969D01*
X134669723Y-110202395D01*
X134674049Y-110201454D01*
X134754785Y-110185393D01*
X134833497Y-110169737D01*
X134979179Y-110109394D01*
X135110289Y-110021789D01*
X135221789Y-109910289D01*
X135309394Y-109779179D01*
X135369737Y-109633497D01*
X135400500Y-109478842D01*
X135400500Y-109321158D01*
X135400500Y-109321155D01*
X135400499Y-109321153D01*
X135369738Y-109166510D01*
X135369737Y-109166505D01*
X135369737Y-109166503D01*
X135350817Y-109120825D01*
X135309397Y-109020827D01*
X135309390Y-109020814D01*
X135221789Y-108889711D01*
X135221786Y-108889707D01*
X135110292Y-108778213D01*
X135110288Y-108778210D01*
X134979185Y-108690609D01*
X134979172Y-108690602D01*
X134833501Y-108630264D01*
X134833489Y-108630261D01*
X134678845Y-108599500D01*
X134678842Y-108599500D01*
X134521158Y-108599500D01*
X134521155Y-108599500D01*
X134366510Y-108630261D01*
X134366498Y-108630264D01*
X134220827Y-108690602D01*
X134220814Y-108690609D01*
X134089711Y-108778210D01*
X134089707Y-108778213D01*
X133978213Y-108889707D01*
X133978210Y-108889711D01*
X133890609Y-109020814D01*
X133890602Y-109020827D01*
X133830264Y-109166498D01*
X133830262Y-109166505D01*
X133823376Y-109201122D01*
X133790989Y-109263032D01*
X133730273Y-109297605D01*
X133725951Y-109298545D01*
X133566508Y-109330261D01*
X133566498Y-109330264D01*
X133420827Y-109390602D01*
X133420814Y-109390609D01*
X133289711Y-109478210D01*
X133289707Y-109478213D01*
X133178213Y-109589707D01*
X133178210Y-109589711D01*
X133090609Y-109720814D01*
X133090602Y-109720827D01*
X133030264Y-109866498D01*
X133030261Y-109866510D01*
X132999500Y-110021153D01*
X121275500Y-110021153D01*
X121275500Y-108421153D01*
X166299500Y-108421153D01*
X166299500Y-108578846D01*
X166330261Y-108733489D01*
X166330264Y-108733501D01*
X166390602Y-108879172D01*
X166390609Y-108879185D01*
X166425304Y-108931109D01*
X166446182Y-108997786D01*
X166427698Y-109065167D01*
X166425304Y-109068891D01*
X166390609Y-109120814D01*
X166390602Y-109120827D01*
X166330264Y-109266498D01*
X166330261Y-109266510D01*
X166299500Y-109421153D01*
X166299500Y-109578846D01*
X166330261Y-109733489D01*
X166330264Y-109733501D01*
X166390602Y-109879172D01*
X166390609Y-109879185D01*
X166478210Y-110010288D01*
X166478213Y-110010292D01*
X166589707Y-110121786D01*
X166589711Y-110121789D01*
X166720814Y-110209390D01*
X166720827Y-110209397D01*
X166787393Y-110236969D01*
X166866503Y-110269737D01*
X167013019Y-110298881D01*
X167021153Y-110300499D01*
X167021156Y-110300500D01*
X167021158Y-110300500D01*
X167178844Y-110300500D01*
X167178845Y-110300499D01*
X167333497Y-110269737D01*
X167479179Y-110209394D01*
X167610289Y-110121789D01*
X167721789Y-110010289D01*
X167809394Y-109879179D01*
X167869737Y-109733497D01*
X167900500Y-109578842D01*
X167900500Y-109421158D01*
X167900500Y-109421155D01*
X167900499Y-109421153D01*
X167882419Y-109330261D01*
X167869737Y-109266503D01*
X167828314Y-109166498D01*
X167809396Y-109120825D01*
X167809394Y-109120822D01*
X167809394Y-109120821D01*
X167774694Y-109068889D01*
X167753816Y-109002215D01*
X167772300Y-108934835D01*
X167774676Y-108931136D01*
X167809394Y-108879179D01*
X167869737Y-108733497D01*
X167900500Y-108578842D01*
X167900500Y-108421158D01*
X167900500Y-108421155D01*
X167900499Y-108421153D01*
X167886902Y-108352796D01*
X167869737Y-108266503D01*
X167869735Y-108266498D01*
X167809397Y-108120827D01*
X167809390Y-108120814D01*
X167721789Y-107989711D01*
X167721786Y-107989707D01*
X167610292Y-107878213D01*
X167610288Y-107878210D01*
X167479185Y-107790609D01*
X167479172Y-107790602D01*
X167333501Y-107730264D01*
X167333489Y-107730261D01*
X167178845Y-107699500D01*
X167178842Y-107699500D01*
X167021158Y-107699500D01*
X167021155Y-107699500D01*
X166866510Y-107730261D01*
X166866498Y-107730264D01*
X166720827Y-107790602D01*
X166720814Y-107790609D01*
X166589711Y-107878210D01*
X166589707Y-107878213D01*
X166478213Y-107989707D01*
X166478210Y-107989711D01*
X166390609Y-108120814D01*
X166390602Y-108120827D01*
X166330264Y-108266498D01*
X166330261Y-108266510D01*
X166299500Y-108421153D01*
X121275500Y-108421153D01*
X121275500Y-106249984D01*
X169742000Y-106249984D01*
X169742000Y-108250015D01*
X169752500Y-108352795D01*
X169752501Y-108352796D01*
X169807686Y-108519335D01*
X169807687Y-108519337D01*
X169899786Y-108668651D01*
X169899789Y-108668655D01*
X170023844Y-108792710D01*
X170023848Y-108792713D01*
X170173162Y-108884812D01*
X170173164Y-108884813D01*
X170173166Y-108884814D01*
X170339703Y-108939999D01*
X170442492Y-108950500D01*
X170442497Y-108950500D01*
X172442503Y-108950500D01*
X172442508Y-108950500D01*
X172545297Y-108939999D01*
X172711834Y-108884814D01*
X172861155Y-108792711D01*
X172985211Y-108668655D01*
X173077314Y-108519334D01*
X173132499Y-108352797D01*
X173143000Y-108250008D01*
X173143000Y-106249992D01*
X173132499Y-106147203D01*
X173077314Y-105980666D01*
X172985211Y-105831345D01*
X172861155Y-105707289D01*
X172861151Y-105707286D01*
X172711837Y-105615187D01*
X172711835Y-105615186D01*
X172628565Y-105587593D01*
X172545297Y-105560001D01*
X172545295Y-105560000D01*
X172442515Y-105549500D01*
X172442508Y-105549500D01*
X172163826Y-105549500D01*
X172096787Y-105529815D01*
X172051032Y-105477011D01*
X172041088Y-105407853D01*
X172070113Y-105344297D01*
X172116373Y-105310939D01*
X172196002Y-105277954D01*
X172196014Y-105277949D01*
X172388998Y-105166530D01*
X172454903Y-105115957D01*
X172454904Y-105115956D01*
X171653559Y-104314612D01*
X171674091Y-104309111D01*
X171810908Y-104230119D01*
X171922619Y-104118408D01*
X172001611Y-103981591D01*
X172007112Y-103961059D01*
X172808456Y-104762404D01*
X172808457Y-104762403D01*
X172859030Y-104696498D01*
X172970449Y-104503514D01*
X172970454Y-104503502D01*
X173055736Y-104297618D01*
X173113411Y-104082367D01*
X173113414Y-104082354D01*
X173142500Y-103861424D01*
X173142500Y-103638575D01*
X173113414Y-103417645D01*
X173113411Y-103417632D01*
X173055736Y-103202381D01*
X172970454Y-102996497D01*
X172970449Y-102996485D01*
X172859033Y-102803507D01*
X172808456Y-102737595D01*
X172808455Y-102737595D01*
X172007112Y-103538939D01*
X172001611Y-103518409D01*
X171922619Y-103381592D01*
X171810908Y-103269881D01*
X171674091Y-103190889D01*
X171653558Y-103185387D01*
X172454903Y-102384043D01*
X172454903Y-102384040D01*
X172389004Y-102333473D01*
X172388991Y-102333464D01*
X172196020Y-102222054D01*
X172196002Y-102222045D01*
X171990118Y-102136763D01*
X171774867Y-102079088D01*
X171774854Y-102079085D01*
X171553925Y-102050000D01*
X171331075Y-102050000D01*
X171110145Y-102079085D01*
X171110132Y-102079088D01*
X170894881Y-102136763D01*
X170688997Y-102222045D01*
X170688979Y-102222054D01*
X170496011Y-102333462D01*
X170430095Y-102384042D01*
X171231441Y-103185387D01*
X171210909Y-103190889D01*
X171074092Y-103269881D01*
X170962381Y-103381592D01*
X170883389Y-103518409D01*
X170877887Y-103538940D01*
X170076542Y-102737595D01*
X170025962Y-102803511D01*
X169914554Y-102996479D01*
X169914545Y-102996497D01*
X169829263Y-103202381D01*
X169771588Y-103417632D01*
X169771585Y-103417645D01*
X169742500Y-103638575D01*
X169742500Y-103861424D01*
X169771585Y-104082354D01*
X169771588Y-104082367D01*
X169829263Y-104297618D01*
X169914545Y-104503502D01*
X169914554Y-104503520D01*
X170025964Y-104696491D01*
X170025973Y-104696504D01*
X170076540Y-104762403D01*
X170076543Y-104762403D01*
X170877887Y-103961059D01*
X170883389Y-103981591D01*
X170962381Y-104118408D01*
X171074092Y-104230119D01*
X171210909Y-104309111D01*
X171231440Y-104314612D01*
X170430095Y-105115955D01*
X170430095Y-105115956D01*
X170496007Y-105166533D01*
X170688985Y-105277949D01*
X170688997Y-105277954D01*
X170768627Y-105310939D01*
X170823031Y-105354780D01*
X170845095Y-105421075D01*
X170827815Y-105488774D01*
X170776678Y-105536384D01*
X170721174Y-105549500D01*
X170442484Y-105549500D01*
X170339704Y-105560000D01*
X170339703Y-105560001D01*
X170173164Y-105615186D01*
X170173162Y-105615187D01*
X170023848Y-105707286D01*
X170023844Y-105707289D01*
X169899789Y-105831344D01*
X169899786Y-105831348D01*
X169807687Y-105980662D01*
X169807686Y-105980664D01*
X169752501Y-106147203D01*
X169752500Y-106147204D01*
X169742000Y-106249984D01*
X121275500Y-106249984D01*
X121275500Y-105250000D01*
X127700000Y-105250000D01*
X130900000Y-105250000D01*
X130900000Y-103724000D01*
X130919685Y-103656961D01*
X130972489Y-103611206D01*
X131024000Y-103600000D01*
X134900000Y-103600000D01*
X134900000Y-102824000D01*
X134919685Y-102756961D01*
X134972489Y-102711206D01*
X135024000Y-102700000D01*
X137200000Y-102700000D01*
X137200000Y-101700000D01*
X130974000Y-101700000D01*
X130906961Y-101680315D01*
X130861206Y-101627511D01*
X130850000Y-101576000D01*
X130850000Y-100421153D01*
X132999500Y-100421153D01*
X132999500Y-100578846D01*
X133030261Y-100733489D01*
X133030264Y-100733501D01*
X133090602Y-100879172D01*
X133090609Y-100879185D01*
X133178210Y-101010288D01*
X133178213Y-101010292D01*
X133289707Y-101121786D01*
X133289711Y-101121789D01*
X133420814Y-101209390D01*
X133420827Y-101209397D01*
X133566498Y-101269735D01*
X133566503Y-101269737D01*
X133721153Y-101300499D01*
X133721156Y-101300500D01*
X133721158Y-101300500D01*
X133878844Y-101300500D01*
X133878845Y-101300499D01*
X134033497Y-101269737D01*
X134179179Y-101209394D01*
X134310289Y-101121789D01*
X134421789Y-101010289D01*
X134509394Y-100879179D01*
X134569737Y-100733497D01*
X134600500Y-100578842D01*
X134600500Y-100521153D01*
X143799500Y-100521153D01*
X143799500Y-100678846D01*
X143830261Y-100833489D01*
X143830264Y-100833501D01*
X143890602Y-100979172D01*
X143890609Y-100979185D01*
X143978210Y-101110288D01*
X143978213Y-101110292D01*
X144089707Y-101221786D01*
X144089711Y-101221789D01*
X144220814Y-101309390D01*
X144220827Y-101309397D01*
X144366498Y-101369735D01*
X144366503Y-101369737D01*
X144521153Y-101400499D01*
X144521156Y-101400500D01*
X144521158Y-101400500D01*
X144678844Y-101400500D01*
X144678845Y-101400499D01*
X144833497Y-101369737D01*
X144979179Y-101309394D01*
X145110289Y-101221789D01*
X145221789Y-101110289D01*
X145309394Y-100979179D01*
X145369737Y-100833497D01*
X145400500Y-100678842D01*
X145400500Y-100521158D01*
X145400500Y-100521155D01*
X145400499Y-100521153D01*
X145369737Y-100366503D01*
X145328314Y-100266498D01*
X145309397Y-100220827D01*
X145309390Y-100220814D01*
X145221789Y-100089711D01*
X145221786Y-100089707D01*
X145110292Y-99978213D01*
X145110288Y-99978210D01*
X144979185Y-99890609D01*
X144979172Y-99890602D01*
X144833501Y-99830264D01*
X144833489Y-99830261D01*
X144678845Y-99799500D01*
X144678842Y-99799500D01*
X144521158Y-99799500D01*
X144521155Y-99799500D01*
X144366510Y-99830261D01*
X144366498Y-99830264D01*
X144220827Y-99890602D01*
X144220814Y-99890609D01*
X144089711Y-99978210D01*
X144089707Y-99978213D01*
X143978213Y-100089707D01*
X143978210Y-100089711D01*
X143890609Y-100220814D01*
X143890602Y-100220827D01*
X143830264Y-100366498D01*
X143830261Y-100366510D01*
X143799500Y-100521153D01*
X134600500Y-100521153D01*
X134600500Y-100421158D01*
X134600500Y-100421155D01*
X134600499Y-100421153D01*
X134569738Y-100266510D01*
X134569737Y-100266503D01*
X134550812Y-100220814D01*
X134509397Y-100120827D01*
X134509390Y-100120814D01*
X134421789Y-99989711D01*
X134421786Y-99989707D01*
X134310292Y-99878213D01*
X134310288Y-99878210D01*
X134179185Y-99790609D01*
X134179172Y-99790602D01*
X134033501Y-99730264D01*
X134033489Y-99730261D01*
X133878845Y-99699500D01*
X133878842Y-99699500D01*
X133721158Y-99699500D01*
X133721155Y-99699500D01*
X133566510Y-99730261D01*
X133566498Y-99730264D01*
X133420827Y-99790602D01*
X133420814Y-99790609D01*
X133289711Y-99878210D01*
X133289707Y-99878213D01*
X133178213Y-99989707D01*
X133178210Y-99989711D01*
X133090609Y-100120814D01*
X133090602Y-100120827D01*
X133030264Y-100266498D01*
X133030261Y-100266510D01*
X132999500Y-100421153D01*
X130850000Y-100421153D01*
X130850000Y-99700000D01*
X130274000Y-99700000D01*
X130206961Y-99680315D01*
X130161206Y-99627511D01*
X130150000Y-99576000D01*
X130150000Y-98250000D01*
X127700000Y-98250000D01*
X127700000Y-105250000D01*
X121275500Y-105250000D01*
X121275500Y-98221153D01*
X148999500Y-98221153D01*
X148999500Y-98378846D01*
X149030261Y-98533489D01*
X149030264Y-98533501D01*
X149090602Y-98679172D01*
X149090609Y-98679185D01*
X149178210Y-98810288D01*
X149178213Y-98810292D01*
X149289707Y-98921786D01*
X149289711Y-98921789D01*
X149420814Y-99009390D01*
X149420827Y-99009397D01*
X149566498Y-99069735D01*
X149566503Y-99069737D01*
X149721153Y-99100499D01*
X149721156Y-99100500D01*
X149721158Y-99100500D01*
X149878844Y-99100500D01*
X149878845Y-99100499D01*
X150033497Y-99069737D01*
X150179179Y-99009394D01*
X150310289Y-98921789D01*
X150421789Y-98810289D01*
X150509394Y-98679179D01*
X150569737Y-98533497D01*
X150600500Y-98378842D01*
X150600500Y-98221158D01*
X150600500Y-98221155D01*
X150600499Y-98221153D01*
X150578269Y-98109397D01*
X150569737Y-98066503D01*
X150551215Y-98021786D01*
X150509397Y-97920827D01*
X150509390Y-97920814D01*
X150421789Y-97789711D01*
X150421786Y-97789707D01*
X150310292Y-97678213D01*
X150310288Y-97678210D01*
X150179185Y-97590609D01*
X150179172Y-97590602D01*
X150033501Y-97530264D01*
X150033489Y-97530261D01*
X149878845Y-97499500D01*
X149878842Y-97499500D01*
X149721158Y-97499500D01*
X149721155Y-97499500D01*
X149566510Y-97530261D01*
X149566498Y-97530264D01*
X149420827Y-97590602D01*
X149420814Y-97590609D01*
X149289711Y-97678210D01*
X149289707Y-97678213D01*
X149178213Y-97789707D01*
X149178210Y-97789711D01*
X149090609Y-97920814D01*
X149090602Y-97920827D01*
X149030264Y-98066498D01*
X149030261Y-98066510D01*
X148999500Y-98221153D01*
X121275500Y-98221153D01*
X121275500Y-97321153D01*
X146999500Y-97321153D01*
X146999500Y-97478846D01*
X147030261Y-97633489D01*
X147030264Y-97633501D01*
X147090602Y-97779172D01*
X147090609Y-97779185D01*
X147178210Y-97910288D01*
X147178213Y-97910292D01*
X147289707Y-98021786D01*
X147289711Y-98021789D01*
X147420814Y-98109390D01*
X147420827Y-98109397D01*
X147566498Y-98169735D01*
X147566503Y-98169737D01*
X147721153Y-98200499D01*
X147721156Y-98200500D01*
X147721158Y-98200500D01*
X147878844Y-98200500D01*
X147878845Y-98200499D01*
X148033497Y-98169737D01*
X148179179Y-98109394D01*
X148310289Y-98021789D01*
X148421789Y-97910289D01*
X148509394Y-97779179D01*
X148569737Y-97633497D01*
X148600500Y-97478842D01*
X148600500Y-97321158D01*
X148600500Y-97321155D01*
X148600499Y-97321153D01*
X148569738Y-97166510D01*
X148569737Y-97166503D01*
X148542398Y-97100500D01*
X148509397Y-97020827D01*
X148509390Y-97020814D01*
X148421789Y-96889711D01*
X148421786Y-96889707D01*
X148310292Y-96778213D01*
X148310288Y-96778210D01*
X148179185Y-96690609D01*
X148179172Y-96690602D01*
X148033501Y-96630264D01*
X148033489Y-96630261D01*
X147878845Y-96599500D01*
X147878842Y-96599500D01*
X147721158Y-96599500D01*
X147721155Y-96599500D01*
X147566510Y-96630261D01*
X147566498Y-96630264D01*
X147420827Y-96690602D01*
X147420814Y-96690609D01*
X147289711Y-96778210D01*
X147289707Y-96778213D01*
X147178213Y-96889707D01*
X147178210Y-96889711D01*
X147090609Y-97020814D01*
X147090602Y-97020827D01*
X147030264Y-97166498D01*
X147030261Y-97166510D01*
X146999500Y-97321153D01*
X121275500Y-97321153D01*
X121275500Y-96321153D01*
X132199500Y-96321153D01*
X132199500Y-96478846D01*
X132230261Y-96633489D01*
X132230264Y-96633501D01*
X132290602Y-96779172D01*
X132290609Y-96779185D01*
X132378210Y-96910288D01*
X132378213Y-96910292D01*
X132489707Y-97021786D01*
X132489711Y-97021789D01*
X132620814Y-97109390D01*
X132620827Y-97109397D01*
X132758683Y-97166498D01*
X132766503Y-97169737D01*
X132921153Y-97200499D01*
X132921156Y-97200500D01*
X132921158Y-97200500D01*
X133078844Y-97200500D01*
X133078845Y-97200499D01*
X133089179Y-97198443D01*
X133114287Y-97193450D01*
X133114292Y-97193449D01*
X133199800Y-97176439D01*
X133233497Y-97169737D01*
X133379179Y-97109394D01*
X133510289Y-97021789D01*
X133621789Y-96910289D01*
X133709394Y-96779179D01*
X133769737Y-96633497D01*
X133800500Y-96478842D01*
X133800500Y-96321158D01*
X133800500Y-96321155D01*
X133784209Y-96239258D01*
X133784209Y-96239257D01*
X133780608Y-96221153D01*
X136199500Y-96221153D01*
X136199500Y-96378846D01*
X136230261Y-96533489D01*
X136230264Y-96533501D01*
X136290602Y-96679172D01*
X136290609Y-96679185D01*
X136378210Y-96810288D01*
X136378213Y-96810292D01*
X136489707Y-96921786D01*
X136489711Y-96921789D01*
X136620814Y-97009390D01*
X136620827Y-97009397D01*
X136766498Y-97069735D01*
X136766503Y-97069737D01*
X136921153Y-97100499D01*
X136921156Y-97100500D01*
X136921158Y-97100500D01*
X137078844Y-97100500D01*
X137078845Y-97100499D01*
X137233497Y-97069737D01*
X137351592Y-97020821D01*
X137379172Y-97009397D01*
X137379172Y-97009396D01*
X137379179Y-97009394D01*
X137510289Y-96921789D01*
X137621789Y-96810289D01*
X137709394Y-96679179D01*
X137769737Y-96533497D01*
X137800500Y-96378842D01*
X137800500Y-96221158D01*
X137800500Y-96221155D01*
X137800499Y-96221153D01*
X137769738Y-96066510D01*
X137769737Y-96066503D01*
X137750812Y-96020814D01*
X137709397Y-95920827D01*
X137709390Y-95920814D01*
X137621789Y-95789711D01*
X137621786Y-95789707D01*
X137510292Y-95678213D01*
X137510288Y-95678210D01*
X137379185Y-95590609D01*
X137379172Y-95590602D01*
X137233501Y-95530264D01*
X137233489Y-95530261D01*
X137078845Y-95499500D01*
X137078842Y-95499500D01*
X136921158Y-95499500D01*
X136921155Y-95499500D01*
X136766510Y-95530261D01*
X136766498Y-95530264D01*
X136620827Y-95590602D01*
X136620814Y-95590609D01*
X136489711Y-95678210D01*
X136489707Y-95678213D01*
X136378213Y-95789707D01*
X136378210Y-95789711D01*
X136290609Y-95920814D01*
X136290602Y-95920827D01*
X136230264Y-96066498D01*
X136230261Y-96066510D01*
X136199500Y-96221153D01*
X133780608Y-96221153D01*
X133769738Y-96166510D01*
X133769737Y-96166503D01*
X133728314Y-96066498D01*
X133709397Y-96020827D01*
X133709390Y-96020814D01*
X133621789Y-95889711D01*
X133621786Y-95889707D01*
X133510292Y-95778213D01*
X133510288Y-95778210D01*
X133379185Y-95690609D01*
X133379172Y-95690602D01*
X133233501Y-95630264D01*
X133233489Y-95630261D01*
X133078845Y-95599500D01*
X133078842Y-95599500D01*
X132921158Y-95599500D01*
X132921155Y-95599500D01*
X132766510Y-95630261D01*
X132766498Y-95630264D01*
X132620827Y-95690602D01*
X132620814Y-95690609D01*
X132489711Y-95778210D01*
X132489707Y-95778213D01*
X132378213Y-95889707D01*
X132378210Y-95889711D01*
X132290609Y-96020814D01*
X132290602Y-96020827D01*
X132230264Y-96166498D01*
X132230261Y-96166510D01*
X132199500Y-96321153D01*
X121275500Y-96321153D01*
X121275500Y-94318995D01*
X122244499Y-94318995D01*
X122271418Y-94454322D01*
X122271421Y-94454332D01*
X122324221Y-94581804D01*
X122324228Y-94581817D01*
X122400885Y-94696541D01*
X122400888Y-94696545D01*
X122498454Y-94794111D01*
X122498458Y-94794114D01*
X122613182Y-94870771D01*
X122613195Y-94870778D01*
X122740667Y-94923578D01*
X122740672Y-94923580D01*
X122740676Y-94923580D01*
X122740677Y-94923581D01*
X122876004Y-94950500D01*
X122876007Y-94950500D01*
X123013995Y-94950500D01*
X123105041Y-94932389D01*
X123149328Y-94923580D01*
X123276811Y-94870775D01*
X123391542Y-94794114D01*
X123489114Y-94696542D01*
X123565775Y-94581811D01*
X123590898Y-94521158D01*
X123590900Y-94521153D01*
X138099500Y-94521153D01*
X138099500Y-94678846D01*
X138130261Y-94833489D01*
X138130264Y-94833501D01*
X138190602Y-94979172D01*
X138190609Y-94979185D01*
X138278210Y-95110288D01*
X138278213Y-95110292D01*
X138389707Y-95221786D01*
X138389711Y-95221789D01*
X138520814Y-95309390D01*
X138520827Y-95309397D01*
X138666498Y-95369735D01*
X138666503Y-95369737D01*
X138821153Y-95400499D01*
X138821156Y-95400500D01*
X138821158Y-95400500D01*
X138978844Y-95400500D01*
X138978845Y-95400499D01*
X139133497Y-95369737D01*
X139279179Y-95309394D01*
X139410289Y-95221789D01*
X139521789Y-95110289D01*
X139609394Y-94979179D01*
X139669737Y-94833497D01*
X139700500Y-94678842D01*
X139700500Y-94521158D01*
X139700500Y-94521155D01*
X139700499Y-94521153D01*
X139687207Y-94454332D01*
X139669737Y-94366503D01*
X139646452Y-94310288D01*
X139609397Y-94220827D01*
X139609390Y-94220814D01*
X139521789Y-94089711D01*
X139521786Y-94089707D01*
X139410292Y-93978213D01*
X139410288Y-93978210D01*
X139279185Y-93890609D01*
X139279172Y-93890602D01*
X139133501Y-93830264D01*
X139133489Y-93830261D01*
X138978845Y-93799500D01*
X138978842Y-93799500D01*
X138821158Y-93799500D01*
X138821155Y-93799500D01*
X138666510Y-93830261D01*
X138666498Y-93830264D01*
X138520827Y-93890602D01*
X138520814Y-93890609D01*
X138389711Y-93978210D01*
X138389707Y-93978213D01*
X138278213Y-94089707D01*
X138278210Y-94089711D01*
X138190609Y-94220814D01*
X138190602Y-94220827D01*
X138130264Y-94366498D01*
X138130261Y-94366510D01*
X138099500Y-94521153D01*
X123590900Y-94521153D01*
X123613077Y-94467614D01*
X123613077Y-94467613D01*
X123618580Y-94454328D01*
X123645500Y-94318993D01*
X123645500Y-94181007D01*
X123645500Y-94181004D01*
X123618581Y-94045677D01*
X123618580Y-94045676D01*
X123618580Y-94045672D01*
X123590637Y-93978211D01*
X123565778Y-93918195D01*
X123565771Y-93918182D01*
X123489114Y-93803458D01*
X123489111Y-93803454D01*
X123406810Y-93721153D01*
X143799500Y-93721153D01*
X143799500Y-93878846D01*
X143830261Y-94033489D01*
X143830264Y-94033501D01*
X143890602Y-94179172D01*
X143890609Y-94179185D01*
X143978210Y-94310288D01*
X143978213Y-94310292D01*
X144089707Y-94421786D01*
X144089711Y-94421789D01*
X144220814Y-94509390D01*
X144220827Y-94509397D01*
X144366498Y-94569735D01*
X144366503Y-94569737D01*
X144521153Y-94600499D01*
X144521156Y-94600500D01*
X144521158Y-94600500D01*
X144678844Y-94600500D01*
X144678845Y-94600499D01*
X144833497Y-94569737D01*
X144979179Y-94509394D01*
X145110289Y-94421789D01*
X145221789Y-94310289D01*
X145309394Y-94179179D01*
X145369737Y-94033497D01*
X145400500Y-93878842D01*
X145400500Y-93721158D01*
X145400500Y-93721155D01*
X145400499Y-93721153D01*
X145382212Y-93629221D01*
X145369737Y-93566503D01*
X145362694Y-93549500D01*
X145309397Y-93420827D01*
X145309390Y-93420814D01*
X145221789Y-93289711D01*
X145221786Y-93289707D01*
X145110292Y-93178213D01*
X145110288Y-93178210D01*
X144979185Y-93090609D01*
X144979172Y-93090602D01*
X144833501Y-93030264D01*
X144833489Y-93030261D01*
X144678845Y-92999500D01*
X144678842Y-92999500D01*
X144521158Y-92999500D01*
X144521155Y-92999500D01*
X144366510Y-93030261D01*
X144366498Y-93030264D01*
X144220827Y-93090602D01*
X144220814Y-93090609D01*
X144089711Y-93178210D01*
X144089707Y-93178213D01*
X143978213Y-93289707D01*
X143978210Y-93289711D01*
X143890609Y-93420814D01*
X143890602Y-93420827D01*
X143830264Y-93566498D01*
X143830261Y-93566510D01*
X143799500Y-93721153D01*
X123406810Y-93721153D01*
X123391545Y-93705888D01*
X123391541Y-93705885D01*
X123276817Y-93629228D01*
X123276804Y-93629221D01*
X123149332Y-93576421D01*
X123149322Y-93576418D01*
X123013995Y-93549500D01*
X123013993Y-93549500D01*
X122876007Y-93549500D01*
X122876005Y-93549500D01*
X122740677Y-93576418D01*
X122740667Y-93576421D01*
X122613195Y-93629221D01*
X122613182Y-93629228D01*
X122498458Y-93705885D01*
X122498454Y-93705888D01*
X122400888Y-93803454D01*
X122400885Y-93803458D01*
X122324228Y-93918182D01*
X122324221Y-93918195D01*
X122271421Y-94045667D01*
X122271418Y-94045677D01*
X122244500Y-94181004D01*
X122244500Y-94181007D01*
X122244500Y-94318993D01*
X122244500Y-94318995D01*
X122244499Y-94318995D01*
X121275500Y-94318995D01*
X121275500Y-91318995D01*
X122244499Y-91318995D01*
X122271418Y-91454322D01*
X122271421Y-91454332D01*
X122324221Y-91581804D01*
X122324228Y-91581817D01*
X122400885Y-91696541D01*
X122400888Y-91696545D01*
X122498454Y-91794111D01*
X122498458Y-91794114D01*
X122613182Y-91870771D01*
X122613195Y-91870778D01*
X122740667Y-91923578D01*
X122740672Y-91923580D01*
X122740676Y-91923580D01*
X122740677Y-91923581D01*
X122876004Y-91950500D01*
X122876007Y-91950500D01*
X123013995Y-91950500D01*
X123105041Y-91932389D01*
X123149328Y-91923580D01*
X123276811Y-91870775D01*
X123391542Y-91794114D01*
X123489114Y-91696542D01*
X123565775Y-91581811D01*
X123618580Y-91454328D01*
X123645500Y-91318993D01*
X123645500Y-91181007D01*
X123645500Y-91181004D01*
X123618581Y-91045677D01*
X123618580Y-91045676D01*
X123618580Y-91045672D01*
X123603924Y-91010288D01*
X123565778Y-90918195D01*
X123565771Y-90918182D01*
X123489114Y-90803458D01*
X123489111Y-90803454D01*
X123391545Y-90705888D01*
X123391541Y-90705885D01*
X123276817Y-90629228D01*
X123276804Y-90629221D01*
X123149332Y-90576421D01*
X123149322Y-90576418D01*
X123013995Y-90549500D01*
X123013993Y-90549500D01*
X122876007Y-90549500D01*
X122876005Y-90549500D01*
X122740677Y-90576418D01*
X122740667Y-90576421D01*
X122613195Y-90629221D01*
X122613182Y-90629228D01*
X122498458Y-90705885D01*
X122498454Y-90705888D01*
X122400888Y-90803454D01*
X122400885Y-90803458D01*
X122324228Y-90918182D01*
X122324221Y-90918195D01*
X122271421Y-91045667D01*
X122271418Y-91045677D01*
X122244500Y-91181004D01*
X122244500Y-91181007D01*
X122244500Y-91318993D01*
X122244500Y-91318995D01*
X122244499Y-91318995D01*
X121275500Y-91318995D01*
X121275500Y-90421153D01*
X124999500Y-90421153D01*
X124999500Y-90578846D01*
X125030261Y-90733489D01*
X125030264Y-90733501D01*
X125090602Y-90879172D01*
X125090609Y-90879185D01*
X125178210Y-91010288D01*
X125178213Y-91010292D01*
X125289707Y-91121786D01*
X125289711Y-91121789D01*
X125420814Y-91209390D01*
X125420827Y-91209397D01*
X125566498Y-91269735D01*
X125566503Y-91269737D01*
X125721153Y-91300499D01*
X125721156Y-91300500D01*
X125721158Y-91300500D01*
X125878844Y-91300500D01*
X125878845Y-91300499D01*
X126033497Y-91269737D01*
X126179179Y-91209394D01*
X126310289Y-91121789D01*
X126421789Y-91010289D01*
X126509394Y-90879179D01*
X126569737Y-90733497D01*
X126600500Y-90578842D01*
X126600500Y-90421158D01*
X126600500Y-90421155D01*
X126600499Y-90421153D01*
X126569738Y-90266510D01*
X126569737Y-90266503D01*
X126569735Y-90266498D01*
X126509397Y-90120827D01*
X126509390Y-90120814D01*
X126421789Y-89989711D01*
X126421786Y-89989707D01*
X126310292Y-89878213D01*
X126310288Y-89878210D01*
X126179185Y-89790609D01*
X126179172Y-89790602D01*
X126033501Y-89730264D01*
X126033489Y-89730261D01*
X125878845Y-89699500D01*
X125878842Y-89699500D01*
X125721158Y-89699500D01*
X125721155Y-89699500D01*
X125566510Y-89730261D01*
X125566498Y-89730264D01*
X125420827Y-89790602D01*
X125420814Y-89790609D01*
X125289711Y-89878210D01*
X125289707Y-89878213D01*
X125178213Y-89989707D01*
X125178210Y-89989711D01*
X125090609Y-90120814D01*
X125090602Y-90120827D01*
X125030264Y-90266498D01*
X125030261Y-90266510D01*
X124999500Y-90421153D01*
X121275500Y-90421153D01*
X121275500Y-81002561D01*
X121275606Y-80997437D01*
X121278225Y-80934108D01*
X121279004Y-80915272D01*
X131697500Y-80915272D01*
X131697500Y-81084727D01*
X131724007Y-81252082D01*
X131776366Y-81413230D01*
X131776367Y-81413233D01*
X131832662Y-81523716D01*
X131853294Y-81564209D01*
X131952892Y-81701293D01*
X132072707Y-81821108D01*
X132209791Y-81920706D01*
X132283840Y-81958435D01*
X132360766Y-81997632D01*
X132360769Y-81997633D01*
X132441343Y-82023812D01*
X132521919Y-82049993D01*
X132599429Y-82062269D01*
X132689273Y-82076500D01*
X132689278Y-82076500D01*
X132858727Y-82076500D01*
X132939858Y-82063649D01*
X133026081Y-82049993D01*
X133187233Y-81997632D01*
X133338209Y-81920706D01*
X133475293Y-81821108D01*
X133595108Y-81701293D01*
X133694706Y-81564209D01*
X133771632Y-81413233D01*
X133823993Y-81252081D01*
X133837649Y-81165858D01*
X133850500Y-81084727D01*
X133850500Y-81038646D01*
X138250000Y-81038646D01*
X138284584Y-81212512D01*
X138284586Y-81212520D01*
X138352428Y-81376307D01*
X138352433Y-81376316D01*
X138450923Y-81523716D01*
X138450926Y-81523720D01*
X138576279Y-81649073D01*
X138576283Y-81649076D01*
X138723683Y-81747566D01*
X138723693Y-81747571D01*
X138887476Y-81815412D01*
X138887483Y-81815415D01*
X138900000Y-81817904D01*
X138900000Y-80950000D01*
X138250000Y-80950000D01*
X138250000Y-81038646D01*
X133850500Y-81038646D01*
X133850500Y-80915271D01*
X133834099Y-80811726D01*
X133823993Y-80747919D01*
X133792266Y-80650272D01*
X138900000Y-80650272D01*
X138900000Y-80749728D01*
X138938060Y-80841614D01*
X139008386Y-80911940D01*
X139100272Y-80950000D01*
X139199728Y-80950000D01*
X139291614Y-80911940D01*
X139361940Y-80841614D01*
X139400000Y-80749728D01*
X139400000Y-81817903D01*
X139412516Y-81815415D01*
X139412523Y-81815412D01*
X139576306Y-81747571D01*
X139576315Y-81747566D01*
X139705659Y-81661141D01*
X139772336Y-81640263D01*
X139839716Y-81658747D01*
X139843441Y-81661141D01*
X139972791Y-81747571D01*
X139973453Y-81748013D01*
X139973455Y-81748014D01*
X139973459Y-81748016D01*
X140083214Y-81793477D01*
X140137334Y-81815894D01*
X140137336Y-81815894D01*
X140137341Y-81815896D01*
X140311304Y-81850499D01*
X140311307Y-81850500D01*
X140311309Y-81850500D01*
X140488693Y-81850500D01*
X140488694Y-81850499D01*
X140546682Y-81838964D01*
X140662658Y-81815896D01*
X140662661Y-81815894D01*
X140662666Y-81815894D01*
X140826547Y-81748013D01*
X140956109Y-81661442D01*
X141022786Y-81640564D01*
X141090166Y-81659048D01*
X141093891Y-81661442D01*
X141223447Y-81748009D01*
X141223453Y-81748013D01*
X141223455Y-81748014D01*
X141223459Y-81748016D01*
X141333214Y-81793477D01*
X141387334Y-81815894D01*
X141387336Y-81815894D01*
X141387341Y-81815896D01*
X141561304Y-81850499D01*
X141561307Y-81850500D01*
X141561309Y-81850500D01*
X141738693Y-81850500D01*
X141738694Y-81850499D01*
X141796682Y-81838964D01*
X141912658Y-81815896D01*
X141912661Y-81815894D01*
X141912666Y-81815894D01*
X142076547Y-81748013D01*
X142133838Y-81709731D01*
X142200510Y-81688854D01*
X142266873Y-81706716D01*
X142410394Y-81793478D01*
X142572804Y-81844086D01*
X142643384Y-81850500D01*
X142643387Y-81850500D01*
X143156613Y-81850500D01*
X143156616Y-81850500D01*
X143227196Y-81844086D01*
X143389606Y-81793478D01*
X143535185Y-81705472D01*
X143655472Y-81585185D01*
X143743478Y-81439606D01*
X143794086Y-81277196D01*
X143800500Y-81206616D01*
X143800500Y-80915272D01*
X163973500Y-80915272D01*
X163973500Y-81084727D01*
X164000007Y-81252082D01*
X164052366Y-81413230D01*
X164052367Y-81413233D01*
X164108662Y-81523716D01*
X164129294Y-81564209D01*
X164228892Y-81701293D01*
X164348707Y-81821108D01*
X164485791Y-81920706D01*
X164559840Y-81958435D01*
X164636766Y-81997632D01*
X164636769Y-81997633D01*
X164717343Y-82023812D01*
X164797919Y-82049993D01*
X164875429Y-82062269D01*
X164965273Y-82076500D01*
X164965278Y-82076500D01*
X165134727Y-82076500D01*
X165215858Y-82063649D01*
X165302081Y-82049993D01*
X165463233Y-81997632D01*
X165614209Y-81920706D01*
X165751293Y-81821108D01*
X165871108Y-81701293D01*
X165970706Y-81564209D01*
X166047632Y-81413233D01*
X166099993Y-81252081D01*
X166113649Y-81165858D01*
X166126500Y-81084727D01*
X166126500Y-80915272D01*
X166111079Y-80817913D01*
X166099993Y-80747919D01*
X166047632Y-80586767D01*
X166047632Y-80586766D01*
X165997338Y-80488060D01*
X165970706Y-80435791D01*
X165871108Y-80298707D01*
X165751293Y-80178892D01*
X165614209Y-80079294D01*
X165463233Y-80002367D01*
X165463230Y-80002366D01*
X165302082Y-79950007D01*
X165134727Y-79923500D01*
X165134722Y-79923500D01*
X164965278Y-79923500D01*
X164965273Y-79923500D01*
X164797917Y-79950007D01*
X164636769Y-80002366D01*
X164636766Y-80002367D01*
X164485790Y-80079294D01*
X164348705Y-80178893D01*
X164228893Y-80298705D01*
X164129294Y-80435790D01*
X164052367Y-80586766D01*
X164052366Y-80586769D01*
X164000007Y-80747917D01*
X163973500Y-80915272D01*
X143800500Y-80915272D01*
X143800500Y-80193384D01*
X143794086Y-80122804D01*
X143743478Y-79960394D01*
X143655472Y-79814815D01*
X143655470Y-79814813D01*
X143655469Y-79814811D01*
X143535188Y-79694530D01*
X143464820Y-79651991D01*
X143389606Y-79606522D01*
X143227196Y-79555914D01*
X143227194Y-79555913D01*
X143227192Y-79555913D01*
X143177778Y-79551423D01*
X143156616Y-79549500D01*
X142643384Y-79549500D01*
X142624145Y-79551248D01*
X142572807Y-79555913D01*
X142410391Y-79606523D01*
X142266875Y-79693281D01*
X142199321Y-79711117D01*
X142133834Y-79690265D01*
X142076555Y-79651991D01*
X142076540Y-79651983D01*
X141912667Y-79584106D01*
X141912658Y-79584103D01*
X141738694Y-79549500D01*
X141738691Y-79549500D01*
X141561309Y-79549500D01*
X141561306Y-79549500D01*
X141387341Y-79584103D01*
X141387332Y-79584106D01*
X141223459Y-79651983D01*
X141223446Y-79651990D01*
X141093891Y-79738557D01*
X141027213Y-79759435D01*
X140959833Y-79740950D01*
X140956109Y-79738557D01*
X140826553Y-79651990D01*
X140826540Y-79651983D01*
X140662667Y-79584106D01*
X140662658Y-79584103D01*
X140488694Y-79549500D01*
X140488691Y-79549500D01*
X140311309Y-79549500D01*
X140311306Y-79549500D01*
X140137341Y-79584103D01*
X140137332Y-79584106D01*
X139973459Y-79651983D01*
X139973446Y-79651990D01*
X139843441Y-79738858D01*
X139776764Y-79759736D01*
X139709383Y-79741252D01*
X139705659Y-79738858D01*
X139576316Y-79652433D01*
X139576307Y-79652428D01*
X139412519Y-79584585D01*
X139400000Y-79582094D01*
X139400000Y-80650272D01*
X139361940Y-80558386D01*
X139291614Y-80488060D01*
X139199728Y-80450000D01*
X139100272Y-80450000D01*
X139008386Y-80488060D01*
X138938060Y-80558386D01*
X138900000Y-80650272D01*
X133792266Y-80650272D01*
X133771632Y-80586767D01*
X133771632Y-80586766D01*
X133721338Y-80488060D01*
X133694706Y-80435791D01*
X133694704Y-80435788D01*
X133694703Y-80435786D01*
X133689158Y-80428154D01*
X133689156Y-80428152D01*
X133640623Y-80361353D01*
X138250000Y-80361353D01*
X138250000Y-80450000D01*
X138900000Y-80450000D01*
X138900000Y-79582095D01*
X138899999Y-79582094D01*
X138887480Y-79584585D01*
X138723692Y-79652428D01*
X138723683Y-79652433D01*
X138576283Y-79750923D01*
X138576279Y-79750926D01*
X138450926Y-79876279D01*
X138450923Y-79876283D01*
X138352433Y-80023683D01*
X138352428Y-80023692D01*
X138284586Y-80187479D01*
X138284584Y-80187487D01*
X138250000Y-80361353D01*
X133640623Y-80361353D01*
X133640591Y-80361309D01*
X133595108Y-80298707D01*
X133475293Y-80178892D01*
X133338209Y-80079294D01*
X133187233Y-80002367D01*
X133187230Y-80002366D01*
X133026082Y-79950007D01*
X132858727Y-79923500D01*
X132858722Y-79923500D01*
X132689278Y-79923500D01*
X132689273Y-79923500D01*
X132521917Y-79950007D01*
X132360769Y-80002366D01*
X132360766Y-80002367D01*
X132209790Y-80079294D01*
X132072705Y-80178893D01*
X131952893Y-80298705D01*
X131853294Y-80435790D01*
X131776367Y-80586766D01*
X131776366Y-80586769D01*
X131724007Y-80747917D01*
X131697500Y-80915272D01*
X121279004Y-80915272D01*
X121292364Y-80592251D01*
X121293207Y-80582082D01*
X121343055Y-80182178D01*
X121344736Y-80172102D01*
X121427433Y-79777699D01*
X121429941Y-79767797D01*
X121544930Y-79381555D01*
X121548245Y-79371902D01*
X121694733Y-78996485D01*
X121698839Y-78987125D01*
X121875817Y-78625111D01*
X121880690Y-78616105D01*
X121996856Y-78421153D01*
X159399500Y-78421153D01*
X159399500Y-78578846D01*
X159430261Y-78733489D01*
X159430264Y-78733501D01*
X159490602Y-78879172D01*
X159490609Y-78879185D01*
X159578210Y-79010288D01*
X159578213Y-79010292D01*
X159689707Y-79121786D01*
X159689711Y-79121789D01*
X159820814Y-79209390D01*
X159820827Y-79209397D01*
X159966498Y-79269735D01*
X159966503Y-79269737D01*
X160121153Y-79300499D01*
X160121156Y-79300500D01*
X160121158Y-79300500D01*
X160278844Y-79300500D01*
X160278845Y-79300499D01*
X160433497Y-79269737D01*
X160579179Y-79209394D01*
X160710289Y-79121789D01*
X160821789Y-79010289D01*
X160909394Y-78879179D01*
X160969737Y-78733497D01*
X161000500Y-78578842D01*
X161000500Y-78421158D01*
X161000500Y-78421155D01*
X161000499Y-78421153D01*
X160986662Y-78351592D01*
X160969737Y-78266503D01*
X160967605Y-78261355D01*
X160909397Y-78120827D01*
X160909390Y-78120814D01*
X160821789Y-77989711D01*
X160821786Y-77989707D01*
X160710292Y-77878213D01*
X160710288Y-77878210D01*
X160579185Y-77790609D01*
X160579172Y-77790602D01*
X160433501Y-77730264D01*
X160433489Y-77730261D01*
X160278845Y-77699500D01*
X160278842Y-77699500D01*
X160121158Y-77699500D01*
X160121155Y-77699500D01*
X159966510Y-77730261D01*
X159966498Y-77730264D01*
X159820827Y-77790602D01*
X159820814Y-77790609D01*
X159689711Y-77878210D01*
X159689707Y-77878213D01*
X159578213Y-77989707D01*
X159578210Y-77989711D01*
X159490609Y-78120814D01*
X159490602Y-78120827D01*
X159430264Y-78266498D01*
X159430261Y-78266510D01*
X159399500Y-78421153D01*
X121996856Y-78421153D01*
X122086973Y-78269918D01*
X122092556Y-78261372D01*
X122326728Y-77933394D01*
X122332996Y-77925342D01*
X122593443Y-77617832D01*
X122600362Y-77610316D01*
X122885316Y-77325362D01*
X122892832Y-77318443D01*
X123200342Y-77057996D01*
X123208394Y-77051728D01*
X123536372Y-76817556D01*
X123544918Y-76811973D01*
X123891113Y-76605685D01*
X123900111Y-76600817D01*
X124262125Y-76423839D01*
X124271485Y-76419733D01*
X124646902Y-76273245D01*
X124656555Y-76269930D01*
X125042797Y-76154941D01*
X125052699Y-76152433D01*
X125447102Y-76069736D01*
X125457178Y-76068055D01*
X125857082Y-76018207D01*
X125867251Y-76017364D01*
X126272437Y-76000605D01*
X126277561Y-76000500D01*
X126340892Y-76000500D01*
X151763445Y-76000500D01*
X151830484Y-76020185D01*
G37*
%TD.AperFunction*%
%TD*%
M02*
