%TF.GenerationSoftware,KiCad,Pcbnew,9.0.5*%
%TF.CreationDate,2026-04-05T14:36:21-05:00*%
%TF.ProjectId,STM32F4_Starter_Board,53544d33-3246-4345-9f53-746172746572,rev?*%
%TF.SameCoordinates,Original*%
%TF.FileFunction,Soldermask,Bot*%
%TF.FilePolarity,Negative*%
%FSLAX46Y46*%
G04 Gerber Fmt 4.6, Leading zero omitted, Abs format (unit mm)*
G04 Created by KiCad (PCBNEW 9.0.5) date 2026-04-05 14:36:21*
%MOMM*%
%LPD*%
G01*
G04 APERTURE LIST*
G04 Aperture macros list*
%AMRoundRect*
0 Rectangle with rounded corners*
0 $1 Rounding radius*
0 $2 $3 $4 $5 $6 $7 $8 $9 X,Y pos of 4 corners*
0 Add a 4 corners polygon primitive as box body*
4,1,4,$2,$3,$4,$5,$6,$7,$8,$9,$2,$3,0*
0 Add four circle primitives for the rounded corners*
1,1,$1+$1,$2,$3*
1,1,$1+$1,$4,$5*
1,1,$1+$1,$6,$7*
1,1,$1+$1,$8,$9*
0 Add four rect primitives between the rounded corners*
20,1,$1+$1,$2,$3,$4,$5,0*
20,1,$1+$1,$4,$5,$6,$7,0*
20,1,$1+$1,$6,$7,$8,$9,0*
20,1,$1+$1,$8,$9,$2,$3,0*%
G04 Aperture macros list end*
%ADD10C,0.900000*%
%ADD11C,8.600000*%
%ADD12RoundRect,0.200000X-0.200000X-0.450000X0.200000X-0.450000X0.200000X0.450000X-0.200000X0.450000X0*%
%ADD13O,0.800000X1.300000*%
%ADD14RoundRect,0.250001X0.949999X-0.949999X0.949999X0.949999X-0.949999X0.949999X-0.949999X-0.949999X0*%
%ADD15C,2.400000*%
%ADD16RoundRect,0.200000X0.200000X0.450000X-0.200000X0.450000X-0.200000X-0.450000X0.200000X-0.450000X0*%
G04 APERTURE END LIST*
D10*
%TO.C,SW1*%
X122945000Y-94250000D03*
X122945000Y-91250000D03*
%TD*%
%TO.C,H4*%
X123050000Y-81000000D03*
X123994581Y-78719581D03*
X123994581Y-83280419D03*
X126275000Y-77775000D03*
D11*
X126275000Y-81000000D03*
D10*
X126275000Y-84225000D03*
X128555419Y-78719581D03*
X128555419Y-83280419D03*
X129500000Y-81000000D03*
%TD*%
%TO.C,H3*%
X168050000Y-81000000D03*
X168994581Y-78719581D03*
X168994581Y-83280419D03*
X171275000Y-77775000D03*
D11*
X171275000Y-81000000D03*
D10*
X171275000Y-84225000D03*
X173555419Y-78719581D03*
X173555419Y-83280419D03*
X174500000Y-81000000D03*
%TD*%
D12*
%TO.C,J4*%
X139150000Y-121300000D03*
D13*
X140400000Y-121300000D03*
X141650000Y-121300000D03*
X142900000Y-121300000D03*
%TD*%
D14*
%TO.C,J1*%
X171442500Y-107250000D03*
D15*
X171442500Y-103750000D03*
%TD*%
D10*
%TO.C,H2*%
X168050000Y-121000000D03*
X168994581Y-118719581D03*
X168994581Y-123280419D03*
X171275000Y-117775000D03*
D11*
X171275000Y-121000000D03*
D10*
X171275000Y-124225000D03*
X173555419Y-118719581D03*
X173555419Y-123280419D03*
X174500000Y-121000000D03*
%TD*%
D16*
%TO.C,J3*%
X142900000Y-80700000D03*
D13*
X141650000Y-80700000D03*
X140400000Y-80700000D03*
X139150000Y-80700000D03*
%TD*%
D10*
%TO.C,H1*%
X123050000Y-121000000D03*
X123994581Y-118719581D03*
X123994581Y-123280419D03*
X126275000Y-117775000D03*
D11*
X126275000Y-121000000D03*
D10*
X126275000Y-124225000D03*
X128555419Y-118719581D03*
X128555419Y-123280419D03*
X129500000Y-121000000D03*
%TD*%
M02*
