%TF.GenerationSoftware,KiCad,Pcbnew,9.0.5*%
%TF.CreationDate,2026-04-05T14:36:21-05:00*%
%TF.ProjectId,STM32F4_Starter_Board,53544d33-3246-4345-9f53-746172746572,rev?*%
%TF.SameCoordinates,Original*%
%TF.FileFunction,Copper,L4,Bot*%
%TF.FilePolarity,Positive*%
%FSLAX46Y46*%
G04 Gerber Fmt 4.6, Leading zero omitted, Abs format (unit mm)*
G04 Created by KiCad (PCBNEW 9.0.5) date 2026-04-05 14:36:21*
%MOMM*%
%LPD*%
G01*
G04 APERTURE LIST*
G04 Aperture macros list*
%AMRoundRect*
0 Rectangle with rounded corners*
0 $1 Rounding radius*
0 $2 $3 $4 $5 $6 $7 $8 $9 X,Y pos of 4 corners*
0 Add a 4 corners polygon primitive as box body*
4,1,4,$2,$3,$4,$5,$6,$7,$8,$9,$2,$3,0*
0 Add four circle primitives for the rounded corners*
1,1,$1+$1,$2,$3*
1,1,$1+$1,$4,$5*
1,1,$1+$1,$6,$7*
1,1,$1+$1,$8,$9*
0 Add four rect primitives between the rounded corners*
20,1,$1+$1,$2,$3,$4,$5,0*
20,1,$1+$1,$4,$5,$6,$7,0*
20,1,$1+$1,$6,$7,$8,$9,0*
20,1,$1+$1,$8,$9,$2,$3,0*%
G04 Aperture macros list end*
%TA.AperFunction,ComponentPad*%
%ADD10C,0.900000*%
%TD*%
%TA.AperFunction,ComponentPad*%
%ADD11C,8.600000*%
%TD*%
%TA.AperFunction,ComponentPad*%
%ADD12RoundRect,0.200000X-0.200000X-0.450000X0.200000X-0.450000X0.200000X0.450000X-0.200000X0.450000X0*%
%TD*%
%TA.AperFunction,ComponentPad*%
%ADD13O,0.800000X1.300000*%
%TD*%
%TA.AperFunction,ComponentPad*%
%ADD14RoundRect,0.250001X0.949999X-0.949999X0.949999X0.949999X-0.949999X0.949999X-0.949999X-0.949999X0*%
%TD*%
%TA.AperFunction,ComponentPad*%
%ADD15C,2.400000*%
%TD*%
%TA.AperFunction,ComponentPad*%
%ADD16RoundRect,0.200000X0.200000X0.450000X-0.200000X0.450000X-0.200000X-0.450000X0.200000X-0.450000X0*%
%TD*%
%TA.AperFunction,ViaPad*%
%ADD17C,0.600000*%
%TD*%
%TA.AperFunction,Conductor*%
%ADD18C,0.300000*%
%TD*%
G04 APERTURE END LIST*
D10*
%TO.P,H4,1,1*%
%TO.N,GND*%
X123050000Y-81000000D03*
X123994581Y-78719581D03*
X123994581Y-83280419D03*
X126275000Y-77775000D03*
D11*
X126275000Y-81000000D03*
D10*
X126275000Y-84225000D03*
X128555419Y-78719581D03*
X128555419Y-83280419D03*
X129500000Y-81000000D03*
%TD*%
%TO.P,H3,1,1*%
%TO.N,GND*%
X168050000Y-81000000D03*
X168994581Y-78719581D03*
X168994581Y-83280419D03*
X171275000Y-77775000D03*
D11*
X171275000Y-81000000D03*
D10*
X171275000Y-84225000D03*
X173555419Y-78719581D03*
X173555419Y-83280419D03*
X174500000Y-81000000D03*
%TD*%
D12*
%TO.P,J4,1,Pin_1*%
%TO.N,+3.3V*%
X139150000Y-121300000D03*
D13*
%TO.P,J4,2,Pin_2*%
%TO.N,Net-(J4-Pin_2)*%
X140400000Y-121300000D03*
%TO.P,J4,3,Pin_3*%
%TO.N,Net-(J4-Pin_3)*%
X141650000Y-121300000D03*
%TO.P,J4,4,Pin_4*%
%TO.N,GND*%
X142900000Y-121300000D03*
%TD*%
D14*
%TO.P,J1,1,Pin_1*%
%TO.N,+12V*%
X171442500Y-107250000D03*
D15*
%TO.P,J1,2,Pin_2*%
%TO.N,GND*%
X171442500Y-103750000D03*
%TD*%
D10*
%TO.P,H2,1,1*%
%TO.N,GND*%
X168050000Y-121000000D03*
X168994581Y-118719581D03*
X168994581Y-123280419D03*
X171275000Y-117775000D03*
D11*
X171275000Y-121000000D03*
D10*
X171275000Y-124225000D03*
X173555419Y-118719581D03*
X173555419Y-123280419D03*
X174500000Y-121000000D03*
%TD*%
D16*
%TO.P,J3,1,Pin_1*%
%TO.N,+3.3V*%
X142900000Y-80700000D03*
D13*
%TO.P,J3,2,Pin_2*%
%TO.N,Net-(J3-Pin_2)*%
X141650000Y-80700000D03*
%TO.P,J3,3,Pin_3*%
%TO.N,Net-(J3-Pin_3)*%
X140400000Y-80700000D03*
%TO.P,J3,4,Pin_4*%
%TO.N,GND*%
X139150000Y-80700000D03*
%TD*%
D10*
%TO.P,H1,1,1*%
%TO.N,GND*%
X123050000Y-121000000D03*
X123994581Y-118719581D03*
X123994581Y-123280419D03*
X126275000Y-117775000D03*
D11*
X126275000Y-121000000D03*
D10*
X126275000Y-124225000D03*
X128555419Y-118719581D03*
X128555419Y-123280419D03*
X129500000Y-121000000D03*
%TD*%
D17*
%TO.N,+3.3V*%
X152650000Y-76400000D03*
%TO.N,GND*%
X147550000Y-76350000D03*
X150100000Y-76350000D03*
X151350000Y-76350000D03*
X132324407Y-105407524D03*
X136882018Y-113407886D03*
X133000000Y-94900000D03*
X127350000Y-103000000D03*
X160100000Y-80300000D03*
X163392482Y-104953400D03*
X163404592Y-105680003D03*
X163967903Y-112972292D03*
X147679073Y-112381476D03*
X131200000Y-100800000D03*
X163489905Y-114577252D03*
X130450000Y-98650000D03*
X167500000Y-105800000D03*
X163404592Y-104238907D03*
X125787153Y-95000368D03*
X155800000Y-108400000D03*
X135900000Y-94700000D03*
X152814861Y-121903119D03*
X128800000Y-105600000D03*
X152331544Y-100506413D03*
X170900000Y-92100000D03*
X163986068Y-111882387D03*
X133834127Y-104608260D03*
X163502015Y-116224220D03*
X170100000Y-92100000D03*
X154929722Y-107579635D03*
X144736330Y-113168630D03*
X163500000Y-109450000D03*
X158496880Y-121921468D03*
X137705502Y-111647891D03*
X134496880Y-98904525D03*
X167500000Y-91650000D03*
X156060356Y-121915229D03*
X167497791Y-105074501D03*
X163502015Y-115400736D03*
X170100000Y-91200000D03*
X151374849Y-99016876D03*
X152927339Y-90825505D03*
X155248982Y-121903119D03*
X170900000Y-91200000D03*
%TO.N,+3.3V*%
X154001874Y-114886892D03*
X147700000Y-111400000D03*
X125800000Y-90500000D03*
X134600000Y-109400000D03*
X133000000Y-96400000D03*
X167100000Y-109500000D03*
X139800000Y-111100000D03*
X149800000Y-98300000D03*
X160200000Y-78500000D03*
X157052626Y-114898594D03*
X157078471Y-116092355D03*
X155254679Y-119092355D03*
X153958816Y-116092515D03*
X138900000Y-94600000D03*
X156055415Y-119091745D03*
X133800000Y-100500000D03*
X144600000Y-93800000D03*
X167100000Y-108500000D03*
X133800000Y-110100000D03*
X152800000Y-119100000D03*
X158500000Y-119100000D03*
X137000000Y-96300000D03*
%TO.N,NRST*%
X147800000Y-97400000D03*
X144600000Y-100600000D03*
%TD*%
D18*
%TO.N,NRST*%
X144600000Y-100600000D02*
X147800000Y-97400000D01*
%TD*%
M02*
