%TF.GenerationSoftware,KiCad,Pcbnew,9.0.5*%
%TF.CreationDate,2026-04-05T14:36:21-05:00*%
%TF.ProjectId,STM32F4_Starter_Board,53544d33-3246-4345-9f53-746172746572,rev?*%
%TF.SameCoordinates,Original*%
%TF.FileFunction,Soldermask,Top*%
%TF.FilePolarity,Negative*%
%FSLAX46Y46*%
G04 Gerber Fmt 4.6, Leading zero omitted, Abs format (unit mm)*
G04 Created by KiCad (PCBNEW 9.0.5) date 2026-04-05 14:36:21*
%MOMM*%
%LPD*%
G01*
G04 APERTURE LIST*
G04 Aperture macros list*
%AMRoundRect*
0 Rectangle with rounded corners*
0 $1 Rounding radius*
0 $2 $3 $4 $5 $6 $7 $8 $9 X,Y pos of 4 corners*
0 Add a 4 corners polygon primitive as box body*
4,1,4,$2,$3,$4,$5,$6,$7,$8,$9,$2,$3,0*
0 Add four circle primitives for the rounded corners*
1,1,$1+$1,$2,$3*
1,1,$1+$1,$4,$5*
1,1,$1+$1,$6,$7*
1,1,$1+$1,$8,$9*
0 Add four rect primitives between the rounded corners*
20,1,$1+$1,$2,$3,$4,$5,0*
20,1,$1+$1,$4,$5,$6,$7,0*
20,1,$1+$1,$6,$7,$8,$9,0*
20,1,$1+$1,$8,$9,$2,$3,0*%
G04 Aperture macros list end*
%ADD10R,0.740000X2.400000*%
%ADD11R,1.500000X0.700000*%
%ADD12R,0.800000X1.000000*%
%ADD13C,0.900000*%
%ADD14RoundRect,0.147500X0.172500X-0.147500X0.172500X0.147500X-0.172500X0.147500X-0.172500X-0.147500X0*%
%ADD15RoundRect,0.135000X-0.185000X0.135000X-0.185000X-0.135000X0.185000X-0.135000X0.185000X0.135000X0*%
%ADD16RoundRect,0.200000X0.275000X-0.200000X0.275000X0.200000X-0.275000X0.200000X-0.275000X-0.200000X0*%
%ADD17RoundRect,0.200000X0.200000X0.275000X-0.200000X0.275000X-0.200000X-0.275000X0.200000X-0.275000X0*%
%ADD18R,1.380000X0.450000*%
%ADD19R,1.300000X1.650000*%
%ADD20R,1.550000X1.425000*%
%ADD21R,1.900000X1.800000*%
%ADD22R,1.900000X1.000000*%
%ADD23RoundRect,0.250000X-0.625000X0.375000X-0.625000X-0.375000X0.625000X-0.375000X0.625000X0.375000X0*%
%ADD24RoundRect,0.218750X0.381250X-0.218750X0.381250X0.218750X-0.381250X0.218750X-0.381250X-0.218750X0*%
%ADD25RoundRect,0.150000X-0.150000X0.587500X-0.150000X-0.587500X0.150000X-0.587500X0.150000X0.587500X0*%
%ADD26C,8.600000*%
%ADD27RoundRect,0.140000X-0.140000X-0.170000X0.140000X-0.170000X0.140000X0.170000X-0.140000X0.170000X0*%
%ADD28RoundRect,0.225000X0.375000X-0.225000X0.375000X0.225000X-0.375000X0.225000X-0.375000X-0.225000X0*%
%ADD29RoundRect,0.150000X0.512500X0.150000X-0.512500X0.150000X-0.512500X-0.150000X0.512500X-0.150000X0*%
%ADD30RoundRect,0.140000X-0.170000X0.140000X-0.170000X-0.140000X0.170000X-0.140000X0.170000X0.140000X0*%
%ADD31RoundRect,0.200000X-0.275000X0.200000X-0.275000X-0.200000X0.275000X-0.200000X0.275000X0.200000X0*%
%ADD32RoundRect,0.140000X0.140000X0.170000X-0.140000X0.170000X-0.140000X-0.170000X0.140000X-0.170000X0*%
%ADD33RoundRect,0.135000X-0.135000X-0.185000X0.135000X-0.185000X0.135000X0.185000X-0.135000X0.185000X0*%
%ADD34RoundRect,0.135000X0.135000X0.185000X-0.135000X0.185000X-0.135000X-0.185000X0.135000X-0.185000X0*%
%ADD35RoundRect,0.250000X0.375000X0.625000X-0.375000X0.625000X-0.375000X-0.625000X0.375000X-0.625000X0*%
%ADD36RoundRect,0.218750X-0.218750X-0.256250X0.218750X-0.256250X0.218750X0.256250X-0.218750X0.256250X0*%
%ADD37RoundRect,0.200000X-0.200000X-0.275000X0.200000X-0.275000X0.200000X0.275000X-0.200000X0.275000X0*%
%ADD38RoundRect,0.135000X0.185000X-0.135000X0.185000X0.135000X-0.185000X0.135000X-0.185000X-0.135000X0*%
%ADD39RoundRect,0.250000X0.625000X-0.375000X0.625000X0.375000X-0.625000X0.375000X-0.625000X-0.375000X0*%
%ADD40RoundRect,0.225000X-0.250000X0.225000X-0.250000X-0.225000X0.250000X-0.225000X0.250000X0.225000X0*%
%ADD41RoundRect,0.225000X0.250000X-0.225000X0.250000X0.225000X-0.250000X0.225000X-0.250000X-0.225000X0*%
%ADD42RoundRect,0.200000X-0.200000X-0.450000X0.200000X-0.450000X0.200000X0.450000X-0.200000X0.450000X0*%
%ADD43O,0.800000X1.300000*%
%ADD44RoundRect,0.250001X0.949999X-0.949999X0.949999X0.949999X-0.949999X0.949999X-0.949999X-0.949999X0*%
%ADD45C,2.400000*%
%ADD46RoundRect,0.225000X-0.225000X-0.375000X0.225000X-0.375000X0.225000X0.375000X-0.225000X0.375000X0*%
%ADD47RoundRect,0.140000X0.170000X-0.140000X0.170000X0.140000X-0.170000X0.140000X-0.170000X-0.140000X0*%
%ADD48RoundRect,0.075000X-0.700000X-0.075000X0.700000X-0.075000X0.700000X0.075000X-0.700000X0.075000X0*%
%ADD49RoundRect,0.075000X-0.075000X-0.700000X0.075000X-0.700000X0.075000X0.700000X-0.075000X0.700000X0*%
%ADD50RoundRect,0.200000X0.200000X0.450000X-0.200000X0.450000X-0.200000X-0.450000X0.200000X-0.450000X0*%
%ADD51RoundRect,0.225000X-0.225000X-0.250000X0.225000X-0.250000X0.225000X0.250000X-0.225000X0.250000X0*%
%ADD52RoundRect,0.250000X-1.000000X0.700000X-1.000000X-0.700000X1.000000X-0.700000X1.000000X0.700000X0*%
%ADD53RoundRect,0.250000X-0.350000X0.450000X-0.350000X-0.450000X0.350000X-0.450000X0.350000X0.450000X0*%
%ADD54RoundRect,0.250000X-0.375000X-0.625000X0.375000X-0.625000X0.375000X0.625000X-0.375000X0.625000X0*%
%ADD55RoundRect,0.218750X0.218750X0.256250X-0.218750X0.256250X-0.218750X-0.256250X0.218750X-0.256250X0*%
G04 APERTURE END LIST*
D10*
%TO.C,J2*%
X152640000Y-78100000D03*
X152640000Y-82000000D03*
X151370000Y-78100000D03*
X151370000Y-82000000D03*
X150100000Y-78100000D03*
X150100000Y-82000000D03*
X148830000Y-78100000D03*
X148830000Y-82000000D03*
X147560000Y-78100000D03*
X147560000Y-82000000D03*
%TD*%
D11*
%TO.C,SW1*%
X124705000Y-95000000D03*
X124705000Y-93500000D03*
X124705000Y-90500000D03*
D12*
X121845000Y-96400000D03*
X124055000Y-96400000D03*
D13*
X122945000Y-94250000D03*
X122945000Y-91250000D03*
D12*
X121845000Y-89100000D03*
X124055000Y-89100000D03*
%TD*%
D14*
%TO.C,L1*%
X133825000Y-109385000D03*
X133825000Y-108415000D03*
%TD*%
D15*
%TO.C,R15*%
X141775000Y-87490000D03*
X141775000Y-88510000D03*
%TD*%
D16*
%TO.C,R5*%
X155775000Y-107575000D03*
X155775000Y-105925000D03*
%TD*%
D17*
%TO.C,R7*%
X166350000Y-110750000D03*
X164700000Y-110750000D03*
%TD*%
D18*
%TO.C,J5*%
X172115000Y-94675000D03*
X172115000Y-94025000D03*
X172115000Y-93375000D03*
X172115000Y-92725000D03*
X172115000Y-92075000D03*
D19*
X174775000Y-96750000D03*
D20*
X172200000Y-95862500D03*
D21*
X174775000Y-94525000D03*
D22*
X174775000Y-91825000D03*
D20*
X172200000Y-90887500D03*
D19*
X174775000Y-90000000D03*
%TD*%
D23*
%TO.C,C16*%
X154025000Y-119100000D03*
X154025000Y-121900000D03*
%TD*%
D24*
%TO.C,FB1*%
X160025000Y-101875000D03*
X160025000Y-99750000D03*
%TD*%
D25*
%TO.C,Q1*%
X166725000Y-105062500D03*
X164825000Y-105062500D03*
X165775000Y-106937500D03*
%TD*%
D13*
%TO.C,H4*%
X123050000Y-81000000D03*
X123994581Y-78719581D03*
X123994581Y-83280419D03*
X126275000Y-77775000D03*
D26*
X126275000Y-81000000D03*
D13*
X126275000Y-84225000D03*
X128555419Y-78719581D03*
X128555419Y-83280419D03*
X129500000Y-81000000D03*
%TD*%
D27*
%TO.C,C11*%
X128845000Y-98650000D03*
X129805000Y-98650000D03*
%TD*%
D28*
%TO.C,D3*%
X164775000Y-102900000D03*
X164775000Y-99600000D03*
%TD*%
D29*
%TO.C,U3*%
X168637500Y-94650000D03*
X168637500Y-93700000D03*
X168637500Y-92750000D03*
X166362500Y-92750000D03*
X166362500Y-93700000D03*
X166362500Y-94650000D03*
%TD*%
D30*
%TO.C,C9*%
X132300000Y-106020000D03*
X132300000Y-106980000D03*
%TD*%
D31*
%TO.C,R4*%
X157525000Y-105925000D03*
X157525000Y-107575000D03*
%TD*%
D27*
%TO.C,C5*%
X138345000Y-111650000D03*
X139305000Y-111650000D03*
%TD*%
D32*
%TO.C,C12*%
X129780000Y-104800000D03*
X128820000Y-104800000D03*
%TD*%
D15*
%TO.C,R16*%
X140275000Y-87490000D03*
X140275000Y-88510000D03*
%TD*%
D30*
%TO.C,C4*%
X133825000Y-98920000D03*
X133825000Y-99880000D03*
%TD*%
D33*
%TO.C,R2*%
X133090000Y-103000000D03*
X134110000Y-103000000D03*
%TD*%
D13*
%TO.C,H3*%
X168050000Y-81000000D03*
X168994581Y-78719581D03*
X168994581Y-83280419D03*
X171275000Y-77775000D03*
D26*
X171275000Y-81000000D03*
D13*
X171275000Y-84225000D03*
X173555419Y-78719581D03*
X173555419Y-83280419D03*
X174500000Y-81000000D03*
%TD*%
D34*
%TO.C,R1*%
X129310000Y-93600000D03*
X128290000Y-93600000D03*
%TD*%
D35*
%TO.C,C13*%
X162425000Y-105000000D03*
X159625000Y-105000000D03*
%TD*%
D36*
%TO.C,D1*%
X134500000Y-111650000D03*
X136075000Y-111650000D03*
%TD*%
D37*
%TO.C,R14*%
X142175000Y-93800000D03*
X143825000Y-93800000D03*
%TD*%
D38*
%TO.C,R18*%
X141800000Y-113810000D03*
X141800000Y-112790000D03*
%TD*%
D39*
%TO.C,F1*%
X162275000Y-102750000D03*
X162275000Y-99950000D03*
%TD*%
D40*
%TO.C,C1*%
X145600000Y-111625000D03*
X145600000Y-113175000D03*
%TD*%
D17*
%TO.C,R3*%
X136150000Y-113400000D03*
X134500000Y-113400000D03*
%TD*%
D38*
%TO.C,R17*%
X140400000Y-113810000D03*
X140400000Y-112790000D03*
%TD*%
D41*
%TO.C,C17*%
X152915000Y-90025000D03*
X152915000Y-88475000D03*
%TD*%
D42*
%TO.C,J4*%
X139150000Y-121300000D03*
D43*
X140400000Y-121300000D03*
X141650000Y-121300000D03*
X142900000Y-121300000D03*
%TD*%
D30*
%TO.C,C8*%
X136575000Y-94670000D03*
X136575000Y-95630000D03*
%TD*%
D44*
%TO.C,J1*%
X171442500Y-107250000D03*
D45*
X171442500Y-103750000D03*
%TD*%
D32*
%TO.C,C7*%
X150755000Y-99000000D03*
X149795000Y-99000000D03*
%TD*%
D13*
%TO.C,H2*%
X168050000Y-121000000D03*
X168994581Y-118719581D03*
X168994581Y-123280419D03*
X171275000Y-117775000D03*
D26*
X171275000Y-121000000D03*
D13*
X171275000Y-124225000D03*
X173555419Y-118719581D03*
X173555419Y-123280419D03*
X174500000Y-121000000D03*
%TD*%
D46*
%TO.C,D2*%
X159375000Y-115500000D03*
X162675000Y-115500000D03*
%TD*%
D29*
%TO.C,U2*%
X162162500Y-109200000D03*
X162162500Y-108250000D03*
X162162500Y-107300000D03*
X159887500Y-107300000D03*
X159887500Y-108250000D03*
X159887500Y-109200000D03*
%TD*%
D47*
%TO.C,C6*%
X147000000Y-112380000D03*
X147000000Y-111420000D03*
%TD*%
D48*
%TO.C,U1*%
X136225000Y-99900000D03*
X136225000Y-100400000D03*
X136225000Y-100900000D03*
X136225000Y-101400000D03*
X136225000Y-101900000D03*
X136225000Y-102400000D03*
X136225000Y-102900000D03*
X136225000Y-103400000D03*
X136225000Y-103900000D03*
X136225000Y-104400000D03*
X136225000Y-104900000D03*
X136225000Y-105400000D03*
X136225000Y-105900000D03*
X136225000Y-106400000D03*
X136225000Y-106900000D03*
X136225000Y-107400000D03*
D49*
X138150000Y-109325000D03*
X138650000Y-109325000D03*
X139150000Y-109325000D03*
X139650000Y-109325000D03*
X140150000Y-109325000D03*
X140650000Y-109325000D03*
X141150000Y-109325000D03*
X141650000Y-109325000D03*
X142150000Y-109325000D03*
X142650000Y-109325000D03*
X143150000Y-109325000D03*
X143650000Y-109325000D03*
X144150000Y-109325000D03*
X144650000Y-109325000D03*
X145150000Y-109325000D03*
X145650000Y-109325000D03*
D48*
X147575000Y-107400000D03*
X147575000Y-106900000D03*
X147575000Y-106400000D03*
X147575000Y-105900000D03*
X147575000Y-105400000D03*
X147575000Y-104900000D03*
X147575000Y-104400000D03*
X147575000Y-103900000D03*
X147575000Y-103400000D03*
X147575000Y-102900000D03*
X147575000Y-102400000D03*
X147575000Y-101900000D03*
X147575000Y-101400000D03*
X147575000Y-100900000D03*
X147575000Y-100400000D03*
X147575000Y-99900000D03*
D49*
X145650000Y-97975000D03*
X145150000Y-97975000D03*
X144650000Y-97975000D03*
X144150000Y-97975000D03*
X143650000Y-97975000D03*
X143150000Y-97975000D03*
X142650000Y-97975000D03*
X142150000Y-97975000D03*
X141650000Y-97975000D03*
X141150000Y-97975000D03*
X140650000Y-97975000D03*
X140150000Y-97975000D03*
X139650000Y-97975000D03*
X139150000Y-97975000D03*
X138650000Y-97975000D03*
X138150000Y-97975000D03*
%TD*%
D37*
%TO.C,R8*%
X164700000Y-112500000D03*
X166350000Y-112500000D03*
%TD*%
D50*
%TO.C,J3*%
X142900000Y-80700000D03*
D43*
X141650000Y-80700000D03*
X140400000Y-80700000D03*
X139150000Y-80700000D03*
%TD*%
D38*
%TO.C,R9*%
X149900000Y-90260000D03*
X149900000Y-89240000D03*
%TD*%
%TO.C,R11*%
X147500000Y-90310000D03*
X147500000Y-89290000D03*
%TD*%
D51*
%TO.C,C2*%
X150000000Y-100500000D03*
X151550000Y-100500000D03*
%TD*%
D52*
%TO.C,L2*%
X155525000Y-111700000D03*
X155525000Y-115800000D03*
%TD*%
D40*
%TO.C,C10*%
X133800000Y-105425000D03*
X133800000Y-106975000D03*
%TD*%
D37*
%TO.C,R19*%
X160875000Y-80250000D03*
X162525000Y-80250000D03*
%TD*%
D17*
%TO.C,R13*%
X140625000Y-93800000D03*
X138975000Y-93800000D03*
%TD*%
D23*
%TO.C,C15*%
X157275000Y-119100000D03*
X157275000Y-121900000D03*
%TD*%
D38*
%TO.C,R12*%
X151165000Y-90260000D03*
X151165000Y-89240000D03*
%TD*%
D13*
%TO.C,H1*%
X123050000Y-121000000D03*
X123994581Y-118719581D03*
X123994581Y-123280419D03*
X126275000Y-117775000D03*
D26*
X126275000Y-121000000D03*
D13*
X126275000Y-124225000D03*
X128555419Y-118719581D03*
X128555419Y-123280419D03*
X129500000Y-121000000D03*
%TD*%
D37*
%TO.C,R6*%
X164700000Y-109000000D03*
X166350000Y-109000000D03*
%TD*%
D40*
%TO.C,C3*%
X133825000Y-94875000D03*
X133825000Y-96425000D03*
%TD*%
D53*
%TO.C,Y1*%
X128350000Y-100800000D03*
X128350000Y-103000000D03*
X130050000Y-103000000D03*
X130050000Y-100800000D03*
%TD*%
D38*
%TO.C,R10*%
X148665000Y-90260000D03*
X148665000Y-89240000D03*
%TD*%
D54*
%TO.C,C14*%
X159625000Y-112750000D03*
X162425000Y-112750000D03*
%TD*%
D55*
%TO.C,D5*%
X162525000Y-78500000D03*
X160950000Y-78500000D03*
%TD*%
M02*
