%TF.GenerationSoftware,KiCad,Pcbnew,9.0.5*%
%TF.CreationDate,2026-04-05T14:36:21-05:00*%
%TF.ProjectId,STM32F4_Starter_Board,53544d33-3246-4345-9f53-746172746572,rev?*%
%TF.SameCoordinates,Original*%
%TF.FileFunction,Legend,Top*%
%TF.FilePolarity,Positive*%
%FSLAX46Y46*%
G04 Gerber Fmt 4.6, Leading zero omitted, Abs format (unit mm)*
G04 Created by KiCad (PCBNEW 9.0.5) date 2026-04-05 14:36:21*
%MOMM*%
%LPD*%
G01*
G04 APERTURE LIST*
%ADD10C,0.100000*%
%ADD11C,0.150000*%
%ADD12C,0.120000*%
G04 APERTURE END LIST*
D10*
X137987217Y-103534657D02*
X137987217Y-104177514D01*
X137987217Y-104177514D02*
X137944360Y-104306085D01*
X137944360Y-104306085D02*
X137858646Y-104391800D01*
X137858646Y-104391800D02*
X137730074Y-104434657D01*
X137730074Y-104434657D02*
X137644360Y-104434657D01*
X138844360Y-104434657D02*
X138415788Y-104434657D01*
X138415788Y-104434657D02*
X138415788Y-103534657D01*
X139658645Y-104348942D02*
X139615788Y-104391800D01*
X139615788Y-104391800D02*
X139487216Y-104434657D01*
X139487216Y-104434657D02*
X139401502Y-104434657D01*
X139401502Y-104434657D02*
X139272931Y-104391800D01*
X139272931Y-104391800D02*
X139187216Y-104306085D01*
X139187216Y-104306085D02*
X139144359Y-104220371D01*
X139144359Y-104220371D02*
X139101502Y-104048942D01*
X139101502Y-104048942D02*
X139101502Y-103920371D01*
X139101502Y-103920371D02*
X139144359Y-103748942D01*
X139144359Y-103748942D02*
X139187216Y-103663228D01*
X139187216Y-103663228D02*
X139272931Y-103577514D01*
X139272931Y-103577514D02*
X139401502Y-103534657D01*
X139401502Y-103534657D02*
X139487216Y-103534657D01*
X139487216Y-103534657D02*
X139615788Y-103577514D01*
X139615788Y-103577514D02*
X139658645Y-103620371D01*
X140301502Y-103534657D02*
X140301502Y-104177514D01*
X140301502Y-104177514D02*
X140258645Y-104306085D01*
X140258645Y-104306085D02*
X140172931Y-104391800D01*
X140172931Y-104391800D02*
X140044359Y-104434657D01*
X140044359Y-104434657D02*
X139958645Y-104434657D01*
X141158645Y-104434657D02*
X140730073Y-104434657D01*
X140730073Y-104434657D02*
X140730073Y-103534657D01*
X141972930Y-104348942D02*
X141930073Y-104391800D01*
X141930073Y-104391800D02*
X141801501Y-104434657D01*
X141801501Y-104434657D02*
X141715787Y-104434657D01*
X141715787Y-104434657D02*
X141587216Y-104391800D01*
X141587216Y-104391800D02*
X141501501Y-104306085D01*
X141501501Y-104306085D02*
X141458644Y-104220371D01*
X141458644Y-104220371D02*
X141415787Y-104048942D01*
X141415787Y-104048942D02*
X141415787Y-103920371D01*
X141415787Y-103920371D02*
X141458644Y-103748942D01*
X141458644Y-103748942D02*
X141501501Y-103663228D01*
X141501501Y-103663228D02*
X141587216Y-103577514D01*
X141587216Y-103577514D02*
X141715787Y-103534657D01*
X141715787Y-103534657D02*
X141801501Y-103534657D01*
X141801501Y-103534657D02*
X141930073Y-103577514D01*
X141930073Y-103577514D02*
X141972930Y-103620371D01*
X142615787Y-103534657D02*
X142615787Y-104177514D01*
X142615787Y-104177514D02*
X142572930Y-104306085D01*
X142572930Y-104306085D02*
X142487216Y-104391800D01*
X142487216Y-104391800D02*
X142358644Y-104434657D01*
X142358644Y-104434657D02*
X142272930Y-104434657D01*
X143472930Y-104434657D02*
X143044358Y-104434657D01*
X143044358Y-104434657D02*
X143044358Y-103534657D01*
X144287215Y-104348942D02*
X144244358Y-104391800D01*
X144244358Y-104391800D02*
X144115786Y-104434657D01*
X144115786Y-104434657D02*
X144030072Y-104434657D01*
X144030072Y-104434657D02*
X143901501Y-104391800D01*
X143901501Y-104391800D02*
X143815786Y-104306085D01*
X143815786Y-104306085D02*
X143772929Y-104220371D01*
X143772929Y-104220371D02*
X143730072Y-104048942D01*
X143730072Y-104048942D02*
X143730072Y-103920371D01*
X143730072Y-103920371D02*
X143772929Y-103748942D01*
X143772929Y-103748942D02*
X143815786Y-103663228D01*
X143815786Y-103663228D02*
X143901501Y-103577514D01*
X143901501Y-103577514D02*
X144030072Y-103534657D01*
X144030072Y-103534657D02*
X144115786Y-103534657D01*
X144115786Y-103534657D02*
X144244358Y-103577514D01*
X144244358Y-103577514D02*
X144287215Y-103620371D01*
X144930072Y-103534657D02*
X144930072Y-104177514D01*
X144930072Y-104177514D02*
X144887215Y-104306085D01*
X144887215Y-104306085D02*
X144801501Y-104391800D01*
X144801501Y-104391800D02*
X144672929Y-104434657D01*
X144672929Y-104434657D02*
X144587215Y-104434657D01*
X145787215Y-104434657D02*
X145358643Y-104434657D01*
X145358643Y-104434657D02*
X145358643Y-103534657D01*
X146601500Y-104348942D02*
X146558643Y-104391800D01*
X146558643Y-104391800D02*
X146430071Y-104434657D01*
X146430071Y-104434657D02*
X146344357Y-104434657D01*
X146344357Y-104434657D02*
X146215786Y-104391800D01*
X146215786Y-104391800D02*
X146130071Y-104306085D01*
X146130071Y-104306085D02*
X146087214Y-104220371D01*
X146087214Y-104220371D02*
X146044357Y-104048942D01*
X146044357Y-104048942D02*
X146044357Y-103920371D01*
X146044357Y-103920371D02*
X146087214Y-103748942D01*
X146087214Y-103748942D02*
X146130071Y-103663228D01*
X146130071Y-103663228D02*
X146215786Y-103577514D01*
X146215786Y-103577514D02*
X146344357Y-103534657D01*
X146344357Y-103534657D02*
X146430071Y-103534657D01*
X146430071Y-103534657D02*
X146558643Y-103577514D01*
X146558643Y-103577514D02*
X146601500Y-103620371D01*
X147618169Y-125718800D02*
X147732455Y-125756895D01*
X147732455Y-125756895D02*
X147922931Y-125756895D01*
X147922931Y-125756895D02*
X147999122Y-125718800D01*
X147999122Y-125718800D02*
X148037217Y-125680704D01*
X148037217Y-125680704D02*
X148075312Y-125604514D01*
X148075312Y-125604514D02*
X148075312Y-125528323D01*
X148075312Y-125528323D02*
X148037217Y-125452133D01*
X148037217Y-125452133D02*
X147999122Y-125414038D01*
X147999122Y-125414038D02*
X147922931Y-125375942D01*
X147922931Y-125375942D02*
X147770550Y-125337847D01*
X147770550Y-125337847D02*
X147694360Y-125299752D01*
X147694360Y-125299752D02*
X147656265Y-125261657D01*
X147656265Y-125261657D02*
X147618169Y-125185466D01*
X147618169Y-125185466D02*
X147618169Y-125109276D01*
X147618169Y-125109276D02*
X147656265Y-125033085D01*
X147656265Y-125033085D02*
X147694360Y-124994990D01*
X147694360Y-124994990D02*
X147770550Y-124956895D01*
X147770550Y-124956895D02*
X147961027Y-124956895D01*
X147961027Y-124956895D02*
X148075312Y-124994990D01*
X148303884Y-124956895D02*
X148761027Y-124956895D01*
X148532455Y-125756895D02*
X148532455Y-124956895D01*
X149027694Y-125756895D02*
X149027694Y-124956895D01*
X149027694Y-124956895D02*
X149294360Y-125528323D01*
X149294360Y-125528323D02*
X149561027Y-124956895D01*
X149561027Y-124956895D02*
X149561027Y-125756895D01*
X149865789Y-124956895D02*
X150361027Y-124956895D01*
X150361027Y-124956895D02*
X150094361Y-125261657D01*
X150094361Y-125261657D02*
X150208646Y-125261657D01*
X150208646Y-125261657D02*
X150284837Y-125299752D01*
X150284837Y-125299752D02*
X150322932Y-125337847D01*
X150322932Y-125337847D02*
X150361027Y-125414038D01*
X150361027Y-125414038D02*
X150361027Y-125604514D01*
X150361027Y-125604514D02*
X150322932Y-125680704D01*
X150322932Y-125680704D02*
X150284837Y-125718800D01*
X150284837Y-125718800D02*
X150208646Y-125756895D01*
X150208646Y-125756895D02*
X149980075Y-125756895D01*
X149980075Y-125756895D02*
X149903884Y-125718800D01*
X149903884Y-125718800D02*
X149865789Y-125680704D01*
X150665789Y-125033085D02*
X150703885Y-124994990D01*
X150703885Y-124994990D02*
X150780075Y-124956895D01*
X150780075Y-124956895D02*
X150970551Y-124956895D01*
X150970551Y-124956895D02*
X151046742Y-124994990D01*
X151046742Y-124994990D02*
X151084837Y-125033085D01*
X151084837Y-125033085D02*
X151122932Y-125109276D01*
X151122932Y-125109276D02*
X151122932Y-125185466D01*
X151122932Y-125185466D02*
X151084837Y-125299752D01*
X151084837Y-125299752D02*
X150627694Y-125756895D01*
X150627694Y-125756895D02*
X151122932Y-125756895D01*
X151732456Y-125337847D02*
X151465790Y-125337847D01*
X151465790Y-125756895D02*
X151465790Y-124956895D01*
X151465790Y-124956895D02*
X151846742Y-124956895D01*
X152494361Y-125223561D02*
X152494361Y-125756895D01*
X152303885Y-124918800D02*
X152113408Y-125490228D01*
X152113408Y-125490228D02*
X152608647Y-125490228D01*
X153408647Y-124956895D02*
X153865790Y-124956895D01*
X153637218Y-125756895D02*
X153637218Y-124956895D01*
X154132457Y-125337847D02*
X154399123Y-125337847D01*
X154513409Y-125756895D02*
X154132457Y-125756895D01*
X154132457Y-125756895D02*
X154132457Y-124956895D01*
X154132457Y-124956895D02*
X154513409Y-124956895D01*
X154818171Y-125718800D02*
X154932457Y-125756895D01*
X154932457Y-125756895D02*
X155122933Y-125756895D01*
X155122933Y-125756895D02*
X155199124Y-125718800D01*
X155199124Y-125718800D02*
X155237219Y-125680704D01*
X155237219Y-125680704D02*
X155275314Y-125604514D01*
X155275314Y-125604514D02*
X155275314Y-125528323D01*
X155275314Y-125528323D02*
X155237219Y-125452133D01*
X155237219Y-125452133D02*
X155199124Y-125414038D01*
X155199124Y-125414038D02*
X155122933Y-125375942D01*
X155122933Y-125375942D02*
X154970552Y-125337847D01*
X154970552Y-125337847D02*
X154894362Y-125299752D01*
X154894362Y-125299752D02*
X154856267Y-125261657D01*
X154856267Y-125261657D02*
X154818171Y-125185466D01*
X154818171Y-125185466D02*
X154818171Y-125109276D01*
X154818171Y-125109276D02*
X154856267Y-125033085D01*
X154856267Y-125033085D02*
X154894362Y-124994990D01*
X154894362Y-124994990D02*
X154970552Y-124956895D01*
X154970552Y-124956895D02*
X155161029Y-124956895D01*
X155161029Y-124956895D02*
X155275314Y-124994990D01*
X155503886Y-124956895D02*
X155961029Y-124956895D01*
X155732457Y-125756895D02*
X155732457Y-124956895D01*
X157103886Y-125337847D02*
X157218172Y-125375942D01*
X157218172Y-125375942D02*
X157256267Y-125414038D01*
X157256267Y-125414038D02*
X157294363Y-125490228D01*
X157294363Y-125490228D02*
X157294363Y-125604514D01*
X157294363Y-125604514D02*
X157256267Y-125680704D01*
X157256267Y-125680704D02*
X157218172Y-125718800D01*
X157218172Y-125718800D02*
X157141982Y-125756895D01*
X157141982Y-125756895D02*
X156837220Y-125756895D01*
X156837220Y-125756895D02*
X156837220Y-124956895D01*
X156837220Y-124956895D02*
X157103886Y-124956895D01*
X157103886Y-124956895D02*
X157180077Y-124994990D01*
X157180077Y-124994990D02*
X157218172Y-125033085D01*
X157218172Y-125033085D02*
X157256267Y-125109276D01*
X157256267Y-125109276D02*
X157256267Y-125185466D01*
X157256267Y-125185466D02*
X157218172Y-125261657D01*
X157218172Y-125261657D02*
X157180077Y-125299752D01*
X157180077Y-125299752D02*
X157103886Y-125337847D01*
X157103886Y-125337847D02*
X156837220Y-125337847D01*
X157789601Y-124956895D02*
X157941982Y-124956895D01*
X157941982Y-124956895D02*
X158018172Y-124994990D01*
X158018172Y-124994990D02*
X158094363Y-125071180D01*
X158094363Y-125071180D02*
X158132458Y-125223561D01*
X158132458Y-125223561D02*
X158132458Y-125490228D01*
X158132458Y-125490228D02*
X158094363Y-125642609D01*
X158094363Y-125642609D02*
X158018172Y-125718800D01*
X158018172Y-125718800D02*
X157941982Y-125756895D01*
X157941982Y-125756895D02*
X157789601Y-125756895D01*
X157789601Y-125756895D02*
X157713410Y-125718800D01*
X157713410Y-125718800D02*
X157637220Y-125642609D01*
X157637220Y-125642609D02*
X157599124Y-125490228D01*
X157599124Y-125490228D02*
X157599124Y-125223561D01*
X157599124Y-125223561D02*
X157637220Y-125071180D01*
X157637220Y-125071180D02*
X157713410Y-124994990D01*
X157713410Y-124994990D02*
X157789601Y-124956895D01*
X158437219Y-125528323D02*
X158818172Y-125528323D01*
X158361029Y-125756895D02*
X158627696Y-124956895D01*
X158627696Y-124956895D02*
X158894362Y-125756895D01*
X159618172Y-125756895D02*
X159351505Y-125375942D01*
X159161029Y-125756895D02*
X159161029Y-124956895D01*
X159161029Y-124956895D02*
X159465791Y-124956895D01*
X159465791Y-124956895D02*
X159541981Y-124994990D01*
X159541981Y-124994990D02*
X159580076Y-125033085D01*
X159580076Y-125033085D02*
X159618172Y-125109276D01*
X159618172Y-125109276D02*
X159618172Y-125223561D01*
X159618172Y-125223561D02*
X159580076Y-125299752D01*
X159580076Y-125299752D02*
X159541981Y-125337847D01*
X159541981Y-125337847D02*
X159465791Y-125375942D01*
X159465791Y-125375942D02*
X159161029Y-125375942D01*
X159961029Y-125756895D02*
X159961029Y-124956895D01*
X159961029Y-124956895D02*
X160151505Y-124956895D01*
X160151505Y-124956895D02*
X160265791Y-124994990D01*
X160265791Y-124994990D02*
X160341981Y-125071180D01*
X160341981Y-125071180D02*
X160380076Y-125147371D01*
X160380076Y-125147371D02*
X160418172Y-125299752D01*
X160418172Y-125299752D02*
X160418172Y-125414038D01*
X160418172Y-125414038D02*
X160380076Y-125566419D01*
X160380076Y-125566419D02*
X160341981Y-125642609D01*
X160341981Y-125642609D02*
X160265791Y-125718800D01*
X160265791Y-125718800D02*
X160151505Y-125756895D01*
X160151505Y-125756895D02*
X159961029Y-125756895D01*
X161561029Y-126023561D02*
X161561029Y-124880704D01*
X163199125Y-125756895D02*
X162932458Y-125375942D01*
X162741982Y-125756895D02*
X162741982Y-124956895D01*
X162741982Y-124956895D02*
X163046744Y-124956895D01*
X163046744Y-124956895D02*
X163122934Y-124994990D01*
X163122934Y-124994990D02*
X163161029Y-125033085D01*
X163161029Y-125033085D02*
X163199125Y-125109276D01*
X163199125Y-125109276D02*
X163199125Y-125223561D01*
X163199125Y-125223561D02*
X163161029Y-125299752D01*
X163161029Y-125299752D02*
X163122934Y-125337847D01*
X163122934Y-125337847D02*
X163046744Y-125375942D01*
X163046744Y-125375942D02*
X162741982Y-125375942D01*
X163541982Y-125337847D02*
X163808648Y-125337847D01*
X163922934Y-125756895D02*
X163541982Y-125756895D01*
X163541982Y-125756895D02*
X163541982Y-124956895D01*
X163541982Y-124956895D02*
X163922934Y-124956895D01*
X164151506Y-124956895D02*
X164418173Y-125756895D01*
X164418173Y-125756895D02*
X164684839Y-124956895D01*
X165980077Y-125756895D02*
X165522934Y-125756895D01*
X165751506Y-125756895D02*
X165751506Y-124956895D01*
X165751506Y-124956895D02*
X165675315Y-125071180D01*
X165675315Y-125071180D02*
X165599125Y-125147371D01*
X165599125Y-125147371D02*
X165522934Y-125185466D01*
X122375312Y-98472419D02*
X122041979Y-97996228D01*
X121803884Y-98472419D02*
X121803884Y-97472419D01*
X121803884Y-97472419D02*
X122184836Y-97472419D01*
X122184836Y-97472419D02*
X122280074Y-97520038D01*
X122280074Y-97520038D02*
X122327693Y-97567657D01*
X122327693Y-97567657D02*
X122375312Y-97662895D01*
X122375312Y-97662895D02*
X122375312Y-97805752D01*
X122375312Y-97805752D02*
X122327693Y-97900990D01*
X122327693Y-97900990D02*
X122280074Y-97948609D01*
X122280074Y-97948609D02*
X122184836Y-97996228D01*
X122184836Y-97996228D02*
X121803884Y-97996228D01*
X122803884Y-97472419D02*
X122803884Y-98281942D01*
X122803884Y-98281942D02*
X122851503Y-98377180D01*
X122851503Y-98377180D02*
X122899122Y-98424800D01*
X122899122Y-98424800D02*
X122994360Y-98472419D01*
X122994360Y-98472419D02*
X123184836Y-98472419D01*
X123184836Y-98472419D02*
X123280074Y-98424800D01*
X123280074Y-98424800D02*
X123327693Y-98377180D01*
X123327693Y-98377180D02*
X123375312Y-98281942D01*
X123375312Y-98281942D02*
X123375312Y-97472419D01*
X123851503Y-98472419D02*
X123851503Y-97472419D01*
X123851503Y-97472419D02*
X124422931Y-98472419D01*
X124422931Y-98472419D02*
X124422931Y-97472419D01*
X171122931Y-110289800D02*
X172265789Y-110289800D01*
X171694360Y-110861228D02*
X171694360Y-109718371D01*
X159606265Y-77357133D02*
X160215789Y-77357133D01*
X159911027Y-77661895D02*
X159911027Y-77052371D01*
X136343765Y-110542133D02*
X136953289Y-110542133D01*
X136648527Y-110846895D02*
X136648527Y-110237371D01*
X166031265Y-99192133D02*
X166640789Y-99192133D01*
X166336027Y-99496895D02*
X166336027Y-98887371D01*
X128606265Y-112074800D02*
X128749122Y-112122419D01*
X128749122Y-112122419D02*
X128987217Y-112122419D01*
X128987217Y-112122419D02*
X129082455Y-112074800D01*
X129082455Y-112074800D02*
X129130074Y-112027180D01*
X129130074Y-112027180D02*
X129177693Y-111931942D01*
X129177693Y-111931942D02*
X129177693Y-111836704D01*
X129177693Y-111836704D02*
X129130074Y-111741466D01*
X129130074Y-111741466D02*
X129082455Y-111693847D01*
X129082455Y-111693847D02*
X128987217Y-111646228D01*
X128987217Y-111646228D02*
X128796741Y-111598609D01*
X128796741Y-111598609D02*
X128701503Y-111550990D01*
X128701503Y-111550990D02*
X128653884Y-111503371D01*
X128653884Y-111503371D02*
X128606265Y-111408133D01*
X128606265Y-111408133D02*
X128606265Y-111312895D01*
X128606265Y-111312895D02*
X128653884Y-111217657D01*
X128653884Y-111217657D02*
X128701503Y-111170038D01*
X128701503Y-111170038D02*
X128796741Y-111122419D01*
X128796741Y-111122419D02*
X129034836Y-111122419D01*
X129034836Y-111122419D02*
X129177693Y-111170038D01*
X129463408Y-111122419D02*
X130034836Y-111122419D01*
X129749122Y-112122419D02*
X129749122Y-111122419D01*
X130320551Y-111836704D02*
X130796741Y-111836704D01*
X130225313Y-112122419D02*
X130558646Y-111122419D01*
X130558646Y-111122419D02*
X130891979Y-112122419D01*
X131082456Y-111122419D02*
X131653884Y-111122419D01*
X131368170Y-112122419D02*
X131368170Y-111122419D01*
X131987218Y-111122419D02*
X131987218Y-111931942D01*
X131987218Y-111931942D02*
X132034837Y-112027180D01*
X132034837Y-112027180D02*
X132082456Y-112074800D01*
X132082456Y-112074800D02*
X132177694Y-112122419D01*
X132177694Y-112122419D02*
X132368170Y-112122419D01*
X132368170Y-112122419D02*
X132463408Y-112074800D01*
X132463408Y-112074800D02*
X132511027Y-112027180D01*
X132511027Y-112027180D02*
X132558646Y-111931942D01*
X132558646Y-111931942D02*
X132558646Y-111122419D01*
X132987218Y-112074800D02*
X133130075Y-112122419D01*
X133130075Y-112122419D02*
X133368170Y-112122419D01*
X133368170Y-112122419D02*
X133463408Y-112074800D01*
X133463408Y-112074800D02*
X133511027Y-112027180D01*
X133511027Y-112027180D02*
X133558646Y-111931942D01*
X133558646Y-111931942D02*
X133558646Y-111836704D01*
X133558646Y-111836704D02*
X133511027Y-111741466D01*
X133511027Y-111741466D02*
X133463408Y-111693847D01*
X133463408Y-111693847D02*
X133368170Y-111646228D01*
X133368170Y-111646228D02*
X133177694Y-111598609D01*
X133177694Y-111598609D02*
X133082456Y-111550990D01*
X133082456Y-111550990D02*
X133034837Y-111503371D01*
X133034837Y-111503371D02*
X132987218Y-111408133D01*
X132987218Y-111408133D02*
X132987218Y-111312895D01*
X132987218Y-111312895D02*
X133034837Y-111217657D01*
X133034837Y-111217657D02*
X133082456Y-111170038D01*
X133082456Y-111170038D02*
X133177694Y-111122419D01*
X133177694Y-111122419D02*
X133415789Y-111122419D01*
X133415789Y-111122419D02*
X133558646Y-111170038D01*
X155124800Y-80573734D02*
X155172419Y-80430877D01*
X155172419Y-80430877D02*
X155172419Y-80192782D01*
X155172419Y-80192782D02*
X155124800Y-80097544D01*
X155124800Y-80097544D02*
X155077180Y-80049925D01*
X155077180Y-80049925D02*
X154981942Y-80002306D01*
X154981942Y-80002306D02*
X154886704Y-80002306D01*
X154886704Y-80002306D02*
X154791466Y-80049925D01*
X154791466Y-80049925D02*
X154743847Y-80097544D01*
X154743847Y-80097544D02*
X154696228Y-80192782D01*
X154696228Y-80192782D02*
X154648609Y-80383258D01*
X154648609Y-80383258D02*
X154600990Y-80478496D01*
X154600990Y-80478496D02*
X154553371Y-80526115D01*
X154553371Y-80526115D02*
X154458133Y-80573734D01*
X154458133Y-80573734D02*
X154362895Y-80573734D01*
X154362895Y-80573734D02*
X154267657Y-80526115D01*
X154267657Y-80526115D02*
X154220038Y-80478496D01*
X154220038Y-80478496D02*
X154172419Y-80383258D01*
X154172419Y-80383258D02*
X154172419Y-80145163D01*
X154172419Y-80145163D02*
X154220038Y-80002306D01*
X154172419Y-79668972D02*
X155172419Y-79430877D01*
X155172419Y-79430877D02*
X154458133Y-79240401D01*
X154458133Y-79240401D02*
X155172419Y-79049925D01*
X155172419Y-79049925D02*
X154172419Y-78811830D01*
X155172419Y-78430877D02*
X154172419Y-78430877D01*
X154172419Y-78430877D02*
X154172419Y-78192782D01*
X154172419Y-78192782D02*
X154220038Y-78049925D01*
X154220038Y-78049925D02*
X154315276Y-77954687D01*
X154315276Y-77954687D02*
X154410514Y-77907068D01*
X154410514Y-77907068D02*
X154600990Y-77859449D01*
X154600990Y-77859449D02*
X154743847Y-77859449D01*
X154743847Y-77859449D02*
X154934323Y-77907068D01*
X154934323Y-77907068D02*
X155029561Y-77954687D01*
X155029561Y-77954687D02*
X155124800Y-78049925D01*
X155124800Y-78049925D02*
X155172419Y-78192782D01*
X155172419Y-78192782D02*
X155172419Y-78430877D01*
X121937217Y-87498609D02*
X122080074Y-87546228D01*
X122080074Y-87546228D02*
X122127693Y-87593847D01*
X122127693Y-87593847D02*
X122175312Y-87689085D01*
X122175312Y-87689085D02*
X122175312Y-87831942D01*
X122175312Y-87831942D02*
X122127693Y-87927180D01*
X122127693Y-87927180D02*
X122080074Y-87974800D01*
X122080074Y-87974800D02*
X121984836Y-88022419D01*
X121984836Y-88022419D02*
X121603884Y-88022419D01*
X121603884Y-88022419D02*
X121603884Y-87022419D01*
X121603884Y-87022419D02*
X121937217Y-87022419D01*
X121937217Y-87022419D02*
X122032455Y-87070038D01*
X122032455Y-87070038D02*
X122080074Y-87117657D01*
X122080074Y-87117657D02*
X122127693Y-87212895D01*
X122127693Y-87212895D02*
X122127693Y-87308133D01*
X122127693Y-87308133D02*
X122080074Y-87403371D01*
X122080074Y-87403371D02*
X122032455Y-87450990D01*
X122032455Y-87450990D02*
X121937217Y-87498609D01*
X121937217Y-87498609D02*
X121603884Y-87498609D01*
X122794360Y-87022419D02*
X122984836Y-87022419D01*
X122984836Y-87022419D02*
X123080074Y-87070038D01*
X123080074Y-87070038D02*
X123175312Y-87165276D01*
X123175312Y-87165276D02*
X123222931Y-87355752D01*
X123222931Y-87355752D02*
X123222931Y-87689085D01*
X123222931Y-87689085D02*
X123175312Y-87879561D01*
X123175312Y-87879561D02*
X123080074Y-87974800D01*
X123080074Y-87974800D02*
X122984836Y-88022419D01*
X122984836Y-88022419D02*
X122794360Y-88022419D01*
X122794360Y-88022419D02*
X122699122Y-87974800D01*
X122699122Y-87974800D02*
X122603884Y-87879561D01*
X122603884Y-87879561D02*
X122556265Y-87689085D01*
X122556265Y-87689085D02*
X122556265Y-87355752D01*
X122556265Y-87355752D02*
X122603884Y-87165276D01*
X122603884Y-87165276D02*
X122699122Y-87070038D01*
X122699122Y-87070038D02*
X122794360Y-87022419D01*
X123841979Y-87022419D02*
X124032455Y-87022419D01*
X124032455Y-87022419D02*
X124127693Y-87070038D01*
X124127693Y-87070038D02*
X124222931Y-87165276D01*
X124222931Y-87165276D02*
X124270550Y-87355752D01*
X124270550Y-87355752D02*
X124270550Y-87689085D01*
X124270550Y-87689085D02*
X124222931Y-87879561D01*
X124222931Y-87879561D02*
X124127693Y-87974800D01*
X124127693Y-87974800D02*
X124032455Y-88022419D01*
X124032455Y-88022419D02*
X123841979Y-88022419D01*
X123841979Y-88022419D02*
X123746741Y-87974800D01*
X123746741Y-87974800D02*
X123651503Y-87879561D01*
X123651503Y-87879561D02*
X123603884Y-87689085D01*
X123603884Y-87689085D02*
X123603884Y-87355752D01*
X123603884Y-87355752D02*
X123651503Y-87165276D01*
X123651503Y-87165276D02*
X123746741Y-87070038D01*
X123746741Y-87070038D02*
X123841979Y-87022419D01*
X124556265Y-87022419D02*
X125127693Y-87022419D01*
X124841979Y-88022419D02*
X124841979Y-87022419D01*
X168553884Y-101172419D02*
X168553884Y-100172419D01*
X168553884Y-100172419D02*
X168934836Y-100172419D01*
X168934836Y-100172419D02*
X169030074Y-100220038D01*
X169030074Y-100220038D02*
X169077693Y-100267657D01*
X169077693Y-100267657D02*
X169125312Y-100362895D01*
X169125312Y-100362895D02*
X169125312Y-100505752D01*
X169125312Y-100505752D02*
X169077693Y-100600990D01*
X169077693Y-100600990D02*
X169030074Y-100648609D01*
X169030074Y-100648609D02*
X168934836Y-100696228D01*
X168934836Y-100696228D02*
X168553884Y-100696228D01*
X169744360Y-100172419D02*
X169934836Y-100172419D01*
X169934836Y-100172419D02*
X170030074Y-100220038D01*
X170030074Y-100220038D02*
X170125312Y-100315276D01*
X170125312Y-100315276D02*
X170172931Y-100505752D01*
X170172931Y-100505752D02*
X170172931Y-100839085D01*
X170172931Y-100839085D02*
X170125312Y-101029561D01*
X170125312Y-101029561D02*
X170030074Y-101124800D01*
X170030074Y-101124800D02*
X169934836Y-101172419D01*
X169934836Y-101172419D02*
X169744360Y-101172419D01*
X169744360Y-101172419D02*
X169649122Y-101124800D01*
X169649122Y-101124800D02*
X169553884Y-101029561D01*
X169553884Y-101029561D02*
X169506265Y-100839085D01*
X169506265Y-100839085D02*
X169506265Y-100505752D01*
X169506265Y-100505752D02*
X169553884Y-100315276D01*
X169553884Y-100315276D02*
X169649122Y-100220038D01*
X169649122Y-100220038D02*
X169744360Y-100172419D01*
X170506265Y-100172419D02*
X170744360Y-101172419D01*
X170744360Y-101172419D02*
X170934836Y-100458133D01*
X170934836Y-100458133D02*
X171125312Y-101172419D01*
X171125312Y-101172419D02*
X171363408Y-100172419D01*
X171744360Y-100648609D02*
X172077693Y-100648609D01*
X172220550Y-101172419D02*
X171744360Y-101172419D01*
X171744360Y-101172419D02*
X171744360Y-100172419D01*
X171744360Y-100172419D02*
X172220550Y-100172419D01*
X173220550Y-101172419D02*
X172887217Y-100696228D01*
X172649122Y-101172419D02*
X172649122Y-100172419D01*
X172649122Y-100172419D02*
X173030074Y-100172419D01*
X173030074Y-100172419D02*
X173125312Y-100220038D01*
X173125312Y-100220038D02*
X173172931Y-100267657D01*
X173172931Y-100267657D02*
X173220550Y-100362895D01*
X173220550Y-100362895D02*
X173220550Y-100505752D01*
X173220550Y-100505752D02*
X173172931Y-100600990D01*
X173172931Y-100600990D02*
X173125312Y-100648609D01*
X173125312Y-100648609D02*
X173030074Y-100696228D01*
X173030074Y-100696228D02*
X172649122Y-100696228D01*
X172803884Y-98272419D02*
X172803884Y-99081942D01*
X172803884Y-99081942D02*
X172851503Y-99177180D01*
X172851503Y-99177180D02*
X172899122Y-99224800D01*
X172899122Y-99224800D02*
X172994360Y-99272419D01*
X172994360Y-99272419D02*
X173184836Y-99272419D01*
X173184836Y-99272419D02*
X173280074Y-99224800D01*
X173280074Y-99224800D02*
X173327693Y-99177180D01*
X173327693Y-99177180D02*
X173375312Y-99081942D01*
X173375312Y-99081942D02*
X173375312Y-98272419D01*
X173803884Y-99224800D02*
X173946741Y-99272419D01*
X173946741Y-99272419D02*
X174184836Y-99272419D01*
X174184836Y-99272419D02*
X174280074Y-99224800D01*
X174280074Y-99224800D02*
X174327693Y-99177180D01*
X174327693Y-99177180D02*
X174375312Y-99081942D01*
X174375312Y-99081942D02*
X174375312Y-98986704D01*
X174375312Y-98986704D02*
X174327693Y-98891466D01*
X174327693Y-98891466D02*
X174280074Y-98843847D01*
X174280074Y-98843847D02*
X174184836Y-98796228D01*
X174184836Y-98796228D02*
X173994360Y-98748609D01*
X173994360Y-98748609D02*
X173899122Y-98700990D01*
X173899122Y-98700990D02*
X173851503Y-98653371D01*
X173851503Y-98653371D02*
X173803884Y-98558133D01*
X173803884Y-98558133D02*
X173803884Y-98462895D01*
X173803884Y-98462895D02*
X173851503Y-98367657D01*
X173851503Y-98367657D02*
X173899122Y-98320038D01*
X173899122Y-98320038D02*
X173994360Y-98272419D01*
X173994360Y-98272419D02*
X174232455Y-98272419D01*
X174232455Y-98272419D02*
X174375312Y-98320038D01*
X175137217Y-98748609D02*
X175280074Y-98796228D01*
X175280074Y-98796228D02*
X175327693Y-98843847D01*
X175327693Y-98843847D02*
X175375312Y-98939085D01*
X175375312Y-98939085D02*
X175375312Y-99081942D01*
X175375312Y-99081942D02*
X175327693Y-99177180D01*
X175327693Y-99177180D02*
X175280074Y-99224800D01*
X175280074Y-99224800D02*
X175184836Y-99272419D01*
X175184836Y-99272419D02*
X174803884Y-99272419D01*
X174803884Y-99272419D02*
X174803884Y-98272419D01*
X174803884Y-98272419D02*
X175137217Y-98272419D01*
X175137217Y-98272419D02*
X175232455Y-98320038D01*
X175232455Y-98320038D02*
X175280074Y-98367657D01*
X175280074Y-98367657D02*
X175327693Y-98462895D01*
X175327693Y-98462895D02*
X175327693Y-98558133D01*
X175327693Y-98558133D02*
X175280074Y-98653371D01*
X175280074Y-98653371D02*
X175232455Y-98700990D01*
X175232455Y-98700990D02*
X175137217Y-98748609D01*
X175137217Y-98748609D02*
X174803884Y-98748609D01*
X139203884Y-118722419D02*
X139203884Y-119531942D01*
X139203884Y-119531942D02*
X139251503Y-119627180D01*
X139251503Y-119627180D02*
X139299122Y-119674800D01*
X139299122Y-119674800D02*
X139394360Y-119722419D01*
X139394360Y-119722419D02*
X139584836Y-119722419D01*
X139584836Y-119722419D02*
X139680074Y-119674800D01*
X139680074Y-119674800D02*
X139727693Y-119627180D01*
X139727693Y-119627180D02*
X139775312Y-119531942D01*
X139775312Y-119531942D02*
X139775312Y-118722419D01*
X140203884Y-119436704D02*
X140680074Y-119436704D01*
X140108646Y-119722419D02*
X140441979Y-118722419D01*
X140441979Y-118722419D02*
X140775312Y-119722419D01*
X141680074Y-119722419D02*
X141346741Y-119246228D01*
X141108646Y-119722419D02*
X141108646Y-118722419D01*
X141108646Y-118722419D02*
X141489598Y-118722419D01*
X141489598Y-118722419D02*
X141584836Y-118770038D01*
X141584836Y-118770038D02*
X141632455Y-118817657D01*
X141632455Y-118817657D02*
X141680074Y-118912895D01*
X141680074Y-118912895D02*
X141680074Y-119055752D01*
X141680074Y-119055752D02*
X141632455Y-119150990D01*
X141632455Y-119150990D02*
X141584836Y-119198609D01*
X141584836Y-119198609D02*
X141489598Y-119246228D01*
X141489598Y-119246228D02*
X141108646Y-119246228D01*
X141965789Y-118722419D02*
X142537217Y-118722419D01*
X142251503Y-119722419D02*
X142251503Y-118722419D01*
X140103884Y-83172419D02*
X140103884Y-82172419D01*
X140532455Y-82267657D02*
X140580074Y-82220038D01*
X140580074Y-82220038D02*
X140675312Y-82172419D01*
X140675312Y-82172419D02*
X140913407Y-82172419D01*
X140913407Y-82172419D02*
X141008645Y-82220038D01*
X141008645Y-82220038D02*
X141056264Y-82267657D01*
X141056264Y-82267657D02*
X141103883Y-82362895D01*
X141103883Y-82362895D02*
X141103883Y-82458133D01*
X141103883Y-82458133D02*
X141056264Y-82600990D01*
X141056264Y-82600990D02*
X140484836Y-83172419D01*
X140484836Y-83172419D02*
X141103883Y-83172419D01*
X142103883Y-83077180D02*
X142056264Y-83124800D01*
X142056264Y-83124800D02*
X141913407Y-83172419D01*
X141913407Y-83172419D02*
X141818169Y-83172419D01*
X141818169Y-83172419D02*
X141675312Y-83124800D01*
X141675312Y-83124800D02*
X141580074Y-83029561D01*
X141580074Y-83029561D02*
X141532455Y-82934323D01*
X141532455Y-82934323D02*
X141484836Y-82743847D01*
X141484836Y-82743847D02*
X141484836Y-82600990D01*
X141484836Y-82600990D02*
X141532455Y-82410514D01*
X141532455Y-82410514D02*
X141580074Y-82315276D01*
X141580074Y-82315276D02*
X141675312Y-82220038D01*
X141675312Y-82220038D02*
X141818169Y-82172419D01*
X141818169Y-82172419D02*
X141913407Y-82172419D01*
X141913407Y-82172419D02*
X142056264Y-82220038D01*
X142056264Y-82220038D02*
X142103883Y-82267657D01*
X154800000Y-105300000D02*
X158500000Y-105300000D01*
X158500000Y-108300000D01*
X154800000Y-108300000D01*
X154800000Y-105300000D01*
X146400000Y-87700000D02*
X153700000Y-87700000D01*
X153700000Y-90900000D01*
X146400000Y-90900000D01*
X146400000Y-87700000D01*
X164000000Y-108100000D02*
X167000000Y-108100000D01*
X167000000Y-113300000D01*
X164000000Y-113300000D01*
X164000000Y-108100000D01*
D11*
X160461779Y-77369819D02*
X160461779Y-76369819D01*
X160461779Y-76369819D02*
X160842731Y-76369819D01*
X160842731Y-76369819D02*
X160937969Y-76417438D01*
X160937969Y-76417438D02*
X160985588Y-76465057D01*
X160985588Y-76465057D02*
X161033207Y-76560295D01*
X161033207Y-76560295D02*
X161033207Y-76703152D01*
X161033207Y-76703152D02*
X160985588Y-76798390D01*
X160985588Y-76798390D02*
X160937969Y-76846009D01*
X160937969Y-76846009D02*
X160842731Y-76893628D01*
X160842731Y-76893628D02*
X160461779Y-76893628D01*
X161366541Y-76369819D02*
X161604636Y-77369819D01*
X161604636Y-77369819D02*
X161795112Y-76655533D01*
X161795112Y-76655533D02*
X161985588Y-77369819D01*
X161985588Y-77369819D02*
X162223684Y-76369819D01*
X163176064Y-77369819D02*
X162842731Y-76893628D01*
X162604636Y-77369819D02*
X162604636Y-76369819D01*
X162604636Y-76369819D02*
X162985588Y-76369819D01*
X162985588Y-76369819D02*
X163080826Y-76417438D01*
X163080826Y-76417438D02*
X163128445Y-76465057D01*
X163128445Y-76465057D02*
X163176064Y-76560295D01*
X163176064Y-76560295D02*
X163176064Y-76703152D01*
X163176064Y-76703152D02*
X163128445Y-76798390D01*
X163128445Y-76798390D02*
X163080826Y-76846009D01*
X163080826Y-76846009D02*
X162985588Y-76893628D01*
X162985588Y-76893628D02*
X162604636Y-76893628D01*
X154466666Y-83254819D02*
X154466666Y-83969104D01*
X154466666Y-83969104D02*
X154419047Y-84111961D01*
X154419047Y-84111961D02*
X154323809Y-84207200D01*
X154323809Y-84207200D02*
X154180952Y-84254819D01*
X154180952Y-84254819D02*
X154085714Y-84254819D01*
X154895238Y-83350057D02*
X154942857Y-83302438D01*
X154942857Y-83302438D02*
X155038095Y-83254819D01*
X155038095Y-83254819D02*
X155276190Y-83254819D01*
X155276190Y-83254819D02*
X155371428Y-83302438D01*
X155371428Y-83302438D02*
X155419047Y-83350057D01*
X155419047Y-83350057D02*
X155466666Y-83445295D01*
X155466666Y-83445295D02*
X155466666Y-83540533D01*
X155466666Y-83540533D02*
X155419047Y-83683390D01*
X155419047Y-83683390D02*
X154847619Y-84254819D01*
X154847619Y-84254819D02*
X155466666Y-84254819D01*
X126957200Y-91933332D02*
X127004819Y-91790475D01*
X127004819Y-91790475D02*
X127004819Y-91552380D01*
X127004819Y-91552380D02*
X126957200Y-91457142D01*
X126957200Y-91457142D02*
X126909580Y-91409523D01*
X126909580Y-91409523D02*
X126814342Y-91361904D01*
X126814342Y-91361904D02*
X126719104Y-91361904D01*
X126719104Y-91361904D02*
X126623866Y-91409523D01*
X126623866Y-91409523D02*
X126576247Y-91457142D01*
X126576247Y-91457142D02*
X126528628Y-91552380D01*
X126528628Y-91552380D02*
X126481009Y-91742856D01*
X126481009Y-91742856D02*
X126433390Y-91838094D01*
X126433390Y-91838094D02*
X126385771Y-91885713D01*
X126385771Y-91885713D02*
X126290533Y-91933332D01*
X126290533Y-91933332D02*
X126195295Y-91933332D01*
X126195295Y-91933332D02*
X126100057Y-91885713D01*
X126100057Y-91885713D02*
X126052438Y-91838094D01*
X126052438Y-91838094D02*
X126004819Y-91742856D01*
X126004819Y-91742856D02*
X126004819Y-91504761D01*
X126004819Y-91504761D02*
X126052438Y-91361904D01*
X126004819Y-91028570D02*
X127004819Y-90790475D01*
X127004819Y-90790475D02*
X126290533Y-90599999D01*
X126290533Y-90599999D02*
X127004819Y-90409523D01*
X127004819Y-90409523D02*
X126004819Y-90171428D01*
X127004819Y-89266666D02*
X127004819Y-89838094D01*
X127004819Y-89552380D02*
X126004819Y-89552380D01*
X126004819Y-89552380D02*
X126147676Y-89647618D01*
X126147676Y-89647618D02*
X126242914Y-89742856D01*
X126242914Y-89742856D02*
X126290533Y-89838094D01*
X133029819Y-109066666D02*
X133029819Y-109542856D01*
X133029819Y-109542856D02*
X132029819Y-109542856D01*
X133029819Y-108209523D02*
X133029819Y-108780951D01*
X133029819Y-108495237D02*
X132029819Y-108495237D01*
X132029819Y-108495237D02*
X132172676Y-108590475D01*
X132172676Y-108590475D02*
X132267914Y-108685713D01*
X132267914Y-108685713D02*
X132315533Y-108780951D01*
X143479819Y-88392857D02*
X143003628Y-88726190D01*
X143479819Y-88964285D02*
X142479819Y-88964285D01*
X142479819Y-88964285D02*
X142479819Y-88583333D01*
X142479819Y-88583333D02*
X142527438Y-88488095D01*
X142527438Y-88488095D02*
X142575057Y-88440476D01*
X142575057Y-88440476D02*
X142670295Y-88392857D01*
X142670295Y-88392857D02*
X142813152Y-88392857D01*
X142813152Y-88392857D02*
X142908390Y-88440476D01*
X142908390Y-88440476D02*
X142956009Y-88488095D01*
X142956009Y-88488095D02*
X143003628Y-88583333D01*
X143003628Y-88583333D02*
X143003628Y-88964285D01*
X143479819Y-87440476D02*
X143479819Y-88011904D01*
X143479819Y-87726190D02*
X142479819Y-87726190D01*
X142479819Y-87726190D02*
X142622676Y-87821428D01*
X142622676Y-87821428D02*
X142717914Y-87916666D01*
X142717914Y-87916666D02*
X142765533Y-88011904D01*
X142479819Y-86535714D02*
X142479819Y-87011904D01*
X142479819Y-87011904D02*
X142956009Y-87059523D01*
X142956009Y-87059523D02*
X142908390Y-87011904D01*
X142908390Y-87011904D02*
X142860771Y-86916666D01*
X142860771Y-86916666D02*
X142860771Y-86678571D01*
X142860771Y-86678571D02*
X142908390Y-86583333D01*
X142908390Y-86583333D02*
X142956009Y-86535714D01*
X142956009Y-86535714D02*
X143051247Y-86488095D01*
X143051247Y-86488095D02*
X143289342Y-86488095D01*
X143289342Y-86488095D02*
X143384580Y-86535714D01*
X143384580Y-86535714D02*
X143432200Y-86583333D01*
X143432200Y-86583333D02*
X143479819Y-86678571D01*
X143479819Y-86678571D02*
X143479819Y-86916666D01*
X143479819Y-86916666D02*
X143432200Y-87011904D01*
X143432200Y-87011904D02*
X143384580Y-87059523D01*
X152954819Y-106566666D02*
X152478628Y-106899999D01*
X152954819Y-107138094D02*
X151954819Y-107138094D01*
X151954819Y-107138094D02*
X151954819Y-106757142D01*
X151954819Y-106757142D02*
X152002438Y-106661904D01*
X152002438Y-106661904D02*
X152050057Y-106614285D01*
X152050057Y-106614285D02*
X152145295Y-106566666D01*
X152145295Y-106566666D02*
X152288152Y-106566666D01*
X152288152Y-106566666D02*
X152383390Y-106614285D01*
X152383390Y-106614285D02*
X152431009Y-106661904D01*
X152431009Y-106661904D02*
X152478628Y-106757142D01*
X152478628Y-106757142D02*
X152478628Y-107138094D01*
X151954819Y-105661904D02*
X151954819Y-106138094D01*
X151954819Y-106138094D02*
X152431009Y-106185713D01*
X152431009Y-106185713D02*
X152383390Y-106138094D01*
X152383390Y-106138094D02*
X152335771Y-106042856D01*
X152335771Y-106042856D02*
X152335771Y-105804761D01*
X152335771Y-105804761D02*
X152383390Y-105709523D01*
X152383390Y-105709523D02*
X152431009Y-105661904D01*
X152431009Y-105661904D02*
X152526247Y-105614285D01*
X152526247Y-105614285D02*
X152764342Y-105614285D01*
X152764342Y-105614285D02*
X152859580Y-105661904D01*
X152859580Y-105661904D02*
X152907200Y-105709523D01*
X152907200Y-105709523D02*
X152954819Y-105804761D01*
X152954819Y-105804761D02*
X152954819Y-106042856D01*
X152954819Y-106042856D02*
X152907200Y-106138094D01*
X152907200Y-106138094D02*
X152859580Y-106185713D01*
X165358333Y-115704819D02*
X165025000Y-115228628D01*
X164786905Y-115704819D02*
X164786905Y-114704819D01*
X164786905Y-114704819D02*
X165167857Y-114704819D01*
X165167857Y-114704819D02*
X165263095Y-114752438D01*
X165263095Y-114752438D02*
X165310714Y-114800057D01*
X165310714Y-114800057D02*
X165358333Y-114895295D01*
X165358333Y-114895295D02*
X165358333Y-115038152D01*
X165358333Y-115038152D02*
X165310714Y-115133390D01*
X165310714Y-115133390D02*
X165263095Y-115181009D01*
X165263095Y-115181009D02*
X165167857Y-115228628D01*
X165167857Y-115228628D02*
X164786905Y-115228628D01*
X165691667Y-114704819D02*
X166358333Y-114704819D01*
X166358333Y-114704819D02*
X165929762Y-115704819D01*
X175454819Y-88033333D02*
X176169104Y-88033333D01*
X176169104Y-88033333D02*
X176311961Y-88080952D01*
X176311961Y-88080952D02*
X176407200Y-88176190D01*
X176407200Y-88176190D02*
X176454819Y-88319047D01*
X176454819Y-88319047D02*
X176454819Y-88414285D01*
X175454819Y-87080952D02*
X175454819Y-87557142D01*
X175454819Y-87557142D02*
X175931009Y-87604761D01*
X175931009Y-87604761D02*
X175883390Y-87557142D01*
X175883390Y-87557142D02*
X175835771Y-87461904D01*
X175835771Y-87461904D02*
X175835771Y-87223809D01*
X175835771Y-87223809D02*
X175883390Y-87128571D01*
X175883390Y-87128571D02*
X175931009Y-87080952D01*
X175931009Y-87080952D02*
X176026247Y-87033333D01*
X176026247Y-87033333D02*
X176264342Y-87033333D01*
X176264342Y-87033333D02*
X176359580Y-87080952D01*
X176359580Y-87080952D02*
X176407200Y-87128571D01*
X176407200Y-87128571D02*
X176454819Y-87223809D01*
X176454819Y-87223809D02*
X176454819Y-87461904D01*
X176454819Y-87461904D02*
X176407200Y-87557142D01*
X176407200Y-87557142D02*
X176359580Y-87604761D01*
X150609580Y-121242857D02*
X150657200Y-121290476D01*
X150657200Y-121290476D02*
X150704819Y-121433333D01*
X150704819Y-121433333D02*
X150704819Y-121528571D01*
X150704819Y-121528571D02*
X150657200Y-121671428D01*
X150657200Y-121671428D02*
X150561961Y-121766666D01*
X150561961Y-121766666D02*
X150466723Y-121814285D01*
X150466723Y-121814285D02*
X150276247Y-121861904D01*
X150276247Y-121861904D02*
X150133390Y-121861904D01*
X150133390Y-121861904D02*
X149942914Y-121814285D01*
X149942914Y-121814285D02*
X149847676Y-121766666D01*
X149847676Y-121766666D02*
X149752438Y-121671428D01*
X149752438Y-121671428D02*
X149704819Y-121528571D01*
X149704819Y-121528571D02*
X149704819Y-121433333D01*
X149704819Y-121433333D02*
X149752438Y-121290476D01*
X149752438Y-121290476D02*
X149800057Y-121242857D01*
X150704819Y-120290476D02*
X150704819Y-120861904D01*
X150704819Y-120576190D02*
X149704819Y-120576190D01*
X149704819Y-120576190D02*
X149847676Y-120671428D01*
X149847676Y-120671428D02*
X149942914Y-120766666D01*
X149942914Y-120766666D02*
X149990533Y-120861904D01*
X149704819Y-119433333D02*
X149704819Y-119623809D01*
X149704819Y-119623809D02*
X149752438Y-119719047D01*
X149752438Y-119719047D02*
X149800057Y-119766666D01*
X149800057Y-119766666D02*
X149942914Y-119861904D01*
X149942914Y-119861904D02*
X150133390Y-119909523D01*
X150133390Y-119909523D02*
X150514342Y-119909523D01*
X150514342Y-119909523D02*
X150609580Y-119861904D01*
X150609580Y-119861904D02*
X150657200Y-119814285D01*
X150657200Y-119814285D02*
X150704819Y-119719047D01*
X150704819Y-119719047D02*
X150704819Y-119528571D01*
X150704819Y-119528571D02*
X150657200Y-119433333D01*
X150657200Y-119433333D02*
X150609580Y-119385714D01*
X150609580Y-119385714D02*
X150514342Y-119338095D01*
X150514342Y-119338095D02*
X150276247Y-119338095D01*
X150276247Y-119338095D02*
X150181009Y-119385714D01*
X150181009Y-119385714D02*
X150133390Y-119433333D01*
X150133390Y-119433333D02*
X150085771Y-119528571D01*
X150085771Y-119528571D02*
X150085771Y-119719047D01*
X150085771Y-119719047D02*
X150133390Y-119814285D01*
X150133390Y-119814285D02*
X150181009Y-119861904D01*
X150181009Y-119861904D02*
X150276247Y-119909523D01*
X160206009Y-98583333D02*
X160206009Y-98916666D01*
X160729819Y-98916666D02*
X159729819Y-98916666D01*
X159729819Y-98916666D02*
X159729819Y-98440476D01*
X160206009Y-97726190D02*
X160253628Y-97583333D01*
X160253628Y-97583333D02*
X160301247Y-97535714D01*
X160301247Y-97535714D02*
X160396485Y-97488095D01*
X160396485Y-97488095D02*
X160539342Y-97488095D01*
X160539342Y-97488095D02*
X160634580Y-97535714D01*
X160634580Y-97535714D02*
X160682200Y-97583333D01*
X160682200Y-97583333D02*
X160729819Y-97678571D01*
X160729819Y-97678571D02*
X160729819Y-98059523D01*
X160729819Y-98059523D02*
X159729819Y-98059523D01*
X159729819Y-98059523D02*
X159729819Y-97726190D01*
X159729819Y-97726190D02*
X159777438Y-97630952D01*
X159777438Y-97630952D02*
X159825057Y-97583333D01*
X159825057Y-97583333D02*
X159920295Y-97535714D01*
X159920295Y-97535714D02*
X160015533Y-97535714D01*
X160015533Y-97535714D02*
X160110771Y-97583333D01*
X160110771Y-97583333D02*
X160158390Y-97630952D01*
X160158390Y-97630952D02*
X160206009Y-97726190D01*
X160206009Y-97726190D02*
X160206009Y-98059523D01*
X160729819Y-96535714D02*
X160729819Y-97107142D01*
X160729819Y-96821428D02*
X159729819Y-96821428D01*
X159729819Y-96821428D02*
X159872676Y-96916666D01*
X159872676Y-96916666D02*
X159967914Y-97011904D01*
X159967914Y-97011904D02*
X160015533Y-97107142D01*
X167850057Y-102395238D02*
X167802438Y-102490476D01*
X167802438Y-102490476D02*
X167707200Y-102585714D01*
X167707200Y-102585714D02*
X167564342Y-102728571D01*
X167564342Y-102728571D02*
X167516723Y-102823809D01*
X167516723Y-102823809D02*
X167516723Y-102919047D01*
X167754819Y-102871428D02*
X167707200Y-102966666D01*
X167707200Y-102966666D02*
X167611961Y-103061904D01*
X167611961Y-103061904D02*
X167421485Y-103109523D01*
X167421485Y-103109523D02*
X167088152Y-103109523D01*
X167088152Y-103109523D02*
X166897676Y-103061904D01*
X166897676Y-103061904D02*
X166802438Y-102966666D01*
X166802438Y-102966666D02*
X166754819Y-102871428D01*
X166754819Y-102871428D02*
X166754819Y-102680952D01*
X166754819Y-102680952D02*
X166802438Y-102585714D01*
X166802438Y-102585714D02*
X166897676Y-102490476D01*
X166897676Y-102490476D02*
X167088152Y-102442857D01*
X167088152Y-102442857D02*
X167421485Y-102442857D01*
X167421485Y-102442857D02*
X167611961Y-102490476D01*
X167611961Y-102490476D02*
X167707200Y-102585714D01*
X167707200Y-102585714D02*
X167754819Y-102680952D01*
X167754819Y-102680952D02*
X167754819Y-102871428D01*
X167754819Y-101490476D02*
X167754819Y-102061904D01*
X167754819Y-101776190D02*
X166754819Y-101776190D01*
X166754819Y-101776190D02*
X166897676Y-101871428D01*
X166897676Y-101871428D02*
X166992914Y-101966666D01*
X166992914Y-101966666D02*
X167040533Y-102061904D01*
X129263095Y-85954819D02*
X129263095Y-84954819D01*
X129263095Y-85431009D02*
X129834523Y-85431009D01*
X129834523Y-85954819D02*
X129834523Y-84954819D01*
X130739285Y-85288152D02*
X130739285Y-85954819D01*
X130501190Y-84907200D02*
X130263095Y-85621485D01*
X130263095Y-85621485D02*
X130882142Y-85621485D01*
X126182142Y-99009580D02*
X126134523Y-99057200D01*
X126134523Y-99057200D02*
X125991666Y-99104819D01*
X125991666Y-99104819D02*
X125896428Y-99104819D01*
X125896428Y-99104819D02*
X125753571Y-99057200D01*
X125753571Y-99057200D02*
X125658333Y-98961961D01*
X125658333Y-98961961D02*
X125610714Y-98866723D01*
X125610714Y-98866723D02*
X125563095Y-98676247D01*
X125563095Y-98676247D02*
X125563095Y-98533390D01*
X125563095Y-98533390D02*
X125610714Y-98342914D01*
X125610714Y-98342914D02*
X125658333Y-98247676D01*
X125658333Y-98247676D02*
X125753571Y-98152438D01*
X125753571Y-98152438D02*
X125896428Y-98104819D01*
X125896428Y-98104819D02*
X125991666Y-98104819D01*
X125991666Y-98104819D02*
X126134523Y-98152438D01*
X126134523Y-98152438D02*
X126182142Y-98200057D01*
X127134523Y-99104819D02*
X126563095Y-99104819D01*
X126848809Y-99104819D02*
X126848809Y-98104819D01*
X126848809Y-98104819D02*
X126753571Y-98247676D01*
X126753571Y-98247676D02*
X126658333Y-98342914D01*
X126658333Y-98342914D02*
X126563095Y-98390533D01*
X128086904Y-99104819D02*
X127515476Y-99104819D01*
X127801190Y-99104819D02*
X127801190Y-98104819D01*
X127801190Y-98104819D02*
X127705952Y-98247676D01*
X127705952Y-98247676D02*
X127610714Y-98342914D01*
X127610714Y-98342914D02*
X127515476Y-98390533D01*
X164354819Y-98738094D02*
X163354819Y-98738094D01*
X163354819Y-98738094D02*
X163354819Y-98499999D01*
X163354819Y-98499999D02*
X163402438Y-98357142D01*
X163402438Y-98357142D02*
X163497676Y-98261904D01*
X163497676Y-98261904D02*
X163592914Y-98214285D01*
X163592914Y-98214285D02*
X163783390Y-98166666D01*
X163783390Y-98166666D02*
X163926247Y-98166666D01*
X163926247Y-98166666D02*
X164116723Y-98214285D01*
X164116723Y-98214285D02*
X164211961Y-98261904D01*
X164211961Y-98261904D02*
X164307200Y-98357142D01*
X164307200Y-98357142D02*
X164354819Y-98499999D01*
X164354819Y-98499999D02*
X164354819Y-98738094D01*
X163354819Y-97833332D02*
X163354819Y-97214285D01*
X163354819Y-97214285D02*
X163735771Y-97547618D01*
X163735771Y-97547618D02*
X163735771Y-97404761D01*
X163735771Y-97404761D02*
X163783390Y-97309523D01*
X163783390Y-97309523D02*
X163831009Y-97261904D01*
X163831009Y-97261904D02*
X163926247Y-97214285D01*
X163926247Y-97214285D02*
X164164342Y-97214285D01*
X164164342Y-97214285D02*
X164259580Y-97261904D01*
X164259580Y-97261904D02*
X164307200Y-97309523D01*
X164307200Y-97309523D02*
X164354819Y-97404761D01*
X164354819Y-97404761D02*
X164354819Y-97690475D01*
X164354819Y-97690475D02*
X164307200Y-97785713D01*
X164307200Y-97785713D02*
X164259580Y-97833332D01*
X164988095Y-90904819D02*
X164988095Y-91714342D01*
X164988095Y-91714342D02*
X165035714Y-91809580D01*
X165035714Y-91809580D02*
X165083333Y-91857200D01*
X165083333Y-91857200D02*
X165178571Y-91904819D01*
X165178571Y-91904819D02*
X165369047Y-91904819D01*
X165369047Y-91904819D02*
X165464285Y-91857200D01*
X165464285Y-91857200D02*
X165511904Y-91809580D01*
X165511904Y-91809580D02*
X165559523Y-91714342D01*
X165559523Y-91714342D02*
X165559523Y-90904819D01*
X165940476Y-90904819D02*
X166559523Y-90904819D01*
X166559523Y-90904819D02*
X166226190Y-91285771D01*
X166226190Y-91285771D02*
X166369047Y-91285771D01*
X166369047Y-91285771D02*
X166464285Y-91333390D01*
X166464285Y-91333390D02*
X166511904Y-91381009D01*
X166511904Y-91381009D02*
X166559523Y-91476247D01*
X166559523Y-91476247D02*
X166559523Y-91714342D01*
X166559523Y-91714342D02*
X166511904Y-91809580D01*
X166511904Y-91809580D02*
X166464285Y-91857200D01*
X166464285Y-91857200D02*
X166369047Y-91904819D01*
X166369047Y-91904819D02*
X166083333Y-91904819D01*
X166083333Y-91904819D02*
X165988095Y-91857200D01*
X165988095Y-91857200D02*
X165940476Y-91809580D01*
X130159580Y-106916666D02*
X130207200Y-106964285D01*
X130207200Y-106964285D02*
X130254819Y-107107142D01*
X130254819Y-107107142D02*
X130254819Y-107202380D01*
X130254819Y-107202380D02*
X130207200Y-107345237D01*
X130207200Y-107345237D02*
X130111961Y-107440475D01*
X130111961Y-107440475D02*
X130016723Y-107488094D01*
X130016723Y-107488094D02*
X129826247Y-107535713D01*
X129826247Y-107535713D02*
X129683390Y-107535713D01*
X129683390Y-107535713D02*
X129492914Y-107488094D01*
X129492914Y-107488094D02*
X129397676Y-107440475D01*
X129397676Y-107440475D02*
X129302438Y-107345237D01*
X129302438Y-107345237D02*
X129254819Y-107202380D01*
X129254819Y-107202380D02*
X129254819Y-107107142D01*
X129254819Y-107107142D02*
X129302438Y-106964285D01*
X129302438Y-106964285D02*
X129350057Y-106916666D01*
X130254819Y-106440475D02*
X130254819Y-106249999D01*
X130254819Y-106249999D02*
X130207200Y-106154761D01*
X130207200Y-106154761D02*
X130159580Y-106107142D01*
X130159580Y-106107142D02*
X130016723Y-106011904D01*
X130016723Y-106011904D02*
X129826247Y-105964285D01*
X129826247Y-105964285D02*
X129445295Y-105964285D01*
X129445295Y-105964285D02*
X129350057Y-106011904D01*
X129350057Y-106011904D02*
X129302438Y-106059523D01*
X129302438Y-106059523D02*
X129254819Y-106154761D01*
X129254819Y-106154761D02*
X129254819Y-106345237D01*
X129254819Y-106345237D02*
X129302438Y-106440475D01*
X129302438Y-106440475D02*
X129350057Y-106488094D01*
X129350057Y-106488094D02*
X129445295Y-106535713D01*
X129445295Y-106535713D02*
X129683390Y-106535713D01*
X129683390Y-106535713D02*
X129778628Y-106488094D01*
X129778628Y-106488094D02*
X129826247Y-106440475D01*
X129826247Y-106440475D02*
X129873866Y-106345237D01*
X129873866Y-106345237D02*
X129873866Y-106154761D01*
X129873866Y-106154761D02*
X129826247Y-106059523D01*
X129826247Y-106059523D02*
X129778628Y-106011904D01*
X129778628Y-106011904D02*
X129683390Y-105964285D01*
X154454819Y-106566666D02*
X153978628Y-106899999D01*
X154454819Y-107138094D02*
X153454819Y-107138094D01*
X153454819Y-107138094D02*
X153454819Y-106757142D01*
X153454819Y-106757142D02*
X153502438Y-106661904D01*
X153502438Y-106661904D02*
X153550057Y-106614285D01*
X153550057Y-106614285D02*
X153645295Y-106566666D01*
X153645295Y-106566666D02*
X153788152Y-106566666D01*
X153788152Y-106566666D02*
X153883390Y-106614285D01*
X153883390Y-106614285D02*
X153931009Y-106661904D01*
X153931009Y-106661904D02*
X153978628Y-106757142D01*
X153978628Y-106757142D02*
X153978628Y-107138094D01*
X153788152Y-105709523D02*
X154454819Y-105709523D01*
X153407200Y-105947618D02*
X154121485Y-106185713D01*
X154121485Y-106185713D02*
X154121485Y-105566666D01*
X138658333Y-113259580D02*
X138610714Y-113307200D01*
X138610714Y-113307200D02*
X138467857Y-113354819D01*
X138467857Y-113354819D02*
X138372619Y-113354819D01*
X138372619Y-113354819D02*
X138229762Y-113307200D01*
X138229762Y-113307200D02*
X138134524Y-113211961D01*
X138134524Y-113211961D02*
X138086905Y-113116723D01*
X138086905Y-113116723D02*
X138039286Y-112926247D01*
X138039286Y-112926247D02*
X138039286Y-112783390D01*
X138039286Y-112783390D02*
X138086905Y-112592914D01*
X138086905Y-112592914D02*
X138134524Y-112497676D01*
X138134524Y-112497676D02*
X138229762Y-112402438D01*
X138229762Y-112402438D02*
X138372619Y-112354819D01*
X138372619Y-112354819D02*
X138467857Y-112354819D01*
X138467857Y-112354819D02*
X138610714Y-112402438D01*
X138610714Y-112402438D02*
X138658333Y-112450057D01*
X139563095Y-112354819D02*
X139086905Y-112354819D01*
X139086905Y-112354819D02*
X139039286Y-112831009D01*
X139039286Y-112831009D02*
X139086905Y-112783390D01*
X139086905Y-112783390D02*
X139182143Y-112735771D01*
X139182143Y-112735771D02*
X139420238Y-112735771D01*
X139420238Y-112735771D02*
X139515476Y-112783390D01*
X139515476Y-112783390D02*
X139563095Y-112831009D01*
X139563095Y-112831009D02*
X139610714Y-112926247D01*
X139610714Y-112926247D02*
X139610714Y-113164342D01*
X139610714Y-113164342D02*
X139563095Y-113259580D01*
X139563095Y-113259580D02*
X139515476Y-113307200D01*
X139515476Y-113307200D02*
X139420238Y-113354819D01*
X139420238Y-113354819D02*
X139182143Y-113354819D01*
X139182143Y-113354819D02*
X139086905Y-113307200D01*
X139086905Y-113307200D02*
X139039286Y-113259580D01*
X126157142Y-105159580D02*
X126109523Y-105207200D01*
X126109523Y-105207200D02*
X125966666Y-105254819D01*
X125966666Y-105254819D02*
X125871428Y-105254819D01*
X125871428Y-105254819D02*
X125728571Y-105207200D01*
X125728571Y-105207200D02*
X125633333Y-105111961D01*
X125633333Y-105111961D02*
X125585714Y-105016723D01*
X125585714Y-105016723D02*
X125538095Y-104826247D01*
X125538095Y-104826247D02*
X125538095Y-104683390D01*
X125538095Y-104683390D02*
X125585714Y-104492914D01*
X125585714Y-104492914D02*
X125633333Y-104397676D01*
X125633333Y-104397676D02*
X125728571Y-104302438D01*
X125728571Y-104302438D02*
X125871428Y-104254819D01*
X125871428Y-104254819D02*
X125966666Y-104254819D01*
X125966666Y-104254819D02*
X126109523Y-104302438D01*
X126109523Y-104302438D02*
X126157142Y-104350057D01*
X127109523Y-105254819D02*
X126538095Y-105254819D01*
X126823809Y-105254819D02*
X126823809Y-104254819D01*
X126823809Y-104254819D02*
X126728571Y-104397676D01*
X126728571Y-104397676D02*
X126633333Y-104492914D01*
X126633333Y-104492914D02*
X126538095Y-104540533D01*
X127490476Y-104350057D02*
X127538095Y-104302438D01*
X127538095Y-104302438D02*
X127633333Y-104254819D01*
X127633333Y-104254819D02*
X127871428Y-104254819D01*
X127871428Y-104254819D02*
X127966666Y-104302438D01*
X127966666Y-104302438D02*
X128014285Y-104350057D01*
X128014285Y-104350057D02*
X128061904Y-104445295D01*
X128061904Y-104445295D02*
X128061904Y-104540533D01*
X128061904Y-104540533D02*
X128014285Y-104683390D01*
X128014285Y-104683390D02*
X127442857Y-105254819D01*
X127442857Y-105254819D02*
X128061904Y-105254819D01*
X139479819Y-88392857D02*
X139003628Y-88726190D01*
X139479819Y-88964285D02*
X138479819Y-88964285D01*
X138479819Y-88964285D02*
X138479819Y-88583333D01*
X138479819Y-88583333D02*
X138527438Y-88488095D01*
X138527438Y-88488095D02*
X138575057Y-88440476D01*
X138575057Y-88440476D02*
X138670295Y-88392857D01*
X138670295Y-88392857D02*
X138813152Y-88392857D01*
X138813152Y-88392857D02*
X138908390Y-88440476D01*
X138908390Y-88440476D02*
X138956009Y-88488095D01*
X138956009Y-88488095D02*
X139003628Y-88583333D01*
X139003628Y-88583333D02*
X139003628Y-88964285D01*
X139479819Y-87440476D02*
X139479819Y-88011904D01*
X139479819Y-87726190D02*
X138479819Y-87726190D01*
X138479819Y-87726190D02*
X138622676Y-87821428D01*
X138622676Y-87821428D02*
X138717914Y-87916666D01*
X138717914Y-87916666D02*
X138765533Y-88011904D01*
X138479819Y-86583333D02*
X138479819Y-86773809D01*
X138479819Y-86773809D02*
X138527438Y-86869047D01*
X138527438Y-86869047D02*
X138575057Y-86916666D01*
X138575057Y-86916666D02*
X138717914Y-87011904D01*
X138717914Y-87011904D02*
X138908390Y-87059523D01*
X138908390Y-87059523D02*
X139289342Y-87059523D01*
X139289342Y-87059523D02*
X139384580Y-87011904D01*
X139384580Y-87011904D02*
X139432200Y-86964285D01*
X139432200Y-86964285D02*
X139479819Y-86869047D01*
X139479819Y-86869047D02*
X139479819Y-86678571D01*
X139479819Y-86678571D02*
X139432200Y-86583333D01*
X139432200Y-86583333D02*
X139384580Y-86535714D01*
X139384580Y-86535714D02*
X139289342Y-86488095D01*
X139289342Y-86488095D02*
X139051247Y-86488095D01*
X139051247Y-86488095D02*
X138956009Y-86535714D01*
X138956009Y-86535714D02*
X138908390Y-86583333D01*
X138908390Y-86583333D02*
X138860771Y-86678571D01*
X138860771Y-86678571D02*
X138860771Y-86869047D01*
X138860771Y-86869047D02*
X138908390Y-86964285D01*
X138908390Y-86964285D02*
X138956009Y-87011904D01*
X138956009Y-87011904D02*
X139051247Y-87059523D01*
X132934580Y-99566666D02*
X132982200Y-99614285D01*
X132982200Y-99614285D02*
X133029819Y-99757142D01*
X133029819Y-99757142D02*
X133029819Y-99852380D01*
X133029819Y-99852380D02*
X132982200Y-99995237D01*
X132982200Y-99995237D02*
X132886961Y-100090475D01*
X132886961Y-100090475D02*
X132791723Y-100138094D01*
X132791723Y-100138094D02*
X132601247Y-100185713D01*
X132601247Y-100185713D02*
X132458390Y-100185713D01*
X132458390Y-100185713D02*
X132267914Y-100138094D01*
X132267914Y-100138094D02*
X132172676Y-100090475D01*
X132172676Y-100090475D02*
X132077438Y-99995237D01*
X132077438Y-99995237D02*
X132029819Y-99852380D01*
X132029819Y-99852380D02*
X132029819Y-99757142D01*
X132029819Y-99757142D02*
X132077438Y-99614285D01*
X132077438Y-99614285D02*
X132125057Y-99566666D01*
X132363152Y-98709523D02*
X133029819Y-98709523D01*
X131982200Y-98947618D02*
X132696485Y-99185713D01*
X132696485Y-99185713D02*
X132696485Y-98566666D01*
X132454819Y-104266666D02*
X131978628Y-104599999D01*
X132454819Y-104838094D02*
X131454819Y-104838094D01*
X131454819Y-104838094D02*
X131454819Y-104457142D01*
X131454819Y-104457142D02*
X131502438Y-104361904D01*
X131502438Y-104361904D02*
X131550057Y-104314285D01*
X131550057Y-104314285D02*
X131645295Y-104266666D01*
X131645295Y-104266666D02*
X131788152Y-104266666D01*
X131788152Y-104266666D02*
X131883390Y-104314285D01*
X131883390Y-104314285D02*
X131931009Y-104361904D01*
X131931009Y-104361904D02*
X131978628Y-104457142D01*
X131978628Y-104457142D02*
X131978628Y-104838094D01*
X131550057Y-103885713D02*
X131502438Y-103838094D01*
X131502438Y-103838094D02*
X131454819Y-103742856D01*
X131454819Y-103742856D02*
X131454819Y-103504761D01*
X131454819Y-103504761D02*
X131502438Y-103409523D01*
X131502438Y-103409523D02*
X131550057Y-103361904D01*
X131550057Y-103361904D02*
X131645295Y-103314285D01*
X131645295Y-103314285D02*
X131740533Y-103314285D01*
X131740533Y-103314285D02*
X131883390Y-103361904D01*
X131883390Y-103361904D02*
X132454819Y-103933332D01*
X132454819Y-103933332D02*
X132454819Y-103314285D01*
X166763095Y-85954819D02*
X166763095Y-84954819D01*
X166763095Y-85431009D02*
X167334523Y-85431009D01*
X167334523Y-85954819D02*
X167334523Y-84954819D01*
X167715476Y-84954819D02*
X168334523Y-84954819D01*
X168334523Y-84954819D02*
X168001190Y-85335771D01*
X168001190Y-85335771D02*
X168144047Y-85335771D01*
X168144047Y-85335771D02*
X168239285Y-85383390D01*
X168239285Y-85383390D02*
X168286904Y-85431009D01*
X168286904Y-85431009D02*
X168334523Y-85526247D01*
X168334523Y-85526247D02*
X168334523Y-85764342D01*
X168334523Y-85764342D02*
X168286904Y-85859580D01*
X168286904Y-85859580D02*
X168239285Y-85907200D01*
X168239285Y-85907200D02*
X168144047Y-85954819D01*
X168144047Y-85954819D02*
X167858333Y-85954819D01*
X167858333Y-85954819D02*
X167763095Y-85907200D01*
X167763095Y-85907200D02*
X167715476Y-85859580D01*
X128633333Y-92754819D02*
X128300000Y-92278628D01*
X128061905Y-92754819D02*
X128061905Y-91754819D01*
X128061905Y-91754819D02*
X128442857Y-91754819D01*
X128442857Y-91754819D02*
X128538095Y-91802438D01*
X128538095Y-91802438D02*
X128585714Y-91850057D01*
X128585714Y-91850057D02*
X128633333Y-91945295D01*
X128633333Y-91945295D02*
X128633333Y-92088152D01*
X128633333Y-92088152D02*
X128585714Y-92183390D01*
X128585714Y-92183390D02*
X128538095Y-92231009D01*
X128538095Y-92231009D02*
X128442857Y-92278628D01*
X128442857Y-92278628D02*
X128061905Y-92278628D01*
X129585714Y-92754819D02*
X129014286Y-92754819D01*
X129300000Y-92754819D02*
X129300000Y-91754819D01*
X129300000Y-91754819D02*
X129204762Y-91897676D01*
X129204762Y-91897676D02*
X129109524Y-91992914D01*
X129109524Y-91992914D02*
X129014286Y-92040533D01*
X156632142Y-104859580D02*
X156584523Y-104907200D01*
X156584523Y-104907200D02*
X156441666Y-104954819D01*
X156441666Y-104954819D02*
X156346428Y-104954819D01*
X156346428Y-104954819D02*
X156203571Y-104907200D01*
X156203571Y-104907200D02*
X156108333Y-104811961D01*
X156108333Y-104811961D02*
X156060714Y-104716723D01*
X156060714Y-104716723D02*
X156013095Y-104526247D01*
X156013095Y-104526247D02*
X156013095Y-104383390D01*
X156013095Y-104383390D02*
X156060714Y-104192914D01*
X156060714Y-104192914D02*
X156108333Y-104097676D01*
X156108333Y-104097676D02*
X156203571Y-104002438D01*
X156203571Y-104002438D02*
X156346428Y-103954819D01*
X156346428Y-103954819D02*
X156441666Y-103954819D01*
X156441666Y-103954819D02*
X156584523Y-104002438D01*
X156584523Y-104002438D02*
X156632142Y-104050057D01*
X157584523Y-104954819D02*
X157013095Y-104954819D01*
X157298809Y-104954819D02*
X157298809Y-103954819D01*
X157298809Y-103954819D02*
X157203571Y-104097676D01*
X157203571Y-104097676D02*
X157108333Y-104192914D01*
X157108333Y-104192914D02*
X157013095Y-104240533D01*
X157917857Y-103954819D02*
X158536904Y-103954819D01*
X158536904Y-103954819D02*
X158203571Y-104335771D01*
X158203571Y-104335771D02*
X158346428Y-104335771D01*
X158346428Y-104335771D02*
X158441666Y-104383390D01*
X158441666Y-104383390D02*
X158489285Y-104431009D01*
X158489285Y-104431009D02*
X158536904Y-104526247D01*
X158536904Y-104526247D02*
X158536904Y-104764342D01*
X158536904Y-104764342D02*
X158489285Y-104859580D01*
X158489285Y-104859580D02*
X158441666Y-104907200D01*
X158441666Y-104907200D02*
X158346428Y-104954819D01*
X158346428Y-104954819D02*
X158060714Y-104954819D01*
X158060714Y-104954819D02*
X157965476Y-104907200D01*
X157965476Y-104907200D02*
X157917857Y-104859580D01*
X134711905Y-115204819D02*
X134711905Y-114204819D01*
X134711905Y-114204819D02*
X134950000Y-114204819D01*
X134950000Y-114204819D02*
X135092857Y-114252438D01*
X135092857Y-114252438D02*
X135188095Y-114347676D01*
X135188095Y-114347676D02*
X135235714Y-114442914D01*
X135235714Y-114442914D02*
X135283333Y-114633390D01*
X135283333Y-114633390D02*
X135283333Y-114776247D01*
X135283333Y-114776247D02*
X135235714Y-114966723D01*
X135235714Y-114966723D02*
X135188095Y-115061961D01*
X135188095Y-115061961D02*
X135092857Y-115157200D01*
X135092857Y-115157200D02*
X134950000Y-115204819D01*
X134950000Y-115204819D02*
X134711905Y-115204819D01*
X136235714Y-115204819D02*
X135664286Y-115204819D01*
X135950000Y-115204819D02*
X135950000Y-114204819D01*
X135950000Y-114204819D02*
X135854762Y-114347676D01*
X135854762Y-114347676D02*
X135759524Y-114442914D01*
X135759524Y-114442914D02*
X135664286Y-114490533D01*
X143157142Y-92754819D02*
X142823809Y-92278628D01*
X142585714Y-92754819D02*
X142585714Y-91754819D01*
X142585714Y-91754819D02*
X142966666Y-91754819D01*
X142966666Y-91754819D02*
X143061904Y-91802438D01*
X143061904Y-91802438D02*
X143109523Y-91850057D01*
X143109523Y-91850057D02*
X143157142Y-91945295D01*
X143157142Y-91945295D02*
X143157142Y-92088152D01*
X143157142Y-92088152D02*
X143109523Y-92183390D01*
X143109523Y-92183390D02*
X143061904Y-92231009D01*
X143061904Y-92231009D02*
X142966666Y-92278628D01*
X142966666Y-92278628D02*
X142585714Y-92278628D01*
X144109523Y-92754819D02*
X143538095Y-92754819D01*
X143823809Y-92754819D02*
X143823809Y-91754819D01*
X143823809Y-91754819D02*
X143728571Y-91897676D01*
X143728571Y-91897676D02*
X143633333Y-91992914D01*
X143633333Y-91992914D02*
X143538095Y-92040533D01*
X144966666Y-92088152D02*
X144966666Y-92754819D01*
X144728571Y-91707200D02*
X144490476Y-92421485D01*
X144490476Y-92421485D02*
X145109523Y-92421485D01*
X143254819Y-116142857D02*
X142778628Y-116476190D01*
X143254819Y-116714285D02*
X142254819Y-116714285D01*
X142254819Y-116714285D02*
X142254819Y-116333333D01*
X142254819Y-116333333D02*
X142302438Y-116238095D01*
X142302438Y-116238095D02*
X142350057Y-116190476D01*
X142350057Y-116190476D02*
X142445295Y-116142857D01*
X142445295Y-116142857D02*
X142588152Y-116142857D01*
X142588152Y-116142857D02*
X142683390Y-116190476D01*
X142683390Y-116190476D02*
X142731009Y-116238095D01*
X142731009Y-116238095D02*
X142778628Y-116333333D01*
X142778628Y-116333333D02*
X142778628Y-116714285D01*
X143254819Y-115190476D02*
X143254819Y-115761904D01*
X143254819Y-115476190D02*
X142254819Y-115476190D01*
X142254819Y-115476190D02*
X142397676Y-115571428D01*
X142397676Y-115571428D02*
X142492914Y-115666666D01*
X142492914Y-115666666D02*
X142540533Y-115761904D01*
X142683390Y-114619047D02*
X142635771Y-114714285D01*
X142635771Y-114714285D02*
X142588152Y-114761904D01*
X142588152Y-114761904D02*
X142492914Y-114809523D01*
X142492914Y-114809523D02*
X142445295Y-114809523D01*
X142445295Y-114809523D02*
X142350057Y-114761904D01*
X142350057Y-114761904D02*
X142302438Y-114714285D01*
X142302438Y-114714285D02*
X142254819Y-114619047D01*
X142254819Y-114619047D02*
X142254819Y-114428571D01*
X142254819Y-114428571D02*
X142302438Y-114333333D01*
X142302438Y-114333333D02*
X142350057Y-114285714D01*
X142350057Y-114285714D02*
X142445295Y-114238095D01*
X142445295Y-114238095D02*
X142492914Y-114238095D01*
X142492914Y-114238095D02*
X142588152Y-114285714D01*
X142588152Y-114285714D02*
X142635771Y-114333333D01*
X142635771Y-114333333D02*
X142683390Y-114428571D01*
X142683390Y-114428571D02*
X142683390Y-114619047D01*
X142683390Y-114619047D02*
X142731009Y-114714285D01*
X142731009Y-114714285D02*
X142778628Y-114761904D01*
X142778628Y-114761904D02*
X142873866Y-114809523D01*
X142873866Y-114809523D02*
X143064342Y-114809523D01*
X143064342Y-114809523D02*
X143159580Y-114761904D01*
X143159580Y-114761904D02*
X143207200Y-114714285D01*
X143207200Y-114714285D02*
X143254819Y-114619047D01*
X143254819Y-114619047D02*
X143254819Y-114428571D01*
X143254819Y-114428571D02*
X143207200Y-114333333D01*
X143207200Y-114333333D02*
X143159580Y-114285714D01*
X143159580Y-114285714D02*
X143064342Y-114238095D01*
X143064342Y-114238095D02*
X142873866Y-114238095D01*
X142873866Y-114238095D02*
X142778628Y-114285714D01*
X142778628Y-114285714D02*
X142731009Y-114333333D01*
X142731009Y-114333333D02*
X142683390Y-114428571D01*
X162206009Y-98333333D02*
X162206009Y-98666666D01*
X162729819Y-98666666D02*
X161729819Y-98666666D01*
X161729819Y-98666666D02*
X161729819Y-98190476D01*
X162729819Y-97285714D02*
X162729819Y-97857142D01*
X162729819Y-97571428D02*
X161729819Y-97571428D01*
X161729819Y-97571428D02*
X161872676Y-97666666D01*
X161872676Y-97666666D02*
X161967914Y-97761904D01*
X161967914Y-97761904D02*
X162015533Y-97857142D01*
X145959580Y-115066666D02*
X146007200Y-115114285D01*
X146007200Y-115114285D02*
X146054819Y-115257142D01*
X146054819Y-115257142D02*
X146054819Y-115352380D01*
X146054819Y-115352380D02*
X146007200Y-115495237D01*
X146007200Y-115495237D02*
X145911961Y-115590475D01*
X145911961Y-115590475D02*
X145816723Y-115638094D01*
X145816723Y-115638094D02*
X145626247Y-115685713D01*
X145626247Y-115685713D02*
X145483390Y-115685713D01*
X145483390Y-115685713D02*
X145292914Y-115638094D01*
X145292914Y-115638094D02*
X145197676Y-115590475D01*
X145197676Y-115590475D02*
X145102438Y-115495237D01*
X145102438Y-115495237D02*
X145054819Y-115352380D01*
X145054819Y-115352380D02*
X145054819Y-115257142D01*
X145054819Y-115257142D02*
X145102438Y-115114285D01*
X145102438Y-115114285D02*
X145150057Y-115066666D01*
X146054819Y-114114285D02*
X146054819Y-114685713D01*
X146054819Y-114399999D02*
X145054819Y-114399999D01*
X145054819Y-114399999D02*
X145197676Y-114495237D01*
X145197676Y-114495237D02*
X145292914Y-114590475D01*
X145292914Y-114590475D02*
X145340533Y-114685713D01*
X135333333Y-116554819D02*
X135000000Y-116078628D01*
X134761905Y-116554819D02*
X134761905Y-115554819D01*
X134761905Y-115554819D02*
X135142857Y-115554819D01*
X135142857Y-115554819D02*
X135238095Y-115602438D01*
X135238095Y-115602438D02*
X135285714Y-115650057D01*
X135285714Y-115650057D02*
X135333333Y-115745295D01*
X135333333Y-115745295D02*
X135333333Y-115888152D01*
X135333333Y-115888152D02*
X135285714Y-115983390D01*
X135285714Y-115983390D02*
X135238095Y-116031009D01*
X135238095Y-116031009D02*
X135142857Y-116078628D01*
X135142857Y-116078628D02*
X134761905Y-116078628D01*
X135666667Y-115554819D02*
X136285714Y-115554819D01*
X136285714Y-115554819D02*
X135952381Y-115935771D01*
X135952381Y-115935771D02*
X136095238Y-115935771D01*
X136095238Y-115935771D02*
X136190476Y-115983390D01*
X136190476Y-115983390D02*
X136238095Y-116031009D01*
X136238095Y-116031009D02*
X136285714Y-116126247D01*
X136285714Y-116126247D02*
X136285714Y-116364342D01*
X136285714Y-116364342D02*
X136238095Y-116459580D01*
X136238095Y-116459580D02*
X136190476Y-116507200D01*
X136190476Y-116507200D02*
X136095238Y-116554819D01*
X136095238Y-116554819D02*
X135809524Y-116554819D01*
X135809524Y-116554819D02*
X135714286Y-116507200D01*
X135714286Y-116507200D02*
X135666667Y-116459580D01*
X139954819Y-116142857D02*
X139478628Y-116476190D01*
X139954819Y-116714285D02*
X138954819Y-116714285D01*
X138954819Y-116714285D02*
X138954819Y-116333333D01*
X138954819Y-116333333D02*
X139002438Y-116238095D01*
X139002438Y-116238095D02*
X139050057Y-116190476D01*
X139050057Y-116190476D02*
X139145295Y-116142857D01*
X139145295Y-116142857D02*
X139288152Y-116142857D01*
X139288152Y-116142857D02*
X139383390Y-116190476D01*
X139383390Y-116190476D02*
X139431009Y-116238095D01*
X139431009Y-116238095D02*
X139478628Y-116333333D01*
X139478628Y-116333333D02*
X139478628Y-116714285D01*
X139954819Y-115190476D02*
X139954819Y-115761904D01*
X139954819Y-115476190D02*
X138954819Y-115476190D01*
X138954819Y-115476190D02*
X139097676Y-115571428D01*
X139097676Y-115571428D02*
X139192914Y-115666666D01*
X139192914Y-115666666D02*
X139240533Y-115761904D01*
X138954819Y-114857142D02*
X138954819Y-114190476D01*
X138954819Y-114190476D02*
X139954819Y-114619047D01*
X160659580Y-90042857D02*
X160707200Y-90090476D01*
X160707200Y-90090476D02*
X160754819Y-90233333D01*
X160754819Y-90233333D02*
X160754819Y-90328571D01*
X160754819Y-90328571D02*
X160707200Y-90471428D01*
X160707200Y-90471428D02*
X160611961Y-90566666D01*
X160611961Y-90566666D02*
X160516723Y-90614285D01*
X160516723Y-90614285D02*
X160326247Y-90661904D01*
X160326247Y-90661904D02*
X160183390Y-90661904D01*
X160183390Y-90661904D02*
X159992914Y-90614285D01*
X159992914Y-90614285D02*
X159897676Y-90566666D01*
X159897676Y-90566666D02*
X159802438Y-90471428D01*
X159802438Y-90471428D02*
X159754819Y-90328571D01*
X159754819Y-90328571D02*
X159754819Y-90233333D01*
X159754819Y-90233333D02*
X159802438Y-90090476D01*
X159802438Y-90090476D02*
X159850057Y-90042857D01*
X160754819Y-89090476D02*
X160754819Y-89661904D01*
X160754819Y-89376190D02*
X159754819Y-89376190D01*
X159754819Y-89376190D02*
X159897676Y-89471428D01*
X159897676Y-89471428D02*
X159992914Y-89566666D01*
X159992914Y-89566666D02*
X160040533Y-89661904D01*
X159754819Y-88757142D02*
X159754819Y-88090476D01*
X159754819Y-88090476D02*
X160754819Y-88519047D01*
X135941666Y-120704819D02*
X135941666Y-121419104D01*
X135941666Y-121419104D02*
X135894047Y-121561961D01*
X135894047Y-121561961D02*
X135798809Y-121657200D01*
X135798809Y-121657200D02*
X135655952Y-121704819D01*
X135655952Y-121704819D02*
X135560714Y-121704819D01*
X136846428Y-121038152D02*
X136846428Y-121704819D01*
X136608333Y-120657200D02*
X136370238Y-121371485D01*
X136370238Y-121371485D02*
X136989285Y-121371485D01*
X136934580Y-93316666D02*
X136982200Y-93364285D01*
X136982200Y-93364285D02*
X137029819Y-93507142D01*
X137029819Y-93507142D02*
X137029819Y-93602380D01*
X137029819Y-93602380D02*
X136982200Y-93745237D01*
X136982200Y-93745237D02*
X136886961Y-93840475D01*
X136886961Y-93840475D02*
X136791723Y-93888094D01*
X136791723Y-93888094D02*
X136601247Y-93935713D01*
X136601247Y-93935713D02*
X136458390Y-93935713D01*
X136458390Y-93935713D02*
X136267914Y-93888094D01*
X136267914Y-93888094D02*
X136172676Y-93840475D01*
X136172676Y-93840475D02*
X136077438Y-93745237D01*
X136077438Y-93745237D02*
X136029819Y-93602380D01*
X136029819Y-93602380D02*
X136029819Y-93507142D01*
X136029819Y-93507142D02*
X136077438Y-93364285D01*
X136077438Y-93364285D02*
X136125057Y-93316666D01*
X136458390Y-92745237D02*
X136410771Y-92840475D01*
X136410771Y-92840475D02*
X136363152Y-92888094D01*
X136363152Y-92888094D02*
X136267914Y-92935713D01*
X136267914Y-92935713D02*
X136220295Y-92935713D01*
X136220295Y-92935713D02*
X136125057Y-92888094D01*
X136125057Y-92888094D02*
X136077438Y-92840475D01*
X136077438Y-92840475D02*
X136029819Y-92745237D01*
X136029819Y-92745237D02*
X136029819Y-92554761D01*
X136029819Y-92554761D02*
X136077438Y-92459523D01*
X136077438Y-92459523D02*
X136125057Y-92411904D01*
X136125057Y-92411904D02*
X136220295Y-92364285D01*
X136220295Y-92364285D02*
X136267914Y-92364285D01*
X136267914Y-92364285D02*
X136363152Y-92411904D01*
X136363152Y-92411904D02*
X136410771Y-92459523D01*
X136410771Y-92459523D02*
X136458390Y-92554761D01*
X136458390Y-92554761D02*
X136458390Y-92745237D01*
X136458390Y-92745237D02*
X136506009Y-92840475D01*
X136506009Y-92840475D02*
X136553628Y-92888094D01*
X136553628Y-92888094D02*
X136648866Y-92935713D01*
X136648866Y-92935713D02*
X136839342Y-92935713D01*
X136839342Y-92935713D02*
X136934580Y-92888094D01*
X136934580Y-92888094D02*
X136982200Y-92840475D01*
X136982200Y-92840475D02*
X137029819Y-92745237D01*
X137029819Y-92745237D02*
X137029819Y-92554761D01*
X137029819Y-92554761D02*
X136982200Y-92459523D01*
X136982200Y-92459523D02*
X136934580Y-92411904D01*
X136934580Y-92411904D02*
X136839342Y-92364285D01*
X136839342Y-92364285D02*
X136648866Y-92364285D01*
X136648866Y-92364285D02*
X136553628Y-92411904D01*
X136553628Y-92411904D02*
X136506009Y-92459523D01*
X136506009Y-92459523D02*
X136458390Y-92554761D01*
X175229819Y-110583333D02*
X175944104Y-110583333D01*
X175944104Y-110583333D02*
X176086961Y-110630952D01*
X176086961Y-110630952D02*
X176182200Y-110726190D01*
X176182200Y-110726190D02*
X176229819Y-110869047D01*
X176229819Y-110869047D02*
X176229819Y-110964285D01*
X176229819Y-109583333D02*
X176229819Y-110154761D01*
X176229819Y-109869047D02*
X175229819Y-109869047D01*
X175229819Y-109869047D02*
X175372676Y-109964285D01*
X175372676Y-109964285D02*
X175467914Y-110059523D01*
X175467914Y-110059523D02*
X175515533Y-110154761D01*
X152533333Y-99359580D02*
X152485714Y-99407200D01*
X152485714Y-99407200D02*
X152342857Y-99454819D01*
X152342857Y-99454819D02*
X152247619Y-99454819D01*
X152247619Y-99454819D02*
X152104762Y-99407200D01*
X152104762Y-99407200D02*
X152009524Y-99311961D01*
X152009524Y-99311961D02*
X151961905Y-99216723D01*
X151961905Y-99216723D02*
X151914286Y-99026247D01*
X151914286Y-99026247D02*
X151914286Y-98883390D01*
X151914286Y-98883390D02*
X151961905Y-98692914D01*
X151961905Y-98692914D02*
X152009524Y-98597676D01*
X152009524Y-98597676D02*
X152104762Y-98502438D01*
X152104762Y-98502438D02*
X152247619Y-98454819D01*
X152247619Y-98454819D02*
X152342857Y-98454819D01*
X152342857Y-98454819D02*
X152485714Y-98502438D01*
X152485714Y-98502438D02*
X152533333Y-98550057D01*
X152866667Y-98454819D02*
X153533333Y-98454819D01*
X153533333Y-98454819D02*
X153104762Y-99454819D01*
X168513095Y-116204819D02*
X168513095Y-115204819D01*
X168513095Y-115681009D02*
X169084523Y-115681009D01*
X169084523Y-116204819D02*
X169084523Y-115204819D01*
X169513095Y-115300057D02*
X169560714Y-115252438D01*
X169560714Y-115252438D02*
X169655952Y-115204819D01*
X169655952Y-115204819D02*
X169894047Y-115204819D01*
X169894047Y-115204819D02*
X169989285Y-115252438D01*
X169989285Y-115252438D02*
X170036904Y-115300057D01*
X170036904Y-115300057D02*
X170084523Y-115395295D01*
X170084523Y-115395295D02*
X170084523Y-115490533D01*
X170084523Y-115490533D02*
X170036904Y-115633390D01*
X170036904Y-115633390D02*
X169465476Y-116204819D01*
X169465476Y-116204819D02*
X170084523Y-116204819D01*
X160286905Y-119454819D02*
X160286905Y-118454819D01*
X160286905Y-118454819D02*
X160525000Y-118454819D01*
X160525000Y-118454819D02*
X160667857Y-118502438D01*
X160667857Y-118502438D02*
X160763095Y-118597676D01*
X160763095Y-118597676D02*
X160810714Y-118692914D01*
X160810714Y-118692914D02*
X160858333Y-118883390D01*
X160858333Y-118883390D02*
X160858333Y-119026247D01*
X160858333Y-119026247D02*
X160810714Y-119216723D01*
X160810714Y-119216723D02*
X160763095Y-119311961D01*
X160763095Y-119311961D02*
X160667857Y-119407200D01*
X160667857Y-119407200D02*
X160525000Y-119454819D01*
X160525000Y-119454819D02*
X160286905Y-119454819D01*
X161239286Y-118550057D02*
X161286905Y-118502438D01*
X161286905Y-118502438D02*
X161382143Y-118454819D01*
X161382143Y-118454819D02*
X161620238Y-118454819D01*
X161620238Y-118454819D02*
X161715476Y-118502438D01*
X161715476Y-118502438D02*
X161763095Y-118550057D01*
X161763095Y-118550057D02*
X161810714Y-118645295D01*
X161810714Y-118645295D02*
X161810714Y-118740533D01*
X161810714Y-118740533D02*
X161763095Y-118883390D01*
X161763095Y-118883390D02*
X161191667Y-119454819D01*
X161191667Y-119454819D02*
X161810714Y-119454819D01*
X160263095Y-110204819D02*
X160263095Y-111014342D01*
X160263095Y-111014342D02*
X160310714Y-111109580D01*
X160310714Y-111109580D02*
X160358333Y-111157200D01*
X160358333Y-111157200D02*
X160453571Y-111204819D01*
X160453571Y-111204819D02*
X160644047Y-111204819D01*
X160644047Y-111204819D02*
X160739285Y-111157200D01*
X160739285Y-111157200D02*
X160786904Y-111109580D01*
X160786904Y-111109580D02*
X160834523Y-111014342D01*
X160834523Y-111014342D02*
X160834523Y-110204819D01*
X161263095Y-110300057D02*
X161310714Y-110252438D01*
X161310714Y-110252438D02*
X161405952Y-110204819D01*
X161405952Y-110204819D02*
X161644047Y-110204819D01*
X161644047Y-110204819D02*
X161739285Y-110252438D01*
X161739285Y-110252438D02*
X161786904Y-110300057D01*
X161786904Y-110300057D02*
X161834523Y-110395295D01*
X161834523Y-110395295D02*
X161834523Y-110490533D01*
X161834523Y-110490533D02*
X161786904Y-110633390D01*
X161786904Y-110633390D02*
X161215476Y-111204819D01*
X161215476Y-111204819D02*
X161834523Y-111204819D01*
X147359580Y-114046666D02*
X147407200Y-114094285D01*
X147407200Y-114094285D02*
X147454819Y-114237142D01*
X147454819Y-114237142D02*
X147454819Y-114332380D01*
X147454819Y-114332380D02*
X147407200Y-114475237D01*
X147407200Y-114475237D02*
X147311961Y-114570475D01*
X147311961Y-114570475D02*
X147216723Y-114618094D01*
X147216723Y-114618094D02*
X147026247Y-114665713D01*
X147026247Y-114665713D02*
X146883390Y-114665713D01*
X146883390Y-114665713D02*
X146692914Y-114618094D01*
X146692914Y-114618094D02*
X146597676Y-114570475D01*
X146597676Y-114570475D02*
X146502438Y-114475237D01*
X146502438Y-114475237D02*
X146454819Y-114332380D01*
X146454819Y-114332380D02*
X146454819Y-114237142D01*
X146454819Y-114237142D02*
X146502438Y-114094285D01*
X146502438Y-114094285D02*
X146550057Y-114046666D01*
X146454819Y-113189523D02*
X146454819Y-113379999D01*
X146454819Y-113379999D02*
X146502438Y-113475237D01*
X146502438Y-113475237D02*
X146550057Y-113522856D01*
X146550057Y-113522856D02*
X146692914Y-113618094D01*
X146692914Y-113618094D02*
X146883390Y-113665713D01*
X146883390Y-113665713D02*
X147264342Y-113665713D01*
X147264342Y-113665713D02*
X147359580Y-113618094D01*
X147359580Y-113618094D02*
X147407200Y-113570475D01*
X147407200Y-113570475D02*
X147454819Y-113475237D01*
X147454819Y-113475237D02*
X147454819Y-113284761D01*
X147454819Y-113284761D02*
X147407200Y-113189523D01*
X147407200Y-113189523D02*
X147359580Y-113141904D01*
X147359580Y-113141904D02*
X147264342Y-113094285D01*
X147264342Y-113094285D02*
X147026247Y-113094285D01*
X147026247Y-113094285D02*
X146931009Y-113141904D01*
X146931009Y-113141904D02*
X146883390Y-113189523D01*
X146883390Y-113189523D02*
X146835771Y-113284761D01*
X146835771Y-113284761D02*
X146835771Y-113475237D01*
X146835771Y-113475237D02*
X146883390Y-113570475D01*
X146883390Y-113570475D02*
X146931009Y-113618094D01*
X146931009Y-113618094D02*
X147026247Y-113665713D01*
X135813095Y-97104819D02*
X135813095Y-97914342D01*
X135813095Y-97914342D02*
X135860714Y-98009580D01*
X135860714Y-98009580D02*
X135908333Y-98057200D01*
X135908333Y-98057200D02*
X136003571Y-98104819D01*
X136003571Y-98104819D02*
X136194047Y-98104819D01*
X136194047Y-98104819D02*
X136289285Y-98057200D01*
X136289285Y-98057200D02*
X136336904Y-98009580D01*
X136336904Y-98009580D02*
X136384523Y-97914342D01*
X136384523Y-97914342D02*
X136384523Y-97104819D01*
X137384523Y-98104819D02*
X136813095Y-98104819D01*
X137098809Y-98104819D02*
X137098809Y-97104819D01*
X137098809Y-97104819D02*
X137003571Y-97247676D01*
X137003571Y-97247676D02*
X136908333Y-97342914D01*
X136908333Y-97342914D02*
X136813095Y-97390533D01*
X165358333Y-116954819D02*
X165025000Y-116478628D01*
X164786905Y-116954819D02*
X164786905Y-115954819D01*
X164786905Y-115954819D02*
X165167857Y-115954819D01*
X165167857Y-115954819D02*
X165263095Y-116002438D01*
X165263095Y-116002438D02*
X165310714Y-116050057D01*
X165310714Y-116050057D02*
X165358333Y-116145295D01*
X165358333Y-116145295D02*
X165358333Y-116288152D01*
X165358333Y-116288152D02*
X165310714Y-116383390D01*
X165310714Y-116383390D02*
X165263095Y-116431009D01*
X165263095Y-116431009D02*
X165167857Y-116478628D01*
X165167857Y-116478628D02*
X164786905Y-116478628D01*
X165929762Y-116383390D02*
X165834524Y-116335771D01*
X165834524Y-116335771D02*
X165786905Y-116288152D01*
X165786905Y-116288152D02*
X165739286Y-116192914D01*
X165739286Y-116192914D02*
X165739286Y-116145295D01*
X165739286Y-116145295D02*
X165786905Y-116050057D01*
X165786905Y-116050057D02*
X165834524Y-116002438D01*
X165834524Y-116002438D02*
X165929762Y-115954819D01*
X165929762Y-115954819D02*
X166120238Y-115954819D01*
X166120238Y-115954819D02*
X166215476Y-116002438D01*
X166215476Y-116002438D02*
X166263095Y-116050057D01*
X166263095Y-116050057D02*
X166310714Y-116145295D01*
X166310714Y-116145295D02*
X166310714Y-116192914D01*
X166310714Y-116192914D02*
X166263095Y-116288152D01*
X166263095Y-116288152D02*
X166215476Y-116335771D01*
X166215476Y-116335771D02*
X166120238Y-116383390D01*
X166120238Y-116383390D02*
X165929762Y-116383390D01*
X165929762Y-116383390D02*
X165834524Y-116431009D01*
X165834524Y-116431009D02*
X165786905Y-116478628D01*
X165786905Y-116478628D02*
X165739286Y-116573866D01*
X165739286Y-116573866D02*
X165739286Y-116764342D01*
X165739286Y-116764342D02*
X165786905Y-116859580D01*
X165786905Y-116859580D02*
X165834524Y-116907200D01*
X165834524Y-116907200D02*
X165929762Y-116954819D01*
X165929762Y-116954819D02*
X166120238Y-116954819D01*
X166120238Y-116954819D02*
X166215476Y-116907200D01*
X166215476Y-116907200D02*
X166263095Y-116859580D01*
X166263095Y-116859580D02*
X166310714Y-116764342D01*
X166310714Y-116764342D02*
X166310714Y-116573866D01*
X166310714Y-116573866D02*
X166263095Y-116478628D01*
X166263095Y-116478628D02*
X166215476Y-116431009D01*
X166215476Y-116431009D02*
X166120238Y-116383390D01*
X144441666Y-82454819D02*
X144441666Y-83169104D01*
X144441666Y-83169104D02*
X144394047Y-83311961D01*
X144394047Y-83311961D02*
X144298809Y-83407200D01*
X144298809Y-83407200D02*
X144155952Y-83454819D01*
X144155952Y-83454819D02*
X144060714Y-83454819D01*
X144822619Y-82454819D02*
X145441666Y-82454819D01*
X145441666Y-82454819D02*
X145108333Y-82835771D01*
X145108333Y-82835771D02*
X145251190Y-82835771D01*
X145251190Y-82835771D02*
X145346428Y-82883390D01*
X145346428Y-82883390D02*
X145394047Y-82931009D01*
X145394047Y-82931009D02*
X145441666Y-83026247D01*
X145441666Y-83026247D02*
X145441666Y-83264342D01*
X145441666Y-83264342D02*
X145394047Y-83359580D01*
X145394047Y-83359580D02*
X145346428Y-83407200D01*
X145346428Y-83407200D02*
X145251190Y-83454819D01*
X145251190Y-83454819D02*
X144965476Y-83454819D01*
X144965476Y-83454819D02*
X144870238Y-83407200D01*
X144870238Y-83407200D02*
X144822619Y-83359580D01*
X157739819Y-89066666D02*
X157263628Y-89399999D01*
X157739819Y-89638094D02*
X156739819Y-89638094D01*
X156739819Y-89638094D02*
X156739819Y-89257142D01*
X156739819Y-89257142D02*
X156787438Y-89161904D01*
X156787438Y-89161904D02*
X156835057Y-89114285D01*
X156835057Y-89114285D02*
X156930295Y-89066666D01*
X156930295Y-89066666D02*
X157073152Y-89066666D01*
X157073152Y-89066666D02*
X157168390Y-89114285D01*
X157168390Y-89114285D02*
X157216009Y-89161904D01*
X157216009Y-89161904D02*
X157263628Y-89257142D01*
X157263628Y-89257142D02*
X157263628Y-89638094D01*
X157739819Y-88590475D02*
X157739819Y-88399999D01*
X157739819Y-88399999D02*
X157692200Y-88304761D01*
X157692200Y-88304761D02*
X157644580Y-88257142D01*
X157644580Y-88257142D02*
X157501723Y-88161904D01*
X157501723Y-88161904D02*
X157311247Y-88114285D01*
X157311247Y-88114285D02*
X156930295Y-88114285D01*
X156930295Y-88114285D02*
X156835057Y-88161904D01*
X156835057Y-88161904D02*
X156787438Y-88209523D01*
X156787438Y-88209523D02*
X156739819Y-88304761D01*
X156739819Y-88304761D02*
X156739819Y-88495237D01*
X156739819Y-88495237D02*
X156787438Y-88590475D01*
X156787438Y-88590475D02*
X156835057Y-88638094D01*
X156835057Y-88638094D02*
X156930295Y-88685713D01*
X156930295Y-88685713D02*
X157168390Y-88685713D01*
X157168390Y-88685713D02*
X157263628Y-88638094D01*
X157263628Y-88638094D02*
X157311247Y-88590475D01*
X157311247Y-88590475D02*
X157358866Y-88495237D01*
X157358866Y-88495237D02*
X157358866Y-88304761D01*
X157358866Y-88304761D02*
X157311247Y-88209523D01*
X157311247Y-88209523D02*
X157263628Y-88161904D01*
X157263628Y-88161904D02*
X157168390Y-88114285D01*
X155339819Y-89852857D02*
X154863628Y-90186190D01*
X155339819Y-90424285D02*
X154339819Y-90424285D01*
X154339819Y-90424285D02*
X154339819Y-90043333D01*
X154339819Y-90043333D02*
X154387438Y-89948095D01*
X154387438Y-89948095D02*
X154435057Y-89900476D01*
X154435057Y-89900476D02*
X154530295Y-89852857D01*
X154530295Y-89852857D02*
X154673152Y-89852857D01*
X154673152Y-89852857D02*
X154768390Y-89900476D01*
X154768390Y-89900476D02*
X154816009Y-89948095D01*
X154816009Y-89948095D02*
X154863628Y-90043333D01*
X154863628Y-90043333D02*
X154863628Y-90424285D01*
X155339819Y-88900476D02*
X155339819Y-89471904D01*
X155339819Y-89186190D02*
X154339819Y-89186190D01*
X154339819Y-89186190D02*
X154482676Y-89281428D01*
X154482676Y-89281428D02*
X154577914Y-89376666D01*
X154577914Y-89376666D02*
X154625533Y-89471904D01*
X155339819Y-87948095D02*
X155339819Y-88519523D01*
X155339819Y-88233809D02*
X154339819Y-88233809D01*
X154339819Y-88233809D02*
X154482676Y-88329047D01*
X154482676Y-88329047D02*
X154577914Y-88424285D01*
X154577914Y-88424285D02*
X154625533Y-88519523D01*
X153433333Y-100859580D02*
X153385714Y-100907200D01*
X153385714Y-100907200D02*
X153242857Y-100954819D01*
X153242857Y-100954819D02*
X153147619Y-100954819D01*
X153147619Y-100954819D02*
X153004762Y-100907200D01*
X153004762Y-100907200D02*
X152909524Y-100811961D01*
X152909524Y-100811961D02*
X152861905Y-100716723D01*
X152861905Y-100716723D02*
X152814286Y-100526247D01*
X152814286Y-100526247D02*
X152814286Y-100383390D01*
X152814286Y-100383390D02*
X152861905Y-100192914D01*
X152861905Y-100192914D02*
X152909524Y-100097676D01*
X152909524Y-100097676D02*
X153004762Y-100002438D01*
X153004762Y-100002438D02*
X153147619Y-99954819D01*
X153147619Y-99954819D02*
X153242857Y-99954819D01*
X153242857Y-99954819D02*
X153385714Y-100002438D01*
X153385714Y-100002438D02*
X153433333Y-100050057D01*
X153814286Y-100050057D02*
X153861905Y-100002438D01*
X153861905Y-100002438D02*
X153957143Y-99954819D01*
X153957143Y-99954819D02*
X154195238Y-99954819D01*
X154195238Y-99954819D02*
X154290476Y-100002438D01*
X154290476Y-100002438D02*
X154338095Y-100050057D01*
X154338095Y-100050057D02*
X154385714Y-100145295D01*
X154385714Y-100145295D02*
X154385714Y-100240533D01*
X154385714Y-100240533D02*
X154338095Y-100383390D01*
X154338095Y-100383390D02*
X153766667Y-100954819D01*
X153766667Y-100954819D02*
X154385714Y-100954819D01*
X153108333Y-110204819D02*
X152632143Y-110204819D01*
X152632143Y-110204819D02*
X152632143Y-109204819D01*
X153394048Y-109300057D02*
X153441667Y-109252438D01*
X153441667Y-109252438D02*
X153536905Y-109204819D01*
X153536905Y-109204819D02*
X153775000Y-109204819D01*
X153775000Y-109204819D02*
X153870238Y-109252438D01*
X153870238Y-109252438D02*
X153917857Y-109300057D01*
X153917857Y-109300057D02*
X153965476Y-109395295D01*
X153965476Y-109395295D02*
X153965476Y-109490533D01*
X153965476Y-109490533D02*
X153917857Y-109633390D01*
X153917857Y-109633390D02*
X153346429Y-110204819D01*
X153346429Y-110204819D02*
X153965476Y-110204819D01*
X131409580Y-107592857D02*
X131457200Y-107640476D01*
X131457200Y-107640476D02*
X131504819Y-107783333D01*
X131504819Y-107783333D02*
X131504819Y-107878571D01*
X131504819Y-107878571D02*
X131457200Y-108021428D01*
X131457200Y-108021428D02*
X131361961Y-108116666D01*
X131361961Y-108116666D02*
X131266723Y-108164285D01*
X131266723Y-108164285D02*
X131076247Y-108211904D01*
X131076247Y-108211904D02*
X130933390Y-108211904D01*
X130933390Y-108211904D02*
X130742914Y-108164285D01*
X130742914Y-108164285D02*
X130647676Y-108116666D01*
X130647676Y-108116666D02*
X130552438Y-108021428D01*
X130552438Y-108021428D02*
X130504819Y-107878571D01*
X130504819Y-107878571D02*
X130504819Y-107783333D01*
X130504819Y-107783333D02*
X130552438Y-107640476D01*
X130552438Y-107640476D02*
X130600057Y-107592857D01*
X131504819Y-106640476D02*
X131504819Y-107211904D01*
X131504819Y-106926190D02*
X130504819Y-106926190D01*
X130504819Y-106926190D02*
X130647676Y-107021428D01*
X130647676Y-107021428D02*
X130742914Y-107116666D01*
X130742914Y-107116666D02*
X130790533Y-107211904D01*
X130504819Y-106021428D02*
X130504819Y-105926190D01*
X130504819Y-105926190D02*
X130552438Y-105830952D01*
X130552438Y-105830952D02*
X130600057Y-105783333D01*
X130600057Y-105783333D02*
X130695295Y-105735714D01*
X130695295Y-105735714D02*
X130885771Y-105688095D01*
X130885771Y-105688095D02*
X131123866Y-105688095D01*
X131123866Y-105688095D02*
X131314342Y-105735714D01*
X131314342Y-105735714D02*
X131409580Y-105783333D01*
X131409580Y-105783333D02*
X131457200Y-105830952D01*
X131457200Y-105830952D02*
X131504819Y-105926190D01*
X131504819Y-105926190D02*
X131504819Y-106021428D01*
X131504819Y-106021428D02*
X131457200Y-106116666D01*
X131457200Y-106116666D02*
X131409580Y-106164285D01*
X131409580Y-106164285D02*
X131314342Y-106211904D01*
X131314342Y-106211904D02*
X131123866Y-106259523D01*
X131123866Y-106259523D02*
X130885771Y-106259523D01*
X130885771Y-106259523D02*
X130695295Y-106211904D01*
X130695295Y-106211904D02*
X130600057Y-106164285D01*
X130600057Y-106164285D02*
X130552438Y-106116666D01*
X130552438Y-106116666D02*
X130504819Y-106021428D01*
X161307142Y-83704819D02*
X160973809Y-83228628D01*
X160735714Y-83704819D02*
X160735714Y-82704819D01*
X160735714Y-82704819D02*
X161116666Y-82704819D01*
X161116666Y-82704819D02*
X161211904Y-82752438D01*
X161211904Y-82752438D02*
X161259523Y-82800057D01*
X161259523Y-82800057D02*
X161307142Y-82895295D01*
X161307142Y-82895295D02*
X161307142Y-83038152D01*
X161307142Y-83038152D02*
X161259523Y-83133390D01*
X161259523Y-83133390D02*
X161211904Y-83181009D01*
X161211904Y-83181009D02*
X161116666Y-83228628D01*
X161116666Y-83228628D02*
X160735714Y-83228628D01*
X162259523Y-83704819D02*
X161688095Y-83704819D01*
X161973809Y-83704819D02*
X161973809Y-82704819D01*
X161973809Y-82704819D02*
X161878571Y-82847676D01*
X161878571Y-82847676D02*
X161783333Y-82942914D01*
X161783333Y-82942914D02*
X161688095Y-82990533D01*
X162735714Y-83704819D02*
X162926190Y-83704819D01*
X162926190Y-83704819D02*
X163021428Y-83657200D01*
X163021428Y-83657200D02*
X163069047Y-83609580D01*
X163069047Y-83609580D02*
X163164285Y-83466723D01*
X163164285Y-83466723D02*
X163211904Y-83276247D01*
X163211904Y-83276247D02*
X163211904Y-82895295D01*
X163211904Y-82895295D02*
X163164285Y-82800057D01*
X163164285Y-82800057D02*
X163116666Y-82752438D01*
X163116666Y-82752438D02*
X163021428Y-82704819D01*
X163021428Y-82704819D02*
X162830952Y-82704819D01*
X162830952Y-82704819D02*
X162735714Y-82752438D01*
X162735714Y-82752438D02*
X162688095Y-82800057D01*
X162688095Y-82800057D02*
X162640476Y-82895295D01*
X162640476Y-82895295D02*
X162640476Y-83133390D01*
X162640476Y-83133390D02*
X162688095Y-83228628D01*
X162688095Y-83228628D02*
X162735714Y-83276247D01*
X162735714Y-83276247D02*
X162830952Y-83323866D01*
X162830952Y-83323866D02*
X163021428Y-83323866D01*
X163021428Y-83323866D02*
X163116666Y-83276247D01*
X163116666Y-83276247D02*
X163164285Y-83228628D01*
X163164285Y-83228628D02*
X163211904Y-83133390D01*
X138457142Y-92854819D02*
X138123809Y-92378628D01*
X137885714Y-92854819D02*
X137885714Y-91854819D01*
X137885714Y-91854819D02*
X138266666Y-91854819D01*
X138266666Y-91854819D02*
X138361904Y-91902438D01*
X138361904Y-91902438D02*
X138409523Y-91950057D01*
X138409523Y-91950057D02*
X138457142Y-92045295D01*
X138457142Y-92045295D02*
X138457142Y-92188152D01*
X138457142Y-92188152D02*
X138409523Y-92283390D01*
X138409523Y-92283390D02*
X138361904Y-92331009D01*
X138361904Y-92331009D02*
X138266666Y-92378628D01*
X138266666Y-92378628D02*
X137885714Y-92378628D01*
X139409523Y-92854819D02*
X138838095Y-92854819D01*
X139123809Y-92854819D02*
X139123809Y-91854819D01*
X139123809Y-91854819D02*
X139028571Y-91997676D01*
X139028571Y-91997676D02*
X138933333Y-92092914D01*
X138933333Y-92092914D02*
X138838095Y-92140533D01*
X139742857Y-91854819D02*
X140361904Y-91854819D01*
X140361904Y-91854819D02*
X140028571Y-92235771D01*
X140028571Y-92235771D02*
X140171428Y-92235771D01*
X140171428Y-92235771D02*
X140266666Y-92283390D01*
X140266666Y-92283390D02*
X140314285Y-92331009D01*
X140314285Y-92331009D02*
X140361904Y-92426247D01*
X140361904Y-92426247D02*
X140361904Y-92664342D01*
X140361904Y-92664342D02*
X140314285Y-92759580D01*
X140314285Y-92759580D02*
X140266666Y-92807200D01*
X140266666Y-92807200D02*
X140171428Y-92854819D01*
X140171428Y-92854819D02*
X139885714Y-92854819D01*
X139885714Y-92854819D02*
X139790476Y-92807200D01*
X139790476Y-92807200D02*
X139742857Y-92759580D01*
X151959580Y-121242857D02*
X152007200Y-121290476D01*
X152007200Y-121290476D02*
X152054819Y-121433333D01*
X152054819Y-121433333D02*
X152054819Y-121528571D01*
X152054819Y-121528571D02*
X152007200Y-121671428D01*
X152007200Y-121671428D02*
X151911961Y-121766666D01*
X151911961Y-121766666D02*
X151816723Y-121814285D01*
X151816723Y-121814285D02*
X151626247Y-121861904D01*
X151626247Y-121861904D02*
X151483390Y-121861904D01*
X151483390Y-121861904D02*
X151292914Y-121814285D01*
X151292914Y-121814285D02*
X151197676Y-121766666D01*
X151197676Y-121766666D02*
X151102438Y-121671428D01*
X151102438Y-121671428D02*
X151054819Y-121528571D01*
X151054819Y-121528571D02*
X151054819Y-121433333D01*
X151054819Y-121433333D02*
X151102438Y-121290476D01*
X151102438Y-121290476D02*
X151150057Y-121242857D01*
X152054819Y-120290476D02*
X152054819Y-120861904D01*
X152054819Y-120576190D02*
X151054819Y-120576190D01*
X151054819Y-120576190D02*
X151197676Y-120671428D01*
X151197676Y-120671428D02*
X151292914Y-120766666D01*
X151292914Y-120766666D02*
X151340533Y-120861904D01*
X151054819Y-119385714D02*
X151054819Y-119861904D01*
X151054819Y-119861904D02*
X151531009Y-119909523D01*
X151531009Y-119909523D02*
X151483390Y-119861904D01*
X151483390Y-119861904D02*
X151435771Y-119766666D01*
X151435771Y-119766666D02*
X151435771Y-119528571D01*
X151435771Y-119528571D02*
X151483390Y-119433333D01*
X151483390Y-119433333D02*
X151531009Y-119385714D01*
X151531009Y-119385714D02*
X151626247Y-119338095D01*
X151626247Y-119338095D02*
X151864342Y-119338095D01*
X151864342Y-119338095D02*
X151959580Y-119385714D01*
X151959580Y-119385714D02*
X152007200Y-119433333D01*
X152007200Y-119433333D02*
X152054819Y-119528571D01*
X152054819Y-119528571D02*
X152054819Y-119766666D01*
X152054819Y-119766666D02*
X152007200Y-119861904D01*
X152007200Y-119861904D02*
X151959580Y-119909523D01*
X159004819Y-90042857D02*
X158528628Y-90376190D01*
X159004819Y-90614285D02*
X158004819Y-90614285D01*
X158004819Y-90614285D02*
X158004819Y-90233333D01*
X158004819Y-90233333D02*
X158052438Y-90138095D01*
X158052438Y-90138095D02*
X158100057Y-90090476D01*
X158100057Y-90090476D02*
X158195295Y-90042857D01*
X158195295Y-90042857D02*
X158338152Y-90042857D01*
X158338152Y-90042857D02*
X158433390Y-90090476D01*
X158433390Y-90090476D02*
X158481009Y-90138095D01*
X158481009Y-90138095D02*
X158528628Y-90233333D01*
X158528628Y-90233333D02*
X158528628Y-90614285D01*
X159004819Y-89090476D02*
X159004819Y-89661904D01*
X159004819Y-89376190D02*
X158004819Y-89376190D01*
X158004819Y-89376190D02*
X158147676Y-89471428D01*
X158147676Y-89471428D02*
X158242914Y-89566666D01*
X158242914Y-89566666D02*
X158290533Y-89661904D01*
X158100057Y-88709523D02*
X158052438Y-88661904D01*
X158052438Y-88661904D02*
X158004819Y-88566666D01*
X158004819Y-88566666D02*
X158004819Y-88328571D01*
X158004819Y-88328571D02*
X158052438Y-88233333D01*
X158052438Y-88233333D02*
X158100057Y-88185714D01*
X158100057Y-88185714D02*
X158195295Y-88138095D01*
X158195295Y-88138095D02*
X158290533Y-88138095D01*
X158290533Y-88138095D02*
X158433390Y-88185714D01*
X158433390Y-88185714D02*
X159004819Y-88757142D01*
X159004819Y-88757142D02*
X159004819Y-88138095D01*
X129763095Y-116454819D02*
X129763095Y-115454819D01*
X129763095Y-115931009D02*
X130334523Y-115931009D01*
X130334523Y-116454819D02*
X130334523Y-115454819D01*
X131334523Y-116454819D02*
X130763095Y-116454819D01*
X131048809Y-116454819D02*
X131048809Y-115454819D01*
X131048809Y-115454819D02*
X130953571Y-115597676D01*
X130953571Y-115597676D02*
X130858333Y-115692914D01*
X130858333Y-115692914D02*
X130763095Y-115740533D01*
X165358333Y-114454819D02*
X165025000Y-113978628D01*
X164786905Y-114454819D02*
X164786905Y-113454819D01*
X164786905Y-113454819D02*
X165167857Y-113454819D01*
X165167857Y-113454819D02*
X165263095Y-113502438D01*
X165263095Y-113502438D02*
X165310714Y-113550057D01*
X165310714Y-113550057D02*
X165358333Y-113645295D01*
X165358333Y-113645295D02*
X165358333Y-113788152D01*
X165358333Y-113788152D02*
X165310714Y-113883390D01*
X165310714Y-113883390D02*
X165263095Y-113931009D01*
X165263095Y-113931009D02*
X165167857Y-113978628D01*
X165167857Y-113978628D02*
X164786905Y-113978628D01*
X166215476Y-113454819D02*
X166025000Y-113454819D01*
X166025000Y-113454819D02*
X165929762Y-113502438D01*
X165929762Y-113502438D02*
X165882143Y-113550057D01*
X165882143Y-113550057D02*
X165786905Y-113692914D01*
X165786905Y-113692914D02*
X165739286Y-113883390D01*
X165739286Y-113883390D02*
X165739286Y-114264342D01*
X165739286Y-114264342D02*
X165786905Y-114359580D01*
X165786905Y-114359580D02*
X165834524Y-114407200D01*
X165834524Y-114407200D02*
X165929762Y-114454819D01*
X165929762Y-114454819D02*
X166120238Y-114454819D01*
X166120238Y-114454819D02*
X166215476Y-114407200D01*
X166215476Y-114407200D02*
X166263095Y-114359580D01*
X166263095Y-114359580D02*
X166310714Y-114264342D01*
X166310714Y-114264342D02*
X166310714Y-114026247D01*
X166310714Y-114026247D02*
X166263095Y-113931009D01*
X166263095Y-113931009D02*
X166215476Y-113883390D01*
X166215476Y-113883390D02*
X166120238Y-113835771D01*
X166120238Y-113835771D02*
X165929762Y-113835771D01*
X165929762Y-113835771D02*
X165834524Y-113883390D01*
X165834524Y-113883390D02*
X165786905Y-113931009D01*
X165786905Y-113931009D02*
X165739286Y-114026247D01*
X134184580Y-93316666D02*
X134232200Y-93364285D01*
X134232200Y-93364285D02*
X134279819Y-93507142D01*
X134279819Y-93507142D02*
X134279819Y-93602380D01*
X134279819Y-93602380D02*
X134232200Y-93745237D01*
X134232200Y-93745237D02*
X134136961Y-93840475D01*
X134136961Y-93840475D02*
X134041723Y-93888094D01*
X134041723Y-93888094D02*
X133851247Y-93935713D01*
X133851247Y-93935713D02*
X133708390Y-93935713D01*
X133708390Y-93935713D02*
X133517914Y-93888094D01*
X133517914Y-93888094D02*
X133422676Y-93840475D01*
X133422676Y-93840475D02*
X133327438Y-93745237D01*
X133327438Y-93745237D02*
X133279819Y-93602380D01*
X133279819Y-93602380D02*
X133279819Y-93507142D01*
X133279819Y-93507142D02*
X133327438Y-93364285D01*
X133327438Y-93364285D02*
X133375057Y-93316666D01*
X133279819Y-92983332D02*
X133279819Y-92364285D01*
X133279819Y-92364285D02*
X133660771Y-92697618D01*
X133660771Y-92697618D02*
X133660771Y-92554761D01*
X133660771Y-92554761D02*
X133708390Y-92459523D01*
X133708390Y-92459523D02*
X133756009Y-92411904D01*
X133756009Y-92411904D02*
X133851247Y-92364285D01*
X133851247Y-92364285D02*
X134089342Y-92364285D01*
X134089342Y-92364285D02*
X134184580Y-92411904D01*
X134184580Y-92411904D02*
X134232200Y-92459523D01*
X134232200Y-92459523D02*
X134279819Y-92554761D01*
X134279819Y-92554761D02*
X134279819Y-92840475D01*
X134279819Y-92840475D02*
X134232200Y-92935713D01*
X134232200Y-92935713D02*
X134184580Y-92983332D01*
X126678628Y-102376190D02*
X127154819Y-102376190D01*
X126154819Y-102709523D02*
X126678628Y-102376190D01*
X126678628Y-102376190D02*
X126154819Y-102042857D01*
X127154819Y-101185714D02*
X127154819Y-101757142D01*
X127154819Y-101471428D02*
X126154819Y-101471428D01*
X126154819Y-101471428D02*
X126297676Y-101566666D01*
X126297676Y-101566666D02*
X126392914Y-101661904D01*
X126392914Y-101661904D02*
X126440533Y-101757142D01*
X156504819Y-90042857D02*
X156028628Y-90376190D01*
X156504819Y-90614285D02*
X155504819Y-90614285D01*
X155504819Y-90614285D02*
X155504819Y-90233333D01*
X155504819Y-90233333D02*
X155552438Y-90138095D01*
X155552438Y-90138095D02*
X155600057Y-90090476D01*
X155600057Y-90090476D02*
X155695295Y-90042857D01*
X155695295Y-90042857D02*
X155838152Y-90042857D01*
X155838152Y-90042857D02*
X155933390Y-90090476D01*
X155933390Y-90090476D02*
X155981009Y-90138095D01*
X155981009Y-90138095D02*
X156028628Y-90233333D01*
X156028628Y-90233333D02*
X156028628Y-90614285D01*
X156504819Y-89090476D02*
X156504819Y-89661904D01*
X156504819Y-89376190D02*
X155504819Y-89376190D01*
X155504819Y-89376190D02*
X155647676Y-89471428D01*
X155647676Y-89471428D02*
X155742914Y-89566666D01*
X155742914Y-89566666D02*
X155790533Y-89661904D01*
X155504819Y-88471428D02*
X155504819Y-88376190D01*
X155504819Y-88376190D02*
X155552438Y-88280952D01*
X155552438Y-88280952D02*
X155600057Y-88233333D01*
X155600057Y-88233333D02*
X155695295Y-88185714D01*
X155695295Y-88185714D02*
X155885771Y-88138095D01*
X155885771Y-88138095D02*
X156123866Y-88138095D01*
X156123866Y-88138095D02*
X156314342Y-88185714D01*
X156314342Y-88185714D02*
X156409580Y-88233333D01*
X156409580Y-88233333D02*
X156457200Y-88280952D01*
X156457200Y-88280952D02*
X156504819Y-88376190D01*
X156504819Y-88376190D02*
X156504819Y-88471428D01*
X156504819Y-88471428D02*
X156457200Y-88566666D01*
X156457200Y-88566666D02*
X156409580Y-88614285D01*
X156409580Y-88614285D02*
X156314342Y-88661904D01*
X156314342Y-88661904D02*
X156123866Y-88709523D01*
X156123866Y-88709523D02*
X155885771Y-88709523D01*
X155885771Y-88709523D02*
X155695295Y-88661904D01*
X155695295Y-88661904D02*
X155600057Y-88614285D01*
X155600057Y-88614285D02*
X155552438Y-88566666D01*
X155552438Y-88566666D02*
X155504819Y-88471428D01*
X160132142Y-117859580D02*
X160084523Y-117907200D01*
X160084523Y-117907200D02*
X159941666Y-117954819D01*
X159941666Y-117954819D02*
X159846428Y-117954819D01*
X159846428Y-117954819D02*
X159703571Y-117907200D01*
X159703571Y-117907200D02*
X159608333Y-117811961D01*
X159608333Y-117811961D02*
X159560714Y-117716723D01*
X159560714Y-117716723D02*
X159513095Y-117526247D01*
X159513095Y-117526247D02*
X159513095Y-117383390D01*
X159513095Y-117383390D02*
X159560714Y-117192914D01*
X159560714Y-117192914D02*
X159608333Y-117097676D01*
X159608333Y-117097676D02*
X159703571Y-117002438D01*
X159703571Y-117002438D02*
X159846428Y-116954819D01*
X159846428Y-116954819D02*
X159941666Y-116954819D01*
X159941666Y-116954819D02*
X160084523Y-117002438D01*
X160084523Y-117002438D02*
X160132142Y-117050057D01*
X161084523Y-117954819D02*
X160513095Y-117954819D01*
X160798809Y-117954819D02*
X160798809Y-116954819D01*
X160798809Y-116954819D02*
X160703571Y-117097676D01*
X160703571Y-117097676D02*
X160608333Y-117192914D01*
X160608333Y-117192914D02*
X160513095Y-117240533D01*
X161941666Y-117288152D02*
X161941666Y-117954819D01*
X161703571Y-116907200D02*
X161465476Y-117621485D01*
X161465476Y-117621485D02*
X162084523Y-117621485D01*
X161211905Y-82204819D02*
X161211905Y-81204819D01*
X161211905Y-81204819D02*
X161450000Y-81204819D01*
X161450000Y-81204819D02*
X161592857Y-81252438D01*
X161592857Y-81252438D02*
X161688095Y-81347676D01*
X161688095Y-81347676D02*
X161735714Y-81442914D01*
X161735714Y-81442914D02*
X161783333Y-81633390D01*
X161783333Y-81633390D02*
X161783333Y-81776247D01*
X161783333Y-81776247D02*
X161735714Y-81966723D01*
X161735714Y-81966723D02*
X161688095Y-82061961D01*
X161688095Y-82061961D02*
X161592857Y-82157200D01*
X161592857Y-82157200D02*
X161450000Y-82204819D01*
X161450000Y-82204819D02*
X161211905Y-82204819D01*
X162688095Y-81204819D02*
X162211905Y-81204819D01*
X162211905Y-81204819D02*
X162164286Y-81681009D01*
X162164286Y-81681009D02*
X162211905Y-81633390D01*
X162211905Y-81633390D02*
X162307143Y-81585771D01*
X162307143Y-81585771D02*
X162545238Y-81585771D01*
X162545238Y-81585771D02*
X162640476Y-81633390D01*
X162640476Y-81633390D02*
X162688095Y-81681009D01*
X162688095Y-81681009D02*
X162735714Y-81776247D01*
X162735714Y-81776247D02*
X162735714Y-82014342D01*
X162735714Y-82014342D02*
X162688095Y-82109580D01*
X162688095Y-82109580D02*
X162640476Y-82157200D01*
X162640476Y-82157200D02*
X162545238Y-82204819D01*
X162545238Y-82204819D02*
X162307143Y-82204819D01*
X162307143Y-82204819D02*
X162211905Y-82157200D01*
X162211905Y-82157200D02*
X162164286Y-82109580D01*
D12*
%TO.C,J2*%
X153320000Y-76960000D02*
X153320000Y-78235000D01*
X153385000Y-78235000D02*
X153320000Y-78235000D01*
X153385000Y-78235000D02*
X153385000Y-81865000D01*
X146880000Y-78235000D02*
X146815000Y-78235000D01*
X146815000Y-78235000D02*
X146815000Y-81865000D01*
X153385000Y-81865000D02*
X153320000Y-81865000D01*
X146880000Y-81865000D02*
X146815000Y-81865000D01*
%TO.C,SW1*%
X124395000Y-94150000D02*
X124395000Y-94350000D01*
X124395000Y-91150000D02*
X124395000Y-92850000D01*
X123345000Y-89300000D02*
X122555000Y-89300000D01*
X122555000Y-96200000D02*
X123345000Y-96200000D01*
X121545000Y-91350000D02*
X120255000Y-91350000D01*
X121545000Y-89900000D02*
X121545000Y-95600000D01*
X120255000Y-92650000D02*
X121545000Y-92650000D01*
X120255000Y-92650000D02*
X120045000Y-92450000D01*
X120255000Y-91350000D02*
X120045000Y-91550000D01*
X120045000Y-91550000D02*
X120045000Y-92450000D01*
%TO.C,R15*%
X141395000Y-87846359D02*
X141395000Y-88153641D01*
X142155000Y-87846359D02*
X142155000Y-88153641D01*
%TO.C,R5*%
X155252500Y-106987258D02*
X155252500Y-106512742D01*
X156297500Y-106987258D02*
X156297500Y-106512742D01*
%TO.C,R7*%
X165762258Y-110227500D02*
X165287742Y-110227500D01*
X165762258Y-111272500D02*
X165287742Y-111272500D01*
%TO.C,J5*%
X171865000Y-89565000D02*
X171865000Y-89945000D01*
X171865000Y-89565000D02*
X173635000Y-89565000D01*
X171865000Y-97185000D02*
X171865000Y-96805000D01*
X173635000Y-97185000D02*
X171865000Y-97185000D01*
X175915000Y-89565000D02*
X176175000Y-89565000D01*
X176175000Y-97185000D02*
X175915000Y-97185000D01*
%TO.C,C16*%
X152890000Y-118215000D02*
X152890000Y-122100000D01*
X155160000Y-118215000D02*
X152890000Y-118215000D01*
X155160000Y-122100000D02*
X155160000Y-118215000D01*
%TO.C,FB1*%
X159465000Y-101212122D02*
X159465000Y-100412878D01*
X160585000Y-101212122D02*
X160585000Y-100412878D01*
%TO.C,Q1*%
X164215000Y-105240000D02*
X164265000Y-105240000D01*
X164215000Y-106760000D02*
X164215000Y-105240000D01*
X165215000Y-106760000D02*
X164215000Y-106760000D01*
X165385000Y-105240000D02*
X166165000Y-105240000D01*
X167285000Y-105240000D02*
X167335000Y-105240000D01*
X167335000Y-105240000D02*
X167335000Y-106760000D01*
X167335000Y-106760000D02*
X166335000Y-106760000D01*
X166155000Y-104700000D02*
X165825000Y-104940000D01*
X165825000Y-104460000D01*
X166155000Y-104700000D01*
G36*
X166155000Y-104700000D02*
G01*
X165825000Y-104940000D01*
X165825000Y-104460000D01*
X166155000Y-104700000D01*
G37*
%TO.C,C11*%
X129217164Y-98290000D02*
X129432836Y-98290000D01*
X129217164Y-99010000D02*
X129432836Y-99010000D01*
%TO.C,D3*%
X163775000Y-103610000D02*
X163775000Y-99600000D01*
X163775000Y-103610000D02*
X165775000Y-103610000D01*
X165775000Y-103610000D02*
X165775000Y-99600000D01*
%TO.C,U3*%
X166590000Y-92140000D02*
X168410000Y-92140000D01*
X166590000Y-92190000D02*
X166590000Y-92140000D01*
X166590000Y-95260000D02*
X166590000Y-95210000D01*
X168410000Y-92140000D02*
X168410000Y-92190000D01*
X168410000Y-95210000D02*
X168410000Y-95260000D01*
X168410000Y-95260000D02*
X166590000Y-95260000D01*
X169190000Y-95540000D02*
X168710000Y-95540000D01*
X168950000Y-95210000D01*
X169190000Y-95540000D01*
G36*
X169190000Y-95540000D02*
G01*
X168710000Y-95540000D01*
X168950000Y-95210000D01*
X169190000Y-95540000D01*
G37*
%TO.C,C9*%
X131940000Y-106392164D02*
X131940000Y-106607836D01*
X132660000Y-106392164D02*
X132660000Y-106607836D01*
%TO.C,R4*%
X157002500Y-106512742D02*
X157002500Y-106987258D01*
X158047500Y-106512742D02*
X158047500Y-106987258D01*
%TO.C,C5*%
X138717164Y-111290000D02*
X138932836Y-111290000D01*
X138717164Y-112010000D02*
X138932836Y-112010000D01*
%TO.C,C12*%
X129407836Y-104440000D02*
X129192164Y-104440000D01*
X129407836Y-105160000D02*
X129192164Y-105160000D01*
%TO.C,R16*%
X139895000Y-87846359D02*
X139895000Y-88153641D01*
X140655000Y-87846359D02*
X140655000Y-88153641D01*
%TO.C,C4*%
X133465000Y-99292164D02*
X133465000Y-99507836D01*
X134185000Y-99292164D02*
X134185000Y-99507836D01*
%TO.C,R2*%
X133446359Y-102620000D02*
X133753641Y-102620000D01*
X133446359Y-103380000D02*
X133753641Y-103380000D01*
%TO.C,R1*%
X128953641Y-93220000D02*
X128646359Y-93220000D01*
X128953641Y-93980000D02*
X128646359Y-93980000D01*
%TO.C,C13*%
X159425000Y-106135000D02*
X163310000Y-106135000D01*
X163310000Y-103865000D02*
X159425000Y-103865000D01*
X163310000Y-106135000D02*
X163310000Y-103865000D01*
%TO.C,D1*%
X133802500Y-110915000D02*
X133802500Y-112385000D01*
X133802500Y-112385000D02*
X136087500Y-112385000D01*
X136087500Y-110915000D02*
X133802500Y-110915000D01*
%TO.C,R14*%
X142762742Y-93277500D02*
X143237258Y-93277500D01*
X142762742Y-94322500D02*
X143237258Y-94322500D01*
%TO.C,R18*%
X141420000Y-113453641D02*
X141420000Y-113146359D01*
X142180000Y-113453641D02*
X142180000Y-113146359D01*
%TO.C,F1*%
X161365000Y-101952064D02*
X161365000Y-100747936D01*
X163185000Y-101952064D02*
X163185000Y-100747936D01*
%TO.C,C1*%
X145090000Y-112259420D02*
X145090000Y-112540580D01*
X146110000Y-112259420D02*
X146110000Y-112540580D01*
%TO.C,R3*%
X135562258Y-112877500D02*
X135087742Y-112877500D01*
X135562258Y-113922500D02*
X135087742Y-113922500D01*
%TO.C,R17*%
X140020000Y-113453641D02*
X140020000Y-113146359D01*
X140780000Y-113453641D02*
X140780000Y-113146359D01*
%TO.C,C17*%
X152405000Y-89390580D02*
X152405000Y-89109420D01*
X153425000Y-89390580D02*
X153425000Y-89109420D01*
%TO.C,J4*%
X137540000Y-120140000D02*
X137540000Y-125860000D01*
X137540000Y-125860000D02*
X141025000Y-125860000D01*
X138610000Y-120140000D02*
X137540000Y-120140000D01*
X138610000Y-120440000D02*
X138610000Y-120140000D01*
X138900000Y-119850000D02*
X138400000Y-119850000D01*
X138900000Y-120150000D02*
X138900000Y-119850000D01*
X141025000Y-120440000D02*
X138610000Y-120440000D01*
X141025000Y-120440000D02*
X143440000Y-120440000D01*
X143440000Y-120140000D02*
X144510000Y-120140000D01*
X143440000Y-120440000D02*
X143440000Y-120140000D01*
X144510000Y-120140000D02*
X144510000Y-125860000D01*
X144510000Y-125860000D02*
X141025000Y-125860000D01*
%TO.C,C8*%
X136215000Y-95042164D02*
X136215000Y-95257836D01*
X136935000Y-95042164D02*
X136935000Y-95257836D01*
%TO.C,J1*%
X168222500Y-101880000D02*
X176062500Y-101880000D01*
X168222500Y-109120000D02*
X168222500Y-101880000D01*
X174442500Y-109120000D02*
X174442500Y-101880000D01*
X175542500Y-109120000D02*
X175542500Y-101880000D01*
X176062500Y-101880000D02*
X176062500Y-106950000D01*
X176062500Y-107550000D02*
X176062500Y-109120000D01*
X176062500Y-109120000D02*
X168222500Y-109120000D01*
X176672500Y-107690000D02*
X176062500Y-107250000D01*
X176672500Y-106810000D01*
X176672500Y-107690000D01*
G36*
X176672500Y-107690000D02*
G01*
X176062500Y-107250000D01*
X176672500Y-106810000D01*
X176672500Y-107690000D01*
G37*
%TO.C,C7*%
X150382836Y-98640000D02*
X150167164Y-98640000D01*
X150382836Y-99360000D02*
X150167164Y-99360000D01*
%TO.C,D2*%
X158665000Y-114500000D02*
X158665000Y-116500000D01*
X158665000Y-114500000D02*
X162675000Y-114500000D01*
X158665000Y-116500000D02*
X162675000Y-116500000D01*
%TO.C,U2*%
X160115000Y-106690000D02*
X161935000Y-106690000D01*
X160115000Y-106740000D02*
X160115000Y-106690000D01*
X160115000Y-109810000D02*
X160115000Y-109760000D01*
X161935000Y-106690000D02*
X161935000Y-106740000D01*
X161935000Y-109760000D02*
X161935000Y-109810000D01*
X161935000Y-109810000D02*
X160115000Y-109810000D01*
X162715000Y-110090000D02*
X162235000Y-110090000D01*
X162475000Y-109760000D01*
X162715000Y-110090000D01*
G36*
X162715000Y-110090000D02*
G01*
X162235000Y-110090000D01*
X162475000Y-109760000D01*
X162715000Y-110090000D01*
G37*
%TO.C,C6*%
X146640000Y-112007836D02*
X146640000Y-111792164D01*
X147360000Y-112007836D02*
X147360000Y-111792164D01*
%TO.C,U1*%
X136790000Y-98540000D02*
X137740000Y-98540000D01*
X136790000Y-99490000D02*
X136790000Y-98540000D01*
X136790000Y-108760000D02*
X136790000Y-107810000D01*
X137740000Y-108760000D02*
X136790000Y-108760000D01*
X146060000Y-98540000D02*
X147010000Y-98540000D01*
X147010000Y-98540000D02*
X147010000Y-99490000D01*
X147010000Y-107810000D02*
X147010000Y-108760000D01*
X147010000Y-108760000D02*
X146060000Y-108760000D01*
X136150000Y-99490000D02*
X135810000Y-99020000D01*
X136490000Y-99020000D01*
X136150000Y-99490000D01*
G36*
X136150000Y-99490000D02*
G01*
X135810000Y-99020000D01*
X136490000Y-99020000D01*
X136150000Y-99490000D01*
G37*
%TO.C,R8*%
X165287742Y-111977500D02*
X165762258Y-111977500D01*
X165287742Y-113022500D02*
X165762258Y-113022500D01*
%TO.C,J3*%
X137540000Y-76140000D02*
X141025000Y-76140000D01*
X137540000Y-81860000D02*
X137540000Y-76140000D01*
X138610000Y-81560000D02*
X138610000Y-81860000D01*
X138610000Y-81860000D02*
X137540000Y-81860000D01*
X141025000Y-81560000D02*
X138610000Y-81560000D01*
X141025000Y-81560000D02*
X143440000Y-81560000D01*
X143150000Y-81850000D02*
X143150000Y-82150000D01*
X143150000Y-82150000D02*
X143650000Y-82150000D01*
X143440000Y-81560000D02*
X143440000Y-81860000D01*
X143440000Y-81860000D02*
X144510000Y-81860000D01*
X144510000Y-76140000D02*
X141025000Y-76140000D01*
X144510000Y-81860000D02*
X144510000Y-76140000D01*
%TO.C,R9*%
X149520000Y-89903641D02*
X149520000Y-89596359D01*
X150280000Y-89903641D02*
X150280000Y-89596359D01*
%TO.C,R11*%
X147120000Y-89953641D02*
X147120000Y-89646359D01*
X147880000Y-89953641D02*
X147880000Y-89646359D01*
%TO.C,C2*%
X150634420Y-99990000D02*
X150915580Y-99990000D01*
X150634420Y-101010000D02*
X150915580Y-101010000D01*
%TO.C,L2*%
X152815000Y-110940000D02*
X154015000Y-110940000D01*
X152815000Y-116560000D02*
X152815000Y-110940000D01*
X154015000Y-116560000D02*
X152815000Y-116560000D01*
X157035000Y-110940000D02*
X158235000Y-110940000D01*
X158235000Y-110940000D02*
X158235000Y-116560000D01*
X158235000Y-116560000D02*
X157035000Y-116560000D01*
%TO.C,C10*%
X133290000Y-106059420D02*
X133290000Y-106340580D01*
X134310000Y-106059420D02*
X134310000Y-106340580D01*
%TO.C,R19*%
X161462742Y-79727500D02*
X161937258Y-79727500D01*
X161462742Y-80772500D02*
X161937258Y-80772500D01*
%TO.C,R13*%
X140037258Y-93277500D02*
X139562742Y-93277500D01*
X140037258Y-94322500D02*
X139562742Y-94322500D01*
%TO.C,C15*%
X156140000Y-118215000D02*
X156140000Y-122100000D01*
X158410000Y-118215000D02*
X156140000Y-118215000D01*
X158410000Y-122100000D02*
X158410000Y-118215000D01*
%TO.C,R12*%
X150785000Y-89903641D02*
X150785000Y-89596359D01*
X151545000Y-89903641D02*
X151545000Y-89596359D01*
%TO.C,R6*%
X165287742Y-108477500D02*
X165762258Y-108477500D01*
X165287742Y-109522500D02*
X165762258Y-109522500D01*
%TO.C,C3*%
X133315000Y-95509420D02*
X133315000Y-95790580D01*
X134335000Y-95509420D02*
X134335000Y-95790580D01*
%TO.C,Y1*%
X127490000Y-99840000D02*
X127490000Y-103960000D01*
X130910000Y-99840000D02*
X127490000Y-99840000D01*
%TO.C,R10*%
X148285000Y-89903641D02*
X148285000Y-89596359D01*
X149045000Y-89903641D02*
X149045000Y-89596359D01*
%TO.C,C14*%
X158740000Y-111615000D02*
X158740000Y-113885000D01*
X158740000Y-113885000D02*
X162625000Y-113885000D01*
X162625000Y-111615000D02*
X158740000Y-111615000D01*
%TO.C,D5*%
X160937500Y-79235000D02*
X163222500Y-79235000D01*
X163222500Y-77765000D02*
X160937500Y-77765000D01*
X163222500Y-79235000D02*
X163222500Y-77765000D01*
%TD*%
M02*
