%TF.GenerationSoftware,KiCad,Pcbnew,9.0.5*%
%TF.CreationDate,2026-04-05T14:36:21-05:00*%
%TF.ProjectId,STM32F4_Starter_Board,53544d33-3246-4345-9f53-746172746572,rev?*%
%TF.SameCoordinates,Original*%
%TF.FileFunction,Copper,L3,Inr*%
%TF.FilePolarity,Positive*%
%FSLAX46Y46*%
G04 Gerber Fmt 4.6, Leading zero omitted, Abs format (unit mm)*
G04 Created by KiCad (PCBNEW 9.0.5) date 2026-04-05 14:36:21*
%MOMM*%
%LPD*%
G01*
G04 APERTURE LIST*
G04 Aperture macros list*
%AMRoundRect*
0 Rectangle with rounded corners*
0 $1 Rounding radius*
0 $2 $3 $4 $5 $6 $7 $8 $9 X,Y pos of 4 corners*
0 Add a 4 corners polygon primitive as box body*
4,1,4,$2,$3,$4,$5,$6,$7,$8,$9,$2,$3,0*
0 Add four circle primitives for the rounded corners*
1,1,$1+$1,$2,$3*
1,1,$1+$1,$4,$5*
1,1,$1+$1,$6,$7*
1,1,$1+$1,$8,$9*
0 Add four rect primitives between the rounded corners*
20,1,$1+$1,$2,$3,$4,$5,0*
20,1,$1+$1,$4,$5,$6,$7,0*
20,1,$1+$1,$6,$7,$8,$9,0*
20,1,$1+$1,$8,$9,$2,$3,0*%
G04 Aperture macros list end*
%TA.AperFunction,ComponentPad*%
%ADD10C,0.900000*%
%TD*%
%TA.AperFunction,ComponentPad*%
%ADD11C,8.600000*%
%TD*%
%TA.AperFunction,ComponentPad*%
%ADD12RoundRect,0.200000X-0.200000X-0.450000X0.200000X-0.450000X0.200000X0.450000X-0.200000X0.450000X0*%
%TD*%
%TA.AperFunction,ComponentPad*%
%ADD13O,0.800000X1.300000*%
%TD*%
%TA.AperFunction,ComponentPad*%
%ADD14RoundRect,0.250001X0.949999X-0.949999X0.949999X0.949999X-0.949999X0.949999X-0.949999X-0.949999X0*%
%TD*%
%TA.AperFunction,ComponentPad*%
%ADD15C,2.400000*%
%TD*%
%TA.AperFunction,ComponentPad*%
%ADD16RoundRect,0.200000X0.200000X0.450000X-0.200000X0.450000X-0.200000X-0.450000X0.200000X-0.450000X0*%
%TD*%
%TA.AperFunction,ViaPad*%
%ADD17C,0.600000*%
%TD*%
G04 APERTURE END LIST*
D10*
%TO.N,GND*%
%TO.C,H4*%
X123050000Y-81000000D03*
X123994581Y-78719581D03*
X123994581Y-83280419D03*
X126275000Y-77775000D03*
D11*
X126275000Y-81000000D03*
D10*
X126275000Y-84225000D03*
X128555419Y-78719581D03*
X128555419Y-83280419D03*
X129500000Y-81000000D03*
%TD*%
%TO.N,GND*%
%TO.C,H3*%
X168050000Y-81000000D03*
X168994581Y-78719581D03*
X168994581Y-83280419D03*
X171275000Y-77775000D03*
D11*
X171275000Y-81000000D03*
D10*
X171275000Y-84225000D03*
X173555419Y-78719581D03*
X173555419Y-83280419D03*
X174500000Y-81000000D03*
%TD*%
D12*
%TO.N,+3.3V*%
%TO.C,J4*%
X139150000Y-121300000D03*
D13*
%TO.N,Net-(J4-Pin_2)*%
X140400000Y-121300000D03*
%TO.N,Net-(J4-Pin_3)*%
X141650000Y-121300000D03*
%TO.N,GND*%
X142900000Y-121300000D03*
%TD*%
D14*
%TO.N,+12V*%
%TO.C,J1*%
X171442500Y-107250000D03*
D15*
%TO.N,GND*%
X171442500Y-103750000D03*
%TD*%
D10*
%TO.N,GND*%
%TO.C,H2*%
X168050000Y-121000000D03*
X168994581Y-118719581D03*
X168994581Y-123280419D03*
X171275000Y-117775000D03*
D11*
X171275000Y-121000000D03*
D10*
X171275000Y-124225000D03*
X173555419Y-118719581D03*
X173555419Y-123280419D03*
X174500000Y-121000000D03*
%TD*%
D16*
%TO.N,+3.3V*%
%TO.C,J3*%
X142900000Y-80700000D03*
D13*
%TO.N,Net-(J3-Pin_2)*%
X141650000Y-80700000D03*
%TO.N,Net-(J3-Pin_3)*%
X140400000Y-80700000D03*
%TO.N,GND*%
X139150000Y-80700000D03*
%TD*%
D10*
%TO.N,GND*%
%TO.C,H1*%
X123050000Y-121000000D03*
X123994581Y-118719581D03*
X123994581Y-123280419D03*
X126275000Y-117775000D03*
D11*
X126275000Y-121000000D03*
D10*
X126275000Y-124225000D03*
X128555419Y-118719581D03*
X128555419Y-123280419D03*
X129500000Y-121000000D03*
%TD*%
D17*
%TO.N,+3.3V*%
X152650000Y-76400000D03*
%TO.N,GND*%
X147550000Y-76350000D03*
X150100000Y-76350000D03*
X151350000Y-76350000D03*
X132324407Y-105407524D03*
X136882018Y-113407886D03*
X133000000Y-94900000D03*
X127350000Y-103000000D03*
X160100000Y-80300000D03*
X163392482Y-104953400D03*
X163404592Y-105680003D03*
X163967903Y-112972292D03*
X147679073Y-112381476D03*
X131200000Y-100800000D03*
X163489905Y-114577252D03*
X130450000Y-98650000D03*
X167500000Y-105800000D03*
X163404592Y-104238907D03*
X125787153Y-95000368D03*
X155800000Y-108400000D03*
X135900000Y-94700000D03*
X152814861Y-121903119D03*
X128800000Y-105600000D03*
X152331544Y-100506413D03*
X170900000Y-92100000D03*
X163986068Y-111882387D03*
X133834127Y-104608260D03*
X163502015Y-116224220D03*
X170100000Y-92100000D03*
X154929722Y-107579635D03*
X144736330Y-113168630D03*
X163500000Y-109450000D03*
X158496880Y-121921468D03*
X137705502Y-111647891D03*
X134496880Y-98904525D03*
X167500000Y-91650000D03*
X156060356Y-121915229D03*
X167497791Y-105074501D03*
X163502015Y-115400736D03*
X170100000Y-91200000D03*
X151374849Y-99016876D03*
X152927339Y-90825505D03*
X155248982Y-121903119D03*
X170900000Y-91200000D03*
%TO.N,+3.3V*%
X154001874Y-114886892D03*
X147700000Y-111400000D03*
X125800000Y-90500000D03*
X134600000Y-109400000D03*
X133000000Y-96400000D03*
X167100000Y-109500000D03*
X139800000Y-111100000D03*
X149800000Y-98300000D03*
X160200000Y-78500000D03*
X157052626Y-114898594D03*
X157078471Y-116092355D03*
X155254679Y-119092355D03*
X153958816Y-116092515D03*
X138900000Y-94600000D03*
X156055415Y-119091745D03*
X133800000Y-100500000D03*
X144600000Y-93800000D03*
X167100000Y-108500000D03*
X133800000Y-110100000D03*
X152800000Y-119100000D03*
X158500000Y-119100000D03*
X137000000Y-96300000D03*
%TO.N,NRST*%
X147800000Y-97400000D03*
X144600000Y-100600000D03*
%TD*%
%TA.AperFunction,Conductor*%
%TO.N,+3.3V*%
G36*
X146719282Y-76020185D02*
G01*
X146765037Y-76072989D01*
X146774981Y-76142147D01*
X146773860Y-76148692D01*
X146749500Y-76271155D01*
X146749500Y-76428846D01*
X146780261Y-76583489D01*
X146780264Y-76583501D01*
X146840602Y-76729172D01*
X146840609Y-76729185D01*
X146928210Y-76860288D01*
X146928213Y-76860292D01*
X147039707Y-76971786D01*
X147039711Y-76971789D01*
X147170814Y-77059390D01*
X147170827Y-77059397D01*
X147316498Y-77119735D01*
X147316503Y-77119737D01*
X147471153Y-77150499D01*
X147471156Y-77150500D01*
X147471158Y-77150500D01*
X147628844Y-77150500D01*
X147628845Y-77150499D01*
X147783497Y-77119737D01*
X147929179Y-77059394D01*
X148060289Y-76971789D01*
X148171789Y-76860289D01*
X148259394Y-76729179D01*
X148319737Y-76583497D01*
X148350500Y-76428842D01*
X148350500Y-76271158D01*
X148350500Y-76271155D01*
X148326140Y-76148692D01*
X148332367Y-76079100D01*
X148375230Y-76023923D01*
X148441120Y-76000678D01*
X148447757Y-76000500D01*
X149202243Y-76000500D01*
X149269282Y-76020185D01*
X149315037Y-76072989D01*
X149324981Y-76142147D01*
X149323860Y-76148692D01*
X149299500Y-76271155D01*
X149299500Y-76428846D01*
X149330261Y-76583489D01*
X149330264Y-76583501D01*
X149390602Y-76729172D01*
X149390609Y-76729185D01*
X149478210Y-76860288D01*
X149478213Y-76860292D01*
X149589707Y-76971786D01*
X149589711Y-76971789D01*
X149720814Y-77059390D01*
X149720827Y-77059397D01*
X149866498Y-77119735D01*
X149866503Y-77119737D01*
X150021153Y-77150499D01*
X150021156Y-77150500D01*
X150021158Y-77150500D01*
X150178844Y-77150500D01*
X150178845Y-77150499D01*
X150333497Y-77119737D01*
X150479179Y-77059394D01*
X150610289Y-76971789D01*
X150610292Y-76971786D01*
X150637319Y-76944760D01*
X150698642Y-76911275D01*
X150768334Y-76916259D01*
X150812681Y-76944760D01*
X150839707Y-76971786D01*
X150839711Y-76971789D01*
X150970814Y-77059390D01*
X150970827Y-77059397D01*
X151116498Y-77119735D01*
X151116503Y-77119737D01*
X151271153Y-77150499D01*
X151271156Y-77150500D01*
X151271158Y-77150500D01*
X151428844Y-77150500D01*
X151428845Y-77150499D01*
X151583497Y-77119737D01*
X151729179Y-77059394D01*
X151860289Y-76971789D01*
X151971789Y-76860289D01*
X152059394Y-76729179D01*
X152119737Y-76583497D01*
X152150500Y-76428842D01*
X152150500Y-76271158D01*
X152150500Y-76271155D01*
X152126140Y-76148692D01*
X152132367Y-76079100D01*
X152175230Y-76023923D01*
X152241120Y-76000678D01*
X152247757Y-76000500D01*
X170566271Y-76000500D01*
X170633310Y-76020185D01*
X170679065Y-76072989D01*
X170689009Y-76142147D01*
X170659984Y-76205703D01*
X170601206Y-76243477D01*
X170587803Y-76246616D01*
X170235001Y-76308824D01*
X170234984Y-76308828D01*
X169830097Y-76417316D01*
X169633132Y-76489005D01*
X169436178Y-76560691D01*
X169436174Y-76560692D01*
X169436168Y-76560695D01*
X169436160Y-76560698D01*
X169056273Y-76737843D01*
X169056257Y-76737851D01*
X168693244Y-76947438D01*
X168693218Y-76947454D01*
X168349855Y-77187879D01*
X168028737Y-77457331D01*
X167732331Y-77753737D01*
X167462879Y-78074855D01*
X167222454Y-78418218D01*
X167222438Y-78418244D01*
X167012851Y-78781257D01*
X167012843Y-78781273D01*
X166835698Y-79161160D01*
X166835695Y-79161168D01*
X166692316Y-79555097D01*
X166583828Y-79959984D01*
X166583824Y-79960001D01*
X166511035Y-80372805D01*
X166511035Y-80372809D01*
X166474500Y-80790402D01*
X166474500Y-81209597D01*
X166511035Y-81627190D01*
X166511035Y-81627194D01*
X166576354Y-81997632D01*
X166583826Y-82040008D01*
X166593604Y-82076500D01*
X166692316Y-82444902D01*
X166692319Y-82444912D01*
X166692320Y-82444913D01*
X166835691Y-82838822D01*
X166835694Y-82838829D01*
X166835695Y-82838831D01*
X166835698Y-82838839D01*
X167012843Y-83218726D01*
X167012848Y-83218736D01*
X167222443Y-83581764D01*
X167222447Y-83581770D01*
X167222454Y-83581781D01*
X167462879Y-83925144D01*
X167657640Y-84157249D01*
X167732329Y-84246260D01*
X168028740Y-84542671D01*
X168162255Y-84654704D01*
X168349855Y-84812120D01*
X168693218Y-85052545D01*
X168693225Y-85052549D01*
X168693236Y-85052557D01*
X169056264Y-85262152D01*
X169056273Y-85262156D01*
X169436160Y-85439301D01*
X169436164Y-85439302D01*
X169436178Y-85439309D01*
X169830087Y-85582680D01*
X169830093Y-85582681D01*
X169830097Y-85582683D01*
X169940359Y-85612227D01*
X170234992Y-85691174D01*
X170647812Y-85763965D01*
X171065404Y-85800499D01*
X171065405Y-85800500D01*
X171065406Y-85800500D01*
X171484595Y-85800500D01*
X171484595Y-85800499D01*
X171902188Y-85763965D01*
X172315008Y-85691174D01*
X172719913Y-85582680D01*
X173113822Y-85439309D01*
X173493736Y-85262152D01*
X173856764Y-85052557D01*
X174200143Y-84812121D01*
X174521260Y-84542671D01*
X174817671Y-84246260D01*
X175087121Y-83925143D01*
X175327557Y-83581764D01*
X175537152Y-83218736D01*
X175714309Y-82838822D01*
X175857680Y-82444913D01*
X175966174Y-82040008D01*
X176028384Y-81687197D01*
X176059411Y-81624594D01*
X176119358Y-81588703D01*
X176189192Y-81590920D01*
X176246742Y-81630540D01*
X176273736Y-81694985D01*
X176274500Y-81708729D01*
X176274500Y-120291270D01*
X176254815Y-120358309D01*
X176202011Y-120404064D01*
X176132853Y-120414008D01*
X176069297Y-120384983D01*
X176031523Y-120326205D01*
X176028384Y-120312802D01*
X175999679Y-120150007D01*
X175966174Y-119959992D01*
X175857680Y-119555087D01*
X175714309Y-119161178D01*
X175537152Y-118781264D01*
X175327557Y-118418236D01*
X175327549Y-118418225D01*
X175327545Y-118418218D01*
X175087120Y-118074855D01*
X174817668Y-117753737D01*
X174521262Y-117457331D01*
X174200144Y-117187879D01*
X173856781Y-116947454D01*
X173856770Y-116947447D01*
X173856764Y-116947443D01*
X173681071Y-116846006D01*
X173493742Y-116737851D01*
X173493726Y-116737843D01*
X173113839Y-116560698D01*
X173113831Y-116560695D01*
X173113829Y-116560694D01*
X173113822Y-116560691D01*
X172719913Y-116417320D01*
X172719912Y-116417319D01*
X172719902Y-116417316D01*
X172315015Y-116308828D01*
X172315018Y-116308828D01*
X172315008Y-116308826D01*
X172315002Y-116308824D01*
X172314998Y-116308824D01*
X171902192Y-116236035D01*
X171484597Y-116199500D01*
X171484594Y-116199500D01*
X171065406Y-116199500D01*
X171065402Y-116199500D01*
X170647809Y-116236035D01*
X170647805Y-116236035D01*
X170235001Y-116308824D01*
X170234984Y-116308828D01*
X169830097Y-116417316D01*
X169719119Y-116457709D01*
X169436178Y-116560691D01*
X169436174Y-116560692D01*
X169436168Y-116560695D01*
X169436160Y-116560698D01*
X169056273Y-116737843D01*
X169056257Y-116737851D01*
X168693244Y-116947438D01*
X168693218Y-116947454D01*
X168349855Y-117187879D01*
X168028737Y-117457331D01*
X167732331Y-117753737D01*
X167462879Y-118074855D01*
X167222454Y-118418218D01*
X167222438Y-118418244D01*
X167012851Y-118781257D01*
X167012843Y-118781273D01*
X166835698Y-119161160D01*
X166835695Y-119161168D01*
X166692316Y-119555097D01*
X166583828Y-119959984D01*
X166583824Y-119960001D01*
X166511035Y-120372805D01*
X166511035Y-120372809D01*
X166474500Y-120790402D01*
X166474500Y-121209597D01*
X166511035Y-121627190D01*
X166511035Y-121627194D01*
X166576827Y-122000314D01*
X166583826Y-122040008D01*
X166593604Y-122076500D01*
X166692316Y-122444902D01*
X166692319Y-122444912D01*
X166692320Y-122444913D01*
X166835691Y-122838822D01*
X166835694Y-122838829D01*
X166835695Y-122838831D01*
X166835698Y-122838839D01*
X167012843Y-123218726D01*
X167012848Y-123218736D01*
X167222443Y-123581764D01*
X167222447Y-123581770D01*
X167222454Y-123581781D01*
X167462879Y-123925144D01*
X167585063Y-124070756D01*
X167732329Y-124246260D01*
X168028740Y-124542671D01*
X168162255Y-124654704D01*
X168349855Y-124812120D01*
X168693218Y-125052545D01*
X168693225Y-125052549D01*
X168693236Y-125052557D01*
X169056264Y-125262152D01*
X169056273Y-125262156D01*
X169436160Y-125439301D01*
X169436164Y-125439302D01*
X169436178Y-125439309D01*
X169830087Y-125582680D01*
X169830093Y-125582681D01*
X169830097Y-125582683D01*
X169940359Y-125612227D01*
X170234992Y-125691174D01*
X170511648Y-125739955D01*
X170587803Y-125753384D01*
X170650406Y-125784411D01*
X170686297Y-125844358D01*
X170684080Y-125914192D01*
X170644460Y-125971742D01*
X170580015Y-125998736D01*
X170566271Y-125999500D01*
X126983729Y-125999500D01*
X126916690Y-125979815D01*
X126870935Y-125927011D01*
X126860991Y-125857853D01*
X126890016Y-125794297D01*
X126948794Y-125756523D01*
X126962197Y-125753384D01*
X127023831Y-125742516D01*
X127315008Y-125691174D01*
X127719913Y-125582680D01*
X128113822Y-125439309D01*
X128493736Y-125262152D01*
X128856764Y-125052557D01*
X129200143Y-124812121D01*
X129521260Y-124542671D01*
X129817671Y-124246260D01*
X130087121Y-123925143D01*
X130327557Y-123581764D01*
X130537152Y-123218736D01*
X130714309Y-122838822D01*
X130857680Y-122444913D01*
X130858035Y-122443590D01*
X130883645Y-122348009D01*
X130966174Y-122040008D01*
X131038965Y-121627188D01*
X131075500Y-121209594D01*
X131075500Y-121115272D01*
X131697500Y-121115272D01*
X131697500Y-121284727D01*
X131724007Y-121452082D01*
X131776366Y-121613230D01*
X131776367Y-121613233D01*
X131821237Y-121701294D01*
X131853294Y-121764209D01*
X131952892Y-121901293D01*
X132072707Y-122021108D01*
X132209791Y-122120706D01*
X132277028Y-122154965D01*
X132360766Y-122197632D01*
X132360769Y-122197633D01*
X132441343Y-122223812D01*
X132521919Y-122249993D01*
X132599429Y-122262269D01*
X132689273Y-122276500D01*
X132689278Y-122276500D01*
X132858727Y-122276500D01*
X132939858Y-122263649D01*
X133026081Y-122249993D01*
X133187233Y-122197632D01*
X133338209Y-122120706D01*
X133475293Y-122021108D01*
X133595108Y-121901293D01*
X133663920Y-121806582D01*
X138250001Y-121806582D01*
X138256408Y-121877102D01*
X138256409Y-121877107D01*
X138306981Y-122039396D01*
X138394927Y-122184877D01*
X138515122Y-122305072D01*
X138660604Y-122393019D01*
X138660603Y-122393019D01*
X138822894Y-122443590D01*
X138822893Y-122443590D01*
X138893408Y-122449998D01*
X138893426Y-122449999D01*
X138899999Y-122449998D01*
X138900000Y-122449998D01*
X138900000Y-121550000D01*
X138250001Y-121550000D01*
X138250001Y-121806582D01*
X133663920Y-121806582D01*
X133694706Y-121764209D01*
X133771632Y-121613233D01*
X133823993Y-121452081D01*
X133830146Y-121413233D01*
X133850500Y-121284727D01*
X133850500Y-121250272D01*
X138900000Y-121250272D01*
X138900000Y-121349728D01*
X138938060Y-121441614D01*
X139008386Y-121511940D01*
X139100272Y-121550000D01*
X139199728Y-121550000D01*
X139291614Y-121511940D01*
X139361940Y-121441614D01*
X139400000Y-121349728D01*
X139400000Y-122449999D01*
X139406581Y-122449999D01*
X139477102Y-122443591D01*
X139477107Y-122443590D01*
X139639398Y-122393018D01*
X139782662Y-122306411D01*
X139850217Y-122288574D01*
X139915702Y-122309425D01*
X139973453Y-122348013D01*
X139973455Y-122348014D01*
X139973457Y-122348015D01*
X140082106Y-122393018D01*
X140137334Y-122415894D01*
X140137336Y-122415894D01*
X140137341Y-122415896D01*
X140311304Y-122450499D01*
X140311307Y-122450500D01*
X140311309Y-122450500D01*
X140488693Y-122450500D01*
X140488694Y-122450499D01*
X140582923Y-122431756D01*
X140662658Y-122415896D01*
X140662661Y-122415894D01*
X140662666Y-122415894D01*
X140826547Y-122348013D01*
X140956109Y-122261442D01*
X141022786Y-122240564D01*
X141090166Y-122259048D01*
X141093891Y-122261442D01*
X141143228Y-122294408D01*
X141223453Y-122348013D01*
X141223455Y-122348014D01*
X141223459Y-122348016D01*
X141332106Y-122393018D01*
X141387334Y-122415894D01*
X141387336Y-122415894D01*
X141387341Y-122415896D01*
X141561304Y-122450499D01*
X141561307Y-122450500D01*
X141561309Y-122450500D01*
X141738693Y-122450500D01*
X141738694Y-122450499D01*
X141832923Y-122431756D01*
X141912658Y-122415896D01*
X141912661Y-122415894D01*
X141912666Y-122415894D01*
X142076547Y-122348013D01*
X142206109Y-122261442D01*
X142272786Y-122240564D01*
X142340166Y-122259048D01*
X142343891Y-122261442D01*
X142393228Y-122294408D01*
X142473453Y-122348013D01*
X142473455Y-122348014D01*
X142473459Y-122348016D01*
X142582106Y-122393018D01*
X142637334Y-122415894D01*
X142637336Y-122415894D01*
X142637341Y-122415896D01*
X142811304Y-122450499D01*
X142811307Y-122450500D01*
X142811309Y-122450500D01*
X142988693Y-122450500D01*
X142988694Y-122450499D01*
X143082923Y-122431756D01*
X143162658Y-122415896D01*
X143162661Y-122415894D01*
X143162666Y-122415894D01*
X143326547Y-122348013D01*
X143474035Y-122249464D01*
X143599464Y-122124035D01*
X143698013Y-121976547D01*
X143761087Y-121824272D01*
X152014361Y-121824272D01*
X152014361Y-121981965D01*
X152045122Y-122136608D01*
X152045125Y-122136620D01*
X152105463Y-122282291D01*
X152105470Y-122282304D01*
X152193071Y-122413407D01*
X152193074Y-122413411D01*
X152304568Y-122524905D01*
X152304572Y-122524908D01*
X152435675Y-122612509D01*
X152435688Y-122612516D01*
X152581359Y-122672854D01*
X152581364Y-122672856D01*
X152736014Y-122703618D01*
X152736017Y-122703619D01*
X152736019Y-122703619D01*
X152893705Y-122703619D01*
X152893706Y-122703618D01*
X153048358Y-122672856D01*
X153194040Y-122612513D01*
X153325150Y-122524908D01*
X153436650Y-122413408D01*
X153524255Y-122282298D01*
X153584598Y-122136616D01*
X153615361Y-121981961D01*
X153615361Y-121824277D01*
X153615361Y-121824272D01*
X154448482Y-121824272D01*
X154448482Y-121981965D01*
X154479243Y-122136608D01*
X154479246Y-122136620D01*
X154539584Y-122282291D01*
X154539591Y-122282304D01*
X154627192Y-122413407D01*
X154627195Y-122413411D01*
X154738689Y-122524905D01*
X154738693Y-122524908D01*
X154869796Y-122612509D01*
X154869809Y-122612516D01*
X155015480Y-122672854D01*
X155015485Y-122672856D01*
X155170135Y-122703618D01*
X155170138Y-122703619D01*
X155170140Y-122703619D01*
X155327826Y-122703619D01*
X155327827Y-122703618D01*
X155482479Y-122672856D01*
X155592599Y-122627242D01*
X155662068Y-122619774D01*
X155687498Y-122627241D01*
X155826859Y-122684966D01*
X155981509Y-122715728D01*
X155981512Y-122715729D01*
X155981514Y-122715729D01*
X156139200Y-122715729D01*
X156139201Y-122715728D01*
X156293853Y-122684966D01*
X156439535Y-122624623D01*
X156570645Y-122537018D01*
X156682145Y-122425518D01*
X156769750Y-122294408D01*
X156830093Y-122148726D01*
X156860856Y-121994071D01*
X156860856Y-121842621D01*
X157696380Y-121842621D01*
X157696380Y-122000314D01*
X157727141Y-122154957D01*
X157727144Y-122154969D01*
X157787482Y-122300640D01*
X157787489Y-122300653D01*
X157875090Y-122431756D01*
X157875093Y-122431760D01*
X157986587Y-122543254D01*
X157986591Y-122543257D01*
X158117694Y-122630858D01*
X158117707Y-122630865D01*
X158248323Y-122684967D01*
X158263383Y-122691205D01*
X158386668Y-122715728D01*
X158418033Y-122721967D01*
X158418036Y-122721968D01*
X158418038Y-122721968D01*
X158575724Y-122721968D01*
X158575725Y-122721967D01*
X158730377Y-122691205D01*
X158876059Y-122630862D01*
X159007169Y-122543257D01*
X159118669Y-122431757D01*
X159206274Y-122300647D01*
X159266617Y-122154965D01*
X159297380Y-122000310D01*
X159297380Y-121842626D01*
X159297380Y-121842623D01*
X159297379Y-121842621D01*
X159291421Y-121812667D01*
X159266617Y-121687971D01*
X159259015Y-121669617D01*
X159206277Y-121542295D01*
X159206270Y-121542282D01*
X159118669Y-121411179D01*
X159118666Y-121411175D01*
X159007172Y-121299681D01*
X159007168Y-121299678D01*
X158876065Y-121212077D01*
X158876052Y-121212070D01*
X158730381Y-121151732D01*
X158730369Y-121151729D01*
X158575725Y-121120968D01*
X158575722Y-121120968D01*
X158418038Y-121120968D01*
X158418035Y-121120968D01*
X158263390Y-121151729D01*
X158263378Y-121151732D01*
X158117707Y-121212070D01*
X158117694Y-121212077D01*
X157986591Y-121299678D01*
X157986587Y-121299681D01*
X157875093Y-121411175D01*
X157875090Y-121411179D01*
X157787489Y-121542282D01*
X157787482Y-121542295D01*
X157727144Y-121687966D01*
X157727141Y-121687978D01*
X157696380Y-121842621D01*
X156860856Y-121842621D01*
X156860856Y-121836387D01*
X156860856Y-121836384D01*
X156860855Y-121836382D01*
X156846499Y-121764209D01*
X156830093Y-121681732D01*
X156807501Y-121627190D01*
X156769753Y-121536056D01*
X156769746Y-121536043D01*
X156682145Y-121404940D01*
X156682142Y-121404936D01*
X156570648Y-121293442D01*
X156570644Y-121293439D01*
X156439541Y-121205838D01*
X156439528Y-121205831D01*
X156293857Y-121145493D01*
X156293845Y-121145490D01*
X156139201Y-121114729D01*
X156139198Y-121114729D01*
X155981514Y-121114729D01*
X155981511Y-121114729D01*
X155826866Y-121145490D01*
X155826854Y-121145493D01*
X155716739Y-121191104D01*
X155647270Y-121198573D01*
X155621835Y-121191104D01*
X155482483Y-121133383D01*
X155482471Y-121133380D01*
X155327827Y-121102619D01*
X155327824Y-121102619D01*
X155170140Y-121102619D01*
X155170137Y-121102619D01*
X155015492Y-121133380D01*
X155015480Y-121133383D01*
X154869809Y-121193721D01*
X154869796Y-121193728D01*
X154738693Y-121281329D01*
X154738689Y-121281332D01*
X154627195Y-121392826D01*
X154627192Y-121392830D01*
X154539591Y-121523933D01*
X154539584Y-121523946D01*
X154479246Y-121669617D01*
X154479243Y-121669629D01*
X154448482Y-121824272D01*
X153615361Y-121824272D01*
X153584599Y-121669629D01*
X153584598Y-121669622D01*
X153567022Y-121627190D01*
X153524258Y-121523946D01*
X153524251Y-121523933D01*
X153436650Y-121392830D01*
X153436647Y-121392826D01*
X153325153Y-121281332D01*
X153325149Y-121281329D01*
X153194046Y-121193728D01*
X153194033Y-121193721D01*
X153048362Y-121133383D01*
X153048350Y-121133380D01*
X152893706Y-121102619D01*
X152893703Y-121102619D01*
X152736019Y-121102619D01*
X152736016Y-121102619D01*
X152581371Y-121133380D01*
X152581359Y-121133383D01*
X152435688Y-121193721D01*
X152435675Y-121193728D01*
X152304572Y-121281329D01*
X152304568Y-121281332D01*
X152193074Y-121392826D01*
X152193071Y-121392830D01*
X152105470Y-121523933D01*
X152105463Y-121523946D01*
X152045125Y-121669617D01*
X152045122Y-121669629D01*
X152014361Y-121824272D01*
X143761087Y-121824272D01*
X143765894Y-121812666D01*
X143800500Y-121638691D01*
X143800500Y-120961309D01*
X143800500Y-120961306D01*
X143795187Y-120934598D01*
X143795187Y-120934597D01*
X143791343Y-120915272D01*
X163973500Y-120915272D01*
X163973500Y-121084727D01*
X164000007Y-121252082D01*
X164052366Y-121413230D01*
X164052367Y-121413233D01*
X164108772Y-121523933D01*
X164129294Y-121564209D01*
X164228892Y-121701293D01*
X164348707Y-121821108D01*
X164485791Y-121920706D01*
X164559840Y-121958435D01*
X164636766Y-121997632D01*
X164636769Y-121997633D01*
X164709013Y-122021106D01*
X164797919Y-122049993D01*
X164875429Y-122062269D01*
X164965273Y-122076500D01*
X164965278Y-122076500D01*
X165134727Y-122076500D01*
X165215858Y-122063649D01*
X165302081Y-122049993D01*
X165463233Y-121997632D01*
X165614209Y-121920706D01*
X165751293Y-121821108D01*
X165871108Y-121701293D01*
X165970706Y-121564209D01*
X166047632Y-121413233D01*
X166099993Y-121252081D01*
X166116875Y-121145492D01*
X166126500Y-121084727D01*
X166126500Y-120915272D01*
X166106722Y-120790405D01*
X166099993Y-120747919D01*
X166063561Y-120635791D01*
X166047633Y-120586769D01*
X166047632Y-120586766D01*
X166002762Y-120498705D01*
X165970706Y-120435791D01*
X165871108Y-120298707D01*
X165751293Y-120178892D01*
X165614209Y-120079294D01*
X165463233Y-120002367D01*
X165463230Y-120002366D01*
X165302082Y-119950007D01*
X165134727Y-119923500D01*
X165134722Y-119923500D01*
X164965278Y-119923500D01*
X164965273Y-119923500D01*
X164797917Y-119950007D01*
X164636769Y-120002366D01*
X164636766Y-120002367D01*
X164485790Y-120079294D01*
X164348705Y-120178893D01*
X164228893Y-120298705D01*
X164129294Y-120435790D01*
X164052367Y-120586766D01*
X164052366Y-120586769D01*
X164000007Y-120747917D01*
X163973500Y-120915272D01*
X143791343Y-120915272D01*
X143765896Y-120787341D01*
X143765893Y-120787332D01*
X143698016Y-120623459D01*
X143698009Y-120623446D01*
X143599464Y-120475965D01*
X143599461Y-120475961D01*
X143474038Y-120350538D01*
X143474034Y-120350535D01*
X143326553Y-120251990D01*
X143326540Y-120251983D01*
X143162667Y-120184106D01*
X143162658Y-120184103D01*
X142988694Y-120149500D01*
X142988691Y-120149500D01*
X142811309Y-120149500D01*
X142811306Y-120149500D01*
X142637341Y-120184103D01*
X142637332Y-120184106D01*
X142473459Y-120251983D01*
X142473446Y-120251990D01*
X142343891Y-120338557D01*
X142277213Y-120359435D01*
X142209833Y-120340950D01*
X142206109Y-120338557D01*
X142076553Y-120251990D01*
X142076540Y-120251983D01*
X141912667Y-120184106D01*
X141912658Y-120184103D01*
X141738694Y-120149500D01*
X141738691Y-120149500D01*
X141561309Y-120149500D01*
X141561306Y-120149500D01*
X141387341Y-120184103D01*
X141387332Y-120184106D01*
X141223459Y-120251983D01*
X141223446Y-120251990D01*
X141093891Y-120338557D01*
X141027213Y-120359435D01*
X140959833Y-120340950D01*
X140956109Y-120338557D01*
X140826553Y-120251990D01*
X140826540Y-120251983D01*
X140662667Y-120184106D01*
X140662658Y-120184103D01*
X140488694Y-120149500D01*
X140488691Y-120149500D01*
X140311309Y-120149500D01*
X140311306Y-120149500D01*
X140137341Y-120184103D01*
X140137332Y-120184106D01*
X139973459Y-120251983D01*
X139973448Y-120251989D01*
X139915702Y-120290574D01*
X139849024Y-120311451D01*
X139782662Y-120293588D01*
X139639395Y-120206980D01*
X139639396Y-120206980D01*
X139477105Y-120156409D01*
X139477106Y-120156409D01*
X139406572Y-120150000D01*
X139400000Y-120150000D01*
X139400000Y-121250272D01*
X139361940Y-121158386D01*
X139291614Y-121088060D01*
X139199728Y-121050000D01*
X139100272Y-121050000D01*
X139008386Y-121088060D01*
X138938060Y-121158386D01*
X138900000Y-121250272D01*
X133850500Y-121250272D01*
X133850500Y-121115272D01*
X133829909Y-120985271D01*
X133823993Y-120947919D01*
X133809055Y-120901946D01*
X133785333Y-120828933D01*
X133773796Y-120793427D01*
X138250000Y-120793427D01*
X138250000Y-121050000D01*
X138900000Y-121050000D01*
X138900000Y-120150000D01*
X138899999Y-120149999D01*
X138893436Y-120150000D01*
X138893417Y-120150001D01*
X138822897Y-120156408D01*
X138822892Y-120156409D01*
X138660603Y-120206981D01*
X138515122Y-120294927D01*
X138394927Y-120415122D01*
X138306980Y-120560604D01*
X138256409Y-120722893D01*
X138250000Y-120793427D01*
X133773796Y-120793427D01*
X133771633Y-120786769D01*
X133771632Y-120786766D01*
X133694705Y-120635790D01*
X133685742Y-120623453D01*
X133595108Y-120498707D01*
X133475293Y-120378892D01*
X133338209Y-120279294D01*
X133284622Y-120251990D01*
X133187233Y-120202367D01*
X133187230Y-120202366D01*
X133026082Y-120150007D01*
X132858727Y-120123500D01*
X132858722Y-120123500D01*
X132689278Y-120123500D01*
X132689273Y-120123500D01*
X132521917Y-120150007D01*
X132360769Y-120202366D01*
X132360766Y-120202367D01*
X132209790Y-120279294D01*
X132072705Y-120378893D01*
X131952893Y-120498705D01*
X131853294Y-120635790D01*
X131776367Y-120786766D01*
X131776366Y-120786769D01*
X131724007Y-120947917D01*
X131697500Y-121115272D01*
X131075500Y-121115272D01*
X131075500Y-120790406D01*
X131038965Y-120372812D01*
X131028145Y-120311451D01*
X131000807Y-120156408D01*
X130966174Y-119959992D01*
X130857680Y-119555087D01*
X130714309Y-119161178D01*
X130537152Y-118781264D01*
X130327557Y-118418236D01*
X130327549Y-118418225D01*
X130327545Y-118418218D01*
X130087120Y-118074855D01*
X129817668Y-117753737D01*
X129521262Y-117457331D01*
X129200144Y-117187879D01*
X128856781Y-116947454D01*
X128856770Y-116947447D01*
X128856764Y-116947443D01*
X128681071Y-116846006D01*
X128493742Y-116737851D01*
X128493726Y-116737843D01*
X128113839Y-116560698D01*
X128113831Y-116560695D01*
X128113829Y-116560694D01*
X128113822Y-116560691D01*
X127719913Y-116417320D01*
X127719912Y-116417319D01*
X127719902Y-116417316D01*
X127315015Y-116308828D01*
X127315018Y-116308828D01*
X127315008Y-116308826D01*
X127315002Y-116308824D01*
X127314998Y-116308824D01*
X126902192Y-116236035D01*
X126484597Y-116199500D01*
X126484594Y-116199500D01*
X126065406Y-116199500D01*
X126065402Y-116199500D01*
X125647809Y-116236035D01*
X125647805Y-116236035D01*
X125235001Y-116308824D01*
X125234984Y-116308828D01*
X124830097Y-116417316D01*
X124719119Y-116457709D01*
X124436178Y-116560691D01*
X124436174Y-116560692D01*
X124436168Y-116560695D01*
X124436160Y-116560698D01*
X124056273Y-116737843D01*
X124056257Y-116737851D01*
X123693244Y-116947438D01*
X123693218Y-116947454D01*
X123349855Y-117187879D01*
X123028737Y-117457331D01*
X122732331Y-117753737D01*
X122462879Y-118074855D01*
X122222454Y-118418218D01*
X122222438Y-118418244D01*
X122012851Y-118781257D01*
X122012843Y-118781273D01*
X121835698Y-119161160D01*
X121835695Y-119161168D01*
X121692316Y-119555097D01*
X121583828Y-119959984D01*
X121583824Y-119960001D01*
X121521616Y-120312802D01*
X121490589Y-120375405D01*
X121430642Y-120411296D01*
X121360808Y-120409079D01*
X121303258Y-120369458D01*
X121276264Y-120305014D01*
X121275500Y-120291270D01*
X121275500Y-114498405D01*
X162689405Y-114498405D01*
X162689405Y-114656098D01*
X162720166Y-114810741D01*
X162720169Y-114810753D01*
X162780398Y-114956159D01*
X162787867Y-115025628D01*
X162780399Y-115051063D01*
X162732278Y-115167239D01*
X162732277Y-115167242D01*
X162732277Y-115167243D01*
X162732276Y-115167246D01*
X162701515Y-115321889D01*
X162701515Y-115479582D01*
X162732276Y-115634225D01*
X162732279Y-115634237D01*
X162786453Y-115765026D01*
X162793922Y-115834495D01*
X162786453Y-115859930D01*
X162732279Y-115990718D01*
X162732276Y-115990730D01*
X162701515Y-116145373D01*
X162701515Y-116303066D01*
X162732276Y-116457709D01*
X162732279Y-116457721D01*
X162792617Y-116603392D01*
X162792624Y-116603405D01*
X162880225Y-116734508D01*
X162880228Y-116734512D01*
X162991722Y-116846006D01*
X162991726Y-116846009D01*
X163122829Y-116933610D01*
X163122842Y-116933617D01*
X163268513Y-116993955D01*
X163268518Y-116993957D01*
X163423168Y-117024719D01*
X163423171Y-117024720D01*
X163423173Y-117024720D01*
X163580859Y-117024720D01*
X163580860Y-117024719D01*
X163735512Y-116993957D01*
X163881194Y-116933614D01*
X164012304Y-116846009D01*
X164123804Y-116734509D01*
X164211409Y-116603399D01*
X164271752Y-116457717D01*
X164302515Y-116303062D01*
X164302515Y-116145378D01*
X164302515Y-116145375D01*
X164302514Y-116145373D01*
X164271753Y-115990730D01*
X164271752Y-115990723D01*
X164217575Y-115859929D01*
X164210107Y-115790461D01*
X164217576Y-115765026D01*
X164271752Y-115634233D01*
X164302515Y-115479578D01*
X164302515Y-115321894D01*
X164302515Y-115321891D01*
X164302514Y-115321889D01*
X164271753Y-115167246D01*
X164271752Y-115167239D01*
X164211521Y-115021827D01*
X164204052Y-114952358D01*
X164211518Y-114926929D01*
X164259642Y-114810749D01*
X164290405Y-114656094D01*
X164290405Y-114498410D01*
X164290405Y-114498407D01*
X164290404Y-114498405D01*
X164259643Y-114343762D01*
X164259642Y-114343755D01*
X164203571Y-114208386D01*
X164199302Y-114198079D01*
X164199295Y-114198066D01*
X164111694Y-114066963D01*
X164111691Y-114066959D01*
X164019594Y-113974862D01*
X163986109Y-113913539D01*
X163991093Y-113843847D01*
X164032965Y-113787914D01*
X164083084Y-113765564D01*
X164125075Y-113757211D01*
X164201400Y-113742029D01*
X164347082Y-113681686D01*
X164478192Y-113594081D01*
X164589692Y-113482581D01*
X164677297Y-113351471D01*
X164686587Y-113329044D01*
X164720373Y-113247476D01*
X164737640Y-113205789D01*
X164768403Y-113051134D01*
X164768403Y-112893450D01*
X164768403Y-112893447D01*
X164768402Y-112893445D01*
X164737641Y-112738802D01*
X164737640Y-112738795D01*
X164737638Y-112738790D01*
X164677300Y-112593119D01*
X164677293Y-112593106D01*
X164621645Y-112509823D01*
X164600767Y-112443145D01*
X164619252Y-112375765D01*
X164621645Y-112372041D01*
X164695458Y-112261572D01*
X164695458Y-112261571D01*
X164695462Y-112261566D01*
X164755805Y-112115884D01*
X164786568Y-111961229D01*
X164786568Y-111803545D01*
X164786568Y-111803542D01*
X164786567Y-111803540D01*
X164771289Y-111726733D01*
X164755805Y-111648890D01*
X164740416Y-111611737D01*
X164695465Y-111503214D01*
X164695458Y-111503201D01*
X164607857Y-111372098D01*
X164607854Y-111372094D01*
X164496360Y-111260600D01*
X164496356Y-111260597D01*
X164365253Y-111172996D01*
X164365240Y-111172989D01*
X164219569Y-111112651D01*
X164219557Y-111112648D01*
X164064913Y-111081887D01*
X164064910Y-111081887D01*
X163907226Y-111081887D01*
X163907223Y-111081887D01*
X163752578Y-111112648D01*
X163752566Y-111112651D01*
X163606895Y-111172989D01*
X163606882Y-111172996D01*
X163475779Y-111260597D01*
X163475775Y-111260600D01*
X163364281Y-111372094D01*
X163364278Y-111372098D01*
X163276677Y-111503201D01*
X163276670Y-111503214D01*
X163216332Y-111648885D01*
X163216329Y-111648897D01*
X163185568Y-111803540D01*
X163185568Y-111961233D01*
X163216329Y-112115876D01*
X163216332Y-112115888D01*
X163276670Y-112261559D01*
X163276677Y-112261572D01*
X163332325Y-112344855D01*
X163353203Y-112411533D01*
X163334718Y-112478913D01*
X163332326Y-112482636D01*
X163258511Y-112593108D01*
X163258505Y-112593119D01*
X163198167Y-112738790D01*
X163198164Y-112738802D01*
X163167403Y-112893445D01*
X163167403Y-113051138D01*
X163198164Y-113205781D01*
X163198167Y-113205793D01*
X163258505Y-113351464D01*
X163258512Y-113351477D01*
X163346113Y-113482580D01*
X163346116Y-113482584D01*
X163438213Y-113574681D01*
X163471698Y-113636004D01*
X163466714Y-113705696D01*
X163424842Y-113761629D01*
X163374724Y-113783979D01*
X163256413Y-113807513D01*
X163256403Y-113807516D01*
X163110732Y-113867854D01*
X163110719Y-113867861D01*
X162979616Y-113955462D01*
X162979612Y-113955465D01*
X162868118Y-114066959D01*
X162868115Y-114066963D01*
X162780514Y-114198066D01*
X162780507Y-114198079D01*
X162720169Y-114343750D01*
X162720166Y-114343762D01*
X162689405Y-114498405D01*
X121275500Y-114498405D01*
X121275500Y-113329039D01*
X136081518Y-113329039D01*
X136081518Y-113486732D01*
X136112279Y-113641375D01*
X136112282Y-113641387D01*
X136172620Y-113787058D01*
X136172627Y-113787071D01*
X136260228Y-113918174D01*
X136260231Y-113918178D01*
X136371725Y-114029672D01*
X136371729Y-114029675D01*
X136502832Y-114117276D01*
X136502845Y-114117283D01*
X136648516Y-114177621D01*
X136648521Y-114177623D01*
X136751360Y-114198079D01*
X136803171Y-114208385D01*
X136803174Y-114208386D01*
X136803176Y-114208386D01*
X136960862Y-114208386D01*
X136960863Y-114208385D01*
X137115515Y-114177623D01*
X137261197Y-114117280D01*
X137392307Y-114029675D01*
X137503807Y-113918175D01*
X137591412Y-113787065D01*
X137651755Y-113641383D01*
X137682518Y-113486728D01*
X137682518Y-113329044D01*
X137682518Y-113329041D01*
X137682517Y-113329039D01*
X137666293Y-113247476D01*
X137651755Y-113174389D01*
X137616710Y-113089783D01*
X143935830Y-113089783D01*
X143935830Y-113247476D01*
X143966591Y-113402119D01*
X143966594Y-113402131D01*
X144026932Y-113547802D01*
X144026939Y-113547815D01*
X144114540Y-113678918D01*
X144114543Y-113678922D01*
X144226037Y-113790416D01*
X144226041Y-113790419D01*
X144357144Y-113878020D01*
X144357157Y-113878027D01*
X144454092Y-113918178D01*
X144502833Y-113938367D01*
X144657483Y-113969129D01*
X144657486Y-113969130D01*
X144657488Y-113969130D01*
X144815174Y-113969130D01*
X144815175Y-113969129D01*
X144969827Y-113938367D01*
X145115509Y-113878024D01*
X145246619Y-113790419D01*
X145358119Y-113678919D01*
X145445724Y-113547809D01*
X145506067Y-113402127D01*
X145536830Y-113247472D01*
X145536830Y-113089788D01*
X145536830Y-113089785D01*
X145536829Y-113089783D01*
X145529142Y-113051138D01*
X145506067Y-112935133D01*
X145490518Y-112897593D01*
X145445727Y-112789457D01*
X145445720Y-112789444D01*
X145358119Y-112658341D01*
X145358116Y-112658337D01*
X145246622Y-112546843D01*
X145246618Y-112546840D01*
X145115515Y-112459239D01*
X145115502Y-112459232D01*
X144999310Y-112411104D01*
X144999307Y-112411104D01*
X144969827Y-112398893D01*
X144969824Y-112398892D01*
X144969821Y-112398891D01*
X144815175Y-112368130D01*
X144815172Y-112368130D01*
X144657488Y-112368130D01*
X144657485Y-112368130D01*
X144502840Y-112398891D01*
X144502828Y-112398894D01*
X144357157Y-112459232D01*
X144357144Y-112459239D01*
X144226041Y-112546840D01*
X144226037Y-112546843D01*
X144114543Y-112658337D01*
X144114540Y-112658341D01*
X144026939Y-112789444D01*
X144026932Y-112789457D01*
X143966594Y-112935128D01*
X143966591Y-112935140D01*
X143935830Y-113089783D01*
X137616710Y-113089783D01*
X137615408Y-113086639D01*
X137591415Y-113028712D01*
X137591408Y-113028700D01*
X137503807Y-112897597D01*
X137503804Y-112897593D01*
X137392310Y-112786099D01*
X137392306Y-112786096D01*
X137261203Y-112698495D01*
X137261190Y-112698488D01*
X137115519Y-112638150D01*
X137115507Y-112638147D01*
X136960863Y-112607386D01*
X136960860Y-112607386D01*
X136803176Y-112607386D01*
X136803173Y-112607386D01*
X136648528Y-112638147D01*
X136648516Y-112638150D01*
X136502845Y-112698488D01*
X136502832Y-112698495D01*
X136371729Y-112786096D01*
X136371725Y-112786099D01*
X136260231Y-112897593D01*
X136260228Y-112897597D01*
X136172627Y-113028700D01*
X136172620Y-113028713D01*
X136112282Y-113174384D01*
X136112279Y-113174396D01*
X136081518Y-113329039D01*
X121275500Y-113329039D01*
X121275500Y-111569044D01*
X136905002Y-111569044D01*
X136905002Y-111726737D01*
X136935763Y-111881380D01*
X136935766Y-111881392D01*
X136996104Y-112027063D01*
X136996111Y-112027076D01*
X137083712Y-112158179D01*
X137083715Y-112158183D01*
X137195209Y-112269677D01*
X137195213Y-112269680D01*
X137326316Y-112357281D01*
X137326329Y-112357288D01*
X137457290Y-112411533D01*
X137472005Y-112417628D01*
X137600287Y-112443145D01*
X137626655Y-112448390D01*
X137626658Y-112448391D01*
X137626660Y-112448391D01*
X137784346Y-112448391D01*
X137784347Y-112448390D01*
X137938999Y-112417628D01*
X138084681Y-112357285D01*
X138166479Y-112302629D01*
X146878573Y-112302629D01*
X146878573Y-112460322D01*
X146909334Y-112614965D01*
X146909337Y-112614977D01*
X146969675Y-112760648D01*
X146969682Y-112760661D01*
X147057283Y-112891764D01*
X147057286Y-112891768D01*
X147168780Y-113003262D01*
X147168784Y-113003265D01*
X147299887Y-113090866D01*
X147299900Y-113090873D01*
X147445571Y-113151211D01*
X147445576Y-113151213D01*
X147600226Y-113181975D01*
X147600229Y-113181976D01*
X147600231Y-113181976D01*
X147757917Y-113181976D01*
X147757918Y-113181975D01*
X147912570Y-113151213D01*
X148058252Y-113090870D01*
X148189362Y-113003265D01*
X148300862Y-112891765D01*
X148388467Y-112760655D01*
X148448810Y-112614973D01*
X148479573Y-112460318D01*
X148479573Y-112302634D01*
X148479573Y-112302631D01*
X148479572Y-112302629D01*
X148471403Y-112261559D01*
X148448810Y-112147979D01*
X148398731Y-112027076D01*
X148388470Y-112002303D01*
X148388463Y-112002290D01*
X148300862Y-111871187D01*
X148300859Y-111871183D01*
X148189365Y-111759689D01*
X148189361Y-111759686D01*
X148058258Y-111672085D01*
X148058245Y-111672078D01*
X147912574Y-111611740D01*
X147912562Y-111611737D01*
X147757918Y-111580976D01*
X147757915Y-111580976D01*
X147600231Y-111580976D01*
X147600228Y-111580976D01*
X147445583Y-111611737D01*
X147445571Y-111611740D01*
X147299900Y-111672078D01*
X147299887Y-111672085D01*
X147168784Y-111759686D01*
X147168780Y-111759689D01*
X147057286Y-111871183D01*
X147057283Y-111871187D01*
X146969682Y-112002290D01*
X146969675Y-112002303D01*
X146909337Y-112147974D01*
X146909334Y-112147986D01*
X146878573Y-112302629D01*
X138166479Y-112302629D01*
X138215791Y-112269680D01*
X138327291Y-112158180D01*
X138414896Y-112027070D01*
X138475239Y-111881388D01*
X138506002Y-111726733D01*
X138506002Y-111569049D01*
X138506002Y-111569046D01*
X138506001Y-111569044D01*
X138475239Y-111414394D01*
X138457718Y-111372094D01*
X138414899Y-111268718D01*
X138414892Y-111268705D01*
X138327291Y-111137602D01*
X138327288Y-111137598D01*
X138215794Y-111026104D01*
X138215790Y-111026101D01*
X138084687Y-110938500D01*
X138084674Y-110938493D01*
X137939003Y-110878155D01*
X137938991Y-110878152D01*
X137784347Y-110847391D01*
X137784344Y-110847391D01*
X137626660Y-110847391D01*
X137626657Y-110847391D01*
X137472012Y-110878152D01*
X137472000Y-110878155D01*
X137326329Y-110938493D01*
X137326316Y-110938500D01*
X137195213Y-111026101D01*
X137195209Y-111026104D01*
X137083715Y-111137598D01*
X137083712Y-111137602D01*
X136996111Y-111268705D01*
X136996104Y-111268718D01*
X136935766Y-111414389D01*
X136935763Y-111414401D01*
X136905002Y-111569044D01*
X121275500Y-111569044D01*
X121275500Y-109371153D01*
X162699500Y-109371153D01*
X162699500Y-109528846D01*
X162730261Y-109683489D01*
X162730264Y-109683501D01*
X162790602Y-109829172D01*
X162790609Y-109829185D01*
X162878210Y-109960288D01*
X162878213Y-109960292D01*
X162989707Y-110071786D01*
X162989711Y-110071789D01*
X163120814Y-110159390D01*
X163120827Y-110159397D01*
X163266498Y-110219735D01*
X163266503Y-110219737D01*
X163421153Y-110250499D01*
X163421156Y-110250500D01*
X163421158Y-110250500D01*
X163578844Y-110250500D01*
X163578845Y-110250499D01*
X163733497Y-110219737D01*
X163879179Y-110159394D01*
X164010289Y-110071789D01*
X164121789Y-109960289D01*
X164209394Y-109829179D01*
X164269737Y-109683497D01*
X164300500Y-109528842D01*
X164300500Y-109371158D01*
X164300500Y-109371155D01*
X164300499Y-109371153D01*
X164269738Y-109216510D01*
X164269737Y-109216503D01*
X164269735Y-109216498D01*
X164209397Y-109070827D01*
X164209390Y-109070814D01*
X164121789Y-108939711D01*
X164121786Y-108939707D01*
X164010292Y-108828213D01*
X164010288Y-108828210D01*
X163879185Y-108740609D01*
X163879172Y-108740602D01*
X163733501Y-108680264D01*
X163733489Y-108680261D01*
X163578845Y-108649500D01*
X163578842Y-108649500D01*
X163421158Y-108649500D01*
X163421155Y-108649500D01*
X163266510Y-108680261D01*
X163266498Y-108680264D01*
X163120827Y-108740602D01*
X163120814Y-108740609D01*
X162989711Y-108828210D01*
X162989707Y-108828213D01*
X162878213Y-108939707D01*
X162878210Y-108939711D01*
X162790609Y-109070814D01*
X162790602Y-109070827D01*
X162730264Y-109216498D01*
X162730261Y-109216510D01*
X162699500Y-109371153D01*
X121275500Y-109371153D01*
X121275500Y-107500788D01*
X154129222Y-107500788D01*
X154129222Y-107658481D01*
X154159983Y-107813124D01*
X154159986Y-107813136D01*
X154220324Y-107958807D01*
X154220331Y-107958820D01*
X154307932Y-108089923D01*
X154307935Y-108089927D01*
X154419429Y-108201421D01*
X154419433Y-108201424D01*
X154550536Y-108289025D01*
X154550549Y-108289032D01*
X154696220Y-108349370D01*
X154696225Y-108349372D01*
X154850875Y-108380134D01*
X154850878Y-108380135D01*
X154850880Y-108380135D01*
X154878102Y-108380135D01*
X154945141Y-108399820D01*
X154990896Y-108452624D01*
X154999719Y-108479944D01*
X155030261Y-108633489D01*
X155030264Y-108633501D01*
X155090602Y-108779172D01*
X155090609Y-108779185D01*
X155178210Y-108910288D01*
X155178213Y-108910292D01*
X155289707Y-109021786D01*
X155289711Y-109021789D01*
X155420814Y-109109390D01*
X155420827Y-109109397D01*
X155566498Y-109169735D01*
X155566503Y-109169737D01*
X155721153Y-109200499D01*
X155721156Y-109200500D01*
X155721158Y-109200500D01*
X155878844Y-109200500D01*
X155878845Y-109200499D01*
X156033497Y-109169737D01*
X156179179Y-109109394D01*
X156310289Y-109021789D01*
X156421789Y-108910289D01*
X156509394Y-108779179D01*
X156569737Y-108633497D01*
X156600500Y-108478842D01*
X156600500Y-108321158D01*
X156600500Y-108321155D01*
X156600499Y-108321153D01*
X156594108Y-108289025D01*
X156569737Y-108166503D01*
X156569735Y-108166498D01*
X156509397Y-108020827D01*
X156509390Y-108020814D01*
X156421789Y-107889711D01*
X156421786Y-107889707D01*
X156310292Y-107778213D01*
X156310288Y-107778210D01*
X156179185Y-107690609D01*
X156179172Y-107690602D01*
X156033501Y-107630264D01*
X156033489Y-107630261D01*
X155878845Y-107599500D01*
X155878842Y-107599500D01*
X155851620Y-107599500D01*
X155784581Y-107579815D01*
X155738826Y-107527011D01*
X155730003Y-107499691D01*
X155699460Y-107346145D01*
X155699459Y-107346138D01*
X155699457Y-107346133D01*
X155639119Y-107200462D01*
X155639112Y-107200449D01*
X155551511Y-107069346D01*
X155551508Y-107069342D01*
X155440014Y-106957848D01*
X155440010Y-106957845D01*
X155308907Y-106870244D01*
X155308894Y-106870237D01*
X155163223Y-106809899D01*
X155163211Y-106809896D01*
X155008567Y-106779135D01*
X155008564Y-106779135D01*
X154850880Y-106779135D01*
X154850877Y-106779135D01*
X154696232Y-106809896D01*
X154696220Y-106809899D01*
X154550549Y-106870237D01*
X154550536Y-106870244D01*
X154419433Y-106957845D01*
X154419429Y-106957848D01*
X154307935Y-107069342D01*
X154307932Y-107069346D01*
X154220331Y-107200449D01*
X154220324Y-107200462D01*
X154159986Y-107346133D01*
X154159983Y-107346145D01*
X154129222Y-107500788D01*
X121275500Y-107500788D01*
X121275500Y-105521153D01*
X127999500Y-105521153D01*
X127999500Y-105678846D01*
X128030261Y-105833489D01*
X128030264Y-105833501D01*
X128090602Y-105979172D01*
X128090609Y-105979185D01*
X128178210Y-106110288D01*
X128178213Y-106110292D01*
X128289707Y-106221786D01*
X128289711Y-106221789D01*
X128420814Y-106309390D01*
X128420827Y-106309397D01*
X128566498Y-106369735D01*
X128566503Y-106369737D01*
X128721153Y-106400499D01*
X128721156Y-106400500D01*
X128721158Y-106400500D01*
X128878844Y-106400500D01*
X128878845Y-106400499D01*
X129033497Y-106369737D01*
X129179179Y-106309394D01*
X129310289Y-106221789D01*
X129421789Y-106110289D01*
X129509394Y-105979179D01*
X129569737Y-105833497D01*
X129600500Y-105678842D01*
X129600500Y-105521158D01*
X129600500Y-105521155D01*
X129600499Y-105521153D01*
X129592718Y-105482036D01*
X129569737Y-105366503D01*
X129554069Y-105328677D01*
X131523907Y-105328677D01*
X131523907Y-105486370D01*
X131554668Y-105641013D01*
X131554671Y-105641025D01*
X131615009Y-105786696D01*
X131615016Y-105786709D01*
X131702617Y-105917812D01*
X131702620Y-105917816D01*
X131814114Y-106029310D01*
X131814118Y-106029313D01*
X131945221Y-106116914D01*
X131945234Y-106116921D01*
X132018345Y-106147204D01*
X132090910Y-106177261D01*
X132245560Y-106208023D01*
X132245563Y-106208024D01*
X132245565Y-106208024D01*
X132403251Y-106208024D01*
X132403252Y-106208023D01*
X132557904Y-106177261D01*
X132703586Y-106116918D01*
X132834696Y-106029313D01*
X132946196Y-105917813D01*
X133033801Y-105786703D01*
X133094144Y-105641021D01*
X133124907Y-105486366D01*
X133124907Y-105328966D01*
X133144592Y-105261927D01*
X133197396Y-105216172D01*
X133266554Y-105206228D01*
X133317437Y-105228663D01*
X133318773Y-105226665D01*
X133454941Y-105317650D01*
X133454954Y-105317657D01*
X133600625Y-105377995D01*
X133600630Y-105377997D01*
X133750725Y-105407853D01*
X133755280Y-105408759D01*
X133755283Y-105408760D01*
X133755285Y-105408760D01*
X133912971Y-105408760D01*
X133912972Y-105408759D01*
X134067624Y-105377997D01*
X134213306Y-105317654D01*
X134344416Y-105230049D01*
X134455916Y-105118549D01*
X134543521Y-104987439D01*
X134590280Y-104874553D01*
X162591982Y-104874553D01*
X162591982Y-105032246D01*
X162622742Y-105186888D01*
X162622745Y-105186898D01*
X162662911Y-105283867D01*
X162670380Y-105353336D01*
X162662913Y-105378766D01*
X162634855Y-105446506D01*
X162634854Y-105446509D01*
X162634852Y-105446514D01*
X162604092Y-105601156D01*
X162604092Y-105758849D01*
X162634853Y-105913492D01*
X162634856Y-105913504D01*
X162695194Y-106059175D01*
X162695201Y-106059188D01*
X162782802Y-106190291D01*
X162782805Y-106190295D01*
X162894299Y-106301789D01*
X162894303Y-106301792D01*
X163025406Y-106389393D01*
X163025419Y-106389400D01*
X163171090Y-106449738D01*
X163171095Y-106449740D01*
X163325745Y-106480502D01*
X163325748Y-106480503D01*
X163325750Y-106480503D01*
X163483436Y-106480503D01*
X163483437Y-106480502D01*
X163638089Y-106449740D01*
X163783771Y-106389397D01*
X163914881Y-106301792D01*
X164026381Y-106190292D01*
X164113986Y-106059182D01*
X164174329Y-105913500D01*
X164205092Y-105758845D01*
X164205092Y-105601161D01*
X164205092Y-105601158D01*
X164205091Y-105601156D01*
X164196905Y-105560001D01*
X164174329Y-105446506D01*
X164134161Y-105349533D01*
X164126693Y-105280067D01*
X164134158Y-105254639D01*
X164162219Y-105186897D01*
X164192982Y-105032242D01*
X164192982Y-104995654D01*
X166697291Y-104995654D01*
X166697291Y-105153347D01*
X166728051Y-105307989D01*
X166728054Y-105307999D01*
X166763041Y-105392465D01*
X166770510Y-105461934D01*
X166763041Y-105487369D01*
X166730263Y-105566501D01*
X166730260Y-105566511D01*
X166699500Y-105721153D01*
X166699500Y-105878846D01*
X166730261Y-106033489D01*
X166730264Y-106033501D01*
X166790602Y-106179172D01*
X166790609Y-106179185D01*
X166878210Y-106310288D01*
X166878213Y-106310292D01*
X166989707Y-106421786D01*
X166989711Y-106421789D01*
X167120814Y-106509390D01*
X167120827Y-106509397D01*
X167266498Y-106569735D01*
X167266503Y-106569737D01*
X167421153Y-106600499D01*
X167421156Y-106600500D01*
X167421158Y-106600500D01*
X167578844Y-106600500D01*
X167578845Y-106600499D01*
X167733497Y-106569737D01*
X167879179Y-106509394D01*
X168010289Y-106421789D01*
X168121789Y-106310289D01*
X168209394Y-106179179D01*
X168210189Y-106177261D01*
X168237929Y-106110288D01*
X168269737Y-106033497D01*
X168300500Y-105878842D01*
X168300500Y-105721158D01*
X168300500Y-105721155D01*
X168300499Y-105721153D01*
X168297741Y-105707286D01*
X168269737Y-105566503D01*
X168234748Y-105482033D01*
X168227280Y-105412567D01*
X168234750Y-105387129D01*
X168238533Y-105377998D01*
X168267528Y-105307998D01*
X168298291Y-105153343D01*
X168298291Y-104995659D01*
X168298291Y-104995656D01*
X168298290Y-104995654D01*
X168277395Y-104890609D01*
X168267528Y-104841004D01*
X168263078Y-104830261D01*
X168207188Y-104695328D01*
X168207181Y-104695315D01*
X168119580Y-104564212D01*
X168119577Y-104564208D01*
X168008083Y-104452714D01*
X168008079Y-104452711D01*
X167876976Y-104365110D01*
X167876963Y-104365103D01*
X167731292Y-104304765D01*
X167731280Y-104304762D01*
X167576636Y-104274001D01*
X167576633Y-104274001D01*
X167418949Y-104274001D01*
X167418946Y-104274001D01*
X167264301Y-104304762D01*
X167264289Y-104304765D01*
X167118618Y-104365103D01*
X167118605Y-104365110D01*
X166987502Y-104452711D01*
X166987498Y-104452714D01*
X166876004Y-104564208D01*
X166876001Y-104564212D01*
X166788400Y-104695315D01*
X166788393Y-104695328D01*
X166728055Y-104840999D01*
X166728052Y-104841011D01*
X166697291Y-104995654D01*
X164192982Y-104995654D01*
X164192982Y-104874558D01*
X164192982Y-104874555D01*
X164192981Y-104874553D01*
X164175314Y-104785735D01*
X164162219Y-104719903D01*
X164136669Y-104658221D01*
X164129201Y-104588755D01*
X164136666Y-104563327D01*
X164174329Y-104472404D01*
X164205092Y-104317749D01*
X164205092Y-104160065D01*
X164205092Y-104160062D01*
X164205091Y-104160060D01*
X164174329Y-104005410D01*
X164130199Y-103898869D01*
X164113989Y-103859734D01*
X164113982Y-103859721D01*
X164026381Y-103728618D01*
X164026378Y-103728614D01*
X163936313Y-103638549D01*
X169742000Y-103638549D01*
X169742000Y-103861450D01*
X169742001Y-103861466D01*
X169771094Y-104082452D01*
X169771095Y-104082457D01*
X169771096Y-104082463D01*
X169810380Y-104229074D01*
X169828790Y-104297780D01*
X169828793Y-104297790D01*
X169901119Y-104472400D01*
X169914095Y-104503726D01*
X170025552Y-104696774D01*
X170025557Y-104696780D01*
X170025558Y-104696782D01*
X170161251Y-104873622D01*
X170161257Y-104873629D01*
X170318870Y-105031242D01*
X170318877Y-105031248D01*
X170320175Y-105032244D01*
X170495726Y-105166948D01*
X170688774Y-105278405D01*
X170688777Y-105278406D01*
X170688782Y-105278409D01*
X170767317Y-105310939D01*
X170821721Y-105354780D01*
X170843786Y-105421074D01*
X170826507Y-105488773D01*
X170775370Y-105536384D01*
X170719865Y-105549500D01*
X170442484Y-105549500D01*
X170339704Y-105560000D01*
X170339703Y-105560001D01*
X170173164Y-105615186D01*
X170173162Y-105615187D01*
X170023848Y-105707286D01*
X170023844Y-105707289D01*
X169899789Y-105831344D01*
X169899786Y-105831348D01*
X169807687Y-105980662D01*
X169807686Y-105980664D01*
X169752501Y-106147203D01*
X169752500Y-106147204D01*
X169742000Y-106249984D01*
X169742000Y-108250015D01*
X169752500Y-108352795D01*
X169752501Y-108352796D01*
X169807686Y-108519335D01*
X169807687Y-108519337D01*
X169899786Y-108668651D01*
X169899789Y-108668655D01*
X170023844Y-108792710D01*
X170023848Y-108792713D01*
X170173162Y-108884812D01*
X170173164Y-108884813D01*
X170173166Y-108884814D01*
X170339703Y-108939999D01*
X170442492Y-108950500D01*
X170442497Y-108950500D01*
X172442503Y-108950500D01*
X172442508Y-108950500D01*
X172545297Y-108939999D01*
X172711834Y-108884814D01*
X172861155Y-108792711D01*
X172985211Y-108668655D01*
X173077314Y-108519334D01*
X173132499Y-108352797D01*
X173143000Y-108250008D01*
X173143000Y-106249992D01*
X173132499Y-106147203D01*
X173077314Y-105980666D01*
X173076392Y-105979172D01*
X172985213Y-105831348D01*
X172985210Y-105831344D01*
X172861155Y-105707289D01*
X172861151Y-105707286D01*
X172711837Y-105615187D01*
X172711835Y-105615186D01*
X172628565Y-105587593D01*
X172545297Y-105560001D01*
X172545295Y-105560000D01*
X172442515Y-105549500D01*
X172442508Y-105549500D01*
X172165135Y-105549500D01*
X172098096Y-105529815D01*
X172052341Y-105477011D01*
X172042397Y-105407853D01*
X172071422Y-105344297D01*
X172117683Y-105310939D01*
X172196217Y-105278409D01*
X172196218Y-105278407D01*
X172196226Y-105278405D01*
X172389274Y-105166948D01*
X172566124Y-105031247D01*
X172723747Y-104873624D01*
X172859448Y-104696774D01*
X172970905Y-104503726D01*
X173056210Y-104297781D01*
X173113904Y-104082463D01*
X173143000Y-103861457D01*
X173143000Y-103638543D01*
X173113904Y-103417537D01*
X173056210Y-103202219D01*
X172970905Y-102996274D01*
X172859448Y-102803226D01*
X172723747Y-102626376D01*
X172723742Y-102626370D01*
X172566129Y-102468757D01*
X172566122Y-102468751D01*
X172389282Y-102333058D01*
X172389280Y-102333057D01*
X172389274Y-102333052D01*
X172196226Y-102221595D01*
X172196222Y-102221593D01*
X171990290Y-102136293D01*
X171990283Y-102136291D01*
X171990281Y-102136290D01*
X171774963Y-102078596D01*
X171774957Y-102078595D01*
X171774952Y-102078594D01*
X171553966Y-102049501D01*
X171553963Y-102049500D01*
X171553957Y-102049500D01*
X171331043Y-102049500D01*
X171331037Y-102049500D01*
X171331033Y-102049501D01*
X171110047Y-102078594D01*
X171110040Y-102078595D01*
X171110037Y-102078596D01*
X170894719Y-102136290D01*
X170894709Y-102136293D01*
X170688777Y-102221593D01*
X170688773Y-102221595D01*
X170495726Y-102333052D01*
X170495717Y-102333058D01*
X170318877Y-102468751D01*
X170318870Y-102468757D01*
X170161257Y-102626370D01*
X170161251Y-102626377D01*
X170025558Y-102803217D01*
X170025552Y-102803226D01*
X169914095Y-102996273D01*
X169914093Y-102996277D01*
X169828793Y-103202209D01*
X169828790Y-103202219D01*
X169771097Y-103417534D01*
X169771094Y-103417547D01*
X169742001Y-103638533D01*
X169742000Y-103638549D01*
X163936313Y-103638549D01*
X163914884Y-103617120D01*
X163914880Y-103617117D01*
X163783777Y-103529516D01*
X163783764Y-103529509D01*
X163638093Y-103469171D01*
X163638081Y-103469168D01*
X163483437Y-103438407D01*
X163483434Y-103438407D01*
X163325750Y-103438407D01*
X163325747Y-103438407D01*
X163171102Y-103469168D01*
X163171090Y-103469171D01*
X163025419Y-103529509D01*
X163025406Y-103529516D01*
X162894303Y-103617117D01*
X162894299Y-103617120D01*
X162782805Y-103728614D01*
X162782802Y-103728618D01*
X162695201Y-103859721D01*
X162695194Y-103859734D01*
X162634856Y-104005405D01*
X162634853Y-104005417D01*
X162604092Y-104160060D01*
X162604092Y-104317753D01*
X162634852Y-104472395D01*
X162634855Y-104472405D01*
X162660403Y-104534083D01*
X162667872Y-104603552D01*
X162660403Y-104628987D01*
X162622745Y-104719901D01*
X162622742Y-104719911D01*
X162591982Y-104874553D01*
X134590280Y-104874553D01*
X134603864Y-104841757D01*
X134634627Y-104687102D01*
X134634627Y-104529418D01*
X134634627Y-104529415D01*
X134634626Y-104529413D01*
X134603864Y-104374763D01*
X134571981Y-104297790D01*
X134543524Y-104229087D01*
X134543517Y-104229074D01*
X134455916Y-104097971D01*
X134455913Y-104097967D01*
X134344419Y-103986473D01*
X134344415Y-103986470D01*
X134213312Y-103898869D01*
X134213299Y-103898862D01*
X134067628Y-103838524D01*
X134067616Y-103838521D01*
X133912972Y-103807760D01*
X133912969Y-103807760D01*
X133755285Y-103807760D01*
X133755282Y-103807760D01*
X133600637Y-103838521D01*
X133600625Y-103838524D01*
X133454954Y-103898862D01*
X133454941Y-103898869D01*
X133323838Y-103986470D01*
X133323834Y-103986473D01*
X133212340Y-104097967D01*
X133212337Y-104097971D01*
X133124736Y-104229074D01*
X133124729Y-104229087D01*
X133064391Y-104374758D01*
X133064388Y-104374770D01*
X133033627Y-104529413D01*
X133033627Y-104686817D01*
X133013942Y-104753856D01*
X132961138Y-104799611D01*
X132891980Y-104809555D01*
X132841087Y-104787134D01*
X132839761Y-104789119D01*
X132703592Y-104698133D01*
X132703579Y-104698126D01*
X132557908Y-104637788D01*
X132557896Y-104637785D01*
X132403252Y-104607024D01*
X132403249Y-104607024D01*
X132245565Y-104607024D01*
X132245562Y-104607024D01*
X132090917Y-104637785D01*
X132090905Y-104637788D01*
X131945234Y-104698126D01*
X131945221Y-104698133D01*
X131814118Y-104785734D01*
X131814114Y-104785737D01*
X131702620Y-104897231D01*
X131702617Y-104897235D01*
X131615016Y-105028338D01*
X131615009Y-105028351D01*
X131554671Y-105174022D01*
X131554668Y-105174034D01*
X131523907Y-105328677D01*
X129554069Y-105328677D01*
X129533246Y-105278405D01*
X129509397Y-105220827D01*
X129509390Y-105220814D01*
X129421789Y-105089711D01*
X129421786Y-105089707D01*
X129310292Y-104978213D01*
X129310288Y-104978210D01*
X129179185Y-104890609D01*
X129179172Y-104890602D01*
X129033501Y-104830264D01*
X129033489Y-104830261D01*
X128878845Y-104799500D01*
X128878842Y-104799500D01*
X128721158Y-104799500D01*
X128721155Y-104799500D01*
X128566510Y-104830261D01*
X128566498Y-104830264D01*
X128420827Y-104890602D01*
X128420814Y-104890609D01*
X128289711Y-104978210D01*
X128289707Y-104978213D01*
X128178213Y-105089707D01*
X128178210Y-105089711D01*
X128090609Y-105220814D01*
X128090602Y-105220827D01*
X128030264Y-105366498D01*
X128030261Y-105366510D01*
X127999500Y-105521153D01*
X121275500Y-105521153D01*
X121275500Y-102921153D01*
X126549500Y-102921153D01*
X126549500Y-103078846D01*
X126580261Y-103233489D01*
X126580264Y-103233501D01*
X126640602Y-103379172D01*
X126640609Y-103379185D01*
X126728210Y-103510288D01*
X126728213Y-103510292D01*
X126839707Y-103621786D01*
X126839711Y-103621789D01*
X126970814Y-103709390D01*
X126970827Y-103709397D01*
X127116498Y-103769735D01*
X127116503Y-103769737D01*
X127271153Y-103800499D01*
X127271156Y-103800500D01*
X127271158Y-103800500D01*
X127428844Y-103800500D01*
X127428845Y-103800499D01*
X127583497Y-103769737D01*
X127729179Y-103709394D01*
X127860289Y-103621789D01*
X127971789Y-103510289D01*
X128059394Y-103379179D01*
X128119737Y-103233497D01*
X128150500Y-103078842D01*
X128150500Y-102921158D01*
X128150500Y-102921155D01*
X128150499Y-102921153D01*
X128119737Y-102766503D01*
X128119735Y-102766498D01*
X128059397Y-102620827D01*
X128059390Y-102620814D01*
X127971789Y-102489711D01*
X127971786Y-102489707D01*
X127860292Y-102378213D01*
X127860288Y-102378210D01*
X127729185Y-102290609D01*
X127729172Y-102290602D01*
X127583501Y-102230264D01*
X127583489Y-102230261D01*
X127428845Y-102199500D01*
X127428842Y-102199500D01*
X127271158Y-102199500D01*
X127271155Y-102199500D01*
X127116510Y-102230261D01*
X127116498Y-102230264D01*
X126970827Y-102290602D01*
X126970814Y-102290609D01*
X126839711Y-102378210D01*
X126839707Y-102378213D01*
X126728213Y-102489707D01*
X126728210Y-102489711D01*
X126640609Y-102620814D01*
X126640602Y-102620827D01*
X126580264Y-102766498D01*
X126580261Y-102766510D01*
X126549500Y-102921153D01*
X121275500Y-102921153D01*
X121275500Y-100721153D01*
X130399500Y-100721153D01*
X130399500Y-100878846D01*
X130430261Y-101033489D01*
X130430264Y-101033501D01*
X130490602Y-101179172D01*
X130490609Y-101179185D01*
X130578210Y-101310288D01*
X130578213Y-101310292D01*
X130689707Y-101421786D01*
X130689711Y-101421789D01*
X130820814Y-101509390D01*
X130820827Y-101509397D01*
X130966498Y-101569735D01*
X130966503Y-101569737D01*
X131121153Y-101600499D01*
X131121156Y-101600500D01*
X131121158Y-101600500D01*
X131278844Y-101600500D01*
X131278845Y-101600499D01*
X131433497Y-101569737D01*
X131579179Y-101509394D01*
X131710289Y-101421789D01*
X131821789Y-101310289D01*
X131909394Y-101179179D01*
X131969737Y-101033497D01*
X132000500Y-100878842D01*
X132000500Y-100721158D01*
X132000500Y-100721155D01*
X132000499Y-100721153D01*
X131969737Y-100566503D01*
X131950955Y-100521158D01*
X131950953Y-100521153D01*
X143799500Y-100521153D01*
X143799500Y-100678846D01*
X143830261Y-100833489D01*
X143830264Y-100833501D01*
X143890602Y-100979172D01*
X143890609Y-100979185D01*
X143978210Y-101110288D01*
X143978213Y-101110292D01*
X144089707Y-101221786D01*
X144089711Y-101221789D01*
X144220814Y-101309390D01*
X144220827Y-101309397D01*
X144366498Y-101369735D01*
X144366503Y-101369737D01*
X144521153Y-101400499D01*
X144521156Y-101400500D01*
X144521158Y-101400500D01*
X144678844Y-101400500D01*
X144678845Y-101400499D01*
X144833497Y-101369737D01*
X144979179Y-101309394D01*
X145110289Y-101221789D01*
X145221789Y-101110289D01*
X145309394Y-100979179D01*
X145369737Y-100833497D01*
X145400500Y-100678842D01*
X145400500Y-100521158D01*
X145400500Y-100521155D01*
X145400499Y-100521153D01*
X145381884Y-100427571D01*
X145369737Y-100366503D01*
X145337929Y-100289711D01*
X145309397Y-100220827D01*
X145309390Y-100220814D01*
X145221789Y-100089711D01*
X145221786Y-100089707D01*
X145110292Y-99978213D01*
X145110288Y-99978210D01*
X144979185Y-99890609D01*
X144979172Y-99890602D01*
X144833501Y-99830264D01*
X144833489Y-99830261D01*
X144678845Y-99799500D01*
X144678842Y-99799500D01*
X144521158Y-99799500D01*
X144521155Y-99799500D01*
X144366510Y-99830261D01*
X144366498Y-99830264D01*
X144220827Y-99890602D01*
X144220814Y-99890609D01*
X144089711Y-99978210D01*
X144089707Y-99978213D01*
X143978213Y-100089707D01*
X143978210Y-100089711D01*
X143890609Y-100220814D01*
X143890602Y-100220827D01*
X143830264Y-100366498D01*
X143830261Y-100366510D01*
X143799500Y-100521153D01*
X131950953Y-100521153D01*
X131909397Y-100420827D01*
X131909390Y-100420814D01*
X131821789Y-100289711D01*
X131821786Y-100289707D01*
X131710292Y-100178213D01*
X131710288Y-100178210D01*
X131579185Y-100090609D01*
X131579172Y-100090602D01*
X131433501Y-100030264D01*
X131433489Y-100030261D01*
X131278845Y-99999500D01*
X131278842Y-99999500D01*
X131121158Y-99999500D01*
X131121155Y-99999500D01*
X130966510Y-100030261D01*
X130966498Y-100030264D01*
X130820827Y-100090602D01*
X130820814Y-100090609D01*
X130689711Y-100178210D01*
X130689707Y-100178213D01*
X130578213Y-100289707D01*
X130578210Y-100289711D01*
X130490609Y-100420814D01*
X130490602Y-100420827D01*
X130430264Y-100566498D01*
X130430261Y-100566510D01*
X130399500Y-100721153D01*
X121275500Y-100721153D01*
X121275500Y-98571153D01*
X129649500Y-98571153D01*
X129649500Y-98728846D01*
X129680261Y-98883489D01*
X129680264Y-98883501D01*
X129740602Y-99029172D01*
X129740609Y-99029185D01*
X129828210Y-99160288D01*
X129828213Y-99160292D01*
X129939707Y-99271786D01*
X129939711Y-99271789D01*
X130070814Y-99359390D01*
X130070827Y-99359397D01*
X130204625Y-99414817D01*
X130216503Y-99419737D01*
X130371153Y-99450499D01*
X130371156Y-99450500D01*
X130371158Y-99450500D01*
X130528844Y-99450500D01*
X130528845Y-99450499D01*
X130683497Y-99419737D01*
X130829179Y-99359394D01*
X130960289Y-99271789D01*
X131071789Y-99160289D01*
X131159394Y-99029179D01*
X131219737Y-98883497D01*
X131231238Y-98825678D01*
X133696380Y-98825678D01*
X133696380Y-98983371D01*
X133727141Y-99138014D01*
X133727144Y-99138026D01*
X133787482Y-99283697D01*
X133787489Y-99283710D01*
X133875090Y-99414813D01*
X133875093Y-99414817D01*
X133986587Y-99526311D01*
X133986591Y-99526314D01*
X134117694Y-99613915D01*
X134117707Y-99613922D01*
X134263378Y-99674260D01*
X134263383Y-99674262D01*
X134418033Y-99705024D01*
X134418036Y-99705025D01*
X134418038Y-99705025D01*
X134575724Y-99705025D01*
X134575725Y-99705024D01*
X134730377Y-99674262D01*
X134876059Y-99613919D01*
X135007169Y-99526314D01*
X135118669Y-99414814D01*
X135206274Y-99283704D01*
X135266617Y-99138022D01*
X135297380Y-98983367D01*
X135297380Y-98938029D01*
X150574349Y-98938029D01*
X150574349Y-99095722D01*
X150605110Y-99250365D01*
X150605113Y-99250377D01*
X150665451Y-99396048D01*
X150665458Y-99396061D01*
X150753059Y-99527164D01*
X150753062Y-99527168D01*
X150864556Y-99638662D01*
X150864560Y-99638665D01*
X150995663Y-99726266D01*
X150995676Y-99726273D01*
X151141347Y-99786611D01*
X151141352Y-99786613D01*
X151296002Y-99817375D01*
X151296005Y-99817376D01*
X151296007Y-99817376D01*
X151453693Y-99817376D01*
X151595547Y-99789159D01*
X151665139Y-99795386D01*
X151720316Y-99838249D01*
X151743561Y-99904139D01*
X151727493Y-99972136D01*
X151713112Y-99990997D01*
X151713620Y-99991414D01*
X151709754Y-99996124D01*
X151622153Y-100127227D01*
X151622146Y-100127240D01*
X151561808Y-100272911D01*
X151561805Y-100272923D01*
X151531044Y-100427566D01*
X151531044Y-100585259D01*
X151561805Y-100739902D01*
X151561808Y-100739914D01*
X151622146Y-100885585D01*
X151622153Y-100885598D01*
X151709754Y-101016701D01*
X151709757Y-101016705D01*
X151821251Y-101128199D01*
X151821255Y-101128202D01*
X151952358Y-101215803D01*
X151952371Y-101215810D01*
X152098042Y-101276148D01*
X152098047Y-101276150D01*
X152252697Y-101306912D01*
X152252700Y-101306913D01*
X152252702Y-101306913D01*
X152410388Y-101306913D01*
X152410389Y-101306912D01*
X152565041Y-101276150D01*
X152710723Y-101215807D01*
X152841833Y-101128202D01*
X152953333Y-101016702D01*
X153040938Y-100885592D01*
X153101281Y-100739910D01*
X153132044Y-100585255D01*
X153132044Y-100427571D01*
X153132044Y-100427568D01*
X153132043Y-100427566D01*
X153119896Y-100366498D01*
X153101281Y-100272916D01*
X153062054Y-100178213D01*
X153040941Y-100127240D01*
X153040934Y-100127227D01*
X152953333Y-99996124D01*
X152953330Y-99996120D01*
X152841836Y-99884626D01*
X152841832Y-99884623D01*
X152710729Y-99797022D01*
X152710716Y-99797015D01*
X152565045Y-99736677D01*
X152565033Y-99736674D01*
X152410389Y-99705913D01*
X152410386Y-99705913D01*
X152252702Y-99705913D01*
X152252697Y-99705913D01*
X152110844Y-99734129D01*
X152041252Y-99727902D01*
X151986075Y-99685038D01*
X151962831Y-99619149D01*
X151978899Y-99551152D01*
X151993284Y-99532294D01*
X151992773Y-99531875D01*
X151996635Y-99527168D01*
X151996638Y-99527165D01*
X152084243Y-99396055D01*
X152144586Y-99250373D01*
X152175349Y-99095718D01*
X152175349Y-98938034D01*
X152175349Y-98938031D01*
X152175348Y-98938029D01*
X152144586Y-98783379D01*
X152098047Y-98671023D01*
X152084246Y-98637703D01*
X152084239Y-98637690D01*
X151996638Y-98506587D01*
X151996635Y-98506583D01*
X151885141Y-98395089D01*
X151885137Y-98395086D01*
X151754034Y-98307485D01*
X151754021Y-98307478D01*
X151608350Y-98247140D01*
X151608338Y-98247137D01*
X151453694Y-98216376D01*
X151453691Y-98216376D01*
X151296007Y-98216376D01*
X151296004Y-98216376D01*
X151141359Y-98247137D01*
X151141347Y-98247140D01*
X150995676Y-98307478D01*
X150995663Y-98307485D01*
X150864560Y-98395086D01*
X150864556Y-98395089D01*
X150753062Y-98506583D01*
X150753059Y-98506587D01*
X150665458Y-98637690D01*
X150665451Y-98637703D01*
X150605113Y-98783374D01*
X150605110Y-98783386D01*
X150574349Y-98938029D01*
X135297380Y-98938029D01*
X135297380Y-98825683D01*
X135297380Y-98825680D01*
X135297379Y-98825678D01*
X135291356Y-98795399D01*
X135266617Y-98671028D01*
X135266615Y-98671023D01*
X135206277Y-98525352D01*
X135206270Y-98525339D01*
X135118669Y-98394236D01*
X135118666Y-98394232D01*
X135007172Y-98282738D01*
X135007168Y-98282735D01*
X134876065Y-98195134D01*
X134876052Y-98195127D01*
X134730381Y-98134789D01*
X134730369Y-98134786D01*
X134575725Y-98104025D01*
X134575722Y-98104025D01*
X134418038Y-98104025D01*
X134418035Y-98104025D01*
X134263390Y-98134786D01*
X134263378Y-98134789D01*
X134117707Y-98195127D01*
X134117694Y-98195134D01*
X133986591Y-98282735D01*
X133986587Y-98282738D01*
X133875093Y-98394232D01*
X133875090Y-98394236D01*
X133787489Y-98525339D01*
X133787482Y-98525352D01*
X133727144Y-98671023D01*
X133727141Y-98671035D01*
X133696380Y-98825678D01*
X131231238Y-98825678D01*
X131237261Y-98795399D01*
X131250500Y-98728844D01*
X131250500Y-98571155D01*
X131250499Y-98571153D01*
X131219737Y-98416503D01*
X131174581Y-98307485D01*
X131159397Y-98270827D01*
X131159390Y-98270814D01*
X131071789Y-98139711D01*
X131071786Y-98139707D01*
X130960292Y-98028213D01*
X130960288Y-98028210D01*
X130829185Y-97940609D01*
X130829172Y-97940602D01*
X130683501Y-97880264D01*
X130683489Y-97880261D01*
X130528845Y-97849500D01*
X130528842Y-97849500D01*
X130371158Y-97849500D01*
X130371155Y-97849500D01*
X130216510Y-97880261D01*
X130216498Y-97880264D01*
X130070827Y-97940602D01*
X130070814Y-97940609D01*
X129939711Y-98028210D01*
X129939707Y-98028213D01*
X129828213Y-98139707D01*
X129828210Y-98139711D01*
X129740609Y-98270814D01*
X129740602Y-98270827D01*
X129680264Y-98416498D01*
X129680261Y-98416510D01*
X129649500Y-98571153D01*
X121275500Y-98571153D01*
X121275500Y-97321153D01*
X146999500Y-97321153D01*
X146999500Y-97478846D01*
X147030261Y-97633489D01*
X147030264Y-97633501D01*
X147090602Y-97779172D01*
X147090609Y-97779185D01*
X147178210Y-97910288D01*
X147178213Y-97910292D01*
X147289707Y-98021786D01*
X147289711Y-98021789D01*
X147420814Y-98109390D01*
X147420827Y-98109397D01*
X147494013Y-98139711D01*
X147566503Y-98169737D01*
X147721153Y-98200499D01*
X147721156Y-98200500D01*
X147721158Y-98200500D01*
X147878844Y-98200500D01*
X147878845Y-98200499D01*
X148033497Y-98169737D01*
X148179179Y-98109394D01*
X148310289Y-98021789D01*
X148421789Y-97910289D01*
X148509394Y-97779179D01*
X148569737Y-97633497D01*
X148600500Y-97478842D01*
X148600500Y-97321158D01*
X148600500Y-97321155D01*
X148600499Y-97321153D01*
X148569738Y-97166510D01*
X148569737Y-97166503D01*
X148569735Y-97166498D01*
X148509397Y-97020827D01*
X148509390Y-97020814D01*
X148421789Y-96889711D01*
X148421786Y-96889707D01*
X148310292Y-96778213D01*
X148310288Y-96778210D01*
X148179185Y-96690609D01*
X148179172Y-96690602D01*
X148033501Y-96630264D01*
X148033489Y-96630261D01*
X147878845Y-96599500D01*
X147878842Y-96599500D01*
X147721158Y-96599500D01*
X147721155Y-96599500D01*
X147566510Y-96630261D01*
X147566498Y-96630264D01*
X147420827Y-96690602D01*
X147420814Y-96690609D01*
X147289711Y-96778210D01*
X147289707Y-96778213D01*
X147178213Y-96889707D01*
X147178210Y-96889711D01*
X147090609Y-97020814D01*
X147090602Y-97020827D01*
X147030264Y-97166498D01*
X147030261Y-97166510D01*
X146999500Y-97321153D01*
X121275500Y-97321153D01*
X121275500Y-94318995D01*
X122244499Y-94318995D01*
X122271418Y-94454322D01*
X122271421Y-94454332D01*
X122324221Y-94581804D01*
X122324228Y-94581817D01*
X122400885Y-94696541D01*
X122400888Y-94696545D01*
X122498454Y-94794111D01*
X122498458Y-94794114D01*
X122613182Y-94870771D01*
X122613195Y-94870778D01*
X122735701Y-94921521D01*
X122740672Y-94923580D01*
X122740676Y-94923580D01*
X122740677Y-94923581D01*
X122876004Y-94950500D01*
X122876007Y-94950500D01*
X123013995Y-94950500D01*
X123105041Y-94932389D01*
X123149328Y-94923580D01*
X123154299Y-94921521D01*
X124986653Y-94921521D01*
X124986653Y-95079214D01*
X125017414Y-95233857D01*
X125017417Y-95233869D01*
X125077755Y-95379540D01*
X125077762Y-95379553D01*
X125165363Y-95510656D01*
X125165366Y-95510660D01*
X125276860Y-95622154D01*
X125276864Y-95622157D01*
X125407967Y-95709758D01*
X125407980Y-95709765D01*
X125553651Y-95770103D01*
X125553656Y-95770105D01*
X125708306Y-95800867D01*
X125708309Y-95800868D01*
X125708311Y-95800868D01*
X125865997Y-95800868D01*
X125865998Y-95800867D01*
X126020650Y-95770105D01*
X126166332Y-95709762D01*
X126297442Y-95622157D01*
X126408942Y-95510657D01*
X126496547Y-95379547D01*
X126556890Y-95233865D01*
X126587653Y-95079210D01*
X126587653Y-94921526D01*
X126587653Y-94921523D01*
X126571289Y-94839258D01*
X126571289Y-94839257D01*
X126567688Y-94821153D01*
X132199500Y-94821153D01*
X132199500Y-94978846D01*
X132230261Y-95133489D01*
X132230264Y-95133501D01*
X132290602Y-95279172D01*
X132290609Y-95279185D01*
X132378210Y-95410288D01*
X132378213Y-95410292D01*
X132489707Y-95521786D01*
X132489711Y-95521789D01*
X132620814Y-95609390D01*
X132620827Y-95609397D01*
X132766498Y-95669735D01*
X132766503Y-95669737D01*
X132921153Y-95700499D01*
X132921156Y-95700500D01*
X132921158Y-95700500D01*
X133078844Y-95700500D01*
X133078845Y-95700499D01*
X133233497Y-95669737D01*
X133379179Y-95609394D01*
X133510289Y-95521789D01*
X133621789Y-95410289D01*
X133709394Y-95279179D01*
X133769737Y-95133497D01*
X133800500Y-94978842D01*
X133800500Y-94821158D01*
X133800500Y-94821155D01*
X133800499Y-94821153D01*
X133795120Y-94794111D01*
X133769737Y-94666503D01*
X133750970Y-94621195D01*
X133750953Y-94621153D01*
X135099500Y-94621153D01*
X135099500Y-94778846D01*
X135130261Y-94933489D01*
X135130264Y-94933501D01*
X135190602Y-95079172D01*
X135190609Y-95079185D01*
X135278210Y-95210288D01*
X135278213Y-95210292D01*
X135389707Y-95321786D01*
X135389711Y-95321789D01*
X135520814Y-95409390D01*
X135520827Y-95409397D01*
X135666498Y-95469735D01*
X135666503Y-95469737D01*
X135821153Y-95500499D01*
X135821156Y-95500500D01*
X135821158Y-95500500D01*
X135978844Y-95500500D01*
X135978845Y-95500499D01*
X136133497Y-95469737D01*
X136279179Y-95409394D01*
X136410289Y-95321789D01*
X136521789Y-95210289D01*
X136609394Y-95079179D01*
X136669737Y-94933497D01*
X136700500Y-94778842D01*
X136700500Y-94621158D01*
X136700500Y-94621155D01*
X136700499Y-94621153D01*
X136669737Y-94466503D01*
X136637929Y-94389711D01*
X136609397Y-94320827D01*
X136609390Y-94320814D01*
X136521789Y-94189711D01*
X136521786Y-94189707D01*
X136410292Y-94078213D01*
X136410288Y-94078210D01*
X136279185Y-93990609D01*
X136279172Y-93990602D01*
X136133501Y-93930264D01*
X136133489Y-93930261D01*
X135978845Y-93899500D01*
X135978842Y-93899500D01*
X135821158Y-93899500D01*
X135821155Y-93899500D01*
X135666510Y-93930261D01*
X135666498Y-93930264D01*
X135520827Y-93990602D01*
X135520814Y-93990609D01*
X135389711Y-94078210D01*
X135389707Y-94078213D01*
X135278213Y-94189707D01*
X135278210Y-94189711D01*
X135190609Y-94320814D01*
X135190602Y-94320827D01*
X135130264Y-94466498D01*
X135130261Y-94466510D01*
X135099500Y-94621153D01*
X133750953Y-94621153D01*
X133709397Y-94520827D01*
X133709390Y-94520814D01*
X133621789Y-94389711D01*
X133621786Y-94389707D01*
X133510292Y-94278213D01*
X133510288Y-94278210D01*
X133379185Y-94190609D01*
X133379172Y-94190602D01*
X133233501Y-94130264D01*
X133233489Y-94130261D01*
X133078845Y-94099500D01*
X133078842Y-94099500D01*
X132921158Y-94099500D01*
X132921155Y-94099500D01*
X132766510Y-94130261D01*
X132766498Y-94130264D01*
X132620827Y-94190602D01*
X132620814Y-94190609D01*
X132489711Y-94278210D01*
X132489707Y-94278213D01*
X132378213Y-94389707D01*
X132378210Y-94389711D01*
X132290609Y-94520814D01*
X132290602Y-94520827D01*
X132230264Y-94666498D01*
X132230261Y-94666510D01*
X132199500Y-94821153D01*
X126567688Y-94821153D01*
X126559272Y-94778846D01*
X126556890Y-94766871D01*
X126556888Y-94766866D01*
X126496550Y-94621195D01*
X126496543Y-94621182D01*
X126408942Y-94490079D01*
X126408939Y-94490075D01*
X126297445Y-94378581D01*
X126297441Y-94378578D01*
X126166338Y-94290977D01*
X126166325Y-94290970D01*
X126020654Y-94230632D01*
X126020642Y-94230629D01*
X125865998Y-94199868D01*
X125865995Y-94199868D01*
X125708311Y-94199868D01*
X125708308Y-94199868D01*
X125553663Y-94230629D01*
X125553651Y-94230632D01*
X125407980Y-94290970D01*
X125407967Y-94290977D01*
X125276864Y-94378578D01*
X125276860Y-94378581D01*
X125165366Y-94490075D01*
X125165363Y-94490079D01*
X125077762Y-94621182D01*
X125077755Y-94621195D01*
X125017417Y-94766866D01*
X125017414Y-94766878D01*
X124986653Y-94921521D01*
X123154299Y-94921521D01*
X123276811Y-94870775D01*
X123391542Y-94794114D01*
X123489114Y-94696542D01*
X123565775Y-94581811D01*
X123618580Y-94454328D01*
X123633648Y-94378578D01*
X123645500Y-94318995D01*
X123645500Y-94181004D01*
X123618581Y-94045677D01*
X123618580Y-94045676D01*
X123618580Y-94045672D01*
X123618578Y-94045667D01*
X123565778Y-93918195D01*
X123565771Y-93918182D01*
X123489114Y-93803458D01*
X123489111Y-93803454D01*
X123391545Y-93705888D01*
X123391541Y-93705885D01*
X123276817Y-93629228D01*
X123276804Y-93629221D01*
X123149332Y-93576421D01*
X123149322Y-93576418D01*
X123013995Y-93549500D01*
X123013993Y-93549500D01*
X122876007Y-93549500D01*
X122876005Y-93549500D01*
X122740677Y-93576418D01*
X122740667Y-93576421D01*
X122613195Y-93629221D01*
X122613182Y-93629228D01*
X122498458Y-93705885D01*
X122498454Y-93705888D01*
X122400888Y-93803454D01*
X122400885Y-93803458D01*
X122324228Y-93918182D01*
X122324221Y-93918195D01*
X122271421Y-94045667D01*
X122271418Y-94045677D01*
X122244500Y-94181004D01*
X122244500Y-94181007D01*
X122244500Y-94318993D01*
X122244500Y-94318995D01*
X122244499Y-94318995D01*
X121275500Y-94318995D01*
X121275500Y-91318995D01*
X122244499Y-91318995D01*
X122271418Y-91454322D01*
X122271421Y-91454332D01*
X122324221Y-91581804D01*
X122324228Y-91581817D01*
X122400885Y-91696541D01*
X122400888Y-91696545D01*
X122498454Y-91794111D01*
X122498458Y-91794114D01*
X122613182Y-91870771D01*
X122613195Y-91870778D01*
X122740667Y-91923578D01*
X122740672Y-91923580D01*
X122740676Y-91923580D01*
X122740677Y-91923581D01*
X122876004Y-91950500D01*
X122876007Y-91950500D01*
X123013995Y-91950500D01*
X123105041Y-91932389D01*
X123149328Y-91923580D01*
X123276811Y-91870775D01*
X123391542Y-91794114D01*
X123489114Y-91696542D01*
X123565775Y-91581811D01*
X123618580Y-91454328D01*
X123627389Y-91410041D01*
X123645500Y-91318995D01*
X123645500Y-91181004D01*
X123618581Y-91045677D01*
X123618580Y-91045676D01*
X123618580Y-91045672D01*
X123611348Y-91028213D01*
X123565778Y-90918195D01*
X123565771Y-90918182D01*
X123493126Y-90809462D01*
X123493125Y-90809461D01*
X123489112Y-90803455D01*
X123432315Y-90746658D01*
X152126839Y-90746658D01*
X152126839Y-90904351D01*
X152157600Y-91058994D01*
X152157603Y-91059006D01*
X152217941Y-91204677D01*
X152217948Y-91204690D01*
X152305549Y-91335793D01*
X152305552Y-91335797D01*
X152417046Y-91447291D01*
X152417050Y-91447294D01*
X152548153Y-91534895D01*
X152548166Y-91534902D01*
X152693837Y-91595240D01*
X152693842Y-91595242D01*
X152848492Y-91626004D01*
X152848495Y-91626005D01*
X152848497Y-91626005D01*
X153006183Y-91626005D01*
X153006184Y-91626004D01*
X153160836Y-91595242D01*
X153218992Y-91571153D01*
X166699500Y-91571153D01*
X166699500Y-91728846D01*
X166730261Y-91883489D01*
X166730264Y-91883501D01*
X166790602Y-92029172D01*
X166790609Y-92029185D01*
X166878210Y-92160288D01*
X166878213Y-92160292D01*
X166989707Y-92271786D01*
X166989711Y-92271789D01*
X167120814Y-92359390D01*
X167120827Y-92359397D01*
X167266498Y-92419735D01*
X167266503Y-92419737D01*
X167421153Y-92450499D01*
X167421156Y-92450500D01*
X167421158Y-92450500D01*
X167578844Y-92450500D01*
X167578845Y-92450499D01*
X167733497Y-92419737D01*
X167879179Y-92359394D01*
X168010289Y-92271789D01*
X168121789Y-92160289D01*
X168209394Y-92029179D01*
X168212719Y-92021153D01*
X168269735Y-91883501D01*
X168269737Y-91883497D01*
X168300500Y-91728842D01*
X168300500Y-91571158D01*
X168300500Y-91571155D01*
X168300499Y-91571153D01*
X168293288Y-91534902D01*
X168269737Y-91416503D01*
X168236308Y-91335797D01*
X168209397Y-91270827D01*
X168209390Y-91270814D01*
X168151354Y-91183957D01*
X168121789Y-91139711D01*
X168121786Y-91139707D01*
X168103232Y-91121153D01*
X169299500Y-91121153D01*
X169299500Y-91278846D01*
X169330261Y-91433489D01*
X169330264Y-91433501D01*
X169390604Y-91579177D01*
X169390605Y-91579179D01*
X169391899Y-91581115D01*
X169392264Y-91582282D01*
X169393476Y-91584549D01*
X169393045Y-91584778D01*
X169412773Y-91647794D01*
X169394285Y-91715173D01*
X169391899Y-91718885D01*
X169390605Y-91720820D01*
X169390604Y-91720822D01*
X169330264Y-91866498D01*
X169330261Y-91866510D01*
X169299500Y-92021153D01*
X169299500Y-92178846D01*
X169330261Y-92333489D01*
X169330264Y-92333501D01*
X169390602Y-92479172D01*
X169390609Y-92479185D01*
X169478210Y-92610288D01*
X169478213Y-92610292D01*
X169589707Y-92721786D01*
X169589711Y-92721789D01*
X169720814Y-92809390D01*
X169720827Y-92809397D01*
X169866498Y-92869735D01*
X169866503Y-92869737D01*
X170021153Y-92900499D01*
X170021156Y-92900500D01*
X170021158Y-92900500D01*
X170178844Y-92900500D01*
X170178845Y-92900499D01*
X170333497Y-92869737D01*
X170452548Y-92820425D01*
X170522017Y-92812956D01*
X170547453Y-92820425D01*
X170666503Y-92869737D01*
X170821153Y-92900499D01*
X170821156Y-92900500D01*
X170821158Y-92900500D01*
X170978844Y-92900500D01*
X170978845Y-92900499D01*
X171133497Y-92869737D01*
X171279179Y-92809394D01*
X171410289Y-92721789D01*
X171521789Y-92610289D01*
X171609394Y-92479179D01*
X171669737Y-92333497D01*
X171700500Y-92178842D01*
X171700500Y-92021158D01*
X171700500Y-92021155D01*
X171700499Y-92021153D01*
X171686445Y-91950500D01*
X171669737Y-91866503D01*
X171639753Y-91794114D01*
X171609397Y-91720827D01*
X171609394Y-91720822D01*
X171609394Y-91720821D01*
X171608103Y-91718889D01*
X171607737Y-91717723D01*
X171606525Y-91715454D01*
X171606955Y-91715223D01*
X171587226Y-91652214D01*
X171605710Y-91584834D01*
X171608100Y-91581115D01*
X171609394Y-91579179D01*
X171612719Y-91571153D01*
X171627737Y-91534895D01*
X171669737Y-91433497D01*
X171700500Y-91278842D01*
X171700500Y-91121158D01*
X171700500Y-91121155D01*
X171700499Y-91121153D01*
X171682012Y-91028213D01*
X171669737Y-90966503D01*
X171669735Y-90966498D01*
X171609397Y-90820827D01*
X171609390Y-90820814D01*
X171521789Y-90689711D01*
X171521786Y-90689707D01*
X171410292Y-90578213D01*
X171410288Y-90578210D01*
X171279185Y-90490609D01*
X171279172Y-90490602D01*
X171133501Y-90430264D01*
X171133489Y-90430261D01*
X170978845Y-90399500D01*
X170978842Y-90399500D01*
X170821158Y-90399500D01*
X170821155Y-90399500D01*
X170666510Y-90430261D01*
X170666498Y-90430264D01*
X170547452Y-90479574D01*
X170477982Y-90487043D01*
X170452548Y-90479574D01*
X170333501Y-90430264D01*
X170333489Y-90430261D01*
X170178845Y-90399500D01*
X170178842Y-90399500D01*
X170021158Y-90399500D01*
X170021155Y-90399500D01*
X169866510Y-90430261D01*
X169866498Y-90430264D01*
X169720827Y-90490602D01*
X169720814Y-90490609D01*
X169589711Y-90578210D01*
X169589707Y-90578213D01*
X169478213Y-90689707D01*
X169478210Y-90689711D01*
X169390609Y-90820814D01*
X169390602Y-90820827D01*
X169330264Y-90966498D01*
X169330261Y-90966510D01*
X169299500Y-91121153D01*
X168103232Y-91121153D01*
X168010292Y-91028213D01*
X168010288Y-91028210D01*
X167879185Y-90940609D01*
X167879172Y-90940602D01*
X167733501Y-90880264D01*
X167733489Y-90880261D01*
X167578845Y-90849500D01*
X167578842Y-90849500D01*
X167421158Y-90849500D01*
X167421155Y-90849500D01*
X167266510Y-90880261D01*
X167266498Y-90880264D01*
X167120827Y-90940602D01*
X167120814Y-90940609D01*
X166989711Y-91028210D01*
X166989707Y-91028213D01*
X166878213Y-91139707D01*
X166878210Y-91139711D01*
X166790609Y-91270814D01*
X166790602Y-91270827D01*
X166730264Y-91416498D01*
X166730261Y-91416510D01*
X166699500Y-91571153D01*
X153218992Y-91571153D01*
X153306518Y-91534899D01*
X153437628Y-91447294D01*
X153549128Y-91335794D01*
X153636733Y-91204684D01*
X153697076Y-91059002D01*
X153727839Y-90904347D01*
X153727839Y-90746663D01*
X153727839Y-90746660D01*
X153727838Y-90746658D01*
X153716510Y-90689707D01*
X153697076Y-90592008D01*
X153690619Y-90576420D01*
X153636736Y-90446332D01*
X153636729Y-90446319D01*
X153549128Y-90315216D01*
X153549125Y-90315212D01*
X153437631Y-90203718D01*
X153437627Y-90203715D01*
X153306524Y-90116114D01*
X153306511Y-90116107D01*
X153160840Y-90055769D01*
X153160828Y-90055766D01*
X153006184Y-90025005D01*
X153006181Y-90025005D01*
X152848497Y-90025005D01*
X152848494Y-90025005D01*
X152693849Y-90055766D01*
X152693837Y-90055769D01*
X152548166Y-90116107D01*
X152548153Y-90116114D01*
X152417050Y-90203715D01*
X152417046Y-90203718D01*
X152305552Y-90315212D01*
X152305549Y-90315216D01*
X152217948Y-90446319D01*
X152217941Y-90446332D01*
X152157603Y-90592003D01*
X152157600Y-90592015D01*
X152126839Y-90746658D01*
X123432315Y-90746658D01*
X123391545Y-90705888D01*
X123391541Y-90705885D01*
X123276817Y-90629228D01*
X123276804Y-90629221D01*
X123149332Y-90576421D01*
X123149322Y-90576418D01*
X123013995Y-90549500D01*
X123013993Y-90549500D01*
X122876007Y-90549500D01*
X122876005Y-90549500D01*
X122740677Y-90576418D01*
X122740667Y-90576421D01*
X122613195Y-90629221D01*
X122613182Y-90629228D01*
X122498458Y-90705885D01*
X122498454Y-90705888D01*
X122400888Y-90803454D01*
X122400885Y-90803458D01*
X122324228Y-90918182D01*
X122324221Y-90918195D01*
X122271421Y-91045667D01*
X122271418Y-91045677D01*
X122244500Y-91181004D01*
X122244500Y-91181007D01*
X122244500Y-91318993D01*
X122244500Y-91318995D01*
X122244499Y-91318995D01*
X121275500Y-91318995D01*
X121275500Y-81708729D01*
X121295185Y-81641690D01*
X121347989Y-81595935D01*
X121417147Y-81585991D01*
X121480703Y-81615016D01*
X121518477Y-81673794D01*
X121521616Y-81687197D01*
X121550410Y-81850499D01*
X121583826Y-82040008D01*
X121593604Y-82076500D01*
X121692316Y-82444902D01*
X121692319Y-82444912D01*
X121692320Y-82444913D01*
X121835691Y-82838822D01*
X121835694Y-82838829D01*
X121835695Y-82838831D01*
X121835698Y-82838839D01*
X122012843Y-83218726D01*
X122012848Y-83218736D01*
X122222443Y-83581764D01*
X122222447Y-83581770D01*
X122222454Y-83581781D01*
X122462879Y-83925144D01*
X122657640Y-84157249D01*
X122732329Y-84246260D01*
X123028740Y-84542671D01*
X123162255Y-84654704D01*
X123349855Y-84812120D01*
X123693218Y-85052545D01*
X123693225Y-85052549D01*
X123693236Y-85052557D01*
X124056264Y-85262152D01*
X124056273Y-85262156D01*
X124436160Y-85439301D01*
X124436164Y-85439302D01*
X124436178Y-85439309D01*
X124830087Y-85582680D01*
X124830093Y-85582681D01*
X124830097Y-85582683D01*
X124940359Y-85612227D01*
X125234992Y-85691174D01*
X125647812Y-85763965D01*
X126065404Y-85800499D01*
X126065405Y-85800500D01*
X126065406Y-85800500D01*
X126484595Y-85800500D01*
X126484595Y-85800499D01*
X126902188Y-85763965D01*
X127315008Y-85691174D01*
X127719913Y-85582680D01*
X128113822Y-85439309D01*
X128493736Y-85262152D01*
X128856764Y-85052557D01*
X129200143Y-84812121D01*
X129521260Y-84542671D01*
X129817671Y-84246260D01*
X130087121Y-83925143D01*
X130327557Y-83581764D01*
X130537152Y-83218736D01*
X130714309Y-82838822D01*
X130857680Y-82444913D01*
X130966174Y-82040008D01*
X131038965Y-81627188D01*
X131075500Y-81209594D01*
X131075500Y-80915272D01*
X131697500Y-80915272D01*
X131697500Y-81084727D01*
X131724007Y-81252082D01*
X131776366Y-81413230D01*
X131776367Y-81413233D01*
X131832824Y-81524034D01*
X131853294Y-81564209D01*
X131952892Y-81701293D01*
X132072707Y-81821108D01*
X132209791Y-81920706D01*
X132283840Y-81958435D01*
X132360766Y-81997632D01*
X132360769Y-81997633D01*
X132441343Y-82023812D01*
X132521919Y-82049993D01*
X132599429Y-82062269D01*
X132689273Y-82076500D01*
X132689278Y-82076500D01*
X132858727Y-82076500D01*
X132939858Y-82063649D01*
X133026081Y-82049993D01*
X133187233Y-81997632D01*
X133338209Y-81920706D01*
X133475293Y-81821108D01*
X133595108Y-81701293D01*
X133694706Y-81564209D01*
X133771632Y-81413233D01*
X133823993Y-81252081D01*
X133837649Y-81165858D01*
X133850500Y-81084727D01*
X133850500Y-80915272D01*
X133830722Y-80790405D01*
X133823993Y-80747919D01*
X133771632Y-80586767D01*
X133771632Y-80586766D01*
X133694705Y-80435789D01*
X133689121Y-80428104D01*
X133689120Y-80428103D01*
X133640588Y-80361304D01*
X138249500Y-80361304D01*
X138249500Y-81038695D01*
X138284103Y-81212658D01*
X138284106Y-81212667D01*
X138351983Y-81376540D01*
X138351990Y-81376553D01*
X138450535Y-81524034D01*
X138450538Y-81524038D01*
X138575961Y-81649461D01*
X138575965Y-81649464D01*
X138723446Y-81748009D01*
X138723459Y-81748016D01*
X138832106Y-81793018D01*
X138887334Y-81815894D01*
X138887336Y-81815894D01*
X138887341Y-81815896D01*
X139061304Y-81850499D01*
X139061307Y-81850500D01*
X139061309Y-81850500D01*
X139238693Y-81850500D01*
X139238694Y-81850499D01*
X139296682Y-81838964D01*
X139412658Y-81815896D01*
X139412661Y-81815894D01*
X139412666Y-81815894D01*
X139576547Y-81748013D01*
X139706109Y-81661442D01*
X139772786Y-81640564D01*
X139840166Y-81659048D01*
X139843891Y-81661442D01*
X139909188Y-81705072D01*
X139973453Y-81748013D01*
X139973455Y-81748014D01*
X139973459Y-81748016D01*
X140082106Y-81793018D01*
X140137334Y-81815894D01*
X140137336Y-81815894D01*
X140137341Y-81815896D01*
X140311304Y-81850499D01*
X140311307Y-81850500D01*
X140311309Y-81850500D01*
X140488693Y-81850500D01*
X140488694Y-81850499D01*
X140546682Y-81838964D01*
X140662658Y-81815896D01*
X140662661Y-81815894D01*
X140662666Y-81815894D01*
X140826547Y-81748013D01*
X140956109Y-81661442D01*
X141022786Y-81640564D01*
X141090166Y-81659048D01*
X141093891Y-81661442D01*
X141159188Y-81705072D01*
X141223453Y-81748013D01*
X141223455Y-81748014D01*
X141223459Y-81748016D01*
X141332106Y-81793018D01*
X141387334Y-81815894D01*
X141387336Y-81815894D01*
X141387341Y-81815896D01*
X141561304Y-81850499D01*
X141561307Y-81850500D01*
X141561309Y-81850500D01*
X141738693Y-81850500D01*
X141738694Y-81850499D01*
X141796682Y-81838964D01*
X141912658Y-81815896D01*
X141912661Y-81815894D01*
X141912666Y-81815894D01*
X142076547Y-81748013D01*
X142134298Y-81709424D01*
X142200970Y-81688547D01*
X142267336Y-81706410D01*
X142410604Y-81793019D01*
X142410603Y-81793019D01*
X142572894Y-81843590D01*
X142572893Y-81843590D01*
X142643408Y-81849998D01*
X142643426Y-81849999D01*
X143150000Y-81849999D01*
X143156581Y-81849999D01*
X143227102Y-81843591D01*
X143227107Y-81843590D01*
X143389396Y-81793018D01*
X143534877Y-81705072D01*
X143655072Y-81584877D01*
X143743019Y-81439395D01*
X143793590Y-81277106D01*
X143800000Y-81206572D01*
X143800000Y-80950000D01*
X143150000Y-80950000D01*
X143150000Y-81849999D01*
X142643426Y-81849999D01*
X142649999Y-81849998D01*
X142650000Y-81849998D01*
X142650000Y-80749728D01*
X142688060Y-80841614D01*
X142758386Y-80911940D01*
X142850272Y-80950000D01*
X142949728Y-80950000D01*
X143041614Y-80911940D01*
X143111940Y-80841614D01*
X143150000Y-80749728D01*
X143150000Y-80650272D01*
X143111940Y-80558386D01*
X143041614Y-80488060D01*
X142949728Y-80450000D01*
X143150000Y-80450000D01*
X143799999Y-80450000D01*
X143799999Y-80221153D01*
X159299500Y-80221153D01*
X159299500Y-80378846D01*
X159330261Y-80533489D01*
X159330264Y-80533501D01*
X159390602Y-80679172D01*
X159390609Y-80679185D01*
X159478210Y-80810288D01*
X159478213Y-80810292D01*
X159589707Y-80921786D01*
X159589711Y-80921789D01*
X159720814Y-81009390D01*
X159720827Y-81009397D01*
X159866498Y-81069735D01*
X159866503Y-81069737D01*
X160021153Y-81100499D01*
X160021156Y-81100500D01*
X160021158Y-81100500D01*
X160178844Y-81100500D01*
X160178845Y-81100499D01*
X160333497Y-81069737D01*
X160479179Y-81009394D01*
X160610289Y-80921789D01*
X160616806Y-80915272D01*
X163973500Y-80915272D01*
X163973500Y-81084727D01*
X164000007Y-81252082D01*
X164052366Y-81413230D01*
X164052367Y-81413233D01*
X164108824Y-81524034D01*
X164129294Y-81564209D01*
X164228892Y-81701293D01*
X164348707Y-81821108D01*
X164485791Y-81920706D01*
X164559840Y-81958435D01*
X164636766Y-81997632D01*
X164636769Y-81997633D01*
X164717343Y-82023812D01*
X164797919Y-82049993D01*
X164875429Y-82062269D01*
X164965273Y-82076500D01*
X164965278Y-82076500D01*
X165134727Y-82076500D01*
X165215858Y-82063649D01*
X165302081Y-82049993D01*
X165463233Y-81997632D01*
X165614209Y-81920706D01*
X165751293Y-81821108D01*
X165871108Y-81701293D01*
X165970706Y-81564209D01*
X166047632Y-81413233D01*
X166099993Y-81252081D01*
X166113649Y-81165858D01*
X166126500Y-81084727D01*
X166126500Y-80915272D01*
X166106722Y-80790405D01*
X166099993Y-80747919D01*
X166047632Y-80586767D01*
X166047632Y-80586766D01*
X165997338Y-80488060D01*
X165970706Y-80435791D01*
X165871108Y-80298707D01*
X165751293Y-80178892D01*
X165614209Y-80079294D01*
X165589119Y-80066510D01*
X165463233Y-80002367D01*
X165463230Y-80002366D01*
X165302082Y-79950007D01*
X165134727Y-79923500D01*
X165134722Y-79923500D01*
X164965278Y-79923500D01*
X164965273Y-79923500D01*
X164797917Y-79950007D01*
X164636769Y-80002366D01*
X164636766Y-80002367D01*
X164485790Y-80079294D01*
X164348705Y-80178893D01*
X164228893Y-80298705D01*
X164129294Y-80435790D01*
X164052367Y-80586766D01*
X164052366Y-80586769D01*
X164000007Y-80747917D01*
X163973500Y-80915272D01*
X160616806Y-80915272D01*
X160620138Y-80911940D01*
X160709354Y-80822725D01*
X160721786Y-80810292D01*
X160721789Y-80810289D01*
X160809394Y-80679179D01*
X160869737Y-80533497D01*
X160900500Y-80378842D01*
X160900500Y-80221158D01*
X160900500Y-80221155D01*
X160900499Y-80221153D01*
X160893772Y-80187334D01*
X160869737Y-80066503D01*
X160851905Y-80023453D01*
X160809397Y-79920827D01*
X160809390Y-79920814D01*
X160721789Y-79789711D01*
X160721786Y-79789707D01*
X160610292Y-79678213D01*
X160610288Y-79678210D01*
X160479185Y-79590609D01*
X160479172Y-79590602D01*
X160333501Y-79530264D01*
X160333489Y-79530261D01*
X160178845Y-79499500D01*
X160178842Y-79499500D01*
X160021158Y-79499500D01*
X160021155Y-79499500D01*
X159866510Y-79530261D01*
X159866498Y-79530264D01*
X159720827Y-79590602D01*
X159720814Y-79590609D01*
X159589711Y-79678210D01*
X159589707Y-79678213D01*
X159478213Y-79789707D01*
X159478210Y-79789711D01*
X159390609Y-79920814D01*
X159390602Y-79920827D01*
X159330264Y-80066498D01*
X159330261Y-80066510D01*
X159299500Y-80221153D01*
X143799999Y-80221153D01*
X143799999Y-80193417D01*
X143793591Y-80122897D01*
X143793590Y-80122892D01*
X143743018Y-79960603D01*
X143655072Y-79815122D01*
X143534877Y-79694927D01*
X143389395Y-79606980D01*
X143389396Y-79606980D01*
X143227105Y-79556409D01*
X143227106Y-79556409D01*
X143156572Y-79550000D01*
X143150000Y-79550000D01*
X143150000Y-80450000D01*
X142949728Y-80450000D01*
X142850272Y-80450000D01*
X142758386Y-80488060D01*
X142688060Y-80558386D01*
X142650000Y-80650272D01*
X142650000Y-79550000D01*
X142649999Y-79549999D01*
X142643436Y-79550000D01*
X142643417Y-79550001D01*
X142572897Y-79556408D01*
X142572892Y-79556409D01*
X142410601Y-79606981D01*
X142410599Y-79606982D01*
X142267334Y-79693588D01*
X142199779Y-79711424D01*
X142134295Y-79690573D01*
X142076547Y-79651987D01*
X142076544Y-79651985D01*
X142076543Y-79651985D01*
X142076542Y-79651984D01*
X141912667Y-79584106D01*
X141912658Y-79584103D01*
X141738694Y-79549500D01*
X141738691Y-79549500D01*
X141561309Y-79549500D01*
X141561306Y-79549500D01*
X141387341Y-79584103D01*
X141387332Y-79584106D01*
X141223459Y-79651983D01*
X141223446Y-79651990D01*
X141093891Y-79738557D01*
X141027213Y-79759435D01*
X140959833Y-79740950D01*
X140956109Y-79738557D01*
X140826553Y-79651990D01*
X140826540Y-79651983D01*
X140662667Y-79584106D01*
X140662658Y-79584103D01*
X140488694Y-79549500D01*
X140488691Y-79549500D01*
X140311309Y-79549500D01*
X140311306Y-79549500D01*
X140137341Y-79584103D01*
X140137332Y-79584106D01*
X139973459Y-79651983D01*
X139973446Y-79651990D01*
X139843891Y-79738557D01*
X139777213Y-79759435D01*
X139709833Y-79740950D01*
X139706109Y-79738557D01*
X139576553Y-79651990D01*
X139576540Y-79651983D01*
X139412667Y-79584106D01*
X139412658Y-79584103D01*
X139238694Y-79549500D01*
X139238691Y-79549500D01*
X139061309Y-79549500D01*
X139061306Y-79549500D01*
X138887341Y-79584103D01*
X138887332Y-79584106D01*
X138723459Y-79651983D01*
X138723446Y-79651990D01*
X138575965Y-79750535D01*
X138575961Y-79750538D01*
X138450538Y-79875961D01*
X138450535Y-79875965D01*
X138351990Y-80023446D01*
X138351983Y-80023459D01*
X138284106Y-80187332D01*
X138284103Y-80187341D01*
X138249500Y-80361304D01*
X133640588Y-80361304D01*
X133595108Y-80298707D01*
X133475293Y-80178892D01*
X133338209Y-80079294D01*
X133313119Y-80066510D01*
X133187233Y-80002367D01*
X133187230Y-80002366D01*
X133026082Y-79950007D01*
X132858727Y-79923500D01*
X132858722Y-79923500D01*
X132689278Y-79923500D01*
X132689273Y-79923500D01*
X132521917Y-79950007D01*
X132360769Y-80002366D01*
X132360766Y-80002367D01*
X132209790Y-80079294D01*
X132072705Y-80178893D01*
X131952893Y-80298705D01*
X131853294Y-80435790D01*
X131776367Y-80586766D01*
X131776366Y-80586769D01*
X131724007Y-80747917D01*
X131697500Y-80915272D01*
X131075500Y-80915272D01*
X131075500Y-80790406D01*
X131038965Y-80372812D01*
X130966174Y-79959992D01*
X130883644Y-79651985D01*
X130857683Y-79555097D01*
X130857681Y-79555093D01*
X130857680Y-79555087D01*
X130714309Y-79161178D01*
X130537152Y-78781264D01*
X130327557Y-78418236D01*
X130327549Y-78418225D01*
X130327545Y-78418218D01*
X130087120Y-78074855D01*
X129817668Y-77753737D01*
X129521262Y-77457331D01*
X129200144Y-77187879D01*
X128856781Y-76947454D01*
X128856770Y-76947447D01*
X128856764Y-76947443D01*
X128626650Y-76814586D01*
X128493742Y-76737851D01*
X128493726Y-76737843D01*
X128113839Y-76560698D01*
X128113831Y-76560695D01*
X128113829Y-76560694D01*
X128113822Y-76560691D01*
X127719913Y-76417320D01*
X127719912Y-76417319D01*
X127719902Y-76417316D01*
X127315015Y-76308828D01*
X127315018Y-76308828D01*
X127315008Y-76308826D01*
X127315002Y-76308824D01*
X127314998Y-76308824D01*
X126962197Y-76246616D01*
X126899594Y-76215589D01*
X126863703Y-76155642D01*
X126865920Y-76085808D01*
X126905540Y-76028258D01*
X126969985Y-76001264D01*
X126983729Y-76000500D01*
X146652243Y-76000500D01*
X146719282Y-76020185D01*
G37*
%TD.AperFunction*%
%TD*%
M02*
