%TF.GenerationSoftware,KiCad,Pcbnew,9.0.5*%
%TF.CreationDate,2026-04-05T14:36:21-05:00*%
%TF.ProjectId,STM32F4_Starter_Board,53544d33-3246-4345-9f53-746172746572,rev?*%
%TF.SameCoordinates,Original*%
%TF.FileFunction,Copper,L1,Top*%
%TF.FilePolarity,Positive*%
%FSLAX46Y46*%
G04 Gerber Fmt 4.6, Leading zero omitted, Abs format (unit mm)*
G04 Created by KiCad (PCBNEW 9.0.5) date 2026-04-05 14:36:21*
%MOMM*%
%LPD*%
G01*
G04 APERTURE LIST*
G04 Aperture macros list*
%AMRoundRect*
0 Rectangle with rounded corners*
0 $1 Rounding radius*
0 $2 $3 $4 $5 $6 $7 $8 $9 X,Y pos of 4 corners*
0 Add a 4 corners polygon primitive as box body*
4,1,4,$2,$3,$4,$5,$6,$7,$8,$9,$2,$3,0*
0 Add four circle primitives for the rounded corners*
1,1,$1+$1,$2,$3*
1,1,$1+$1,$4,$5*
1,1,$1+$1,$6,$7*
1,1,$1+$1,$8,$9*
0 Add four rect primitives between the rounded corners*
20,1,$1+$1,$2,$3,$4,$5,0*
20,1,$1+$1,$4,$5,$6,$7,0*
20,1,$1+$1,$6,$7,$8,$9,0*
20,1,$1+$1,$8,$9,$2,$3,0*%
G04 Aperture macros list end*
%TA.AperFunction,SMDPad,CuDef*%
%ADD10R,0.740000X2.400000*%
%TD*%
%TA.AperFunction,SMDPad,CuDef*%
%ADD11R,1.500000X0.700000*%
%TD*%
%TA.AperFunction,SMDPad,CuDef*%
%ADD12R,0.800000X1.000000*%
%TD*%
%TA.AperFunction,SMDPad,CuDef*%
%ADD13RoundRect,0.147500X0.172500X-0.147500X0.172500X0.147500X-0.172500X0.147500X-0.172500X-0.147500X0*%
%TD*%
%TA.AperFunction,SMDPad,CuDef*%
%ADD14RoundRect,0.135000X-0.185000X0.135000X-0.185000X-0.135000X0.185000X-0.135000X0.185000X0.135000X0*%
%TD*%
%TA.AperFunction,SMDPad,CuDef*%
%ADD15RoundRect,0.200000X0.275000X-0.200000X0.275000X0.200000X-0.275000X0.200000X-0.275000X-0.200000X0*%
%TD*%
%TA.AperFunction,SMDPad,CuDef*%
%ADD16RoundRect,0.200000X0.200000X0.275000X-0.200000X0.275000X-0.200000X-0.275000X0.200000X-0.275000X0*%
%TD*%
%TA.AperFunction,SMDPad,CuDef*%
%ADD17R,1.380000X0.450000*%
%TD*%
%TA.AperFunction,SMDPad,CuDef*%
%ADD18R,1.300000X1.650000*%
%TD*%
%TA.AperFunction,SMDPad,CuDef*%
%ADD19R,1.550000X1.425000*%
%TD*%
%TA.AperFunction,SMDPad,CuDef*%
%ADD20R,1.900000X1.800000*%
%TD*%
%TA.AperFunction,SMDPad,CuDef*%
%ADD21R,1.900000X1.000000*%
%TD*%
%TA.AperFunction,SMDPad,CuDef*%
%ADD22RoundRect,0.250000X-0.625000X0.375000X-0.625000X-0.375000X0.625000X-0.375000X0.625000X0.375000X0*%
%TD*%
%TA.AperFunction,SMDPad,CuDef*%
%ADD23RoundRect,0.218750X0.381250X-0.218750X0.381250X0.218750X-0.381250X0.218750X-0.381250X-0.218750X0*%
%TD*%
%TA.AperFunction,SMDPad,CuDef*%
%ADD24RoundRect,0.150000X-0.150000X0.587500X-0.150000X-0.587500X0.150000X-0.587500X0.150000X0.587500X0*%
%TD*%
%TA.AperFunction,ComponentPad*%
%ADD25C,0.900000*%
%TD*%
%TA.AperFunction,ComponentPad*%
%ADD26C,8.600000*%
%TD*%
%TA.AperFunction,SMDPad,CuDef*%
%ADD27RoundRect,0.140000X-0.140000X-0.170000X0.140000X-0.170000X0.140000X0.170000X-0.140000X0.170000X0*%
%TD*%
%TA.AperFunction,SMDPad,CuDef*%
%ADD28RoundRect,0.225000X0.375000X-0.225000X0.375000X0.225000X-0.375000X0.225000X-0.375000X-0.225000X0*%
%TD*%
%TA.AperFunction,SMDPad,CuDef*%
%ADD29RoundRect,0.150000X0.512500X0.150000X-0.512500X0.150000X-0.512500X-0.150000X0.512500X-0.150000X0*%
%TD*%
%TA.AperFunction,SMDPad,CuDef*%
%ADD30RoundRect,0.140000X-0.170000X0.140000X-0.170000X-0.140000X0.170000X-0.140000X0.170000X0.140000X0*%
%TD*%
%TA.AperFunction,SMDPad,CuDef*%
%ADD31RoundRect,0.200000X-0.275000X0.200000X-0.275000X-0.200000X0.275000X-0.200000X0.275000X0.200000X0*%
%TD*%
%TA.AperFunction,SMDPad,CuDef*%
%ADD32RoundRect,0.140000X0.140000X0.170000X-0.140000X0.170000X-0.140000X-0.170000X0.140000X-0.170000X0*%
%TD*%
%TA.AperFunction,SMDPad,CuDef*%
%ADD33RoundRect,0.135000X-0.135000X-0.185000X0.135000X-0.185000X0.135000X0.185000X-0.135000X0.185000X0*%
%TD*%
%TA.AperFunction,SMDPad,CuDef*%
%ADD34RoundRect,0.135000X0.135000X0.185000X-0.135000X0.185000X-0.135000X-0.185000X0.135000X-0.185000X0*%
%TD*%
%TA.AperFunction,SMDPad,CuDef*%
%ADD35RoundRect,0.250000X0.375000X0.625000X-0.375000X0.625000X-0.375000X-0.625000X0.375000X-0.625000X0*%
%TD*%
%TA.AperFunction,SMDPad,CuDef*%
%ADD36RoundRect,0.218750X-0.218750X-0.256250X0.218750X-0.256250X0.218750X0.256250X-0.218750X0.256250X0*%
%TD*%
%TA.AperFunction,SMDPad,CuDef*%
%ADD37RoundRect,0.200000X-0.200000X-0.275000X0.200000X-0.275000X0.200000X0.275000X-0.200000X0.275000X0*%
%TD*%
%TA.AperFunction,SMDPad,CuDef*%
%ADD38RoundRect,0.135000X0.185000X-0.135000X0.185000X0.135000X-0.185000X0.135000X-0.185000X-0.135000X0*%
%TD*%
%TA.AperFunction,SMDPad,CuDef*%
%ADD39RoundRect,0.250000X0.625000X-0.375000X0.625000X0.375000X-0.625000X0.375000X-0.625000X-0.375000X0*%
%TD*%
%TA.AperFunction,SMDPad,CuDef*%
%ADD40RoundRect,0.225000X-0.250000X0.225000X-0.250000X-0.225000X0.250000X-0.225000X0.250000X0.225000X0*%
%TD*%
%TA.AperFunction,SMDPad,CuDef*%
%ADD41RoundRect,0.225000X0.250000X-0.225000X0.250000X0.225000X-0.250000X0.225000X-0.250000X-0.225000X0*%
%TD*%
%TA.AperFunction,ComponentPad*%
%ADD42RoundRect,0.200000X-0.200000X-0.450000X0.200000X-0.450000X0.200000X0.450000X-0.200000X0.450000X0*%
%TD*%
%TA.AperFunction,ComponentPad*%
%ADD43O,0.800000X1.300000*%
%TD*%
%TA.AperFunction,ComponentPad*%
%ADD44RoundRect,0.250001X0.949999X-0.949999X0.949999X0.949999X-0.949999X0.949999X-0.949999X-0.949999X0*%
%TD*%
%TA.AperFunction,ComponentPad*%
%ADD45C,2.400000*%
%TD*%
%TA.AperFunction,SMDPad,CuDef*%
%ADD46RoundRect,0.225000X-0.225000X-0.375000X0.225000X-0.375000X0.225000X0.375000X-0.225000X0.375000X0*%
%TD*%
%TA.AperFunction,SMDPad,CuDef*%
%ADD47RoundRect,0.140000X0.170000X-0.140000X0.170000X0.140000X-0.170000X0.140000X-0.170000X-0.140000X0*%
%TD*%
%TA.AperFunction,SMDPad,CuDef*%
%ADD48RoundRect,0.075000X-0.700000X-0.075000X0.700000X-0.075000X0.700000X0.075000X-0.700000X0.075000X0*%
%TD*%
%TA.AperFunction,SMDPad,CuDef*%
%ADD49RoundRect,0.075000X-0.075000X-0.700000X0.075000X-0.700000X0.075000X0.700000X-0.075000X0.700000X0*%
%TD*%
%TA.AperFunction,ComponentPad*%
%ADD50RoundRect,0.200000X0.200000X0.450000X-0.200000X0.450000X-0.200000X-0.450000X0.200000X-0.450000X0*%
%TD*%
%TA.AperFunction,SMDPad,CuDef*%
%ADD51RoundRect,0.225000X-0.225000X-0.250000X0.225000X-0.250000X0.225000X0.250000X-0.225000X0.250000X0*%
%TD*%
%TA.AperFunction,SMDPad,CuDef*%
%ADD52RoundRect,0.250000X-1.000000X0.700000X-1.000000X-0.700000X1.000000X-0.700000X1.000000X0.700000X0*%
%TD*%
%TA.AperFunction,SMDPad,CuDef*%
%ADD53RoundRect,0.250000X-0.350000X0.450000X-0.350000X-0.450000X0.350000X-0.450000X0.350000X0.450000X0*%
%TD*%
%TA.AperFunction,SMDPad,CuDef*%
%ADD54RoundRect,0.250000X-0.375000X-0.625000X0.375000X-0.625000X0.375000X0.625000X-0.375000X0.625000X0*%
%TD*%
%TA.AperFunction,SMDPad,CuDef*%
%ADD55RoundRect,0.218750X0.218750X0.256250X-0.218750X0.256250X-0.218750X-0.256250X0.218750X-0.256250X0*%
%TD*%
%TA.AperFunction,ViaPad*%
%ADD56C,0.600000*%
%TD*%
%TA.AperFunction,Conductor*%
%ADD57C,0.300000*%
%TD*%
%TA.AperFunction,Conductor*%
%ADD58C,0.200000*%
%TD*%
%TA.AperFunction,Conductor*%
%ADD59C,0.500000*%
%TD*%
%TA.AperFunction,Conductor*%
%ADD60C,0.750000*%
%TD*%
%TA.AperFunction,Conductor*%
%ADD61C,1.000000*%
%TD*%
%TA.AperFunction,Conductor*%
%ADD62C,0.400000*%
%TD*%
%TA.AperFunction,Conductor*%
%ADD63C,0.267208*%
%TD*%
G04 APERTURE END LIST*
D10*
%TO.P,J2,1,Pin_1*%
%TO.N,+3.3V*%
X152640000Y-78100000D03*
%TO.P,J2,2,Pin_2*%
%TO.N,Net-(J2-Pin_2)*%
X152640000Y-82000000D03*
%TO.P,J2,3,Pin_3*%
%TO.N,GND*%
X151370000Y-78100000D03*
%TO.P,J2,4,Pin_4*%
%TO.N,Net-(J2-Pin_4)*%
X151370000Y-82000000D03*
%TO.P,J2,5,Pin_5*%
%TO.N,GND*%
X150100000Y-78100000D03*
%TO.P,J2,6,Pin_6*%
%TO.N,Net-(J2-Pin_6)*%
X150100000Y-82000000D03*
%TO.P,J2,7,Pin_7*%
%TO.N,unconnected-(J2-Pin_7-Pad7)*%
X148830000Y-78100000D03*
%TO.P,J2,8,Pin_8*%
%TO.N,unconnected-(J2-Pin_8-Pad8)*%
X148830000Y-82000000D03*
%TO.P,J2,9,Pin_9*%
%TO.N,GND*%
X147560000Y-78100000D03*
%TO.P,J2,10,Pin_10*%
%TO.N,Net-(J2-Pin_10)*%
X147560000Y-82000000D03*
%TD*%
D11*
%TO.P,SW1,3,C*%
%TO.N,GND*%
X124705000Y-95000000D03*
%TO.P,SW1,2,B*%
%TO.N,Net-(SW1-B)*%
X124705000Y-93500000D03*
%TO.P,SW1,1,A*%
%TO.N,+3.3V*%
X124705000Y-90500000D03*
D12*
%TO.P,SW1,*%
%TO.N,*%
X121845000Y-96400000D03*
X124055000Y-96400000D03*
X121845000Y-89100000D03*
X124055000Y-89100000D03*
%TD*%
D13*
%TO.P,L1,1*%
%TO.N,+3.3V*%
X133825000Y-109385000D03*
%TO.P,L1,2*%
%TO.N,+3.3VA*%
X133825000Y-108415000D03*
%TD*%
D14*
%TO.P,R15,1*%
%TO.N,Net-(J3-Pin_2)*%
X141775000Y-87490000D03*
%TO.P,R15,2*%
%TO.N,I2C1_SCL*%
X141775000Y-88510000D03*
%TD*%
D15*
%TO.P,R5,1*%
%TO.N,GND*%
X155775000Y-107575000D03*
%TO.P,R5,2*%
%TO.N,BUCK_EN*%
X155775000Y-105925000D03*
%TD*%
D16*
%TO.P,R7,1*%
%TO.N,Net-(R7-Pad1)*%
X166350000Y-110750000D03*
%TO.P,R7,2*%
%TO.N,BUCK_FB*%
X164700000Y-110750000D03*
%TD*%
D17*
%TO.P,J5,1,VBUS*%
%TO.N,+5V*%
X172115000Y-94675000D03*
%TO.P,J5,2,D-*%
%TO.N,USB_CONN_D-*%
X172115000Y-94025000D03*
%TO.P,J5,3,D+*%
%TO.N,USB_CONN_D+*%
X172115000Y-93375000D03*
%TO.P,J5,4,ID*%
%TO.N,unconnected-(J5-ID-Pad4)*%
X172115000Y-92725000D03*
%TO.P,J5,5,GND*%
%TO.N,GND*%
X172115000Y-92075000D03*
D18*
%TO.P,J5,6,Shield*%
%TO.N,unconnected-(J5-Shield-Pad6)*%
X174775000Y-96750000D03*
D19*
%TO.N,unconnected-(J5-Shield-Pad6)_5*%
X172200000Y-95862500D03*
D20*
%TO.N,unconnected-(J5-Shield-Pad6)_1*%
X174775000Y-94525000D03*
D21*
%TO.N,unconnected-(J5-Shield-Pad6)_3*%
X174775000Y-91825000D03*
D19*
%TO.N,unconnected-(J5-Shield-Pad6)_2*%
X172200000Y-90887500D03*
D18*
%TO.N,unconnected-(J5-Shield-Pad6)_4*%
X174775000Y-90000000D03*
%TD*%
D22*
%TO.P,C16,1*%
%TO.N,+3.3V*%
X154025000Y-119100000D03*
%TO.P,C16,2*%
%TO.N,GND*%
X154025000Y-121900000D03*
%TD*%
D23*
%TO.P,FB1,1*%
%TO.N,BUCK_IN*%
X160025000Y-101875000D03*
%TO.P,FB1,2*%
%TO.N,Net-(F1-Pad2)*%
X160025000Y-99750000D03*
%TD*%
D24*
%TO.P,Q1,1,G*%
%TO.N,GND*%
X166725000Y-105062500D03*
%TO.P,Q1,2,S*%
%TO.N,Net-(D3-K)*%
X164825000Y-105062500D03*
%TO.P,Q1,3,D*%
%TO.N,+12V*%
X165775000Y-106937500D03*
%TD*%
D25*
%TO.P,H4,1,1*%
%TO.N,GND*%
X123050000Y-81000000D03*
X123994581Y-78719581D03*
X123994581Y-83280419D03*
X126275000Y-77775000D03*
D26*
X126275000Y-81000000D03*
D25*
X126275000Y-84225000D03*
X128555419Y-78719581D03*
X128555419Y-83280419D03*
X129500000Y-81000000D03*
%TD*%
D27*
%TO.P,C11,1*%
%TO.N,HSE_IN*%
X128845000Y-98650000D03*
%TO.P,C11,2*%
%TO.N,GND*%
X129805000Y-98650000D03*
%TD*%
D28*
%TO.P,D3,1,K*%
%TO.N,Net-(D3-K)*%
X164775000Y-102900000D03*
%TO.P,D3,2,A*%
%TO.N,+5V*%
X164775000Y-99600000D03*
%TD*%
D29*
%TO.P,U3,1,I/O1*%
%TO.N,USB_CONN_D-*%
X168637500Y-94650000D03*
%TO.P,U3,2,GND*%
%TO.N,GND*%
X168637500Y-93700000D03*
%TO.P,U3,3,I/O2*%
%TO.N,USB_CONN_D+*%
X168637500Y-92750000D03*
%TO.P,U3,4,I/O2*%
%TO.N,USB_D+*%
X166362500Y-92750000D03*
%TO.P,U3,5,VBUS*%
%TO.N,+5V*%
X166362500Y-93700000D03*
%TO.P,U3,6,I/O1*%
%TO.N,USB_D-*%
X166362500Y-94650000D03*
%TD*%
D30*
%TO.P,C9,1*%
%TO.N,GND*%
X132300000Y-106020000D03*
%TO.P,C9,2*%
%TO.N,+3.3VA*%
X132300000Y-106980000D03*
%TD*%
D31*
%TO.P,R4,1*%
%TO.N,BUCK_EN*%
X157525000Y-105925000D03*
%TO.P,R4,2*%
%TO.N,BUCK_IN*%
X157525000Y-107575000D03*
%TD*%
D27*
%TO.P,C5,1*%
%TO.N,GND*%
X138345000Y-111650000D03*
%TO.P,C5,2*%
%TO.N,+3.3V*%
X139305000Y-111650000D03*
%TD*%
D32*
%TO.P,C12,1*%
%TO.N,Net-(C12-Pad1)*%
X129780000Y-104800000D03*
%TO.P,C12,2*%
%TO.N,GND*%
X128820000Y-104800000D03*
%TD*%
D14*
%TO.P,R16,1*%
%TO.N,Net-(J3-Pin_3)*%
X140275000Y-87490000D03*
%TO.P,R16,2*%
%TO.N,I2C1_SDA*%
X140275000Y-88510000D03*
%TD*%
D30*
%TO.P,C4,1*%
%TO.N,GND*%
X133825000Y-98920000D03*
%TO.P,C4,2*%
%TO.N,+3.3V*%
X133825000Y-99880000D03*
%TD*%
D33*
%TO.P,R2,1*%
%TO.N,Net-(C12-Pad1)*%
X133090000Y-103000000D03*
%TO.P,R2,2*%
%TO.N,HSE_OUT*%
X134110000Y-103000000D03*
%TD*%
D25*
%TO.P,H3,1,1*%
%TO.N,GND*%
X168050000Y-81000000D03*
X168994581Y-78719581D03*
X168994581Y-83280419D03*
X171275000Y-77775000D03*
D26*
X171275000Y-81000000D03*
D25*
X171275000Y-84225000D03*
X173555419Y-78719581D03*
X173555419Y-83280419D03*
X174500000Y-81000000D03*
%TD*%
D34*
%TO.P,R1,1*%
%TO.N,BOOT0*%
X129310000Y-93600000D03*
%TO.P,R1,2*%
%TO.N,Net-(SW1-B)*%
X128290000Y-93600000D03*
%TD*%
D35*
%TO.P,C13,1*%
%TO.N,GND*%
X162425000Y-105000000D03*
%TO.P,C13,2*%
%TO.N,BUCK_IN*%
X159625000Y-105000000D03*
%TD*%
D36*
%TO.P,D1,1,K*%
%TO.N,Net-(D1-K)*%
X134500000Y-111650000D03*
%TO.P,D1,2,A*%
%TO.N,LED_STATUS*%
X136075000Y-111650000D03*
%TD*%
D37*
%TO.P,R14,1*%
%TO.N,I2C1_SCL*%
X142175000Y-93800000D03*
%TO.P,R14,2*%
%TO.N,+3.3V*%
X143825000Y-93800000D03*
%TD*%
D38*
%TO.P,R18,1*%
%TO.N,Net-(J4-Pin_3)*%
X141800000Y-113810000D03*
%TO.P,R18,2*%
%TO.N,USART3_RX*%
X141800000Y-112790000D03*
%TD*%
D39*
%TO.P,F1,1*%
%TO.N,Net-(D3-K)*%
X162275000Y-102750000D03*
%TO.P,F1,2*%
%TO.N,Net-(F1-Pad2)*%
X162275000Y-99950000D03*
%TD*%
D40*
%TO.P,C1,1*%
%TO.N,Net-(U1-VCAP_1)*%
X145600000Y-111625000D03*
%TO.P,C1,2*%
%TO.N,GND*%
X145600000Y-113175000D03*
%TD*%
D16*
%TO.P,R3,1*%
%TO.N,GND*%
X136150000Y-113400000D03*
%TO.P,R3,2*%
%TO.N,Net-(D1-K)*%
X134500000Y-113400000D03*
%TD*%
D38*
%TO.P,R17,1*%
%TO.N,Net-(J4-Pin_2)*%
X140400000Y-113810000D03*
%TO.P,R17,2*%
%TO.N,USART3_TX*%
X140400000Y-112790000D03*
%TD*%
D41*
%TO.P,C17,1*%
%TO.N,GND*%
X152915000Y-90025000D03*
%TO.P,C17,2*%
%TO.N,Net-(J2-Pin_10)*%
X152915000Y-88475000D03*
%TD*%
D42*
%TO.P,J4,1,Pin_1*%
%TO.N,+3.3V*%
X139150000Y-121300000D03*
D43*
%TO.P,J4,2,Pin_2*%
%TO.N,Net-(J4-Pin_2)*%
X140400000Y-121300000D03*
%TO.P,J4,3,Pin_3*%
%TO.N,Net-(J4-Pin_3)*%
X141650000Y-121300000D03*
%TO.P,J4,4,Pin_4*%
%TO.N,GND*%
X142900000Y-121300000D03*
%TD*%
D30*
%TO.P,C8,1*%
%TO.N,GND*%
X136575000Y-94670000D03*
%TO.P,C8,2*%
%TO.N,+3.3V*%
X136575000Y-95630000D03*
%TD*%
D44*
%TO.P,J1,1,Pin_1*%
%TO.N,+12V*%
X171442500Y-107250000D03*
D45*
%TO.P,J1,2,Pin_2*%
%TO.N,GND*%
X171442500Y-103750000D03*
%TD*%
D32*
%TO.P,C7,1*%
%TO.N,GND*%
X150755000Y-99000000D03*
%TO.P,C7,2*%
%TO.N,+3.3V*%
X149795000Y-99000000D03*
%TD*%
D25*
%TO.P,H2,1,1*%
%TO.N,GND*%
X168050000Y-121000000D03*
X168994581Y-118719581D03*
X168994581Y-123280419D03*
X171275000Y-117775000D03*
D26*
X171275000Y-121000000D03*
D25*
X171275000Y-124225000D03*
X173555419Y-118719581D03*
X173555419Y-123280419D03*
X174500000Y-121000000D03*
%TD*%
D46*
%TO.P,D2,1,K*%
%TO.N,BUCK_SW*%
X159375000Y-115500000D03*
%TO.P,D2,2,A*%
%TO.N,GND*%
X162675000Y-115500000D03*
%TD*%
D29*
%TO.P,U2,1,BST*%
%TO.N,BUCK_BST*%
X162162500Y-109200000D03*
%TO.P,U2,2,GND*%
%TO.N,GND*%
X162162500Y-108250000D03*
%TO.P,U2,3,FB*%
%TO.N,BUCK_FB*%
X162162500Y-107300000D03*
%TO.P,U2,4,EN*%
%TO.N,BUCK_EN*%
X159887500Y-107300000D03*
%TO.P,U2,5,IN*%
%TO.N,BUCK_IN*%
X159887500Y-108250000D03*
%TO.P,U2,6,SW*%
%TO.N,BUCK_SW*%
X159887500Y-109200000D03*
%TD*%
D47*
%TO.P,C6,1*%
%TO.N,GND*%
X147000000Y-112380000D03*
%TO.P,C6,2*%
%TO.N,+3.3V*%
X147000000Y-111420000D03*
%TD*%
D48*
%TO.P,U1,1,VBAT*%
%TO.N,+3.3V*%
X136225000Y-99900000D03*
%TO.P,U1,2,PC13*%
%TO.N,unconnected-(U1-PC13-Pad2)*%
X136225000Y-100400000D03*
%TO.P,U1,3,PC14*%
%TO.N,unconnected-(U1-PC14-Pad3)*%
X136225000Y-100900000D03*
%TO.P,U1,4,PC15*%
%TO.N,unconnected-(U1-PC15-Pad4)*%
X136225000Y-101400000D03*
%TO.P,U1,5,PH0*%
%TO.N,HSE_IN*%
X136225000Y-101900000D03*
%TO.P,U1,6,PH1*%
%TO.N,HSE_OUT*%
X136225000Y-102400000D03*
%TO.P,U1,7,NRST*%
%TO.N,NRST*%
X136225000Y-102900000D03*
%TO.P,U1,8,PC0*%
%TO.N,unconnected-(U1-PC0-Pad8)*%
X136225000Y-103400000D03*
%TO.P,U1,9,PC1*%
%TO.N,unconnected-(U1-PC1-Pad9)*%
X136225000Y-103900000D03*
%TO.P,U1,10,PC2*%
%TO.N,unconnected-(U1-PC2-Pad10)*%
X136225000Y-104400000D03*
%TO.P,U1,11,PC3*%
%TO.N,unconnected-(U1-PC3-Pad11)*%
X136225000Y-104900000D03*
%TO.P,U1,12,VSSA*%
%TO.N,GND*%
X136225000Y-105400000D03*
%TO.P,U1,13,VDDA*%
%TO.N,+3.3VA*%
X136225000Y-105900000D03*
%TO.P,U1,14,PA0*%
%TO.N,unconnected-(U1-PA0-Pad14)*%
X136225000Y-106400000D03*
%TO.P,U1,15,PA1*%
%TO.N,unconnected-(U1-PA1-Pad15)*%
X136225000Y-106900000D03*
%TO.P,U1,16,PA2*%
%TO.N,LED_STATUS*%
X136225000Y-107400000D03*
D49*
%TO.P,U1,17,PA3*%
%TO.N,unconnected-(U1-PA3-Pad17)*%
X138150000Y-109325000D03*
%TO.P,U1,18,VSS*%
%TO.N,GND*%
X138650000Y-109325000D03*
%TO.P,U1,19,VDD*%
%TO.N,+3.3V*%
X139150000Y-109325000D03*
%TO.P,U1,20,PA4*%
%TO.N,unconnected-(U1-PA4-Pad20)*%
X139650000Y-109325000D03*
%TO.P,U1,21,PA5*%
%TO.N,unconnected-(U1-PA5-Pad21)*%
X140150000Y-109325000D03*
%TO.P,U1,22,PA6*%
%TO.N,unconnected-(U1-PA6-Pad22)*%
X140650000Y-109325000D03*
%TO.P,U1,23,PA7*%
%TO.N,unconnected-(U1-PA7-Pad23)*%
X141150000Y-109325000D03*
%TO.P,U1,24,PC4*%
%TO.N,unconnected-(U1-PC4-Pad24)*%
X141650000Y-109325000D03*
%TO.P,U1,25,PC5*%
%TO.N,unconnected-(U1-PC5-Pad25)*%
X142150000Y-109325000D03*
%TO.P,U1,26,PB0*%
%TO.N,unconnected-(U1-PB0-Pad26)*%
X142650000Y-109325000D03*
%TO.P,U1,27,PB1*%
%TO.N,unconnected-(U1-PB1-Pad27)*%
X143150000Y-109325000D03*
%TO.P,U1,28,PB2*%
%TO.N,unconnected-(U1-PB2-Pad28)*%
X143650000Y-109325000D03*
%TO.P,U1,29,PB10*%
%TO.N,USART3_TX*%
X144150000Y-109325000D03*
%TO.P,U1,30,PB11*%
%TO.N,USART3_RX*%
X144650000Y-109325000D03*
%TO.P,U1,31,VCAP_1*%
%TO.N,Net-(U1-VCAP_1)*%
X145150000Y-109325000D03*
%TO.P,U1,32,VDD*%
%TO.N,+3.3V*%
X145650000Y-109325000D03*
D48*
%TO.P,U1,33,PB12*%
%TO.N,unconnected-(U1-PB12-Pad33)*%
X147575000Y-107400000D03*
%TO.P,U1,34,PB13*%
%TO.N,unconnected-(U1-PB13-Pad34)*%
X147575000Y-106900000D03*
%TO.P,U1,35,PB14*%
%TO.N,unconnected-(U1-PB14-Pad35)*%
X147575000Y-106400000D03*
%TO.P,U1,36,PB15*%
%TO.N,unconnected-(U1-PB15-Pad36)*%
X147575000Y-105900000D03*
%TO.P,U1,37,PC6*%
%TO.N,unconnected-(U1-PC6-Pad37)*%
X147575000Y-105400000D03*
%TO.P,U1,38,PC7*%
%TO.N,unconnected-(U1-PC7-Pad38)*%
X147575000Y-104900000D03*
%TO.P,U1,39,PC8*%
%TO.N,unconnected-(U1-PC8-Pad39)*%
X147575000Y-104400000D03*
%TO.P,U1,40,PC9*%
%TO.N,unconnected-(U1-PC9-Pad40)*%
X147575000Y-103900000D03*
%TO.P,U1,41,PA8*%
%TO.N,unconnected-(U1-PA8-Pad41)*%
X147575000Y-103400000D03*
%TO.P,U1,42,PA9*%
%TO.N,unconnected-(U1-PA9-Pad42)*%
X147575000Y-102900000D03*
%TO.P,U1,43,PA10*%
%TO.N,unconnected-(U1-PA10-Pad43)*%
X147575000Y-102400000D03*
%TO.P,U1,44,PA11*%
%TO.N,USB_D-*%
X147575000Y-101900000D03*
%TO.P,U1,45,PA12*%
%TO.N,USB_D+*%
X147575000Y-101400000D03*
%TO.P,U1,46,PA13*%
%TO.N,SWDIO*%
X147575000Y-100900000D03*
%TO.P,U1,47,VCAP_2*%
%TO.N,Net-(U1-VCAP_2)*%
X147575000Y-100400000D03*
%TO.P,U1,48,VDD*%
%TO.N,+3.3V*%
X147575000Y-99900000D03*
D49*
%TO.P,U1,49,PA14*%
%TO.N,SWCLK*%
X145650000Y-97975000D03*
%TO.P,U1,50,PA15*%
%TO.N,unconnected-(U1-PA15-Pad50)*%
X145150000Y-97975000D03*
%TO.P,U1,51,PC10*%
%TO.N,unconnected-(U1-PC10-Pad51)*%
X144650000Y-97975000D03*
%TO.P,U1,52,PC11*%
%TO.N,unconnected-(U1-PC11-Pad52)*%
X144150000Y-97975000D03*
%TO.P,U1,53,PC12*%
%TO.N,unconnected-(U1-PC12-Pad53)*%
X143650000Y-97975000D03*
%TO.P,U1,54,PD2*%
%TO.N,unconnected-(U1-PD2-Pad54)*%
X143150000Y-97975000D03*
%TO.P,U1,55,PB3*%
%TO.N,SWO*%
X142650000Y-97975000D03*
%TO.P,U1,56,PB4*%
%TO.N,unconnected-(U1-PB4-Pad56)*%
X142150000Y-97975000D03*
%TO.P,U1,57,PB5*%
%TO.N,unconnected-(U1-PB5-Pad57)*%
X141650000Y-97975000D03*
%TO.P,U1,58,PB6*%
%TO.N,I2C1_SCL*%
X141150000Y-97975000D03*
%TO.P,U1,59,PB7*%
%TO.N,I2C1_SDA*%
X140650000Y-97975000D03*
%TO.P,U1,60,BOOT0*%
%TO.N,BOOT0*%
X140150000Y-97975000D03*
%TO.P,U1,61,PB8*%
%TO.N,unconnected-(U1-PB8-Pad61)*%
X139650000Y-97975000D03*
%TO.P,U1,62,PB9*%
%TO.N,unconnected-(U1-PB9-Pad62)*%
X139150000Y-97975000D03*
%TO.P,U1,63,VSS*%
%TO.N,GND*%
X138650000Y-97975000D03*
%TO.P,U1,64,VDD*%
%TO.N,+3.3V*%
X138150000Y-97975000D03*
%TD*%
D37*
%TO.P,R8,1*%
%TO.N,GND*%
X164700000Y-112500000D03*
%TO.P,R8,2*%
%TO.N,Net-(R7-Pad1)*%
X166350000Y-112500000D03*
%TD*%
D50*
%TO.P,J3,1,Pin_1*%
%TO.N,+3.3V*%
X142900000Y-80700000D03*
D43*
%TO.P,J3,2,Pin_2*%
%TO.N,Net-(J3-Pin_2)*%
X141650000Y-80700000D03*
%TO.P,J3,3,Pin_3*%
%TO.N,Net-(J3-Pin_3)*%
X140400000Y-80700000D03*
%TO.P,J3,4,Pin_4*%
%TO.N,GND*%
X139150000Y-80700000D03*
%TD*%
D38*
%TO.P,R9,1*%
%TO.N,SWDIO*%
X149900000Y-90260000D03*
%TO.P,R9,2*%
%TO.N,Net-(J2-Pin_2)*%
X149900000Y-89240000D03*
%TD*%
%TO.P,R11,1*%
%TO.N,SWO*%
X147500000Y-90310000D03*
%TO.P,R11,2*%
%TO.N,Net-(J2-Pin_6)*%
X147500000Y-89290000D03*
%TD*%
D51*
%TO.P,C2,1*%
%TO.N,Net-(U1-VCAP_2)*%
X150000000Y-100500000D03*
%TO.P,C2,2*%
%TO.N,GND*%
X151550000Y-100500000D03*
%TD*%
D52*
%TO.P,L2,1*%
%TO.N,BUCK_SW*%
X155525000Y-111700000D03*
%TO.P,L2,2*%
%TO.N,+3.3V*%
X155525000Y-115800000D03*
%TD*%
D40*
%TO.P,C10,1*%
%TO.N,GND*%
X133800000Y-105425000D03*
%TO.P,C10,2*%
%TO.N,+3.3VA*%
X133800000Y-106975000D03*
%TD*%
D37*
%TO.P,R19,1*%
%TO.N,GND*%
X160875000Y-80250000D03*
%TO.P,R19,2*%
%TO.N,Net-(D5-K)*%
X162525000Y-80250000D03*
%TD*%
D16*
%TO.P,R13,1*%
%TO.N,I2C1_SDA*%
X140625000Y-93800000D03*
%TO.P,R13,2*%
%TO.N,+3.3V*%
X138975000Y-93800000D03*
%TD*%
D22*
%TO.P,C15,1*%
%TO.N,+3.3V*%
X157275000Y-119100000D03*
%TO.P,C15,2*%
%TO.N,GND*%
X157275000Y-121900000D03*
%TD*%
D38*
%TO.P,R12,1*%
%TO.N,NRST*%
X151165000Y-90260000D03*
%TO.P,R12,2*%
%TO.N,Net-(J2-Pin_10)*%
X151165000Y-89240000D03*
%TD*%
D25*
%TO.P,H1,1,1*%
%TO.N,GND*%
X123050000Y-121000000D03*
X123994581Y-118719581D03*
X123994581Y-123280419D03*
X126275000Y-117775000D03*
D26*
X126275000Y-121000000D03*
D25*
X126275000Y-124225000D03*
X128555419Y-118719581D03*
X128555419Y-123280419D03*
X129500000Y-121000000D03*
%TD*%
D37*
%TO.P,R6,1*%
%TO.N,BUCK_FB*%
X164700000Y-109000000D03*
%TO.P,R6,2*%
%TO.N,+3.3V*%
X166350000Y-109000000D03*
%TD*%
D40*
%TO.P,C3,1*%
%TO.N,GND*%
X133825000Y-94875000D03*
%TO.P,C3,2*%
%TO.N,+3.3V*%
X133825000Y-96425000D03*
%TD*%
D53*
%TO.P,Y1,1,1*%
%TO.N,HSE_IN*%
X128350000Y-100800000D03*
%TO.P,Y1,2,2*%
%TO.N,GND*%
X128350000Y-103000000D03*
%TO.P,Y1,3,3*%
%TO.N,Net-(C12-Pad1)*%
X130050000Y-103000000D03*
%TO.P,Y1,4,4*%
%TO.N,GND*%
X130050000Y-100800000D03*
%TD*%
D38*
%TO.P,R10,1*%
%TO.N,SWCLK*%
X148665000Y-90260000D03*
%TO.P,R10,2*%
%TO.N,Net-(J2-Pin_4)*%
X148665000Y-89240000D03*
%TD*%
D54*
%TO.P,C14,1*%
%TO.N,BUCK_SW*%
X159625000Y-112750000D03*
%TO.P,C14,2*%
%TO.N,BUCK_BST*%
X162425000Y-112750000D03*
%TD*%
D55*
%TO.P,D5,1,K*%
%TO.N,Net-(D5-K)*%
X162525000Y-78500000D03*
%TO.P,D5,2,A*%
%TO.N,+3.3V*%
X160950000Y-78500000D03*
%TD*%
D56*
%TO.N,+3.3V*%
X152650000Y-76400000D03*
%TO.N,GND*%
X147550000Y-76350000D03*
X150100000Y-76350000D03*
X151350000Y-76350000D03*
X132324407Y-105407524D03*
X136882018Y-113407886D03*
X133000000Y-94900000D03*
X127350000Y-103000000D03*
X160100000Y-80300000D03*
X163392482Y-104953400D03*
X163404592Y-105680003D03*
X163967903Y-112972292D03*
X147679073Y-112381476D03*
X131200000Y-100800000D03*
X163489905Y-114577252D03*
X130450000Y-98650000D03*
X167500000Y-105800000D03*
X163404592Y-104238907D03*
X125787153Y-95000368D03*
X155800000Y-108400000D03*
X135900000Y-94700000D03*
X152814861Y-121903119D03*
X128800000Y-105600000D03*
X152331544Y-100506413D03*
X170900000Y-92100000D03*
X163986068Y-111882387D03*
X133834127Y-104608260D03*
X163502015Y-116224220D03*
X170100000Y-92100000D03*
X154929722Y-107579635D03*
X144736330Y-113168630D03*
X163500000Y-109450000D03*
X158496880Y-121921468D03*
X137705502Y-111647891D03*
X134496880Y-98904525D03*
X167500000Y-91650000D03*
X156060356Y-121915229D03*
X167497791Y-105074501D03*
X163502015Y-115400736D03*
X170100000Y-91200000D03*
X151374849Y-99016876D03*
X152927339Y-90825505D03*
X155248982Y-121903119D03*
X170900000Y-91200000D03*
%TO.N,+3.3V*%
X154001874Y-114886892D03*
X147700000Y-111400000D03*
X125800000Y-90500000D03*
X134600000Y-109400000D03*
X133000000Y-96400000D03*
X167100000Y-109500000D03*
X139800000Y-111100000D03*
X149800000Y-98300000D03*
X160200000Y-78500000D03*
X157052626Y-114898594D03*
X157078471Y-116092355D03*
X155254679Y-119092355D03*
X153958816Y-116092515D03*
X138900000Y-94600000D03*
X156055415Y-119091745D03*
X133800000Y-100500000D03*
X144600000Y-93800000D03*
X167100000Y-108500000D03*
X133800000Y-110100000D03*
X152800000Y-119100000D03*
X158500000Y-119100000D03*
X137000000Y-96300000D03*
%TO.N,NRST*%
X147800000Y-97400000D03*
X144600000Y-100600000D03*
%TD*%
D57*
%TO.N,+3.3V*%
X152640000Y-76410000D02*
X152650000Y-76400000D01*
X152640000Y-78100000D02*
X152640000Y-76410000D01*
%TO.N,GND*%
X151370000Y-76370000D02*
X151350000Y-76350000D01*
X151370000Y-78100000D02*
X151370000Y-76370000D01*
X150100000Y-78100000D02*
X150100000Y-76350000D01*
X147560000Y-76360000D02*
X147550000Y-76350000D01*
X147560000Y-78100000D02*
X147560000Y-76360000D01*
%TO.N,Net-(J2-Pin_10)*%
X154000000Y-80450000D02*
X153450000Y-79900000D01*
X154000000Y-85200000D02*
X154000000Y-80450000D01*
X153450000Y-79900000D02*
X148100000Y-79900000D01*
X147560000Y-80440000D02*
X147560000Y-82000000D01*
X152915000Y-86285000D02*
X154000000Y-85200000D01*
X152915000Y-88475000D02*
X152915000Y-86285000D01*
X148100000Y-79900000D02*
X147560000Y-80440000D01*
%TO.N,Net-(J2-Pin_2)*%
X152640000Y-84510000D02*
X152640000Y-82000000D01*
X149900000Y-87250000D02*
X152640000Y-84510000D01*
X149900000Y-89240000D02*
X149900000Y-87250000D01*
%TO.N,Net-(J2-Pin_4)*%
X148665000Y-89240000D02*
X148665000Y-86885000D01*
X148665000Y-86885000D02*
X151370000Y-84180000D01*
X151370000Y-84180000D02*
X151370000Y-82000000D01*
%TO.N,Net-(J2-Pin_6)*%
X150100000Y-84000000D02*
X150100000Y-82000000D01*
X147500000Y-86600000D02*
X150100000Y-84000000D01*
X147500000Y-89290000D02*
X147500000Y-86600000D01*
D58*
%TO.N,GND*%
X152325131Y-100500000D02*
X152331544Y-100506413D01*
X151550000Y-100500000D02*
X152325131Y-100500000D01*
X151357973Y-99000000D02*
X151374849Y-99016876D01*
X150755000Y-99000000D02*
X151357973Y-99000000D01*
X137705502Y-111647891D02*
X138342891Y-111647891D01*
X138342891Y-111647891D02*
X138345000Y-111650000D01*
D59*
X163500000Y-109020900D02*
X163500000Y-109450000D01*
X162162500Y-108250000D02*
X162729100Y-108250000D01*
X162729100Y-108250000D02*
X163500000Y-109020900D01*
X128822582Y-104802582D02*
X128820000Y-104800000D01*
X167476000Y-91674000D02*
X167500000Y-91650000D01*
X162777795Y-115500000D02*
X163502015Y-116224220D01*
D60*
X166725000Y-105062500D02*
X166725000Y-104075000D01*
D59*
X156060356Y-121915229D02*
X157259771Y-121915229D01*
X128328522Y-103021478D02*
X128350000Y-103000000D01*
X154025000Y-121900000D02*
X155245863Y-121900000D01*
X160100000Y-80300000D02*
X160825000Y-80300000D01*
X132324407Y-105407524D02*
X132324407Y-105995593D01*
X127350000Y-103000000D02*
X128350000Y-103000000D01*
X130450000Y-98650000D02*
X129805000Y-98650000D01*
D57*
X136225000Y-105400000D02*
X133825000Y-105400000D01*
D59*
X162675000Y-115500000D02*
X163402751Y-115500000D01*
X125787153Y-95000368D02*
X124705368Y-95000368D01*
D57*
X170925000Y-92075000D02*
X170900000Y-92100000D01*
X133825000Y-105400000D02*
X133800000Y-105425000D01*
D59*
X170100000Y-91300000D02*
X170900000Y-92100000D01*
D57*
X136575000Y-94670000D02*
X137378520Y-94670000D01*
D59*
X130050000Y-100800000D02*
X131200000Y-100800000D01*
X170100000Y-91200000D02*
X170100000Y-92100000D01*
D57*
X172115000Y-92075000D02*
X170925000Y-92075000D01*
X128820000Y-103470000D02*
X128350000Y-103000000D01*
D59*
X162675000Y-115392157D02*
X163489905Y-114577252D01*
X164440195Y-112500000D02*
X163967903Y-112972292D01*
D57*
X129805000Y-100555000D02*
X130050000Y-100800000D01*
D60*
X167050000Y-103750000D02*
X171442500Y-103750000D01*
D59*
X170100000Y-91200000D02*
X170100000Y-91300000D01*
X167462500Y-105800000D02*
X166725000Y-105062500D01*
X133834127Y-104608260D02*
X133834127Y-105390873D01*
X154929722Y-107579635D02*
X155770365Y-107579635D01*
X155800000Y-107600000D02*
X155775000Y-107575000D01*
X170900000Y-91300000D02*
X170100000Y-92100000D01*
X157259771Y-121915229D02*
X157275000Y-121900000D01*
D57*
X128820000Y-104800000D02*
X128820000Y-103470000D01*
D60*
X166725000Y-104075000D02*
X167050000Y-103750000D01*
D59*
X167950000Y-93700000D02*
X167476000Y-93226000D01*
X147679073Y-112381476D02*
X147001476Y-112381476D01*
X170900000Y-91200000D02*
X170100000Y-91200000D01*
D57*
X138650000Y-111345000D02*
X138345000Y-111650000D01*
D59*
X155800000Y-108400000D02*
X155800000Y-107600000D01*
X164603681Y-112500000D02*
X163986068Y-111882387D01*
X167500000Y-105800000D02*
X167462500Y-105800000D01*
X152915000Y-90025000D02*
X152915000Y-90813166D01*
X162425000Y-105000000D02*
X163345882Y-105000000D01*
X128820000Y-104800000D02*
X128820000Y-105580000D01*
D57*
X138650000Y-109325000D02*
X138650000Y-111345000D01*
D59*
X154025000Y-121900000D02*
X152817980Y-121900000D01*
X134496880Y-98904525D02*
X133840475Y-98904525D01*
X167485790Y-105062500D02*
X167497791Y-105074501D01*
X132324407Y-105995593D02*
X132300000Y-106020000D01*
X145593630Y-113168630D02*
X145600000Y-113175000D01*
X168637500Y-93700000D02*
X167950000Y-93700000D01*
X155245863Y-121900000D02*
X155248982Y-121903119D01*
X130055338Y-100805338D02*
X130050000Y-100800000D01*
X136882018Y-113407886D02*
X136157886Y-113407886D01*
X144736330Y-113168630D02*
X145593630Y-113168630D01*
X162675000Y-115500000D02*
X162675000Y-115392157D01*
X163402751Y-115500000D02*
X163502015Y-115400736D01*
X168643362Y-93694138D02*
X168637500Y-93700000D01*
X164700000Y-112500000D02*
X164440195Y-112500000D01*
X163345882Y-105000000D02*
X163392482Y-104953400D01*
D57*
X129805000Y-98650000D02*
X129805000Y-100555000D01*
D59*
X147001476Y-112381476D02*
X147000000Y-112380000D01*
X167476000Y-93226000D02*
X167476000Y-91674000D01*
X163105003Y-105680003D02*
X162425000Y-105000000D01*
D57*
X137378520Y-94670000D02*
X138650000Y-95941480D01*
D59*
X162675000Y-115500000D02*
X162777795Y-115500000D01*
D57*
X132300000Y-106020000D02*
X133205000Y-106020000D01*
D59*
X133025000Y-94875000D02*
X133000000Y-94900000D01*
X163404592Y-104238907D02*
X163186093Y-104238907D01*
X135930000Y-94670000D02*
X135900000Y-94700000D01*
X133825000Y-94875000D02*
X133025000Y-94875000D01*
D57*
X133205000Y-106020000D02*
X133800000Y-105425000D01*
D59*
X152915000Y-90813166D02*
X152927339Y-90825505D01*
X136575000Y-94670000D02*
X135930000Y-94670000D01*
X128820000Y-105580000D02*
X128800000Y-105600000D01*
X166725000Y-105062500D02*
X167485790Y-105062500D01*
X170900000Y-92100000D02*
X170900000Y-91200000D01*
D57*
X134030000Y-94670000D02*
X133825000Y-94875000D01*
D59*
X170100000Y-92100000D02*
X170900000Y-92100000D01*
X136157886Y-113407886D02*
X136150000Y-113400000D01*
X133840475Y-98904525D02*
X133825000Y-98920000D01*
X158475412Y-121900000D02*
X158496880Y-121921468D01*
X155770365Y-107579635D02*
X155775000Y-107575000D01*
X170900000Y-91200000D02*
X170900000Y-91300000D01*
X163186093Y-104238907D02*
X162425000Y-105000000D01*
X164700000Y-112500000D02*
X164603681Y-112500000D01*
X157275000Y-121900000D02*
X158475412Y-121900000D01*
X152817980Y-121900000D02*
X152814861Y-121903119D01*
D57*
X138650000Y-95941480D02*
X138650000Y-97975000D01*
D59*
X129840259Y-98685259D02*
X129805000Y-98650000D01*
X133834127Y-105390873D02*
X133800000Y-105425000D01*
X163404592Y-105680003D02*
X163105003Y-105680003D01*
X124705368Y-95000368D02*
X124705000Y-95000000D01*
X160825000Y-80300000D02*
X160875000Y-80250000D01*
D57*
%TO.N,Net-(U1-VCAP_1)*%
X145150000Y-111175000D02*
X145600000Y-111625000D01*
X145150000Y-109325000D02*
X145150000Y-111175000D01*
%TO.N,Net-(U1-VCAP_2)*%
X147575000Y-100400000D02*
X149900000Y-100400000D01*
X149900000Y-100400000D02*
X150000000Y-100500000D01*
D61*
%TO.N,+3.3V*%
X154025000Y-119100000D02*
X154025000Y-117300000D01*
D59*
X139800000Y-111100000D02*
X139800000Y-111155000D01*
X153958816Y-116092515D02*
X153958816Y-116041184D01*
X155254679Y-119092355D02*
X154032645Y-119092355D01*
D57*
X148895000Y-99900000D02*
X149795000Y-99000000D01*
X139150000Y-111495000D02*
X139305000Y-111650000D01*
D59*
X133825000Y-109385000D02*
X134585000Y-109385000D01*
D57*
X138150000Y-96150000D02*
X137630000Y-95630000D01*
D59*
X133000000Y-96400000D02*
X133800000Y-96400000D01*
X153958976Y-116092355D02*
X153958816Y-116092515D01*
X133800000Y-96400000D02*
X133825000Y-96425000D01*
X149795000Y-98305000D02*
X149800000Y-98300000D01*
X136575000Y-95875000D02*
X137000000Y-96300000D01*
X124705000Y-90500000D02*
X125800000Y-90500000D01*
X167100000Y-108500000D02*
X166850000Y-108500000D01*
D57*
X147575000Y-99900000D02*
X148895000Y-99900000D01*
X145650000Y-109325000D02*
X145650000Y-110070000D01*
D59*
X166350000Y-109000000D02*
X166600000Y-109000000D01*
X147000000Y-111420000D02*
X147680000Y-111420000D01*
X149795000Y-99000000D02*
X149795000Y-98305000D01*
X133825000Y-99880000D02*
X133825000Y-100475000D01*
X158500000Y-119100000D02*
X157275000Y-119100000D01*
X143825000Y-93800000D02*
X144600000Y-93800000D01*
D57*
X138150000Y-97975000D02*
X138150000Y-96150000D01*
D59*
X156055415Y-119091745D02*
X157266745Y-119091745D01*
D61*
X155312500Y-116012500D02*
X155525000Y-115800000D01*
D57*
X139150000Y-109325000D02*
X139150000Y-111495000D01*
D59*
X138975000Y-94525000D02*
X138900000Y-94600000D01*
D57*
X133845000Y-99900000D02*
X133825000Y-99880000D01*
D59*
X134585000Y-109385000D02*
X134600000Y-109400000D01*
X166850000Y-108500000D02*
X166350000Y-109000000D01*
X133825000Y-100475000D02*
X133800000Y-100500000D01*
X157266745Y-119091745D02*
X157275000Y-119100000D01*
D61*
X157275000Y-117550000D02*
X155525000Y-115800000D01*
D59*
X154001874Y-114886892D02*
X157040924Y-114886892D01*
X133825000Y-96425000D02*
X135780000Y-96425000D01*
D61*
X157275000Y-119100000D02*
X157275000Y-117550000D01*
D59*
X138975000Y-93800000D02*
X138975000Y-94525000D01*
X135780000Y-96425000D02*
X136575000Y-95630000D01*
X157078471Y-116092355D02*
X157078471Y-114924439D01*
X157040924Y-114886892D02*
X157052626Y-114898594D01*
D57*
X137630000Y-95630000D02*
X136575000Y-95630000D01*
D59*
X147680000Y-111420000D02*
X147700000Y-111400000D01*
D61*
X154025000Y-117300000D02*
X155312500Y-116012500D01*
D59*
X155525000Y-115800000D02*
X155000000Y-115800000D01*
X166600000Y-109000000D02*
X167100000Y-109500000D01*
X155525000Y-115800000D02*
X155915186Y-115800000D01*
X133825000Y-110075000D02*
X133800000Y-110100000D01*
X139800000Y-111155000D02*
X139305000Y-111650000D01*
X157078471Y-114924439D02*
X157052626Y-114898594D01*
D57*
X145650000Y-110070000D02*
X147000000Y-111420000D01*
D59*
X152800000Y-119100000D02*
X154025000Y-119100000D01*
X133825000Y-109385000D02*
X133825000Y-110075000D01*
D57*
X136225000Y-99900000D02*
X133845000Y-99900000D01*
D59*
X154001874Y-115998126D02*
X154001874Y-114886892D01*
X136575000Y-95630000D02*
X136575000Y-95875000D01*
X157078471Y-116092355D02*
X153958976Y-116092355D01*
X153958816Y-116041184D02*
X154001874Y-115998126D01*
X154032645Y-119092355D02*
X154025000Y-119100000D01*
X160950000Y-78500000D02*
X160200000Y-78500000D01*
D57*
%TO.N,+3.3VA*%
X134225000Y-106975000D02*
X133800000Y-106975000D01*
D59*
X132305000Y-106975000D02*
X132300000Y-106980000D01*
D57*
X133800000Y-108390000D02*
X133825000Y-108415000D01*
X135300000Y-105900000D02*
X134225000Y-106975000D01*
D59*
X133825000Y-108415000D02*
X133825000Y-107000000D01*
X133800000Y-106975000D02*
X132305000Y-106975000D01*
X133825000Y-107000000D02*
X133800000Y-106975000D01*
D57*
X136225000Y-105900000D02*
X135300000Y-105900000D01*
%TO.N,HSE_IN*%
X128845000Y-98650000D02*
X128845000Y-100305000D01*
X129450000Y-101900000D02*
X128350000Y-100800000D01*
X136225000Y-101900000D02*
X129450000Y-101900000D01*
X128845000Y-100305000D02*
X128350000Y-100800000D01*
%TO.N,Net-(C12-Pad1)*%
X129780000Y-104800000D02*
X129780000Y-103270000D01*
X130050000Y-103000000D02*
X133090000Y-103000000D01*
X129780000Y-103270000D02*
X130050000Y-103000000D01*
D59*
%TO.N,BUCK_IN*%
X159887500Y-108250000D02*
X158200000Y-108250000D01*
X158200000Y-108250000D02*
X157525000Y-107575000D01*
X160454100Y-108250000D02*
X161000000Y-107704100D01*
D61*
X160025000Y-101875000D02*
X160025000Y-104600000D01*
D59*
X161000000Y-107704100D02*
X161000000Y-105900000D01*
X159887500Y-108250000D02*
X160454100Y-108250000D01*
X161000000Y-105900000D02*
X160100000Y-105000000D01*
X160100000Y-105000000D02*
X159625000Y-105000000D01*
D61*
X160025000Y-104600000D02*
X159625000Y-105000000D01*
D60*
%TO.N,BUCK_BST*%
X162162500Y-112487500D02*
X162425000Y-112750000D01*
X162162500Y-109200000D02*
X162162500Y-112487500D01*
D57*
%TO.N,Net-(J2-Pin_10)*%
X151525000Y-88475000D02*
X152915000Y-88475000D01*
X151165000Y-88835000D02*
X151525000Y-88475000D01*
X151165000Y-89240000D02*
X151165000Y-88835000D01*
D59*
%TO.N,Net-(D1-K)*%
X134500000Y-111650000D02*
X134500000Y-113400000D01*
D57*
%TO.N,LED_STATUS*%
X136075000Y-107550000D02*
X136075000Y-111650000D01*
X136225000Y-107400000D02*
X136075000Y-107550000D01*
D62*
%TO.N,+5V*%
X166850000Y-93700000D02*
X167099000Y-93949000D01*
X167700000Y-95650000D02*
X167000000Y-95650000D01*
X167099000Y-93949000D02*
X167107388Y-93949000D01*
X167450000Y-95200000D02*
X167450000Y-95400000D01*
X167000000Y-95650000D02*
X167450000Y-95200000D01*
X170123000Y-95650000D02*
X171098000Y-94675000D01*
X167107388Y-93949000D02*
X167426000Y-94267612D01*
X164775000Y-96975000D02*
X164775000Y-99600000D01*
X167450000Y-95400000D02*
X167700000Y-95650000D01*
X167426000Y-94267612D02*
X167426000Y-94276000D01*
X167450000Y-94300000D02*
X167450000Y-95200000D01*
X166362500Y-93700000D02*
X166850000Y-93700000D01*
X167700000Y-95650000D02*
X170123000Y-95650000D01*
X166100000Y-95650000D02*
X164775000Y-96975000D01*
X171098000Y-94675000D02*
X172115000Y-94675000D01*
X167426000Y-94276000D02*
X167450000Y-94300000D01*
X167000000Y-95650000D02*
X166100000Y-95650000D01*
D60*
%TO.N,Net-(D3-K)*%
X164775000Y-102900000D02*
X164775000Y-105012500D01*
X164775000Y-105012500D02*
X164825000Y-105062500D01*
X164625000Y-102750000D02*
X164775000Y-102900000D01*
X162275000Y-102750000D02*
X164625000Y-102750000D01*
D57*
%TO.N,Net-(D5-K)*%
X162525000Y-78500000D02*
X162525000Y-80250000D01*
D61*
%TO.N,+12V*%
X171442500Y-107250000D02*
X166087500Y-107250000D01*
X166087500Y-107250000D02*
X165775000Y-106937500D01*
D57*
%TO.N,Net-(J3-Pin_2)*%
X141650000Y-80700000D02*
X141650000Y-87365000D01*
X141650000Y-87365000D02*
X141775000Y-87490000D01*
%TO.N,Net-(J3-Pin_3)*%
X140400000Y-87365000D02*
X140275000Y-87490000D01*
X140400000Y-80700000D02*
X140400000Y-87365000D01*
%TO.N,Net-(J4-Pin_3)*%
X141800000Y-121150000D02*
X141650000Y-121300000D01*
X141800000Y-113810000D02*
X141800000Y-121150000D01*
%TO.N,Net-(J4-Pin_2)*%
X140400000Y-113810000D02*
X140400000Y-121300000D01*
D63*
%TO.N,USB_CONN_D+*%
X168637500Y-92750000D02*
X169631251Y-92750000D01*
X171079999Y-93375000D02*
X172115000Y-93375000D01*
X169631251Y-92750000D02*
X170346047Y-93464796D01*
X170346047Y-93464796D02*
X170990203Y-93464796D01*
X170990203Y-93464796D02*
X171079999Y-93375000D01*
%TO.N,USB_CONN_D-*%
X171079999Y-94025000D02*
X172115000Y-94025000D01*
X170346047Y-93935204D02*
X170990203Y-93935204D01*
X170990203Y-93935204D02*
X171079999Y-94025000D01*
X169631251Y-94650000D02*
X170346047Y-93935204D01*
X168637500Y-94650000D02*
X169631251Y-94650000D01*
D57*
%TO.N,Net-(SW1-B)*%
X124500000Y-93500000D02*
X124600000Y-93600000D01*
X124705000Y-93500000D02*
X124500000Y-93500000D01*
X124600000Y-93600000D02*
X128290000Y-93600000D01*
%TO.N,BOOT0*%
X140150000Y-98854534D02*
X140150000Y-97975000D01*
X136000000Y-97800000D02*
X137500000Y-99300000D01*
X137500000Y-99300000D02*
X139704534Y-99300000D01*
X129310000Y-96210000D02*
X130900000Y-97800000D01*
X129310000Y-93600000D02*
X129310000Y-96210000D01*
X130900000Y-97800000D02*
X136000000Y-97800000D01*
X139704534Y-99300000D02*
X140150000Y-98854534D01*
%TO.N,HSE_OUT*%
X134710000Y-102400000D02*
X134110000Y-103000000D01*
X136225000Y-102400000D02*
X134710000Y-102400000D01*
%TO.N,BUCK_EN*%
X155775000Y-105925000D02*
X157525000Y-105925000D01*
X158900000Y-107300000D02*
X157525000Y-105925000D01*
X159887500Y-107300000D02*
X158900000Y-107300000D01*
D60*
%TO.N,BUCK_FB*%
X162162500Y-107300000D02*
X163000000Y-107300000D01*
X164700000Y-110750000D02*
X164700000Y-109000000D01*
X163000000Y-107300000D02*
X164700000Y-109000000D01*
%TO.N,Net-(R7-Pad1)*%
X166350000Y-112500000D02*
X166350000Y-110750000D01*
D57*
%TO.N,SWDIO*%
X146200000Y-97200000D02*
X149900000Y-93500000D01*
X146500000Y-100900000D02*
X146200000Y-100600000D01*
X146200000Y-100600000D02*
X146200000Y-97200000D01*
X147575000Y-100900000D02*
X146500000Y-100900000D01*
X149900000Y-93500000D02*
X149900000Y-90260000D01*
%TO.N,SWCLK*%
X148665000Y-90260000D02*
X148665000Y-93535000D01*
X145650000Y-96550000D02*
X145650000Y-97975000D01*
X148665000Y-93535000D02*
X145650000Y-96550000D01*
%TO.N,SWO*%
X143500000Y-95500000D02*
X142650000Y-96350000D01*
X145200000Y-95500000D02*
X143500000Y-95500000D01*
X147500000Y-93200000D02*
X145200000Y-95500000D01*
X147500000Y-90310000D02*
X147500000Y-93200000D01*
X142650000Y-96350000D02*
X142650000Y-97975000D01*
%TO.N,NRST*%
X136225000Y-102900000D02*
X142300000Y-102900000D01*
X147800000Y-97400000D02*
X151165000Y-94035000D01*
X151165000Y-94035000D02*
X151165000Y-90260000D01*
X142300000Y-102900000D02*
X144600000Y-100600000D01*
%TO.N,I2C1_SDA*%
X140625000Y-88825000D02*
X140400000Y-88600000D01*
X140650000Y-97975000D02*
X140650000Y-93850000D01*
X140650000Y-93850000D02*
X140600000Y-93800000D01*
X140625000Y-93800000D02*
X140625000Y-88825000D01*
%TO.N,I2C1_SCL*%
X141150000Y-96050000D02*
X142175000Y-95025000D01*
X142175000Y-88875000D02*
X141800000Y-88500000D01*
X141150000Y-97975000D02*
X141150000Y-96050000D01*
X142175000Y-95025000D02*
X142175000Y-93800000D01*
X142175000Y-93800000D02*
X142175000Y-88875000D01*
%TO.N,USART3_TX*%
X140400000Y-111800000D02*
X140400000Y-112790000D01*
X144150000Y-109325000D02*
X144150000Y-110250000D01*
X143400000Y-111000000D02*
X141200000Y-111000000D01*
X141200000Y-111000000D02*
X140400000Y-111800000D01*
X144150000Y-110250000D02*
X143400000Y-111000000D01*
%TO.N,USART3_RX*%
X144650000Y-110750000D02*
X144650000Y-109325000D01*
X142200000Y-111800000D02*
X143600000Y-111800000D01*
X141800000Y-112790000D02*
X141800000Y-112200000D01*
X141800000Y-112200000D02*
X142200000Y-111800000D01*
X143600000Y-111800000D02*
X144650000Y-110750000D01*
D63*
%TO.N,USB_D+*%
X154452574Y-101414796D02*
X162402574Y-93464796D01*
X164653953Y-93464796D02*
X165368749Y-92750000D01*
X148752297Y-101414796D02*
X154452574Y-101414796D01*
X162402574Y-93464796D02*
X164653953Y-93464796D01*
X165368749Y-92750000D02*
X166362500Y-92750000D01*
X148737501Y-101400000D02*
X148752297Y-101414796D01*
X147575000Y-101400000D02*
X148737501Y-101400000D01*
%TO.N,USB_D-*%
X148752297Y-101885204D02*
X154647426Y-101885204D01*
X164653953Y-93935204D02*
X165368749Y-94650000D01*
X147575000Y-101900000D02*
X148737501Y-101900000D01*
X148737501Y-101900000D02*
X148752297Y-101885204D01*
X162597426Y-93935204D02*
X164653953Y-93935204D01*
X154647426Y-101885204D02*
X162597426Y-93935204D01*
X165368749Y-94650000D02*
X166362500Y-94650000D01*
D61*
%TO.N,Net-(F1-Pad2)*%
X160025000Y-99750000D02*
X160025000Y-99725000D01*
X160025000Y-99725000D02*
X160250000Y-99950000D01*
D60*
X162075000Y-99750000D02*
X162275000Y-99950000D01*
D61*
X160250000Y-99950000D02*
X162275000Y-99950000D01*
%TD*%
%TA.AperFunction,Conductor*%
%TO.N,BUCK_SW*%
G36*
X154968984Y-108519685D02*
G01*
X155014739Y-108572489D01*
X155023560Y-108599803D01*
X155028374Y-108624000D01*
X155030263Y-108633497D01*
X155030263Y-108633498D01*
X155090602Y-108779172D01*
X155090609Y-108779185D01*
X155178210Y-108910288D01*
X155178213Y-108910292D01*
X155289707Y-109021786D01*
X155289711Y-109021789D01*
X155420814Y-109109390D01*
X155420827Y-109109397D01*
X155566498Y-109169735D01*
X155566503Y-109169737D01*
X155718644Y-109200000D01*
X155721153Y-109200499D01*
X155721156Y-109200500D01*
X155721158Y-109200500D01*
X155878844Y-109200500D01*
X155878845Y-109200499D01*
X156033497Y-109169737D01*
X156179179Y-109109394D01*
X156310289Y-109021789D01*
X156421789Y-108910289D01*
X156509394Y-108779179D01*
X156569737Y-108633497D01*
X156576438Y-108599807D01*
X156608822Y-108537899D01*
X156669537Y-108503324D01*
X156698055Y-108500000D01*
X157337271Y-108500000D01*
X157404310Y-108519685D01*
X157424952Y-108536319D01*
X157721580Y-108832948D01*
X157721584Y-108832951D01*
X157844498Y-108915080D01*
X157844511Y-108915087D01*
X157981082Y-108971656D01*
X157981087Y-108971658D01*
X157981091Y-108971658D01*
X157981092Y-108971659D01*
X158126079Y-109000500D01*
X158126082Y-109000500D01*
X158273917Y-109000500D01*
X159092672Y-109000500D01*
X159127267Y-109005424D01*
X159272426Y-109047597D01*
X159272429Y-109047597D01*
X159272431Y-109047598D01*
X159309306Y-109050500D01*
X159309314Y-109050500D01*
X159763500Y-109050500D01*
X159830539Y-109070185D01*
X159876294Y-109122989D01*
X159887500Y-109174500D01*
X159887500Y-109200000D01*
X160013500Y-109200000D01*
X160080539Y-109219685D01*
X160126294Y-109272489D01*
X160137500Y-109324000D01*
X160137500Y-110000000D01*
X160465634Y-110000000D01*
X160465649Y-109999999D01*
X160502489Y-109997100D01*
X160502495Y-109997099D01*
X160660193Y-109951283D01*
X160660196Y-109951282D01*
X160801552Y-109867685D01*
X160801561Y-109867678D01*
X160888319Y-109780921D01*
X160949642Y-109747436D01*
X161019334Y-109752420D01*
X161075267Y-109794292D01*
X161099684Y-109859756D01*
X161100000Y-109868602D01*
X161100000Y-116770923D01*
X161080315Y-116837962D01*
X161027511Y-116883717D01*
X160976226Y-116894923D01*
X158091695Y-116900186D01*
X158062126Y-116891562D01*
X158032042Y-116885018D01*
X158027163Y-116881365D01*
X158024620Y-116880624D01*
X158003788Y-116863867D01*
X157931015Y-116791094D01*
X157897530Y-116729771D01*
X157894697Y-116703186D01*
X157896204Y-115923322D01*
X158425001Y-115923322D01*
X158435144Y-116022607D01*
X158488452Y-116183481D01*
X158488457Y-116183492D01*
X158577424Y-116327728D01*
X158577427Y-116327732D01*
X158697267Y-116447572D01*
X158697271Y-116447575D01*
X158841507Y-116536542D01*
X158841518Y-116536547D01*
X159002393Y-116589855D01*
X159101683Y-116599999D01*
X159625000Y-116599999D01*
X159648308Y-116599999D01*
X159648322Y-116599998D01*
X159747607Y-116589855D01*
X159908481Y-116536547D01*
X159908492Y-116536542D01*
X160052728Y-116447575D01*
X160052732Y-116447572D01*
X160172572Y-116327732D01*
X160172575Y-116327728D01*
X160261542Y-116183492D01*
X160261547Y-116183481D01*
X160314855Y-116022606D01*
X160324999Y-115923322D01*
X160325000Y-115923309D01*
X160325000Y-115750000D01*
X159625000Y-115750000D01*
X159625000Y-116599999D01*
X159101683Y-116599999D01*
X159125000Y-116599998D01*
X159125000Y-115750000D01*
X158425001Y-115750000D01*
X158425001Y-115923322D01*
X157896204Y-115923322D01*
X157897841Y-115076677D01*
X158425000Y-115076677D01*
X158425000Y-115250000D01*
X159125000Y-115250000D01*
X159625000Y-115250000D01*
X160324999Y-115250000D01*
X160324999Y-115076692D01*
X160324998Y-115076677D01*
X160314855Y-114977392D01*
X160261547Y-114816518D01*
X160261542Y-114816507D01*
X160172575Y-114672271D01*
X160172572Y-114672267D01*
X160052732Y-114552427D01*
X160052728Y-114552424D01*
X159908492Y-114463457D01*
X159908481Y-114463452D01*
X159747606Y-114410144D01*
X159648322Y-114400000D01*
X159625000Y-114400000D01*
X159625000Y-115250000D01*
X159125000Y-115250000D01*
X159125000Y-114399999D01*
X159101693Y-114400000D01*
X159101674Y-114400001D01*
X159002392Y-114410144D01*
X158841518Y-114463452D01*
X158841507Y-114463457D01*
X158697271Y-114552424D01*
X158697267Y-114552427D01*
X158577427Y-114672267D01*
X158577424Y-114672271D01*
X158488457Y-114816507D01*
X158488452Y-114816518D01*
X158435144Y-114977393D01*
X158425000Y-115076677D01*
X157897841Y-115076677D01*
X157899998Y-113960510D01*
X157899997Y-113960509D01*
X152824942Y-113999051D01*
X152757755Y-113979877D01*
X152711600Y-113927422D01*
X152700000Y-113875055D01*
X152700000Y-113424986D01*
X158500001Y-113424986D01*
X158510494Y-113527697D01*
X158565641Y-113694119D01*
X158565643Y-113694124D01*
X158657684Y-113843345D01*
X158781654Y-113967315D01*
X158930875Y-114059356D01*
X158930880Y-114059358D01*
X159097302Y-114114505D01*
X159097309Y-114114506D01*
X159200019Y-114124999D01*
X159374999Y-114124999D01*
X159875000Y-114124999D01*
X160049972Y-114124999D01*
X160049986Y-114124998D01*
X160152697Y-114114505D01*
X160319119Y-114059358D01*
X160319124Y-114059356D01*
X160468345Y-113967315D01*
X160592315Y-113843345D01*
X160684356Y-113694124D01*
X160684358Y-113694119D01*
X160739505Y-113527697D01*
X160739506Y-113527690D01*
X160749999Y-113424986D01*
X160750000Y-113424973D01*
X160750000Y-113000000D01*
X159875000Y-113000000D01*
X159875000Y-114124999D01*
X159374999Y-114124999D01*
X159375000Y-114124998D01*
X159375000Y-113000000D01*
X158500001Y-113000000D01*
X158500001Y-113424986D01*
X152700000Y-113424986D01*
X152700000Y-112449986D01*
X153775001Y-112449986D01*
X153785494Y-112552697D01*
X153840641Y-112719119D01*
X153840643Y-112719124D01*
X153932684Y-112868345D01*
X154056654Y-112992315D01*
X154205875Y-113084356D01*
X154205880Y-113084358D01*
X154372302Y-113139505D01*
X154372309Y-113139506D01*
X154475019Y-113149999D01*
X155274999Y-113149999D01*
X155775000Y-113149999D01*
X156574972Y-113149999D01*
X156574986Y-113149998D01*
X156677697Y-113139505D01*
X156844119Y-113084358D01*
X156844124Y-113084356D01*
X156993345Y-112992315D01*
X157117315Y-112868345D01*
X157209356Y-112719124D01*
X157209358Y-112719119D01*
X157264505Y-112552697D01*
X157264506Y-112552690D01*
X157274999Y-112449986D01*
X157275000Y-112449973D01*
X157275000Y-112075013D01*
X158500000Y-112075013D01*
X158500000Y-112500000D01*
X159375000Y-112500000D01*
X159875000Y-112500000D01*
X160749999Y-112500000D01*
X160749999Y-112075028D01*
X160749998Y-112075013D01*
X160739505Y-111972302D01*
X160684358Y-111805880D01*
X160684356Y-111805875D01*
X160592315Y-111656654D01*
X160468345Y-111532684D01*
X160319124Y-111440643D01*
X160319119Y-111440641D01*
X160152697Y-111385494D01*
X160152690Y-111385493D01*
X160049986Y-111375000D01*
X159875000Y-111375000D01*
X159875000Y-112500000D01*
X159375000Y-112500000D01*
X159375000Y-111375000D01*
X159200029Y-111375000D01*
X159200012Y-111375001D01*
X159097302Y-111385494D01*
X158930880Y-111440641D01*
X158930875Y-111440643D01*
X158781654Y-111532684D01*
X158657684Y-111656654D01*
X158565643Y-111805875D01*
X158565641Y-111805880D01*
X158510494Y-111972302D01*
X158510493Y-111972309D01*
X158500000Y-112075013D01*
X157275000Y-112075013D01*
X157275000Y-111950000D01*
X155775000Y-111950000D01*
X155775000Y-113149999D01*
X155274999Y-113149999D01*
X155275000Y-113149998D01*
X155275000Y-111950000D01*
X153775001Y-111950000D01*
X153775001Y-112449986D01*
X152700000Y-112449986D01*
X152700000Y-110950013D01*
X153775000Y-110950013D01*
X153775000Y-111450000D01*
X155275000Y-111450000D01*
X155775000Y-111450000D01*
X157274999Y-111450000D01*
X157274999Y-110950028D01*
X157274998Y-110950013D01*
X157264505Y-110847302D01*
X157209358Y-110680880D01*
X157209356Y-110680875D01*
X157117315Y-110531654D01*
X156993345Y-110407684D01*
X156844124Y-110315643D01*
X156844119Y-110315641D01*
X156677697Y-110260494D01*
X156677690Y-110260493D01*
X156574986Y-110250000D01*
X155775000Y-110250000D01*
X155775000Y-111450000D01*
X155275000Y-111450000D01*
X155275000Y-110250000D01*
X154475028Y-110250000D01*
X154475012Y-110250001D01*
X154372302Y-110260494D01*
X154205880Y-110315641D01*
X154205875Y-110315643D01*
X154056654Y-110407684D01*
X153932684Y-110531654D01*
X153840643Y-110680875D01*
X153840641Y-110680880D01*
X153785494Y-110847302D01*
X153785493Y-110847309D01*
X153775000Y-110950013D01*
X152700000Y-110950013D01*
X152700000Y-109450001D01*
X158727704Y-109450001D01*
X158727899Y-109452486D01*
X158773718Y-109610198D01*
X158857314Y-109751552D01*
X158857321Y-109751561D01*
X158973438Y-109867678D01*
X158973447Y-109867685D01*
X159114803Y-109951282D01*
X159114806Y-109951283D01*
X159272504Y-109997099D01*
X159272510Y-109997100D01*
X159309350Y-109999999D01*
X159309366Y-110000000D01*
X159637500Y-110000000D01*
X159637500Y-109450000D01*
X158727705Y-109450000D01*
X158727704Y-109450001D01*
X152700000Y-109450001D01*
X152700000Y-108624000D01*
X152719685Y-108556961D01*
X152772489Y-108511206D01*
X152824000Y-108500000D01*
X154901945Y-108500000D01*
X154968984Y-108519685D01*
G37*
%TD.AperFunction*%
%TD*%
M02*
